<?xml version="1.0" encoding="UTF-8"?>
<svg xmlns="http://www.w3.org/2000/svg" xmlns:xlink="http://www.w3.org/1999/xlink" viewBox="0 0 1920 229">
  <defs>
    <linearGradient id="linear-gradient" x1="-3" y1="116.5" x2="1910" y2="116.5" gradientUnits="userSpaceOnUse">
      <stop offset=".06" stop-color="#a73a56"/>
      <stop offset="1" stop-color="#7c3e3e"/>
    </linearGradient>
    <linearGradient id="linear-gradient-2" x1="-3.5" y1="116.5" x2="1910.5" y2="116.5" gradientUnits="userSpaceOnUse">
      <stop offset="0" stop-color="#fff"/>
      <stop offset="1" stop-color="#231f20"/>
    </linearGradient>
    <linearGradient id="linear-gradient-3" x1="559.86" y1="218.26" x2="588.21" y2="191.27" gradientUnits="userSpaceOnUse">
      <stop offset="0" stop-color="#fff"/>
      <stop offset=".41" stop-color="#ee418b"/>
    </linearGradient>
    <linearGradient id="linear-gradient-4" x1="492.22" y1="89.16" x2="620.45" y2="123.07" xlink:href="#linear-gradient-3"/>
    <linearGradient id="linear-gradient-5" x1="543.02" y1="60.72" x2="644.72" y2="107.26" xlink:href="#linear-gradient-3"/>
    <linearGradient id="linear-gradient-6" x1="603.56" y1="58.74" x2="657.06" y2="58.74" xlink:href="#linear-gradient-3"/>
    <linearGradient id="linear-gradient-7" x1="662.06" y1="63.62" x2="702.44" y2="63.62" gradientUnits="userSpaceOnUse">
      <stop offset="0" stop-color="#fff"/>
      <stop offset=".09" stop-color="#f069a3"/>
      <stop offset=".68" stop-color="#ee418b"/>
    </linearGradient>
    <linearGradient id="linear-gradient-8" x1="673.7" y1="91.96" x2="729.61" y2="91.96" gradientUnits="userSpaceOnUse">
      <stop offset="0" stop-color="#fff"/>
      <stop offset=".38" stop-color="#f069a3"/>
      <stop offset=".55" stop-color="#ee418b"/>
    </linearGradient>
    <linearGradient id="linear-gradient-9" x1="669.31" y1="132.74" x2="733.63" y2="132.74" gradientUnits="userSpaceOnUse">
      <stop offset="0" stop-color="#fff"/>
      <stop offset=".25" stop-color="#f069a3"/>
      <stop offset=".52" stop-color="#ee418b"/>
    </linearGradient>
    <linearGradient id="linear-gradient-10" x1="514.92" y1="180.63" x2="582.36" y2="160.19" gradientUnits="userSpaceOnUse">
      <stop offset=".23" stop-color="#ed2490"/>
      <stop offset=".55" stop-color="#ee418b"/>
      <stop offset=".77" stop-color="#ee418b"/>
    </linearGradient>
    <linearGradient id="linear-gradient-11" x1="605.87" y1="217.39" x2="634.1" y2="186.16" xlink:href="#linear-gradient-10"/>
    <linearGradient id="linear-gradient-12" x1="1856.02" y1="239.37" x2="1884.37" y2="212.37" gradientUnits="userSpaceOnUse">
      <stop offset="0" stop-color="#fff"/>
      <stop offset=".41" stop-color="#efb0cb"/>
    </linearGradient>
    <linearGradient id="linear-gradient-13" x1="1788.38" y1="110.26" x2="1916.61" y2="144.17" xlink:href="#linear-gradient-12"/>
    <linearGradient id="linear-gradient-14" x1="1839.18" y1="81.82" x2="1940.88" y2="128.37" xlink:href="#linear-gradient-12"/>
    <linearGradient id="linear-gradient-15" x1="1899.72" y1="79.85" x2="1953.22" y2="79.85" xlink:href="#linear-gradient-12"/>
    <linearGradient id="linear-gradient-16" x1="1811.08" y1="201.74" x2="1878.52" y2="181.29" gradientUnits="userSpaceOnUse">
      <stop offset=".23" stop-color="#fcf3f8"/>
      <stop offset=".55" stop-color="#efb0cb"/>
      <stop offset=".77" stop-color="#efb0cb"/>
    </linearGradient>
    <linearGradient id="linear-gradient-17" x1="1902.03" y1="238.5" x2="1930.26" y2="207.27" xlink:href="#linear-gradient-16"/>
    <linearGradient id="linear-gradient-18" x1="992.02" y1="25.17" x2="1000.36" y2="17.22" xlink:href="#linear-gradient-12"/>
    <linearGradient id="linear-gradient-19" x1="972.11" y1="-12.83" x2="1009.85" y2="-2.85" xlink:href="#linear-gradient-12"/>
    <linearGradient id="linear-gradient-20" x1="987.06" y1="-21.2" x2="1016.99" y2="-7.5" xlink:href="#linear-gradient-12"/>
    <linearGradient id="linear-gradient-21" x1="1024.23" y1="0" x2="1043.15" y2="0" gradientUnits="userSpaceOnUse">
      <stop offset="0" stop-color="#fff"/>
      <stop offset=".25" stop-color="#f4ccdd"/>
      <stop offset=".52" stop-color="#efb0cb"/>
    </linearGradient>
    <linearGradient id="linear-gradient-22" x1="978.79" y1="14.09" x2="998.64" y2="8.08" xlink:href="#linear-gradient-16"/>
    <linearGradient id="linear-gradient-23" x1="1005.56" y1="24.91" x2="1013.86" y2="15.72" xlink:href="#linear-gradient-16"/>
    <linearGradient id="linear-gradient-24" x1="1017.89" y1="86.15" x2="1026.23" y2="78.2" xlink:href="#linear-gradient-12"/>
    <linearGradient id="linear-gradient-25" x1="997.98" y1="48.15" x2="1035.72" y2="58.13" xlink:href="#linear-gradient-12"/>
    <linearGradient id="linear-gradient-26" x1="1012.93" y1="39.78" x2="1042.86" y2="53.48" xlink:href="#linear-gradient-12"/>
    <linearGradient id="linear-gradient-27" x1="1030.75" y1="39.2" x2="1046.49" y2="39.2" xlink:href="#linear-gradient-12"/>
    <linearGradient id="linear-gradient-28" x1="1047.96" y1="40.64" x2="1059.84" y2="40.64" gradientUnits="userSpaceOnUse">
      <stop offset="0" stop-color="#fff"/>
      <stop offset=".09" stop-color="#f4ccdd"/>
      <stop offset=".68" stop-color="#efb0cb"/>
    </linearGradient>
    <linearGradient id="linear-gradient-29" x1="1051.39" y1="48.98" x2="1067.84" y2="48.98" gradientUnits="userSpaceOnUse">
      <stop offset="0" stop-color="#fff"/>
      <stop offset=".38" stop-color="#f4ccdd"/>
      <stop offset=".55" stop-color="#efb0cb"/>
    </linearGradient>
    <linearGradient id="linear-gradient-30" x1="1050.1" y1="60.98" x2="1069.02" y2="60.98" xlink:href="#linear-gradient-21"/>
    <linearGradient id="linear-gradient-31" x1="1004.66" y1="75.07" x2="1024.51" y2="69.06" xlink:href="#linear-gradient-16"/>
    <linearGradient id="linear-gradient-32" x1="1031.43" y1="85.89" x2="1039.73" y2="76.7" xlink:href="#linear-gradient-16"/>
    <linearGradient id="linear-gradient-33" x1="1048.38" y1="148.05" x2="1056.72" y2="140.11" xlink:href="#linear-gradient-12"/>
    <linearGradient id="linear-gradient-34" x1="1028.47" y1="110.06" x2="1066.21" y2="120.04" xlink:href="#linear-gradient-12"/>
    <linearGradient id="linear-gradient-35" x1="1043.42" y1="101.69" x2="1073.35" y2="115.39" xlink:href="#linear-gradient-12"/>
    <linearGradient id="linear-gradient-36" x1="1061.24" y1="101.11" x2="1076.98" y2="101.11" xlink:href="#linear-gradient-12"/>
    <linearGradient id="linear-gradient-37" x1="1078.45" y1="102.54" x2="1090.33" y2="102.54" xlink:href="#linear-gradient-28"/>
    <linearGradient id="linear-gradient-38" x1="1081.88" y1="110.88" x2="1098.33" y2="110.88" xlink:href="#linear-gradient-29"/>
    <linearGradient id="linear-gradient-39" x1="1080.59" y1="122.88" x2="1099.51" y2="122.88" xlink:href="#linear-gradient-21"/>
    <linearGradient id="linear-gradient-40" x1="1035.15" y1="136.98" x2="1055" y2="130.96" xlink:href="#linear-gradient-16"/>
    <linearGradient id="linear-gradient-41" x1="1061.92" y1="147.8" x2="1070.22" y2="138.61" xlink:href="#linear-gradient-16"/>
    <linearGradient id="linear-gradient-42" x1="1075.17" y1="203.49" x2="1083.51" y2="195.54" xlink:href="#linear-gradient-12"/>
    <linearGradient id="linear-gradient-43" x1="1055.27" y1="165.5" x2="1093" y2="175.47" xlink:href="#linear-gradient-12"/>
    <linearGradient id="linear-gradient-44" x1="1070.22" y1="157.13" x2="1100.14" y2="170.82" xlink:href="#linear-gradient-12"/>
    <linearGradient id="linear-gradient-45" x1="1088.03" y1="156.54" x2="1103.77" y2="156.54" xlink:href="#linear-gradient-12"/>
    <linearGradient id="linear-gradient-46" x1="1105.25" y1="157.98" x2="1117.13" y2="157.98" xlink:href="#linear-gradient-28"/>
    <linearGradient id="linear-gradient-47" x1="1108.67" y1="166.32" x2="1125.13" y2="166.32" xlink:href="#linear-gradient-29"/>
    <linearGradient id="linear-gradient-48" x1="1107.38" y1="178.32" x2="1126.31" y2="178.32" xlink:href="#linear-gradient-21"/>
    <linearGradient id="linear-gradient-49" x1="1061.95" y1="192.41" x2="1081.79" y2="186.4" xlink:href="#linear-gradient-16"/>
    <linearGradient id="linear-gradient-50" x1="1088.71" y1="203.23" x2="1097.02" y2="194.04" xlink:href="#linear-gradient-16"/>
    <linearGradient id="linear-gradient-51" x1="1095" y1="220.93" x2="1132.73" y2="230.91" xlink:href="#linear-gradient-12"/>
    <linearGradient id="linear-gradient-52" x1="1109.95" y1="212.56" x2="1139.87" y2="226.26" xlink:href="#linear-gradient-12"/>
    <linearGradient id="linear-gradient-53" x1="1127.76" y1="211.98" x2="1143.5" y2="211.98" xlink:href="#linear-gradient-12"/>
    <linearGradient id="linear-gradient-54" x1="1144.98" y1="213.42" x2="1156.86" y2="213.42" xlink:href="#linear-gradient-28"/>
    <linearGradient id="linear-gradient-55" x1="1148.4" y1="221.76" x2="1164.86" y2="221.76" xlink:href="#linear-gradient-29"/>
    <linearGradient id="linear-gradient-56" x1="1147.11" y1="233.76" x2="1166.04" y2="233.76" xlink:href="#linear-gradient-21"/>
    <linearGradient id="linear-gradient-57" x1="-.98" y1="168.37" x2="27.37" y2="141.37" xlink:href="#linear-gradient-12"/>
    <linearGradient id="linear-gradient-58" x1="-68.62" y1="39.26" x2="59.61" y2="73.17" xlink:href="#linear-gradient-12"/>
    <linearGradient id="linear-gradient-59" x1="-17.82" y1="10.82" x2="83.88" y2="57.37" xlink:href="#linear-gradient-12"/>
    <linearGradient id="linear-gradient-60" x1="42.72" y1="8.85" x2="96.22" y2="8.85" xlink:href="#linear-gradient-12"/>
    <linearGradient id="linear-gradient-61" x1="101.22" y1="13.72" x2="141.6" y2="13.72" xlink:href="#linear-gradient-28"/>
    <linearGradient id="linear-gradient-62" x1="112.87" y1="42.07" x2="168.77" y2="42.07" xlink:href="#linear-gradient-29"/>
    <linearGradient id="linear-gradient-63" x1="108.47" y1="82.85" x2="172.79" y2="82.85" xlink:href="#linear-gradient-21"/>
    <linearGradient id="linear-gradient-64" x1="-45.92" y1="130.74" x2="21.52" y2="110.29" xlink:href="#linear-gradient-16"/>
    <linearGradient id="linear-gradient-65" x1="45.03" y1="167.5" x2="73.26" y2="136.27" xlink:href="#linear-gradient-16"/>
  </defs>
  <g isolation="isolate">
    <g id="Layer_2" data-name="Layer 2">
      <rect x="-3" y="4.5" width="1913" height="224" fill="url(#linear-gradient)" stroke="url(#linear-gradient-2)" stroke-miterlimit="10"/>
      <g id="flor2" mix-blend-mode="multiply">
        <path d="m617.35,159.15c-.75-.96-3.05-.11-10.06,2.46-24.34,8.93-28.45,10.41-33.99,15.21-3.76,3.25-6.08,5.26-8.05,8.95-6.67,12.48-3.11,32.76,7.83,36.68,6.21,2.22,14.27-1,19.01-6.04,7.53-8.01,2.04-15.73,7.83-30.64,6.27-16.16,19.36-24.16,17.44-26.61Z" fill="url(#linear-gradient-3)" stroke="#d3d3d3" stroke-miterlimit="10" stroke-width=".91"/>
        <path d="m661.4,133.88c.71.59,12.61,10.7,10.06,22.81-.18.87-.91,3.99-3.35,7.16-4.58,5.95-14.19,10.77-22.81,6.93-8.73-3.89-10.4-13.98-10.51-14.76,4.75-3.63,9.6-7.5,14.54-11.63,4.22-3.53,8.25-7.05,12.08-10.51Z" fill="#ee418b" stroke="#d3d3d3" stroke-miterlimit="10" stroke-width=".91"/>
        <path id="Petala7" d="m625.85,151.77c-29.62-23.77-41.46-39.4-46.52-49.65-.48-.97-1.72-3.56-3.8-6.93-3.93-6.37-13.09-21.23-27.73-26.39-15.41-5.43-36.06.19-37.79,8.27-1.3,6.08,8.88,9.81,26.61,26.84,20.88,20.04,20.16,27.72,32.87,36.9,9.93,7.17,26.79,14.33,56.36,10.96Z" fill="url(#linear-gradient-4)" stroke="#d3d3d3" stroke-miterlimit="10" stroke-width=".91"/>
        <path id="Petala6" d="m558.08,24.08c28.05,11.3,46.02,26.84,55.91,36.9,9.03,9.18,20.31,20.92,26.39,39.81,3.97,12.32,9.02,37.96-.22,43.39-11.19,6.56-40.15-18.37-56.58-41.6-20.65-29.2-24.75-60.32-25.49-78.5Z" fill="url(#linear-gradient-5)" stroke="#d3d3d3" stroke-miterlimit="10" stroke-width=".91"/>
        <path id="Petala5" d="m654.92,129.64c8.27-12.27,16.86-29.77,12.52-47.86-.75-3.12-1.15-3.21-7.16-17-10.1-23.18-15.19-34.98-17-45.17-1.28-7.21-2.18-17.98.45-31.76-5.7,1.4-31.44,8.28-38.47,28.63-3.66,10.59-.76,20.53,2.24,29.07,6.06,17.27,18.89,46.98,47.41,84.09Z" fill="url(#linear-gradient-6)" stroke="#d3d3d3" stroke-miterlimit="10" stroke-width=".91"/>
        <path id="Petala4" d="m671.92,115.77c11.15-20.04,18.25-37.74,22.81-50.99,10.79-31.32,8.22-40.13,4.47-45.17-4.08-5.5-11.19-8.75-17.44-8.05-11.82,1.31-19.32,16.57-19.68,28.18-.21,6.72,1.99,11.77,2.68,13.42,4.49,10.68,8.8,29.06,7.16,62.62Z" fill="url(#linear-gradient-7)" stroke="#d3d3d3" stroke-miterlimit="10" stroke-width=".91"/>
        <path id="Petala3" d="m673.7,121.14c26-51.04,38.99-59.92,46.07-58.14,7.08,1.78,11.26,15,9.39,24.6-3.52,18.06-29.03,26.33-40.25,29.97-6.16,1.99-11.47,3.02-15.21,3.58Z" fill="url(#linear-gradient-8)" stroke="#d3d3d3" stroke-miterlimit="10" stroke-width=".91"/>
        <path id="Petala2" d="m669.31,129.63c11.44-.56,23.1-2.93,34.44-8.05,12.19-5.51,18.24-11.59,23.71-8.95,5.82,2.82,7.68,13.93,4.92,21.92-4.9,14.18-25.92,23.07-42.49,17-14.08-5.16-19.56-19.16-20.57-21.92Z" fill="url(#linear-gradient-9)" stroke="#d3d3d3" stroke-miterlimit="10" stroke-width=".91"/>
        <path id="Petala1" d="m596.33,157.59c-5.14.31-16.89,6.85-32.65,24.38-5.18,5.76-7.07,9.81-12.75,11.41-7.33,2.06-16.33-1.29-21.25-7.38-7.77-9.62-5.05-25.69,2.91-33.1,6.39-5.94,19.39-4.19,45.4-.67,15.74,2.13,21.08,5.2,18.34,5.37Z" fill="url(#linear-gradient-10)" stroke="#e5e5e5" stroke-miterlimit="10" stroke-width=".91"/>
        <path d="m630.54,159.14c0-5.99-13.77,7.63-20.28,16.9-3.72,5.3-5.48,10.07-6.76,13.52-3.04,8.22-5.07,13.72-3.38,20.28.3,1.16,2.48,9.09,10.14,13.52,7.43,4.3,19.64,5.1,27.04-3.38,4.63-5.31,6.76-13.52,0-27.03-.92-1.83-1.39-3.19-1.71-4.56-.53-2.23-.66-4.51-1.67-8.96-1.92-8.49-3.38-13.52-3.38-20.28Z" fill="url(#linear-gradient-11)" stroke="#e5e5e5" stroke-miterlimit="10" stroke-width=".91"/>
      </g>
      <g id="flor1" mix-blend-mode="multiply" opacity=".24">
        <path d="m1913.51,180.26c-.75-.96-3.05-.11-10.06,2.46-24.34,8.93-28.45,10.41-33.99,15.21-3.76,3.25-6.08,5.26-8.05,8.95-6.67,12.48-3.11,32.76,7.83,36.68,6.21,2.22,14.27-1,19.01-6.04,7.53-8.01,2.04-15.73,7.83-30.64,6.27-16.16,19.36-24.16,17.44-26.61Z" fill="url(#linear-gradient-12)" stroke="#d3d3d3" stroke-miterlimit="10" stroke-width=".91"/>
        <path id="Petala7-2" data-name="Petala7" d="m1922.01,172.88c-29.62-23.77-41.46-39.4-46.52-49.65-.48-.97-1.72-3.56-3.8-6.93-3.93-6.37-13.09-21.23-27.73-26.39-15.41-5.43-36.06.19-37.79,8.27-1.3,6.08,8.88,9.81,26.61,26.84,20.88,20.04,20.16,27.72,32.87,36.9,9.93,7.17,26.79,14.33,56.36,10.96Z" fill="url(#linear-gradient-13)" stroke="#d3d3d3" stroke-miterlimit="10" stroke-width=".91"/>
        <path id="Petala6-2" data-name="Petala6" d="m1854.25,45.19c28.05,11.3,46.02,26.84,55.91,36.9,9.03,9.18,20.31,20.92,26.39,39.81,3.97,12.32,9.02,37.96-.22,43.39-11.19,6.56-40.15-18.37-56.58-41.6-20.65-29.2-24.75-60.32-25.49-78.5Z" fill="url(#linear-gradient-14)" stroke="#d3d3d3" stroke-miterlimit="10" stroke-width=".91"/>
        <path id="Petala5-2" data-name="Petala5" d="m1951.08,150.74c8.27-12.27,16.86-29.77,12.52-47.86-.75-3.12-1.15-3.21-7.16-17-10.1-23.18-15.19-34.98-17-45.17-1.28-7.21-2.18-17.98.45-31.76-5.7,1.4-31.44,8.28-38.47,28.63-3.66,10.59-.76,20.53,2.24,29.07,6.06,17.27,18.89,46.98,47.41,84.09Z" fill="url(#linear-gradient-15)" stroke="#d3d3d3" stroke-miterlimit="10" stroke-width=".91"/>
        <path id="Petala1-2" data-name="Petala1" d="m1892.49,178.7c-5.14.31-16.89,6.85-32.65,24.38-5.18,5.76-7.07,9.81-12.75,11.41-7.33,2.06-16.33-1.29-21.25-7.38-7.77-9.62-5.05-25.69,2.91-33.1,6.39-5.94,19.39-4.19,45.4-.67,15.74,2.13,21.08,5.2,18.34,5.37Z" fill="url(#linear-gradient-16)" stroke="#e5e5e5" stroke-miterlimit="10" stroke-width=".91"/>
        <path d="m1926.7,180.25c0-5.99-13.77,7.63-20.28,16.9-3.72,5.3-5.48,10.07-6.76,13.52-3.04,8.22-5.07,13.72-3.38,20.28.3,1.16,2.48,9.09,10.14,13.52,7.43,4.3,19.64,5.1,27.04-3.38,4.63-5.31,6.76-13.52,0-27.03-.92-1.83-1.39-3.19-1.71-4.56-.53-2.23-.66-4.51-1.67-8.96-1.92-8.49-3.38-13.52-3.38-20.28Z" fill="url(#linear-gradient-17)" stroke="#e5e5e5" stroke-miterlimit="10" stroke-width=".91"/>
      </g>
      <g id="petalas">
        <path d="m1008.93,7.77c-.22-.28-.9-.03-2.96.72-7.16,2.63-8.37,3.06-10,4.48-1.11.96-1.79,1.55-2.37,2.63-1.96,3.67-.92,9.64,2.3,10.79,1.83.65,4.2-.29,5.59-1.78,2.22-2.36.6-4.63,2.3-9.02,1.85-4.75,5.7-7.11,5.13-7.83Z" fill="url(#linear-gradient-18)" stroke="#d3d3d3" stroke-miterlimit="10" stroke-width=".27"/>
        <path d="m1021.9.34c.21.17,3.71,3.15,2.96,6.71-.05.26-.27,1.17-.99,2.11-1.35,1.75-4.18,3.17-6.71,2.04-2.57-1.15-3.06-4.11-3.09-4.34,1.4-1.07,2.83-2.21,4.28-3.42,1.24-1.04,2.43-2.07,3.55-3.09Z" fill="#efb0cb" stroke="#d3d3d3" stroke-miterlimit="10" stroke-width=".27"/>
        <path id="Petala7-3" data-name="Petala7" d="m1011.43,5.6c-8.72-6.99-12.2-11.6-13.69-14.61-.14-.29-.51-1.05-1.12-2.04-1.16-1.87-3.85-6.25-8.16-7.77-4.54-1.6-10.61.05-11.12,2.44-.38,1.79,2.61,2.89,7.83,7.9,6.14,5.9,5.93,8.16,9.67,10.86,2.92,2.11,7.89,4.22,16.58,3.22Z" fill="url(#linear-gradient-19)" stroke="#d3d3d3" stroke-miterlimit="10" stroke-width=".27"/>
        <path id="Petala6-3" data-name="Petala6" d="m991.49-31.98c8.26,3.33,13.54,7.9,16.45,10.86,2.66,2.7,5.98,6.16,7.77,11.71,1.17,3.63,2.65,11.17-.07,12.77-3.29,1.93-11.82-5.4-16.65-12.24-6.08-8.59-7.28-17.75-7.5-23.1Z" fill="url(#linear-gradient-20)" stroke="#d3d3d3" stroke-miterlimit="10" stroke-width=".27"/>
        <path id="Petala2-2" data-name="Petala2" d="m1024.23-.92c3.37-.16,6.8-.86,10.14-2.37,3.59-1.62,5.37-3.41,6.98-2.63,1.71.83,2.26,4.1,1.45,6.45-1.44,4.17-7.63,6.79-12.5,5-4.14-1.52-5.76-5.64-6.05-6.45Z" fill="url(#linear-gradient-21)" stroke="#d3d3d3" stroke-miterlimit="10" stroke-width=".27"/>
        <path id="Petala1-3" data-name="Petala1" d="m1002.75,7.31c-1.51.09-4.97,2.02-9.61,7.17-1.52,1.7-2.08,2.89-3.75,3.36-2.16.61-4.8-.38-6.25-2.17-2.29-2.83-1.49-7.56.86-9.74,1.88-1.75,5.71-1.23,13.36-.2,4.63.63,6.2,1.53,5.4,1.58Z" fill="url(#linear-gradient-22)" stroke="#e5e5e5" stroke-miterlimit="10" stroke-width=".27"/>
        <path d="m1012.82,7.77c0-1.76-4.05,2.24-5.97,4.97-1.1,1.56-1.61,2.96-1.99,3.98-.89,2.42-1.49,4.04-.99,5.97.09.34.73,2.67,2.98,3.98,2.19,1.27,5.78,1.5,7.96-.99,1.36-1.56,1.99-3.98,0-7.96-.27-.54-.41-.94-.5-1.34-.16-.66-.19-1.33-.49-2.64-.56-2.5-.99-3.98-.99-5.97Z" fill="url(#linear-gradient-23)" stroke="#e5e5e5" stroke-miterlimit="10" stroke-width=".27"/>
      </g>
      <g id="petalas-2" data-name="petalas">
        <path d="m1034.8,68.75c-.22-.28-.9-.03-2.96.72-7.16,2.63-8.37,3.06-10,4.48-1.11.96-1.79,1.55-2.37,2.63-1.96,3.67-.92,9.64,2.3,10.79,1.83.65,4.2-.29,5.59-1.78,2.22-2.36.6-4.63,2.3-9.02,1.85-4.75,5.7-7.11,5.13-7.83Z" fill="url(#linear-gradient-24)" stroke="#d3d3d3" stroke-miterlimit="10" stroke-width=".27"/>
        <path d="m1047.77,61.32c.21.17,3.71,3.15,2.96,6.71-.05.26-.27,1.17-.99,2.11-1.35,1.75-4.18,3.17-6.71,2.04-2.57-1.15-3.06-4.11-3.09-4.34,1.4-1.07,2.83-2.21,4.28-3.42,1.24-1.04,2.43-2.07,3.55-3.09Z" fill="#efb0cb" stroke="#d3d3d3" stroke-miterlimit="10" stroke-width=".27"/>
        <path id="Petala7-4" data-name="Petala7" d="m1037.31,66.58c-8.72-6.99-12.2-11.6-13.69-14.61-.14-.29-.51-1.05-1.12-2.04-1.16-1.87-3.85-6.25-8.16-7.77-4.54-1.6-10.61.05-11.12,2.44-.38,1.79,2.61,2.89,7.83,7.9,6.14,5.9,5.93,8.16,9.67,10.86,2.92,2.11,7.89,4.22,16.58,3.22Z" fill="url(#linear-gradient-25)" stroke="#d3d3d3" stroke-miterlimit="10" stroke-width=".27"/>
        <path id="Petala6-4" data-name="Petala6" d="m1017.36,29c8.26,3.33,13.54,7.9,16.45,10.86,2.66,2.7,5.98,6.16,7.77,11.71,1.17,3.63,2.65,11.17-.07,12.77-3.29,1.93-11.82-5.4-16.65-12.24-6.08-8.59-7.28-17.75-7.5-23.1Z" fill="url(#linear-gradient-26)" stroke="#d3d3d3" stroke-miterlimit="10" stroke-width=".27"/>
        <path id="Petala5-3" data-name="Petala5" d="m1045.86,60.07c2.43-3.61,4.96-8.76,3.69-14.08-.22-.92-.34-.94-2.11-5-2.97-6.82-4.47-10.29-5-13.29-.38-2.12-.64-5.29.13-9.35-1.68.41-9.25,2.44-11.32,8.42-1.08,3.12-.22,6.04.66,8.56,1.78,5.08,5.56,13.82,13.95,24.75Z" fill="url(#linear-gradient-27)" stroke="#d3d3d3" stroke-miterlimit="10" stroke-width=".27"/>
        <path id="Petala4-2" data-name="Petala4" d="m1050.86,55.99c3.28-5.9,5.37-11.11,6.71-15.01,3.17-9.22,2.42-11.81,1.32-13.29-1.2-1.62-3.29-2.57-5.13-2.37-3.48.39-5.69,4.88-5.79,8.29-.06,1.98.59,3.46.79,3.95,1.32,3.14,2.59,8.55,2.11,18.43Z" fill="url(#linear-gradient-28)" stroke="#d3d3d3" stroke-miterlimit="10" stroke-width=".27"/>
        <path id="Petala3-2" data-name="Petala3" d="m1051.39,57.57c7.65-15.02,11.47-17.63,13.56-17.11,2.08.52,3.31,4.41,2.76,7.24-1.04,5.32-8.54,7.75-11.85,8.82-1.81.59-3.38.89-4.48,1.05Z" fill="url(#linear-gradient-29)" stroke="#d3d3d3" stroke-miterlimit="10" stroke-width=".27"/>
        <path id="Petala2-3" data-name="Petala2" d="m1050.1,60.06c3.37-.16,6.8-.86,10.14-2.37,3.59-1.62,5.37-3.41,6.98-2.63,1.71.83,2.26,4.1,1.45,6.45-1.44,4.17-7.63,6.79-12.5,5-4.14-1.52-5.76-5.64-6.05-6.45Z" fill="url(#linear-gradient-30)" stroke="#d3d3d3" stroke-miterlimit="10" stroke-width=".27"/>
        <path id="Petala1-4" data-name="Petala1" d="m1028.62,68.29c-1.51.09-4.97,2.02-9.61,7.17-1.52,1.7-2.08,2.89-3.75,3.36-2.16.61-4.8-.38-6.25-2.17-2.29-2.83-1.49-7.56.86-9.74,1.88-1.75,5.71-1.23,13.36-.2,4.63.63,6.2,1.53,5.4,1.58Z" fill="url(#linear-gradient-31)" stroke="#e5e5e5" stroke-miterlimit="10" stroke-width=".27"/>
        <path d="m1038.69,68.75c0-1.76-4.05,2.24-5.97,4.97-1.1,1.56-1.61,2.96-1.99,3.98-.89,2.42-1.49,4.04-.99,5.97.09.34.73,2.67,2.98,3.98,2.19,1.27,5.78,1.5,7.96-.99,1.36-1.56,1.99-3.98,0-7.96-.27-.54-.41-.94-.5-1.34-.16-.66-.19-1.33-.49-2.64-.56-2.5-.99-3.98-.99-5.97Z" fill="url(#linear-gradient-32)" stroke="#e5e5e5" stroke-miterlimit="10" stroke-width=".27"/>
      </g>
      <g id="petalas-3" data-name="petalas">
        <path d="m1065.29,130.66c-.22-.28-.9-.03-2.96.72-7.16,2.63-8.37,3.06-10,4.48-1.11.96-1.79,1.55-2.37,2.63-1.96,3.67-.92,9.64,2.3,10.79,1.83.65,4.2-.29,5.59-1.78,2.22-2.36.6-4.63,2.3-9.02,1.85-4.75,5.7-7.11,5.13-7.83Z" fill="url(#linear-gradient-33)" stroke="#d3d3d3" stroke-miterlimit="10" stroke-width=".27"/>
        <path d="m1078.26,123.22c.21.17,3.71,3.15,2.96,6.71-.05.26-.27,1.17-.99,2.11-1.35,1.75-4.18,3.17-6.71,2.04-2.57-1.15-3.06-4.11-3.09-4.34,1.4-1.07,2.83-2.21,4.28-3.42,1.24-1.04,2.43-2.07,3.55-3.09Z" fill="#efb0cb" stroke="#d3d3d3" stroke-miterlimit="10" stroke-width=".27"/>
        <path id="Petala7-5" data-name="Petala7" d="m1067.8,128.49c-8.72-6.99-12.2-11.6-13.69-14.61-.14-.29-.51-1.05-1.12-2.04-1.16-1.87-3.85-6.25-8.16-7.77-4.54-1.6-10.61.05-11.12,2.44-.38,1.79,2.61,2.89,7.83,7.9,6.14,5.9,5.93,8.16,9.67,10.86,2.92,2.11,7.89,4.22,16.58,3.22Z" fill="url(#linear-gradient-34)" stroke="#d3d3d3" stroke-miterlimit="10" stroke-width=".27"/>
        <path id="Petala6-5" data-name="Petala6" d="m1047.85,90.91c8.26,3.33,13.54,7.9,16.45,10.86,2.66,2.7,5.98,6.16,7.77,11.71,1.17,3.63,2.65,11.17-.07,12.77-3.29,1.93-11.82-5.4-16.65-12.24-6.08-8.59-7.28-17.75-7.5-23.1Z" fill="url(#linear-gradient-35)" stroke="#d3d3d3" stroke-miterlimit="10" stroke-width=".27"/>
        <path id="Petala5-4" data-name="Petala5" d="m1076.35,121.97c2.43-3.61,4.96-8.76,3.69-14.08-.22-.92-.34-.94-2.11-5-2.97-6.82-4.47-10.29-5-13.29-.38-2.12-.64-5.29.13-9.35-1.68.41-9.25,2.44-11.32,8.42-1.08,3.12-.22,6.04.66,8.56,1.78,5.08,5.56,13.82,13.95,24.75Z" fill="url(#linear-gradient-36)" stroke="#d3d3d3" stroke-miterlimit="10" stroke-width=".27"/>
        <path id="Petala4-3" data-name="Petala4" d="m1081.35,117.89c3.28-5.9,5.37-11.11,6.71-15.01,3.17-9.22,2.42-11.81,1.32-13.29-1.2-1.62-3.29-2.57-5.13-2.37-3.48.39-5.69,4.88-5.79,8.29-.06,1.98.59,3.46.79,3.95,1.32,3.14,2.59,8.55,2.11,18.43Z" fill="url(#linear-gradient-37)" stroke="#d3d3d3" stroke-miterlimit="10" stroke-width=".27"/>
        <path id="Petala3-3" data-name="Petala3" d="m1081.88,119.47c7.65-15.02,11.47-17.63,13.56-17.11,2.08.52,3.31,4.41,2.76,7.24-1.04,5.32-8.54,7.75-11.85,8.82-1.81.59-3.38.89-4.48,1.05Z" fill="url(#linear-gradient-38)" stroke="#d3d3d3" stroke-miterlimit="10" stroke-width=".27"/>
        <path id="Petala2-4" data-name="Petala2" d="m1080.59,121.97c3.37-.16,6.8-.86,10.14-2.37,3.59-1.62,5.37-3.41,6.98-2.63,1.71.83,2.26,4.1,1.45,6.45-1.44,4.17-7.63,6.79-12.5,5-4.14-1.52-5.76-5.64-6.05-6.45Z" fill="url(#linear-gradient-39)" stroke="#d3d3d3" stroke-miterlimit="10" stroke-width=".27"/>
        <path id="Petala1-5" data-name="Petala1" d="m1059.11,130.2c-1.51.09-4.97,2.02-9.61,7.17-1.52,1.7-2.08,2.89-3.75,3.36-2.16.61-4.8-.38-6.25-2.17-2.29-2.83-1.49-7.56.86-9.74,1.88-1.75,5.71-1.23,13.36-.2,4.63.63,6.2,1.53,5.4,1.58Z" fill="url(#linear-gradient-40)" stroke="#e5e5e5" stroke-miterlimit="10" stroke-width=".27"/>
        <path d="m1069.18,130.65c0-1.76-4.05,2.24-5.97,4.97-1.1,1.56-1.61,2.96-1.99,3.98-.89,2.42-1.49,4.04-.99,5.97.09.34.73,2.67,2.98,3.98,2.19,1.27,5.78,1.5,7.96-.99,1.36-1.56,1.99-3.98,0-7.96-.27-.54-.41-.94-.5-1.34-.16-.66-.19-1.33-.49-2.64-.56-2.5-.99-3.98-.99-5.97Z" fill="url(#linear-gradient-41)" stroke="#e5e5e5" stroke-miterlimit="10" stroke-width=".27"/>
      </g>
      <g id="petalas-4" data-name="petalas">
        <path d="m1092.09,186.09c-.22-.28-.9-.03-2.96.72-7.16,2.63-8.37,3.06-10,4.48-1.11.96-1.79,1.55-2.37,2.63-1.96,3.67-.92,9.64,2.3,10.79,1.83.65,4.2-.29,5.59-1.78,2.22-2.36.6-4.63,2.3-9.02,1.85-4.75,5.7-7.11,5.13-7.83Z" fill="url(#linear-gradient-42)" stroke="#d3d3d3" stroke-miterlimit="10" stroke-width=".27"/>
        <path d="m1105.05,178.66c.21.17,3.71,3.15,2.96,6.71-.05.26-.27,1.17-.99,2.11-1.35,1.75-4.18,3.17-6.71,2.04-2.57-1.15-3.06-4.11-3.09-4.34,1.4-1.07,2.83-2.21,4.28-3.42,1.24-1.04,2.43-2.07,3.55-3.09Z" fill="#efb0cb" stroke="#d3d3d3" stroke-miterlimit="10" stroke-width=".27"/>
        <path id="Petala7-6" data-name="Petala7" d="m1094.59,183.92c-8.72-6.99-12.2-11.6-13.69-14.61-.14-.29-.51-1.05-1.12-2.04-1.16-1.87-3.85-6.25-8.16-7.77-4.54-1.6-10.61.05-11.12,2.44-.38,1.79,2.61,2.89,7.83,7.9,6.14,5.9,5.93,8.16,9.67,10.86,2.92,2.11,7.89,4.22,16.58,3.22Z" fill="url(#linear-gradient-43)" stroke="#d3d3d3" stroke-miterlimit="10" stroke-width=".27"/>
        <path id="Petala6-6" data-name="Petala6" d="m1074.65,146.34c8.26,3.33,13.54,7.9,16.45,10.86,2.66,2.7,5.98,6.16,7.77,11.71,1.17,3.63,2.65,11.17-.07,12.77-3.29,1.93-11.82-5.4-16.65-12.24-6.08-8.59-7.28-17.75-7.5-23.1Z" fill="url(#linear-gradient-44)" stroke="#d3d3d3" stroke-miterlimit="10" stroke-width=".27"/>
        <path id="Petala5-5" data-name="Petala5" d="m1103.15,177.41c2.43-3.61,4.96-8.76,3.69-14.08-.22-.92-.34-.94-2.11-5-2.97-6.82-4.47-10.29-5-13.29-.38-2.12-.64-5.29.13-9.35-1.68.41-9.25,2.44-11.32,8.42-1.08,3.12-.22,6.04.66,8.56,1.78,5.08,5.56,13.82,13.95,24.75Z" fill="url(#linear-gradient-45)" stroke="#d3d3d3" stroke-miterlimit="10" stroke-width=".27"/>
        <path id="Petala4-4" data-name="Petala4" d="m1108.15,173.33c3.28-5.9,5.37-11.11,6.71-15.01,3.17-9.22,2.42-11.81,1.32-13.29-1.2-1.62-3.29-2.57-5.13-2.37-3.48.39-5.69,4.88-5.79,8.29-.06,1.98.59,3.46.79,3.95,1.32,3.14,2.59,8.55,2.11,18.43Z" fill="url(#linear-gradient-46)" stroke="#d3d3d3" stroke-miterlimit="10" stroke-width=".27"/>
        <path id="Petala3-4" data-name="Petala3" d="m1108.67,174.91c7.65-15.02,11.47-17.63,13.56-17.11,2.08.52,3.31,4.41,2.76,7.24-1.04,5.32-8.54,7.75-11.85,8.82-1.81.59-3.38.89-4.48,1.05Z" fill="url(#linear-gradient-47)" stroke="#d3d3d3" stroke-miterlimit="10" stroke-width=".27"/>
        <path id="Petala2-5" data-name="Petala2" d="m1107.38,177.41c3.37-.16,6.8-.86,10.14-2.37,3.59-1.62,5.37-3.41,6.98-2.63,1.71.83,2.26,4.1,1.45,6.45-1.44,4.17-7.63,6.79-12.5,5-4.14-1.52-5.76-5.64-6.05-6.45Z" fill="url(#linear-gradient-48)" stroke="#d3d3d3" stroke-miterlimit="10" stroke-width=".27"/>
        <path id="Petala1-6" data-name="Petala1" d="m1085.9,185.63c-1.51.09-4.97,2.02-9.61,7.17-1.52,1.7-2.08,2.89-3.75,3.36-2.16.61-4.8-.38-6.25-2.17-2.29-2.83-1.49-7.56.86-9.74,1.88-1.75,5.71-1.23,13.36-.2,4.63.63,6.2,1.53,5.4,1.58Z" fill="url(#linear-gradient-49)" stroke="#e5e5e5" stroke-miterlimit="10" stroke-width=".27"/>
        <path d="m1095.97,186.09c0-1.76-4.05,2.24-5.97,4.97-1.1,1.56-1.61,2.96-1.99,3.98-.89,2.42-1.49,4.04-.99,5.97.09.34.73,2.67,2.98,3.98,2.19,1.27,5.78,1.5,7.96-.99,1.36-1.56,1.99-3.98,0-7.96-.27-.54-.41-.94-.5-1.34-.16-.66-.19-1.33-.49-2.64-.56-2.5-.99-3.98-.99-5.97Z" fill="url(#linear-gradient-50)" stroke="#e5e5e5" stroke-miterlimit="10" stroke-width=".27"/>
      </g>
      <g id="petalas-5" data-name="petalas">
        <path id="Petala7-7" data-name="Petala7" d="m1134.32,239.36c-8.72-6.99-12.2-11.6-13.69-14.61-.14-.29-.51-1.05-1.12-2.04-1.16-1.87-3.85-6.25-8.16-7.77-4.54-1.6-10.61.05-11.12,2.44-.38,1.79,2.61,2.89,7.83,7.9,6.14,5.9,5.93,8.16,9.67,10.86,2.92,2.11,7.89,4.22,16.58,3.22Z" fill="url(#linear-gradient-51)" stroke="#d3d3d3" stroke-miterlimit="10" stroke-width=".27"/>
        <path id="Petala6-7" data-name="Petala6" d="m1114.38,201.78c8.26,3.33,13.54,7.9,16.45,10.86,2.66,2.7,5.98,6.16,7.77,11.71,1.17,3.63,2.65,11.17-.07,12.77-3.29,1.93-11.82-5.4-16.65-12.24-6.08-8.59-7.28-17.75-7.5-23.1Z" fill="url(#linear-gradient-52)" stroke="#d3d3d3" stroke-miterlimit="10" stroke-width=".27"/>
        <path id="Petala5-6" data-name="Petala5" d="m1142.88,232.84c2.43-3.61,4.96-8.76,3.69-14.08-.22-.92-.34-.94-2.11-5-2.97-6.82-4.47-10.29-5-13.29-.38-2.12-.64-5.29.13-9.35-1.68.41-9.25,2.44-11.32,8.42-1.08,3.12-.22,6.04.66,8.56,1.78,5.08,5.56,13.82,13.95,24.75Z" fill="url(#linear-gradient-53)" stroke="#d3d3d3" stroke-miterlimit="10" stroke-width=".27"/>
        <path id="Petala4-5" data-name="Petala4" d="m1147.88,228.76c3.28-5.9,5.37-11.11,6.71-15.01,3.17-9.22,2.42-11.81,1.32-13.29-1.2-1.62-3.29-2.57-5.13-2.37-3.48.39-5.69,4.88-5.79,8.29-.06,1.98.59,3.46.79,3.95,1.32,3.14,2.59,8.55,2.11,18.43Z" fill="url(#linear-gradient-54)" stroke="#d3d3d3" stroke-miterlimit="10" stroke-width=".27"/>
        <path id="Petala3-5" data-name="Petala3" d="m1148.4,230.34c7.65-15.02,11.47-17.63,13.56-17.11,2.08.52,3.31,4.41,2.76,7.24-1.04,5.32-8.54,7.75-11.85,8.82-1.81.59-3.38.89-4.48,1.05Z" fill="url(#linear-gradient-55)" stroke="#d3d3d3" stroke-miterlimit="10" stroke-width=".27"/>
        <path id="Petala2-6" data-name="Petala2" d="m1147.11,232.84c3.37-.16,6.8-.86,10.14-2.37,3.59-1.62,5.37-3.41,6.98-2.63,1.71.83,2.26,4.1,1.45,6.45-1.44,4.17-7.63,6.79-12.5,5-4.14-1.52-5.76-5.64-6.05-6.45Z" fill="url(#linear-gradient-56)" stroke="#d3d3d3" stroke-miterlimit="10" stroke-width=".27"/>
      </g>
      <g id="flor1-2" data-name="flor1" mix-blend-mode="multiply" opacity=".24">
        <path d="m56.51,109.26c-.75-.96-3.05-.11-10.06,2.46-24.34,8.93-28.45,10.41-33.99,15.21-3.76,3.25-6.08,5.26-8.05,8.95-6.67,12.48-3.11,32.76,7.83,36.68,6.21,2.22,14.27-1,19.01-6.04,7.53-8.01,2.04-15.73,7.83-30.64,6.27-16.16,19.36-24.16,17.44-26.61Z" fill="url(#linear-gradient-57)" stroke="#d3d3d3" stroke-miterlimit="10" stroke-width=".91"/>
        <path d="m100.57,83.99c.71.59,12.61,10.7,10.06,22.81-.18.87-.91,3.99-3.35,7.16-4.58,5.95-14.19,10.77-22.81,6.93-8.73-3.89-10.4-13.98-10.51-14.76,4.75-3.63,9.6-7.5,14.54-11.63,4.22-3.53,8.25-7.05,12.08-10.51Z" fill="#efb0cb" stroke="#d3d3d3" stroke-miterlimit="10" stroke-width=".91"/>
        <path id="Petala7-8" data-name="Petala7" d="m65.01,101.88c-29.62-23.77-41.46-39.4-46.52-49.65-.48-.97-1.72-3.56-3.8-6.93-3.93-6.37-13.09-21.23-27.73-26.39-15.41-5.43-36.06.19-37.79,8.27-1.3,6.08,8.88,9.81,26.61,26.84C-3.35,74.06-4.07,81.75,8.65,90.92c9.93,7.17,26.79,14.33,56.36,10.96Z" fill="url(#linear-gradient-58)" stroke="#d3d3d3" stroke-miterlimit="10" stroke-width=".91"/>
        <path id="Petala6-8" data-name="Petala6" d="m-2.75-25.81C25.3-14.51,43.26,1.03,53.15,11.09c9.03,9.18,20.31,20.92,26.39,39.81,3.97,12.32,9.02,37.96-.22,43.39-11.19,6.56-40.15-18.37-56.58-41.6C2.09,23.48-2.01-7.64-2.75-25.81Z" fill="url(#linear-gradient-59)" stroke="#d3d3d3" stroke-miterlimit="10" stroke-width=".91"/>
        <path id="Petala5-7" data-name="Petala5" d="m94.08,79.74c8.27-12.27,16.86-29.77,12.52-47.86-.75-3.12-1.15-3.21-7.16-17-10.1-23.18-15.19-34.98-17-45.17-1.28-7.21-2.18-17.98.45-31.76-5.7,1.4-31.44,8.28-38.47,28.63-3.66,10.59-.76,20.53,2.24,29.07,6.06,17.27,18.89,46.98,47.41,84.09Z" fill="url(#linear-gradient-60)" stroke="#d3d3d3" stroke-miterlimit="10" stroke-width=".91"/>
        <path id="Petala4-6" data-name="Petala4" d="m111.08,65.88c11.15-20.04,18.25-37.74,22.81-50.99,10.79-31.32,8.22-40.13,4.47-45.17-4.08-5.5-11.19-8.75-17.44-8.05-11.82,1.31-19.32,16.57-19.68,28.18-.21,6.72,1.99,11.77,2.68,13.42,4.49,10.68,8.8,29.06,7.16,62.62Z" fill="url(#linear-gradient-61)" stroke="#d3d3d3" stroke-miterlimit="10" stroke-width=".91"/>
        <path id="Petala3-6" data-name="Petala3" d="m112.87,71.24c26-51.04,38.99-59.92,46.07-58.14,7.08,1.78,11.26,15,9.39,24.6-3.52,18.06-29.03,26.33-40.25,29.97-6.16,1.99-11.47,3.02-15.21,3.58Z" fill="url(#linear-gradient-62)" stroke="#d3d3d3" stroke-miterlimit="10" stroke-width=".91"/>
        <path id="Petala2-7" data-name="Petala2" d="m108.47,79.74c11.44-.56,23.1-2.93,34.44-8.05,12.19-5.51,18.24-11.59,23.71-8.95,5.82,2.82,7.68,13.93,4.92,21.92-4.9,14.18-25.92,23.07-42.49,17-14.08-5.16-19.56-19.16-20.57-21.92Z" fill="url(#linear-gradient-63)" stroke="#d3d3d3" stroke-miterlimit="10" stroke-width=".91"/>
        <path id="Petala1-7" data-name="Petala1" d="m35.49,107.7c-5.14.31-16.89,6.85-32.65,24.38-5.18,5.76-7.07,9.81-12.75,11.41-7.33,2.06-16.33-1.29-21.25-7.38-7.77-9.62-5.05-25.69,2.91-33.1,6.39-5.94,19.39-4.19,45.4-.67,15.74,2.13,21.08,5.2,18.34,5.37Z" fill="url(#linear-gradient-64)" stroke="#e5e5e5" stroke-miterlimit="10" stroke-width=".91"/>
        <path d="m69.7,109.25c0-5.99-13.77,7.63-20.28,16.9-3.72,5.3-5.48,10.07-6.76,13.52-3.04,8.22-5.07,13.72-3.38,20.28.3,1.16,2.48,9.09,10.14,13.52,7.43,4.3,19.64,5.1,27.04-3.38,4.63-5.31,6.76-13.52,0-27.03-.92-1.83-1.39-3.19-1.71-4.56-.53-2.23-.66-4.51-1.67-8.96-1.92-8.49-3.38-13.52-3.38-20.28Z" fill="url(#linear-gradient-65)" stroke="#e5e5e5" stroke-miterlimit="10" stroke-width=".91"/>
      </g>
    </g>
  </g>
</svg>