<?xml version="1.0" encoding="UTF-8"?>
<svg xmlns="http://www.w3.org/2000/svg" xmlns:xlink="http://www.w3.org/1999/xlink" viewBox="0 0 1357.96 434.33">
  <defs>
    <style>
      .cls-1, .cls-2, .cls-3, .cls-4, .cls-5, .cls-6, .cls-7, .cls-8, .cls-9, .cls-10, .cls-11, .cls-12, .cls-13, .cls-14, .cls-15, .cls-16, .cls-17, .cls-18, .cls-19, .cls-20, .cls-21, .cls-22, .cls-23, .cls-24, .cls-25, .cls-26, .cls-27, .cls-28, .cls-29, .cls-30, .cls-31, .cls-32, .cls-33, .cls-34, .cls-35, .cls-36, .cls-37, .cls-38, .cls-39, .cls-40, .cls-41, .cls-42, .cls-43, .cls-44, .cls-45, .cls-46, .cls-47, .cls-48, .cls-49, .cls-50, .cls-51, .cls-52, .cls-53, .cls-54, .cls-55, .cls-56, .cls-57, .cls-58, .cls-59, .cls-60, .cls-61, .cls-62, .cls-63, .cls-64, .cls-65, .cls-66, .cls-67, .cls-68, .cls-69, .cls-70, .cls-71, .cls-72, .cls-73, .cls-74, .cls-75, .cls-76, .cls-77, .cls-78, .cls-79, .cls-80, .cls-81, .cls-82, .cls-83, .cls-84, .cls-85, .cls-86, .cls-87, .cls-88, .cls-89, .cls-90, .cls-91, .cls-92, .cls-93, .cls-94 {
        stroke-miterlimit: 10;
      }

      .cls-1, .cls-16, .cls-17, .cls-18, .cls-19, .cls-20, .cls-21, .cls-22, .cls-23, .cls-24, .cls-25, .cls-26, .cls-27, .cls-28, .cls-29, .cls-30, .cls-31, .cls-32, .cls-33, .cls-34, .cls-35, .cls-36, .cls-37, .cls-38, .cls-39, .cls-40, .cls-41, .cls-42, .cls-43, .cls-44, .cls-45, .cls-46, .cls-47, .cls-48, .cls-49, .cls-50, .cls-51, .cls-52, .cls-53, .cls-54, .cls-55, .cls-56, .cls-57, .cls-58, .cls-59, .cls-60, .cls-61, .cls-62, .cls-63, .cls-64, .cls-65, .cls-66, .cls-67, .cls-68, .cls-69, .cls-71, .cls-72, .cls-73, .cls-74, .cls-75, .cls-76, .cls-77, .cls-78, .cls-79, .cls-80, .cls-81, .cls-82, .cls-83, .cls-84, .cls-85, .cls-86, .cls-87 {
        stroke: #d3d3d3;
      }

      .cls-1, .cls-65, .cls-66, .cls-67, .cls-68, .cls-69, .cls-72, .cls-73, .cls-74, .cls-75, .cls-76, .cls-77, .cls-78, .cls-79, .cls-80, .cls-81, .cls-82, .cls-83, .cls-84, .cls-85, .cls-86, .cls-87, .cls-88, .cls-89, .cls-90, .cls-91, .cls-92, .cls-93 {
        stroke-width: .91px;
      }

      .cls-1, .cls-71 {
        fill: #efb0cb;
      }

      .cls-2 {
        fill: url(#linear-gradient-58);
      }

      .cls-2, .cls-3, .cls-4, .cls-5, .cls-6, .cls-7, .cls-8, .cls-9, .cls-10, .cls-11, .cls-12, .cls-13, .cls-14, .cls-15, .cls-16, .cls-17, .cls-18, .cls-19, .cls-20, .cls-21, .cls-22, .cls-23, .cls-24, .cls-25, .cls-26, .cls-27, .cls-28, .cls-29, .cls-30, .cls-31, .cls-32, .cls-33, .cls-34, .cls-35, .cls-36, .cls-37, .cls-38, .cls-39, .cls-40, .cls-41, .cls-42, .cls-43, .cls-44, .cls-45, .cls-46, .cls-47, .cls-48, .cls-49, .cls-50, .cls-51, .cls-52, .cls-53, .cls-54, .cls-55, .cls-56, .cls-57, .cls-58, .cls-59, .cls-60, .cls-61, .cls-62, .cls-63, .cls-64, .cls-71 {
        stroke-width: .27px;
      }

      .cls-2, .cls-3, .cls-4, .cls-5, .cls-6, .cls-7, .cls-8, .cls-9, .cls-10, .cls-11, .cls-12, .cls-13, .cls-14, .cls-15, .cls-88, .cls-89, .cls-90, .cls-91, .cls-92, .cls-93 {
        stroke: #e5e5e5;
      }

      .cls-3 {
        fill: url(#linear-gradient-57);
      }

      .cls-4 {
        fill: url(#linear-gradient-76);
      }

      .cls-5 {
        fill: url(#linear-gradient-75);
      }

      .cls-6 {
        fill: url(#linear-gradient-67);
      }

      .cls-7 {
        fill: url(#linear-gradient-66);
      }

      .cls-8 {
        fill: url(#linear-gradient-84);
      }

      .cls-9 {
        fill: url(#linear-gradient-85);
      }

      .cls-10 {
        fill: url(#linear-gradient-94);
      }

      .cls-11 {
        fill: url(#linear-gradient-93);
      }

      .cls-12 {
        fill: url(#linear-gradient-39);
      }

      .cls-13 {
        fill: url(#linear-gradient-48);
      }

      .cls-14 {
        fill: url(#linear-gradient-49);
      }

      .cls-15 {
        fill: url(#linear-gradient-40);
      }

      .cls-16 {
        fill: url(#linear-gradient-55);
      }

      .cls-17 {
        fill: url(#linear-gradient-56);
      }

      .cls-18 {
        fill: url(#linear-gradient-53);
      }

      .cls-19 {
        fill: url(#linear-gradient-54);
      }

      .cls-20 {
        fill: url(#linear-gradient-51);
      }

      .cls-21 {
        fill: url(#linear-gradient-52);
      }

      .cls-22 {
        fill: url(#linear-gradient-50);
      }

      .cls-23 {
        fill: url(#linear-gradient-59);
      }

      .cls-24 {
        fill: url(#linear-gradient-60);
      }

      .cls-25 {
        fill: url(#linear-gradient-62);
      }

      .cls-26 {
        fill: url(#linear-gradient-79);
      }

      .cls-27 {
        fill: url(#linear-gradient-77);
      }

      .cls-28 {
        fill: url(#linear-gradient-74);
      }

      .cls-29 {
        fill: url(#linear-gradient-78);
      }

      .cls-30 {
        fill: url(#linear-gradient-61);
      }

      .cls-31 {
        fill: url(#linear-gradient-65);
      }

      .cls-32 {
        fill: url(#linear-gradient-64);
      }

      .cls-33 {
        fill: url(#linear-gradient-69);
      }

      .cls-34 {
        fill: url(#linear-gradient-63);
      }

      .cls-35 {
        fill: url(#linear-gradient-68);
      }

      .cls-36 {
        fill: url(#linear-gradient-73);
      }

      .cls-37 {
        fill: url(#linear-gradient-70);
      }

      .cls-38 {
        fill: url(#linear-gradient-71);
      }

      .cls-39 {
        fill: url(#linear-gradient-72);
      }

      .cls-40 {
        fill: url(#linear-gradient-83);
      }

      .cls-41 {
        fill: url(#linear-gradient-92);
      }

      .cls-42 {
        fill: url(#linear-gradient-82);
      }

      .cls-43 {
        fill: url(#linear-gradient-91);
      }

      .cls-44 {
        fill: url(#linear-gradient-89);
      }

      .cls-45 {
        fill: url(#linear-gradient-88);
      }

      .cls-46 {
        fill: url(#linear-gradient-86);
      }

      .cls-47 {
        fill: url(#linear-gradient-87);
      }

      .cls-48 {
        fill: url(#linear-gradient-81);
      }

      .cls-49 {
        fill: url(#linear-gradient-80);
      }

      .cls-50 {
        fill: url(#linear-gradient-90);
      }

      .cls-51 {
        fill: url(#linear-gradient-33);
      }

      .cls-52 {
        fill: url(#linear-gradient-32);
      }

      .cls-53 {
        fill: url(#linear-gradient-38);
      }

      .cls-54 {
        fill: url(#linear-gradient-36);
      }

      .cls-55 {
        fill: url(#linear-gradient-35);
      }

      .cls-56 {
        fill: url(#linear-gradient-37);
      }

      .cls-57 {
        fill: url(#linear-gradient-34);
      }

      .cls-58 {
        fill: url(#linear-gradient-42);
      }

      .cls-59 {
        fill: url(#linear-gradient-43);
      }

      .cls-60 {
        fill: url(#linear-gradient-41);
      }

      .cls-61 {
        fill: url(#linear-gradient-45);
      }

      .cls-62 {
        fill: url(#linear-gradient-46);
      }

      .cls-63 {
        fill: url(#linear-gradient-47);
      }

      .cls-64 {
        fill: url(#linear-gradient-44);
      }

      .cls-95, .cls-96 {
        mix-blend-mode: multiply;
      }

      .cls-65 {
        fill: url(#linear-gradient-8);
      }

      .cls-66 {
        fill: url(#linear-gradient-9);
      }

      .cls-67 {
        fill: url(#linear-gradient-7);
      }

      .cls-68 {
        fill: url(#linear-gradient-5);
      }

      .cls-69 {
        fill: url(#linear-gradient-6);
      }

      .cls-70 {
        fill: url(#linear-gradient-3);
        stroke: url(#linear-gradient-4);
        stroke-width: .92px;
      }

      .cls-97 {
        isolation: isolate;
      }

      .cls-72 {
        fill: url(#linear-gradient-11);
      }

      .cls-73 {
        fill: url(#linear-gradient-15);
      }

      .cls-74 {
        fill: url(#linear-gradient-16);
      }

      .cls-75 {
        fill: url(#linear-gradient-17);
      }

      .cls-76 {
        fill: url(#linear-gradient-19);
      }

      .cls-77 {
        fill: url(#linear-gradient-23);
      }

      .cls-78 {
        fill: url(#linear-gradient-10);
      }

      .cls-79 {
        fill: url(#linear-gradient-18);
      }

      .cls-80 {
        fill: url(#linear-gradient-20);
      }

      .cls-81 {
        fill: url(#linear-gradient-14);
      }

      .cls-82 {
        fill: url(#linear-gradient-26);
      }

      .cls-83 {
        fill: url(#linear-gradient-27);
      }

      .cls-84 {
        fill: url(#linear-gradient-24);
      }

      .cls-85 {
        fill: url(#linear-gradient-25);
      }

      .cls-86 {
        fill: url(#linear-gradient-29);
      }

      .cls-87 {
        fill: url(#linear-gradient-28);
      }

      .cls-88 {
        fill: url(#linear-gradient-30);
      }

      .cls-89 {
        fill: url(#linear-gradient-31);
      }

      .cls-90 {
        fill: url(#linear-gradient-13);
      }

      .cls-91 {
        fill: url(#linear-gradient-12);
      }

      .cls-92 {
        fill: url(#linear-gradient-22);
      }

      .cls-93 {
        fill: url(#linear-gradient-21);
      }

      .cls-94 {
        fill: url(#linear-gradient);
        stroke: url(#linear-gradient-2);
      }

      .cls-96 {
        opacity: .24;
      }
    </style>
    <linearGradient id="linear-gradient" x1=".5" y1="215.21" x2="1306.5" y2="215.21" gradientUnits="userSpaceOnUse">
      <stop offset=".06" stop-color="#efb0cb"/>
      <stop offset=".8" stop-color="#f0b7cf"/>
      <stop offset="1" stop-color="#fff"/>
    </linearGradient>
    <linearGradient id="linear-gradient-2" x1="0" y1="215.21" x2="1307" y2="215.21" gradientUnits="userSpaceOnUse">
      <stop offset="0" stop-color="#fff"/>
      <stop offset="1" stop-color="#231f20"/>
    </linearGradient>
    <linearGradient id="linear-gradient-3" x1="654.5" y1="48.21" x2="656.5" y2="48.21" xlink:href="#linear-gradient"/>
    <linearGradient id="linear-gradient-4" x1="654.04" y1="48.21" x2="656.96" y2="48.21" xlink:href="#linear-gradient-2"/>
    <linearGradient id="linear-gradient-5" x1="585.76" y1="309.55" x2="616.44" y2="280.34" gradientUnits="userSpaceOnUse">
      <stop offset="0" stop-color="#fff"/>
      <stop offset=".41" stop-color="#efb0cb"/>
    </linearGradient>
    <linearGradient id="linear-gradient-6" x1="512.55" y1="169.83" x2="651.34" y2="206.53" xlink:href="#linear-gradient-5"/>
    <linearGradient id="linear-gradient-7" x1="567.53" y1="139.04" x2="677.6" y2="189.42" xlink:href="#linear-gradient-5"/>
    <linearGradient id="linear-gradient-8" x1="633.05" y1="136.91" x2="690.95" y2="136.91" xlink:href="#linear-gradient-5"/>
    <linearGradient id="linear-gradient-9" x1="696.37" y1="142.18" x2="740.07" y2="142.18" gradientUnits="userSpaceOnUse">
      <stop offset="0" stop-color="#fff"/>
      <stop offset=".09" stop-color="#f4ccdd"/>
      <stop offset=".68" stop-color="#efb0cb"/>
    </linearGradient>
    <linearGradient id="linear-gradient-10" x1="708.97" y1="172.86" x2="769.48" y2="172.86" gradientUnits="userSpaceOnUse">
      <stop offset="0" stop-color="#fff"/>
      <stop offset=".38" stop-color="#f4ccdd"/>
      <stop offset=".55" stop-color="#efb0cb"/>
    </linearGradient>
    <linearGradient id="linear-gradient-11" x1="704.22" y1="216.99" x2="773.83" y2="216.99" gradientUnits="userSpaceOnUse">
      <stop offset="0" stop-color="#fff"/>
      <stop offset=".25" stop-color="#f4ccdd"/>
      <stop offset=".52" stop-color="#efb0cb"/>
    </linearGradient>
    <linearGradient id="linear-gradient-12" x1="537.12" y1="268.83" x2="610.11" y2="246.7" gradientUnits="userSpaceOnUse">
      <stop offset=".23" stop-color="#fcf3f8"/>
      <stop offset=".55" stop-color="#efb0cb"/>
      <stop offset=".77" stop-color="#efb0cb"/>
    </linearGradient>
    <linearGradient id="linear-gradient-13" x1="635.56" y1="308.61" x2="666.11" y2="274.82" xlink:href="#linear-gradient-12"/>
    <linearGradient id="linear-gradient-14" x1="661.76" y1="343.55" x2="692.44" y2="314.34" xlink:href="#linear-gradient-5"/>
    <linearGradient id="linear-gradient-15" x1="588.55" y1="203.83" x2="727.34" y2="240.53" xlink:href="#linear-gradient-5"/>
    <linearGradient id="linear-gradient-16" x1="643.53" y1="173.04" x2="753.6" y2="223.42" xlink:href="#linear-gradient-5"/>
    <linearGradient id="linear-gradient-17" x1="709.05" y1="170.91" x2="766.95" y2="170.91" xlink:href="#linear-gradient-5"/>
    <linearGradient id="linear-gradient-18" x1="772.37" y1="176.18" x2="816.07" y2="176.18" xlink:href="#linear-gradient-9"/>
    <linearGradient id="linear-gradient-19" x1="784.97" y1="206.86" x2="845.48" y2="206.86" xlink:href="#linear-gradient-10"/>
    <linearGradient id="linear-gradient-20" x1="780.22" y1="250.99" x2="849.83" y2="250.99" xlink:href="#linear-gradient-11"/>
    <linearGradient id="linear-gradient-21" x1="613.12" y1="302.83" x2="686.11" y2="280.7" xlink:href="#linear-gradient-12"/>
    <linearGradient id="linear-gradient-22" x1="711.56" y1="342.61" x2="742.11" y2="308.82" xlink:href="#linear-gradient-12"/>
    <linearGradient id="linear-gradient-23" x1="54.76" y1="289.55" x2="85.44" y2="260.34" xlink:href="#linear-gradient-5"/>
    <linearGradient id="linear-gradient-24" x1="-18.45" y1="149.83" x2="120.34" y2="186.53" xlink:href="#linear-gradient-5"/>
    <linearGradient id="linear-gradient-25" x1="36.53" y1="119.04" x2="146.6" y2="169.42" xlink:href="#linear-gradient-5"/>
    <linearGradient id="linear-gradient-26" x1="102.05" y1="116.91" x2="159.95" y2="116.91" xlink:href="#linear-gradient-5"/>
    <linearGradient id="linear-gradient-27" x1="165.37" y1="122.18" x2="209.07" y2="122.18" xlink:href="#linear-gradient-9"/>
    <linearGradient id="linear-gradient-28" x1="177.97" y1="152.86" x2="238.48" y2="152.86" xlink:href="#linear-gradient-10"/>
    <linearGradient id="linear-gradient-29" x1="173.22" y1="196.99" x2="242.83" y2="196.99" xlink:href="#linear-gradient-11"/>
    <linearGradient id="linear-gradient-30" x1="6.12" y1="248.83" x2="79.11" y2="226.7" xlink:href="#linear-gradient-12"/>
    <linearGradient id="linear-gradient-31" x1="104.56" y1="288.61" x2="135.11" y2="254.82" xlink:href="#linear-gradient-12"/>
    <linearGradient id="linear-gradient-32" x1="1129.48" y1="134.57" x2="1138.51" y2="125.97" xlink:href="#linear-gradient-5"/>
    <linearGradient id="linear-gradient-33" x1="1107.94" y1="93.45" x2="1148.78" y2="104.25" xlink:href="#linear-gradient-5"/>
    <linearGradient id="linear-gradient-34" x1="1124.12" y1="84.39" x2="1156.51" y2="99.21" xlink:href="#linear-gradient-5"/>
    <linearGradient id="linear-gradient-35" x1="1143.4" y1="83.76" x2="1160.44" y2="83.76" xlink:href="#linear-gradient-5"/>
    <linearGradient id="linear-gradient-36" x1="1162.03" y1="85.31" x2="1174.89" y2="85.31" xlink:href="#linear-gradient-9"/>
    <linearGradient id="linear-gradient-37" x1="1165.74" y1="94.34" x2="1183.55" y2="94.34" xlink:href="#linear-gradient-10"/>
    <linearGradient id="linear-gradient-38" x1="1164.34" y1="107.33" x2="1184.83" y2="107.33" xlink:href="#linear-gradient-11"/>
    <linearGradient id="linear-gradient-39" x1="1115.17" y1="122.58" x2="1136.65" y2="116.07" xlink:href="#linear-gradient-12"/>
    <linearGradient id="linear-gradient-40" x1="1144.14" y1="134.29" x2="1153.13" y2="124.34" xlink:href="#linear-gradient-12"/>
    <linearGradient id="linear-gradient-41" x1="1099.48" y1="73.57" x2="1108.51" y2="64.97" xlink:href="#linear-gradient-5"/>
    <linearGradient id="linear-gradient-42" x1="1077.94" y1="32.45" x2="1118.78" y2="43.25" xlink:href="#linear-gradient-5"/>
    <linearGradient id="linear-gradient-43" x1="1094.12" y1="23.39" x2="1126.51" y2="38.21" xlink:href="#linear-gradient-5"/>
    <linearGradient id="linear-gradient-44" x1="1113.4" y1="22.76" x2="1130.44" y2="22.76" xlink:href="#linear-gradient-5"/>
    <linearGradient id="linear-gradient-45" x1="1132.03" y1="24.31" x2="1144.89" y2="24.31" xlink:href="#linear-gradient-9"/>
    <linearGradient id="linear-gradient-46" x1="1135.74" y1="33.34" x2="1153.55" y2="33.34" xlink:href="#linear-gradient-10"/>
    <linearGradient id="linear-gradient-47" x1="1134.34" y1="46.33" x2="1154.83" y2="46.33" xlink:href="#linear-gradient-11"/>
    <linearGradient id="linear-gradient-48" x1="1085.17" y1="61.58" x2="1106.65" y2="55.07" xlink:href="#linear-gradient-12"/>
    <linearGradient id="linear-gradient-49" x1="1114.14" y1="73.29" x2="1123.13" y2="63.34" xlink:href="#linear-gradient-12"/>
    <linearGradient id="linear-gradient-50" x1="1157.48" y1="200.57" x2="1166.51" y2="191.97" xlink:href="#linear-gradient-5"/>
    <linearGradient id="linear-gradient-51" x1="1135.94" y1="159.45" x2="1176.78" y2="170.25" xlink:href="#linear-gradient-5"/>
    <linearGradient id="linear-gradient-52" x1="1152.12" y1="150.39" x2="1184.51" y2="165.21" xlink:href="#linear-gradient-5"/>
    <linearGradient id="linear-gradient-53" x1="1171.4" y1="149.76" x2="1188.44" y2="149.76" xlink:href="#linear-gradient-5"/>
    <linearGradient id="linear-gradient-54" x1="1190.03" y1="151.31" x2="1202.89" y2="151.31" xlink:href="#linear-gradient-9"/>
    <linearGradient id="linear-gradient-55" x1="1193.74" y1="160.34" x2="1211.55" y2="160.34" xlink:href="#linear-gradient-10"/>
    <linearGradient id="linear-gradient-56" x1="1192.34" y1="173.33" x2="1212.83" y2="173.33" xlink:href="#linear-gradient-11"/>
    <linearGradient id="linear-gradient-57" x1="1143.17" y1="188.58" x2="1164.65" y2="182.07" xlink:href="#linear-gradient-12"/>
    <linearGradient id="linear-gradient-58" x1="1172.14" y1="200.29" x2="1181.13" y2="190.34" xlink:href="#linear-gradient-12"/>
    <linearGradient id="linear-gradient-59" x1="1190.48" y1="267.57" x2="1199.51" y2="258.97" xlink:href="#linear-gradient-5"/>
    <linearGradient id="linear-gradient-60" x1="1168.94" y1="226.45" x2="1209.78" y2="237.25" xlink:href="#linear-gradient-5"/>
    <linearGradient id="linear-gradient-61" x1="1185.12" y1="217.39" x2="1217.51" y2="232.21" xlink:href="#linear-gradient-5"/>
    <linearGradient id="linear-gradient-62" x1="1204.4" y1="216.76" x2="1221.44" y2="216.76" xlink:href="#linear-gradient-5"/>
    <linearGradient id="linear-gradient-63" x1="1223.03" y1="218.31" x2="1235.89" y2="218.31" xlink:href="#linear-gradient-9"/>
    <linearGradient id="linear-gradient-64" x1="1226.74" y1="227.34" x2="1244.55" y2="227.34" xlink:href="#linear-gradient-10"/>
    <linearGradient id="linear-gradient-65" x1="1225.34" y1="240.33" x2="1245.83" y2="240.33" xlink:href="#linear-gradient-11"/>
    <linearGradient id="linear-gradient-66" x1="1176.17" y1="255.58" x2="1197.65" y2="249.07" xlink:href="#linear-gradient-12"/>
    <linearGradient id="linear-gradient-67" x1="1205.14" y1="267.29" x2="1214.13" y2="257.34" xlink:href="#linear-gradient-12"/>
    <linearGradient id="linear-gradient-68" x1="1219.48" y1="327.57" x2="1228.51" y2="318.97" xlink:href="#linear-gradient-5"/>
    <linearGradient id="linear-gradient-69" x1="1197.94" y1="286.45" x2="1238.78" y2="297.25" xlink:href="#linear-gradient-5"/>
    <linearGradient id="linear-gradient-70" x1="1214.12" y1="277.39" x2="1246.51" y2="292.21" xlink:href="#linear-gradient-5"/>
    <linearGradient id="linear-gradient-71" x1="1233.4" y1="276.76" x2="1250.44" y2="276.76" xlink:href="#linear-gradient-5"/>
    <linearGradient id="linear-gradient-72" x1="1252.03" y1="278.31" x2="1264.89" y2="278.31" xlink:href="#linear-gradient-9"/>
    <linearGradient id="linear-gradient-73" x1="1255.74" y1="287.34" x2="1273.55" y2="287.34" xlink:href="#linear-gradient-10"/>
    <linearGradient id="linear-gradient-74" x1="1254.34" y1="300.33" x2="1274.83" y2="300.33" xlink:href="#linear-gradient-11"/>
    <linearGradient id="linear-gradient-75" x1="1205.17" y1="315.58" x2="1226.65" y2="309.07" xlink:href="#linear-gradient-12"/>
    <linearGradient id="linear-gradient-76" x1="1234.14" y1="327.29" x2="1243.13" y2="317.34" xlink:href="#linear-gradient-12"/>
    <linearGradient id="linear-gradient-77" x1="1262.48" y1="387.57" x2="1271.51" y2="378.97" xlink:href="#linear-gradient-5"/>
    <linearGradient id="linear-gradient-78" x1="1240.94" y1="346.45" x2="1281.78" y2="357.25" xlink:href="#linear-gradient-5"/>
    <linearGradient id="linear-gradient-79" x1="1257.12" y1="337.39" x2="1289.51" y2="352.21" xlink:href="#linear-gradient-5"/>
    <linearGradient id="linear-gradient-80" x1="1276.4" y1="336.76" x2="1293.44" y2="336.76" xlink:href="#linear-gradient-5"/>
    <linearGradient id="linear-gradient-81" x1="1295.03" y1="338.31" x2="1307.89" y2="338.31" xlink:href="#linear-gradient-9"/>
    <linearGradient id="linear-gradient-82" x1="1298.74" y1="347.34" x2="1316.55" y2="347.34" xlink:href="#linear-gradient-10"/>
    <linearGradient id="linear-gradient-83" x1="1297.34" y1="360.33" x2="1317.83" y2="360.33" xlink:href="#linear-gradient-11"/>
    <linearGradient id="linear-gradient-84" x1="1248.17" y1="375.58" x2="1269.65" y2="369.07" xlink:href="#linear-gradient-12"/>
    <linearGradient id="linear-gradient-85" x1="1277.14" y1="387.29" x2="1286.13" y2="377.34" xlink:href="#linear-gradient-12"/>
    <linearGradient id="linear-gradient-86" x1="1302.48" y1="431.57" x2="1311.51" y2="422.97" xlink:href="#linear-gradient-5"/>
    <linearGradient id="linear-gradient-87" x1="1280.94" y1="390.45" x2="1321.78" y2="401.25" xlink:href="#linear-gradient-5"/>
    <linearGradient id="linear-gradient-88" x1="1297.12" y1="381.39" x2="1329.51" y2="396.21" xlink:href="#linear-gradient-5"/>
    <linearGradient id="linear-gradient-89" x1="1316.4" y1="380.76" x2="1333.44" y2="380.76" xlink:href="#linear-gradient-5"/>
    <linearGradient id="linear-gradient-90" x1="1335.03" y1="382.31" x2="1347.89" y2="382.31" xlink:href="#linear-gradient-9"/>
    <linearGradient id="linear-gradient-91" x1="1338.74" y1="391.34" x2="1356.55" y2="391.34" xlink:href="#linear-gradient-10"/>
    <linearGradient id="linear-gradient-92" x1="1337.34" y1="404.33" x2="1357.83" y2="404.33" xlink:href="#linear-gradient-11"/>
    <linearGradient id="linear-gradient-93" x1="1288.17" y1="419.58" x2="1309.65" y2="413.07" xlink:href="#linear-gradient-12"/>
    <linearGradient id="linear-gradient-94" x1="1317.14" y1="431.29" x2="1326.13" y2="421.34" xlink:href="#linear-gradient-12"/>
  </defs>
  <g class="cls-97">
    <g id="Layer_2" data-name="Layer 2">
      <rect class="cls-94" x=".5" y="35.21" width="1306" height="360"/>
      <rect class="cls-70" x="654.5" y="36.21" width="2" height="24"/>
      <g id="petalas">
        <path class="cls-68" d="m647.98,245.59c-.81-1.04-3.3-.12-10.89,2.66-26.35,9.66-30.79,11.27-36.79,16.46-4.06,3.52-6.58,5.7-8.71,9.68-7.22,13.51-3.37,35.45,8.47,39.69,6.72,2.41,15.45-1.08,20.57-6.54,8.15-8.67,2.21-17.03,8.47-33.16,6.79-17.49,20.95-26.15,18.88-28.8Z"/>
        <path class="cls-1" d="m695.66,218.23c.77.64,13.65,11.58,10.89,24.69-.2.94-.99,4.31-3.63,7.75-4.96,6.44-15.36,11.66-24.69,7.5-9.45-4.21-11.25-15.13-11.38-15.97,5.14-3.93,10.39-8.12,15.73-12.59,4.57-3.83,8.92-7.63,13.07-11.38Z"/>
        <path id="Petala7" class="cls-69" d="m657.17,237.6c-32.06-25.72-44.87-42.65-50.34-53.73-.52-1.05-1.86-3.85-4.11-7.5-4.25-6.89-14.17-22.98-30.01-28.56-16.68-5.88-39.03.2-40.91,8.96-1.41,6.58,9.61,10.62,28.8,29.05,22.59,21.69,21.82,30,35.58,39.94,10.75,7.76,29,15.51,60.99,11.86Z"/>
        <path id="Petala6" class="cls-67" d="m583.84,99.39c30.36,12.23,49.81,29.05,60.51,39.94,9.77,9.94,21.98,22.64,28.56,43.08,4.29,13.34,9.76,41.09-.24,46.96-12.11,7.1-43.46-19.88-61.24-45.02-22.35-31.61-26.79-65.29-27.59-84.96Z"/>
        <path id="Petala5" class="cls-65" d="m688.64,213.64c8.95-13.27,18.24-32.22,13.55-51.8-.81-3.37-1.24-3.47-7.75-18.4-10.93-25.09-16.44-37.85-18.4-48.89-1.39-7.81-2.36-19.46.48-34.37-6.17,1.52-34.02,8.96-41.63,30.98-3.96,11.46-.83,22.22,2.42,31.47,6.56,18.69,20.45,50.84,51.31,91.01Z"/>
        <path id="Petala4" class="cls-66" d="m707.04,198.63c12.07-21.69,19.75-40.85,24.69-55.19,11.67-33.9,8.89-43.43,4.84-48.89-4.41-5.95-12.11-9.47-18.88-8.71-12.8,1.42-20.91,17.93-21.3,30.5-.23,7.28,2.16,12.74,2.9,14.52,4.86,11.56,9.53,31.46,7.75,67.77Z"/>
        <path id="Petala3" class="cls-78" d="m708.97,204.44c28.14-55.24,42.2-64.86,49.86-62.93,7.67,1.93,12.19,16.23,10.17,26.62-3.81,19.55-31.42,28.5-43.57,32.43-6.66,2.16-12.41,3.27-16.46,3.87Z"/>
        <path id="Petala2" class="cls-72" d="m704.22,213.63c12.38-.6,25-3.17,37.27-8.71,13.2-5.96,19.74-12.55,25.66-9.68,6.3,3.05,8.31,15.08,5.32,23.72-5.3,15.34-28.06,24.97-45.99,18.4-15.24-5.59-21.17-20.74-22.27-23.72Z"/>
        <path id="Petala1" class="cls-91" d="m625.23,243.89c-5.56.34-18.29,7.41-35.34,26.38-5.6,6.23-7.65,10.62-13.8,12.34-7.94,2.23-17.67-1.39-22.99-7.99-8.41-10.41-5.46-27.81,3.15-35.82,6.91-6.43,20.99-4.53,49.13-.73,17.03,2.3,22.81,5.63,19.85,5.81Z"/>
        <path class="cls-90" d="m662.26,245.57c0-6.48-14.91,8.26-21.95,18.29-4.03,5.74-5.94,10.9-7.32,14.63-3.29,8.9-5.49,14.85-3.66,21.95.33,1.26,2.69,9.83,10.97,14.63,8.04,4.65,21.26,5.52,29.26-3.66,5.01-5.75,7.32-14.63,0-29.26-.99-1.98-1.5-3.45-1.86-4.93-.57-2.42-.71-4.88-1.8-9.7-2.07-9.19-3.66-14.63-3.66-21.95Z"/>
      </g>
      <g id="petalas-2" data-name="petalas" class="cls-95">
        <path class="cls-81" d="m723.98,279.59c-.81-1.04-3.3-.12-10.89,2.66-26.35,9.66-30.79,11.27-36.79,16.46-4.06,3.52-6.58,5.7-8.71,9.68-7.22,13.51-3.37,35.45,8.47,39.69,6.72,2.41,15.45-1.08,20.57-6.54,8.15-8.67,2.21-17.03,8.47-33.16,6.79-17.49,20.95-26.15,18.88-28.8Z"/>
        <path class="cls-1" d="m771.66,252.23c.77.64,13.65,11.58,10.89,24.69-.2.94-.99,4.31-3.63,7.75-4.96,6.44-15.36,11.66-24.69,7.5-9.45-4.21-11.25-15.13-11.38-15.97,5.14-3.93,10.39-8.12,15.73-12.59,4.57-3.83,8.92-7.63,13.07-11.38Z"/>
        <path id="Petala7-2" data-name="Petala7" class="cls-73" d="m733.17,271.6c-32.06-25.72-44.87-42.65-50.34-53.73-.52-1.05-1.86-3.85-4.11-7.5-4.25-6.89-14.17-22.98-30.01-28.56-16.68-5.88-39.03.2-40.91,8.96-1.41,6.58,9.61,10.62,28.8,29.05,22.59,21.69,21.82,30,35.58,39.94,10.75,7.76,29,15.51,60.99,11.86Z"/>
        <path id="Petala6-2" data-name="Petala6" class="cls-74" d="m659.84,133.39c30.36,12.23,49.81,29.05,60.51,39.94,9.77,9.94,21.98,22.64,28.56,43.08,4.29,13.34,9.76,41.09-.24,46.96-12.11,7.1-43.46-19.88-61.24-45.02-22.35-31.61-26.79-65.29-27.59-84.96Z"/>
        <path id="Petala5-2" data-name="Petala5" class="cls-75" d="m764.64,247.64c8.95-13.27,18.24-32.22,13.55-51.8-.81-3.37-1.24-3.47-7.75-18.4-10.93-25.09-16.44-37.85-18.4-48.89-1.39-7.81-2.36-19.46.48-34.37-6.17,1.52-34.02,8.96-41.63,30.98-3.96,11.46-.83,22.22,2.42,31.47,6.56,18.69,20.45,50.84,51.31,91.01Z"/>
        <path id="Petala4-2" data-name="Petala4" class="cls-79" d="m783.04,232.63c12.07-21.69,19.75-40.85,24.69-55.19,11.67-33.9,8.89-43.43,4.84-48.89-4.41-5.95-12.11-9.47-18.88-8.71-12.8,1.42-20.91,17.93-21.3,30.5-.23,7.28,2.16,12.74,2.9,14.52,4.86,11.56,9.53,31.46,7.75,67.77Z"/>
        <path id="Petala3-2" data-name="Petala3" class="cls-76" d="m784.97,238.44c28.14-55.24,42.2-64.86,49.86-62.93,7.67,1.93,12.19,16.23,10.17,26.62-3.81,19.55-31.42,28.5-43.57,32.43-6.66,2.16-12.41,3.27-16.46,3.87Z"/>
        <path id="Petala2-2" data-name="Petala2" class="cls-80" d="m780.22,247.63c12.38-.6,25-3.17,37.27-8.71,13.2-5.96,19.74-12.55,25.66-9.68,6.3,3.05,8.31,15.08,5.32,23.72-5.3,15.34-28.06,24.97-45.99,18.4-15.24-5.59-21.17-20.74-22.27-23.72Z"/>
        <path id="Petala1-2" data-name="Petala1" class="cls-93" d="m701.23,277.89c-5.56.34-18.29,7.41-35.34,26.38-5.6,6.23-7.65,10.62-13.8,12.34-7.94,2.23-17.67-1.39-22.99-7.99-8.41-10.41-5.46-27.81,3.15-35.82,6.91-6.43,20.99-4.53,49.13-.73,17.03,2.3,22.81,5.63,19.85,5.81Z"/>
        <path class="cls-92" d="m738.26,279.57c0-6.48-14.91,8.26-21.95,18.29-4.03,5.74-5.94,10.9-7.32,14.63-3.29,8.9-5.49,14.85-3.66,21.95.33,1.26,2.69,9.83,10.97,14.63,8.04,4.65,21.26,5.52,29.26-3.66,5.01-5.75,7.32-14.63,0-29.26-.99-1.98-1.5-3.45-1.86-4.93-.57-2.42-.71-4.88-1.8-9.7-2.07-9.19-3.66-14.63-3.66-21.95Z"/>
      </g>
      <g id="petalas-3" data-name="petalas" class="cls-96">
        <path class="cls-77" d="m116.98,225.59c-.81-1.04-3.3-.12-10.89,2.66-26.35,9.66-30.79,11.27-36.79,16.46-4.06,3.52-6.58,5.7-8.71,9.68-7.22,13.51-3.37,35.45,8.47,39.69,6.72,2.41,15.45-1.08,20.57-6.54,8.15-8.67,2.21-17.03,8.47-33.16,6.79-17.49,20.95-26.15,18.88-28.8Z"/>
        <path class="cls-1" d="m164.66,198.23c.77.64,13.65,11.58,10.89,24.69-.2.94-.99,4.31-3.63,7.75-4.96,6.44-15.36,11.66-24.69,7.5-9.45-4.21-11.25-15.13-11.38-15.97,5.14-3.93,10.39-8.12,15.73-12.59,4.57-3.83,8.92-7.63,13.07-11.38Z"/>
        <path id="Petala7-3" data-name="Petala7" class="cls-84" d="m126.17,217.6c-32.06-25.72-44.87-42.65-50.34-53.73-.52-1.05-1.86-3.85-4.11-7.5-4.25-6.89-14.17-22.98-30.01-28.56-16.68-5.88-39.03.2-40.91,8.96-1.41,6.58,9.61,10.62,28.8,29.05,22.59,21.69,21.82,30,35.58,39.94,10.75,7.76,29,15.51,60.99,11.86Z"/>
        <path id="Petala6-3" data-name="Petala6" class="cls-85" d="m52.84,79.39c30.36,12.23,49.81,29.05,60.51,39.94,9.77,9.94,21.98,22.64,28.56,43.08,4.29,13.34,9.76,41.09-.24,46.96-12.11,7.1-43.46-19.88-61.24-45.02-22.35-31.61-26.79-65.29-27.59-84.96Z"/>
        <path id="Petala5-3" data-name="Petala5" class="cls-82" d="m157.64,193.64c8.95-13.27,18.24-32.22,13.55-51.8-.81-3.37-1.24-3.47-7.75-18.4-10.93-25.09-16.44-37.85-18.4-48.89-1.39-7.81-2.36-19.46.48-34.37-6.17,1.52-34.02,8.96-41.63,30.98-3.96,11.46-.83,22.22,2.42,31.47,6.56,18.69,20.45,50.84,51.31,91.01Z"/>
        <path id="Petala4-3" data-name="Petala4" class="cls-83" d="m176.04,178.63c12.07-21.69,19.75-40.85,24.69-55.19,11.67-33.9,8.89-43.43,4.84-48.89-4.41-5.95-12.11-9.47-18.88-8.71-12.8,1.42-20.91,17.93-21.3,30.5-.23,7.28,2.16,12.74,2.9,14.52,4.86,11.56,9.53,31.46,7.75,67.77Z"/>
        <path id="Petala3-3" data-name="Petala3" class="cls-87" d="m177.97,184.44c28.14-55.24,42.2-64.86,49.86-62.93,7.67,1.93,12.19,16.23,10.17,26.62-3.81,19.55-31.42,28.5-43.57,32.43-6.66,2.16-12.41,3.27-16.46,3.87Z"/>
        <path id="Petala2-3" data-name="Petala2" class="cls-86" d="m173.22,193.63c12.38-.6,25-3.17,37.27-8.71,13.2-5.96,19.74-12.55,25.66-9.68,6.3,3.05,8.31,15.08,5.32,23.72-5.3,15.34-28.06,24.97-45.99,18.4-15.24-5.59-21.17-20.74-22.27-23.72Z"/>
        <path id="Petala1-3" data-name="Petala1" class="cls-88" d="m94.23,223.89c-5.56.34-18.29,7.41-35.34,26.38-5.6,6.23-7.65,10.62-13.8,12.34-7.94,2.23-17.67-1.39-22.99-7.99-8.41-10.41-5.46-27.81,3.15-35.82,6.91-6.43,20.99-4.53,49.13-.73,17.03,2.3,22.81,5.63,19.85,5.81Z"/>
        <path class="cls-89" d="m131.26,225.57c0-6.48-14.91,8.26-21.95,18.29-4.03,5.74-5.94,10.9-7.32,14.63-3.29,8.9-5.49,14.85-3.66,21.95.33,1.26,2.69,9.83,10.97,14.63,8.04,4.65,21.26,5.52,29.26-3.66,5.01-5.75,7.32-14.63,0-29.26-.99-1.98-1.5-3.45-1.86-4.93-.57-2.42-.71-4.88-1.8-9.7-2.07-9.19-3.66-14.63-3.66-21.95Z"/>
      </g>
      <g id="petalas-4" data-name="petalas">
        <path class="cls-52" d="m1147.79,115.74c-.24-.31-.97-.04-3.21.78-7.75,2.84-9.06,3.32-10.83,4.84-1.2,1.04-1.94,1.68-2.56,2.85-2.12,3.98-.99,10.43,2.49,11.68,1.98.71,4.55-.32,6.05-1.92,2.4-2.55.65-5.01,2.49-9.76,2-5.15,6.17-7.7,5.56-8.48Z"/>
        <path class="cls-71" d="m1161.83,107.69c.23.19,4.02,3.41,3.21,7.27-.06.28-.29,1.27-1.07,2.28-1.46,1.89-4.52,3.43-7.27,2.21-2.78-1.24-3.31-4.45-3.35-4.7,1.51-1.16,3.06-2.39,4.63-3.7,1.34-1.13,2.63-2.24,3.85-3.35Z"/>
        <path id="Petala7-4" data-name="Petala7" class="cls-51" d="m1150.5,113.39c-9.43-7.57-13.2-12.55-14.82-15.81-.15-.31-.55-1.13-1.21-2.21-1.25-2.03-4.17-6.76-8.83-8.41-4.91-1.73-11.49.06-12.04,2.64-.41,1.94,2.83,3.13,8.48,8.55,6.65,6.38,6.42,8.83,10.47,11.75,3.16,2.28,8.53,4.56,17.95,3.49Z"/>
        <path id="Petala6-4" data-name="Petala6" class="cls-57" d="m1128.92,72.72c8.94,3.6,14.66,8.55,17.81,11.75,2.88,2.92,6.47,6.66,8.41,12.68,1.26,3.92,2.87,12.09-.07,13.82-3.56,2.09-12.79-5.85-18.02-13.25-6.58-9.3-7.88-19.21-8.12-25Z"/>
        <path id="Petala5-4" data-name="Petala5" class="cls-55" d="m1159.76,106.34c2.63-3.91,5.37-9.48,3.99-15.24-.24-.99-.37-1.02-2.28-5.41-3.22-7.38-4.84-11.14-5.41-14.39-.41-2.3-.69-5.73.14-10.11-1.82.45-10.01,2.64-12.25,9.12-1.17,3.37-.24,6.54.71,9.26,1.93,5.5,6.02,14.96,15.1,26.78Z"/>
        <path id="Petala4-4" data-name="Petala4" class="cls-54" d="m1165.17,101.92c3.55-6.38,5.81-12.02,7.27-16.24,3.44-9.98,2.62-12.78,1.42-14.39-1.3-1.75-3.56-2.79-5.56-2.56-3.77.42-6.15,5.28-6.27,8.97-.07,2.14.63,3.75.85,4.27,1.43,3.4,2.8,9.26,2.28,19.94Z"/>
        <path id="Petala3-4" data-name="Petala3" class="cls-56" d="m1165.74,103.63c8.28-16.26,12.42-19.09,14.67-18.52,2.26.57,3.59,4.78,2.99,7.84-1.12,5.75-9.25,8.39-12.82,9.54-1.96.64-3.65.96-4.84,1.14Z"/>
        <path id="Petala2-4" data-name="Petala2" class="cls-53" d="m1164.34,106.34c3.64-.18,7.36-.93,10.97-2.56,3.88-1.75,5.81-3.69,7.55-2.85,1.85.9,2.45,4.44,1.57,6.98-1.56,4.52-8.26,7.35-13.53,5.41-4.49-1.64-6.23-6.1-6.55-6.98Z"/>
        <path id="Petala1-4" data-name="Petala1" class="cls-12" d="m1141.1,115.24c-1.64.1-5.38,2.18-10.4,7.76-1.65,1.83-2.25,3.13-4.06,3.63-2.34.66-5.2-.41-6.77-2.35-2.47-3.06-1.61-8.18.93-10.54,2.03-1.89,6.18-1.33,14.46-.21,5.01.68,6.71,1.66,5.84,1.71Z"/>
        <path class="cls-15" d="m1152,115.74c0-1.91-4.39,2.43-6.46,5.38-1.19,1.69-1.75,3.21-2.15,4.31-.97,2.62-1.62,4.37-1.08,6.46.1.37.79,2.89,3.23,4.31,2.37,1.37,6.26,1.62,8.61-1.08,1.48-1.69,2.15-4.31,0-8.61-.29-.58-.44-1.02-.55-1.45-.17-.71-.21-1.44-.53-2.85-.61-2.7-1.08-4.31-1.08-6.46Z"/>
      </g>
      <g id="petalas-5" data-name="petalas">
        <path class="cls-60" d="m1117.79,54.74c-.24-.31-.97-.04-3.21.78-7.75,2.84-9.06,3.32-10.83,4.84-1.2,1.04-1.94,1.68-2.56,2.85-2.12,3.98-.99,10.43,2.49,11.68,1.98.71,4.55-.32,6.05-1.92,2.4-2.55.65-5.01,2.49-9.76,2-5.15,6.17-7.7,5.56-8.48Z"/>
        <path class="cls-71" d="m1131.83,46.69c.23.19,4.02,3.41,3.21,7.27-.06.28-.29,1.27-1.07,2.28-1.46,1.89-4.52,3.43-7.27,2.21-2.78-1.24-3.31-4.45-3.35-4.7,1.51-1.16,3.06-2.39,4.63-3.7,1.34-1.13,2.63-2.24,3.85-3.35Z"/>
        <path id="Petala7-5" data-name="Petala7" class="cls-58" d="m1120.5,52.39c-9.43-7.57-13.2-12.55-14.82-15.81-.15-.31-.55-1.13-1.21-2.21-1.25-2.03-4.17-6.76-8.83-8.41-4.91-1.73-11.49.06-12.04,2.64-.41,1.94,2.83,3.13,8.48,8.55,6.65,6.38,6.42,8.83,10.47,11.75,3.16,2.28,8.53,4.56,17.95,3.49Z"/>
        <path id="Petala6-5" data-name="Petala6" class="cls-59" d="m1098.92,11.72c8.94,3.6,14.66,8.55,17.81,11.75,2.88,2.92,6.47,6.66,8.41,12.68,1.26,3.92,2.87,12.09-.07,13.82-3.56,2.09-12.79-5.85-18.02-13.25-6.58-9.3-7.88-19.21-8.12-25Z"/>
        <path id="Petala5-5" data-name="Petala5" class="cls-64" d="m1129.76,45.34c2.63-3.91,5.37-9.48,3.99-15.24-.24-.99-.37-1.02-2.28-5.41-3.22-7.38-4.84-11.14-5.41-14.39-.41-2.3-.69-5.73.14-10.11-1.82.45-10.01,2.64-12.25,9.12-1.17,3.37-.24,6.54.71,9.26,1.93,5.5,6.02,14.96,15.1,26.78Z"/>
        <path id="Petala4-5" data-name="Petala4" class="cls-61" d="m1135.17,40.92c3.55-6.38,5.81-12.02,7.27-16.24,3.44-9.98,2.62-12.78,1.42-14.39-1.3-1.75-3.56-2.79-5.56-2.56-3.77.42-6.15,5.28-6.27,8.97-.07,2.14.63,3.75.85,4.27,1.43,3.4,2.8,9.26,2.28,19.94Z"/>
        <path id="Petala3-5" data-name="Petala3" class="cls-62" d="m1135.74,42.63c8.28-16.26,12.42-19.09,14.67-18.52,2.26.57,3.59,4.78,2.99,7.84-1.12,5.75-9.25,8.39-12.82,9.54-1.96.64-3.65.96-4.84,1.14Z"/>
        <path id="Petala2-5" data-name="Petala2" class="cls-63" d="m1134.34,45.34c3.64-.18,7.36-.93,10.97-2.56,3.88-1.75,5.81-3.69,7.55-2.85,1.85.9,2.45,4.44,1.57,6.98-1.56,4.52-8.26,7.35-13.53,5.41-4.49-1.64-6.23-6.1-6.55-6.98Z"/>
        <path id="Petala1-5" data-name="Petala1" class="cls-13" d="m1111.1,54.24c-1.64.1-5.38,2.18-10.4,7.76-1.65,1.83-2.25,3.13-4.06,3.63-2.34.66-5.2-.41-6.77-2.35-2.47-3.06-1.61-8.18.93-10.54,2.03-1.89,6.18-1.33,14.46-.21,5.01.68,6.71,1.66,5.84,1.71Z"/>
        <path class="cls-14" d="m1122,54.74c0-1.91-4.39,2.43-6.46,5.38-1.19,1.69-1.75,3.21-2.15,4.31-.97,2.62-1.62,4.37-1.08,6.46.1.37.79,2.89,3.23,4.31,2.37,1.37,6.26,1.62,8.61-1.08,1.48-1.69,2.15-4.31,0-8.61-.29-.58-.44-1.02-.55-1.45-.17-.71-.21-1.44-.53-2.85-.61-2.7-1.08-4.31-1.08-6.46Z"/>
      </g>
      <g id="petalas-6" data-name="petalas">
        <path class="cls-22" d="m1175.79,181.74c-.24-.31-.97-.04-3.21.78-7.75,2.84-9.06,3.32-10.83,4.84-1.2,1.04-1.94,1.68-2.56,2.85-2.12,3.98-.99,10.43,2.49,11.68,1.98.71,4.55-.32,6.05-1.92,2.4-2.55.65-5.01,2.49-9.76,2-5.15,6.17-7.7,5.56-8.48Z"/>
        <path class="cls-71" d="m1189.83,173.69c.23.19,4.02,3.41,3.21,7.27-.06.28-.29,1.27-1.07,2.28-1.46,1.89-4.52,3.43-7.27,2.21-2.78-1.24-3.31-4.45-3.35-4.7,1.51-1.16,3.06-2.39,4.63-3.7,1.34-1.13,2.63-2.24,3.85-3.35Z"/>
        <path id="Petala7-6" data-name="Petala7" class="cls-20" d="m1178.5,179.39c-9.43-7.57-13.2-12.55-14.82-15.81-.15-.31-.55-1.13-1.21-2.21-1.25-2.03-4.17-6.76-8.83-8.41-4.91-1.73-11.49.06-12.04,2.64-.41,1.94,2.83,3.13,8.48,8.55,6.65,6.38,6.42,8.83,10.47,11.75,3.16,2.28,8.53,4.56,17.95,3.49Z"/>
        <path id="Petala6-6" data-name="Petala6" class="cls-21" d="m1156.92,138.72c8.94,3.6,14.66,8.55,17.81,11.75,2.88,2.92,6.47,6.66,8.41,12.68,1.26,3.92,2.87,12.09-.07,13.82-3.56,2.09-12.79-5.85-18.02-13.25-6.58-9.3-7.88-19.21-8.12-25Z"/>
        <path id="Petala5-6" data-name="Petala5" class="cls-18" d="m1187.76,172.34c2.63-3.91,5.37-9.48,3.99-15.24-.24-.99-.37-1.02-2.28-5.41-3.22-7.38-4.84-11.14-5.41-14.39-.41-2.3-.69-5.73.14-10.11-1.82.45-10.01,2.64-12.25,9.12-1.17,3.37-.24,6.54.71,9.26,1.93,5.5,6.02,14.96,15.1,26.78Z"/>
        <path id="Petala4-6" data-name="Petala4" class="cls-19" d="m1193.17,167.92c3.55-6.38,5.81-12.02,7.27-16.24,3.44-9.98,2.62-12.78,1.42-14.39-1.3-1.75-3.56-2.79-5.56-2.56-3.77.42-6.15,5.28-6.27,8.97-.07,2.14.63,3.75.85,4.27,1.43,3.4,2.8,9.26,2.28,19.94Z"/>
        <path id="Petala3-6" data-name="Petala3" class="cls-16" d="m1193.74,169.63c8.28-16.26,12.42-19.09,14.67-18.52,2.26.57,3.59,4.78,2.99,7.84-1.12,5.75-9.25,8.39-12.82,9.54-1.96.64-3.65.96-4.84,1.14Z"/>
        <path id="Petala2-6" data-name="Petala2" class="cls-17" d="m1192.34,172.34c3.64-.18,7.36-.93,10.97-2.56,3.88-1.75,5.81-3.69,7.55-2.85,1.85.9,2.45,4.44,1.57,6.98-1.56,4.52-8.26,7.35-13.53,5.41-4.49-1.64-6.23-6.1-6.55-6.98Z"/>
        <path id="Petala1-6" data-name="Petala1" class="cls-3" d="m1169.1,181.24c-1.64.1-5.38,2.18-10.4,7.76-1.65,1.83-2.25,3.13-4.06,3.63-2.34.66-5.2-.41-6.77-2.35-2.47-3.06-1.61-8.18.93-10.54,2.03-1.89,6.18-1.33,14.46-.21,5.01.68,6.71,1.66,5.84,1.71Z"/>
        <path class="cls-2" d="m1180,181.74c0-1.91-4.39,2.43-6.46,5.38-1.19,1.69-1.75,3.21-2.15,4.31-.97,2.62-1.62,4.37-1.08,6.46.1.37.79,2.89,3.23,4.31,2.37,1.37,6.26,1.62,8.61-1.08,1.48-1.69,2.15-4.31,0-8.61-.29-.58-.44-1.02-.55-1.45-.17-.71-.21-1.44-.53-2.85-.61-2.7-1.08-4.31-1.08-6.46Z"/>
      </g>
      <g id="petalas-7" data-name="petalas">
        <path class="cls-23" d="m1208.79,248.74c-.24-.31-.97-.04-3.21.78-7.75,2.84-9.06,3.32-10.83,4.84-1.2,1.04-1.94,1.68-2.56,2.85-2.12,3.98-.99,10.43,2.49,11.68,1.98.71,4.55-.32,6.05-1.92,2.4-2.55.65-5.01,2.49-9.76,2-5.15,6.17-7.7,5.56-8.48Z"/>
        <path class="cls-71" d="m1222.83,240.69c.23.19,4.02,3.41,3.21,7.27-.06.28-.29,1.27-1.07,2.28-1.46,1.89-4.52,3.43-7.27,2.21-2.78-1.24-3.31-4.45-3.35-4.7,1.51-1.16,3.06-2.39,4.63-3.7,1.34-1.13,2.63-2.24,3.85-3.35Z"/>
        <path id="Petala7-7" data-name="Petala7" class="cls-24" d="m1211.5,246.39c-9.43-7.57-13.2-12.55-14.82-15.81-.15-.31-.55-1.13-1.21-2.21-1.25-2.03-4.17-6.76-8.83-8.41-4.91-1.73-11.49.06-12.04,2.64-.41,1.94,2.83,3.13,8.48,8.55,6.65,6.38,6.42,8.83,10.47,11.75,3.16,2.28,8.53,4.56,17.95,3.49Z"/>
        <path id="Petala6-7" data-name="Petala6" class="cls-30" d="m1189.92,205.72c8.94,3.6,14.66,8.55,17.81,11.75,2.88,2.92,6.47,6.66,8.41,12.68,1.26,3.92,2.87,12.09-.07,13.82-3.56,2.09-12.79-5.85-18.02-13.25-6.58-9.3-7.88-19.21-8.12-25Z"/>
        <path id="Petala5-7" data-name="Petala5" class="cls-25" d="m1220.76,239.34c2.63-3.91,5.37-9.48,3.99-15.24-.24-.99-.37-1.02-2.28-5.41-3.22-7.38-4.84-11.14-5.41-14.39-.41-2.3-.69-5.73.14-10.11-1.82.45-10.01,2.64-12.25,9.12-1.17,3.37-.24,6.54.71,9.26,1.93,5.5,6.02,14.96,15.1,26.78Z"/>
        <path id="Petala4-7" data-name="Petala4" class="cls-34" d="m1226.17,234.92c3.55-6.38,5.81-12.02,7.27-16.24,3.44-9.98,2.62-12.78,1.42-14.39-1.3-1.75-3.56-2.79-5.56-2.56-3.77.42-6.15,5.28-6.27,8.97-.07,2.14.63,3.75.85,4.27,1.43,3.4,2.8,9.26,2.28,19.94Z"/>
        <path id="Petala3-7" data-name="Petala3" class="cls-32" d="m1226.74,236.63c8.28-16.26,12.42-19.09,14.67-18.52,2.26.57,3.59,4.78,2.99,7.84-1.12,5.75-9.25,8.39-12.82,9.54-1.96.64-3.65.96-4.84,1.14Z"/>
        <path id="Petala2-7" data-name="Petala2" class="cls-31" d="m1225.34,239.34c3.64-.18,7.36-.93,10.97-2.56,3.88-1.75,5.81-3.69,7.55-2.85,1.85.9,2.45,4.44,1.57,6.98-1.56,4.52-8.26,7.35-13.53,5.41-4.49-1.64-6.23-6.1-6.55-6.98Z"/>
        <path id="Petala1-7" data-name="Petala1" class="cls-7" d="m1202.1,248.24c-1.64.1-5.38,2.18-10.4,7.76-1.65,1.83-2.25,3.13-4.06,3.63-2.34.66-5.2-.41-6.77-2.35-2.47-3.06-1.61-8.18.93-10.54,2.03-1.89,6.18-1.33,14.46-.21,5.01.68,6.71,1.66,5.84,1.71Z"/>
        <path class="cls-6" d="m1213,248.74c0-1.91-4.39,2.43-6.46,5.38-1.19,1.69-1.75,3.21-2.15,4.31-.97,2.62-1.62,4.37-1.08,6.46.1.37.79,2.89,3.23,4.31,2.37,1.37,6.26,1.62,8.61-1.08,1.48-1.69,2.15-4.31,0-8.61-.29-.58-.44-1.02-.55-1.45-.17-.71-.21-1.44-.53-2.85-.61-2.7-1.08-4.31-1.08-6.46Z"/>
      </g>
      <g id="petalas-8" data-name="petalas">
        <path class="cls-35" d="m1237.79,308.74c-.24-.31-.97-.04-3.21.78-7.75,2.84-9.06,3.32-10.83,4.84-1.2,1.04-1.94,1.68-2.56,2.85-2.12,3.98-.99,10.43,2.49,11.68,1.98.71,4.55-.32,6.05-1.92,2.4-2.55.65-5.01,2.49-9.76,2-5.15,6.17-7.7,5.56-8.48Z"/>
        <path class="cls-71" d="m1251.83,300.69c.23.19,4.02,3.41,3.21,7.27-.06.28-.29,1.27-1.07,2.28-1.46,1.89-4.52,3.43-7.27,2.21-2.78-1.24-3.31-4.45-3.35-4.7,1.51-1.16,3.06-2.39,4.63-3.7,1.34-1.13,2.63-2.24,3.85-3.35Z"/>
        <path id="Petala7-8" data-name="Petala7" class="cls-33" d="m1240.5,306.39c-9.43-7.57-13.2-12.55-14.82-15.81-.15-.31-.55-1.13-1.21-2.21-1.25-2.03-4.17-6.76-8.83-8.41-4.91-1.73-11.49.06-12.04,2.64-.41,1.94,2.83,3.13,8.48,8.55,6.65,6.38,6.42,8.83,10.47,11.75,3.16,2.28,8.53,4.56,17.95,3.49Z"/>
        <path id="Petala6-8" data-name="Petala6" class="cls-37" d="m1218.92,265.72c8.94,3.6,14.66,8.55,17.81,11.75,2.88,2.92,6.47,6.66,8.41,12.68,1.26,3.92,2.87,12.09-.07,13.82-3.56,2.09-12.79-5.85-18.02-13.25-6.58-9.3-7.88-19.21-8.12-25Z"/>
        <path id="Petala5-8" data-name="Petala5" class="cls-38" d="m1249.76,299.34c2.63-3.91,5.37-9.48,3.99-15.24-.24-.99-.37-1.02-2.28-5.41-3.22-7.38-4.84-11.14-5.41-14.39-.41-2.3-.69-5.73.14-10.11-1.82.45-10.01,2.64-12.25,9.12-1.17,3.37-.24,6.54.71,9.26,1.93,5.5,6.02,14.96,15.1,26.78Z"/>
        <path id="Petala4-8" data-name="Petala4" class="cls-39" d="m1255.17,294.92c3.55-6.38,5.81-12.02,7.27-16.24,3.44-9.98,2.62-12.78,1.42-14.39-1.3-1.75-3.56-2.79-5.56-2.56-3.77.42-6.15,5.28-6.27,8.97-.07,2.14.63,3.75.85,4.27,1.43,3.4,2.8,9.26,2.28,19.94Z"/>
        <path id="Petala3-8" data-name="Petala3" class="cls-36" d="m1255.74,296.63c8.28-16.26,12.42-19.09,14.67-18.52,2.26.57,3.59,4.78,2.99,7.84-1.12,5.75-9.25,8.39-12.82,9.54-1.96.64-3.65.96-4.84,1.14Z"/>
        <path id="Petala2-8" data-name="Petala2" class="cls-28" d="m1254.34,299.34c3.64-.18,7.36-.93,10.97-2.56,3.88-1.75,5.81-3.69,7.55-2.85,1.85.9,2.45,4.44,1.57,6.98-1.56,4.52-8.26,7.35-13.53,5.41-4.49-1.64-6.23-6.1-6.55-6.98Z"/>
        <path id="Petala1-8" data-name="Petala1" class="cls-5" d="m1231.1,308.24c-1.64.1-5.38,2.18-10.4,7.76-1.65,1.83-2.25,3.13-4.06,3.63-2.34.66-5.2-.41-6.77-2.35-2.47-3.06-1.61-8.18.93-10.54,2.03-1.89,6.18-1.33,14.46-.21,5.01.68,6.71,1.66,5.84,1.71Z"/>
        <path class="cls-4" d="m1242,308.74c0-1.91-4.39,2.43-6.46,5.38-1.19,1.69-1.75,3.21-2.15,4.31-.97,2.62-1.62,4.37-1.08,6.46.1.37.79,2.89,3.23,4.31,2.37,1.37,6.26,1.62,8.61-1.08,1.48-1.69,2.15-4.31,0-8.61-.29-.58-.44-1.02-.55-1.45-.17-.71-.21-1.44-.53-2.85-.61-2.7-1.08-4.31-1.08-6.46Z"/>
      </g>
      <g id="petalas-9" data-name="petalas">
        <path class="cls-27" d="m1280.79,368.74c-.24-.31-.97-.04-3.21.78-7.75,2.84-9.06,3.32-10.83,4.84-1.2,1.04-1.94,1.68-2.56,2.85-2.12,3.98-.99,10.43,2.49,11.68,1.98.71,4.55-.32,6.05-1.92,2.4-2.55.65-5.01,2.49-9.76,2-5.15,6.17-7.7,5.56-8.48Z"/>
        <path class="cls-71" d="m1294.83,360.69c.23.19,4.02,3.41,3.21,7.27-.06.28-.29,1.27-1.07,2.28-1.46,1.89-4.52,3.43-7.27,2.21-2.78-1.24-3.31-4.45-3.35-4.7,1.51-1.16,3.06-2.39,4.63-3.7,1.34-1.13,2.63-2.24,3.85-3.35Z"/>
        <path id="Petala7-9" data-name="Petala7" class="cls-29" d="m1283.5,366.39c-9.43-7.57-13.2-12.55-14.82-15.81-.15-.31-.55-1.13-1.21-2.21-1.25-2.03-4.17-6.76-8.83-8.41-4.91-1.73-11.49.06-12.04,2.64-.41,1.94,2.83,3.13,8.48,8.55,6.65,6.38,6.42,8.83,10.47,11.75,3.16,2.28,8.53,4.56,17.95,3.49Z"/>
        <path id="Petala6-9" data-name="Petala6" class="cls-26" d="m1261.92,325.72c8.94,3.6,14.66,8.55,17.81,11.75,2.88,2.92,6.47,6.66,8.41,12.68,1.26,3.92,2.87,12.09-.07,13.82-3.56,2.09-12.79-5.85-18.02-13.25-6.58-9.3-7.88-19.21-8.12-25Z"/>
        <path id="Petala5-9" data-name="Petala5" class="cls-49" d="m1292.76,359.34c2.63-3.91,5.37-9.48,3.99-15.24-.24-.99-.37-1.02-2.28-5.41-3.22-7.38-4.84-11.14-5.41-14.39-.41-2.3-.69-5.73.14-10.11-1.82.45-10.01,2.64-12.25,9.12-1.17,3.37-.24,6.54.71,9.26,1.93,5.5,6.02,14.96,15.1,26.78Z"/>
        <path id="Petala4-9" data-name="Petala4" class="cls-48" d="m1298.17,354.92c3.55-6.38,5.81-12.02,7.27-16.24,3.44-9.98,2.62-12.78,1.42-14.39-1.3-1.75-3.56-2.79-5.56-2.56-3.77.42-6.15,5.28-6.27,8.97-.07,2.14.63,3.75.85,4.27,1.43,3.4,2.8,9.26,2.28,19.94Z"/>
        <path id="Petala3-9" data-name="Petala3" class="cls-42" d="m1298.74,356.63c8.28-16.26,12.42-19.09,14.67-18.52,2.26.57,3.59,4.78,2.99,7.84-1.12,5.75-9.25,8.39-12.82,9.54-1.96.64-3.65.96-4.84,1.14Z"/>
        <path id="Petala2-9" data-name="Petala2" class="cls-40" d="m1297.34,359.34c3.64-.18,7.36-.93,10.97-2.56,3.88-1.75,5.81-3.69,7.55-2.85,1.85.9,2.45,4.44,1.57,6.98-1.56,4.52-8.26,7.35-13.53,5.41-4.49-1.64-6.23-6.1-6.55-6.98Z"/>
        <path id="Petala1-9" data-name="Petala1" class="cls-8" d="m1274.1,368.24c-1.64.1-5.38,2.18-10.4,7.76-1.65,1.83-2.25,3.13-4.06,3.63-2.34.66-5.2-.41-6.77-2.35-2.47-3.06-1.61-8.18.93-10.54,2.03-1.89,6.18-1.33,14.46-.21,5.01.68,6.71,1.66,5.84,1.71Z"/>
        <path class="cls-9" d="m1285,368.74c0-1.91-4.39,2.43-6.46,5.38-1.19,1.69-1.75,3.21-2.15,4.31-.97,2.62-1.62,4.37-1.08,6.46.1.37.79,2.89,3.23,4.31,2.37,1.37,6.26,1.62,8.61-1.08,1.48-1.69,2.15-4.31,0-8.61-.29-.58-.44-1.02-.55-1.45-.17-.71-.21-1.44-.53-2.85-.61-2.7-1.08-4.31-1.08-6.46Z"/>
      </g>
      <g id="petalas-10" data-name="petalas">
        <path class="cls-46" d="m1320.79,412.74c-.24-.31-.97-.04-3.21.78-7.75,2.84-9.06,3.32-10.83,4.84-1.2,1.04-1.94,1.68-2.56,2.85-2.12,3.98-.99,10.43,2.49,11.68,1.98.71,4.55-.32,6.05-1.92,2.4-2.55.65-5.01,2.49-9.76,2-5.15,6.17-7.7,5.56-8.48Z"/>
        <path class="cls-71" d="m1334.83,404.69c.23.19,4.02,3.41,3.21,7.27-.06.28-.29,1.27-1.07,2.28-1.46,1.89-4.52,3.43-7.27,2.21-2.78-1.24-3.31-4.45-3.35-4.7,1.51-1.16,3.06-2.39,4.63-3.7,1.34-1.13,2.63-2.24,3.85-3.35Z"/>
        <path id="Petala7-10" data-name="Petala7" class="cls-47" d="m1323.5,410.39c-9.43-7.57-13.2-12.55-14.82-15.81-.15-.31-.55-1.13-1.21-2.21-1.25-2.03-4.17-6.76-8.83-8.41-4.91-1.73-11.49.06-12.04,2.64-.41,1.94,2.83,3.13,8.48,8.55,6.65,6.38,6.42,8.83,10.47,11.75,3.16,2.28,8.53,4.56,17.95,3.49Z"/>
        <path id="Petala6-10" data-name="Petala6" class="cls-45" d="m1301.92,369.72c8.94,3.6,14.66,8.55,17.81,11.75,2.88,2.92,6.47,6.66,8.41,12.68,1.26,3.92,2.87,12.09-.07,13.82-3.56,2.09-12.79-5.85-18.02-13.25-6.58-9.3-7.88-19.21-8.12-25Z"/>
        <path id="Petala5-10" data-name="Petala5" class="cls-44" d="m1332.76,403.34c2.63-3.91,5.37-9.48,3.99-15.24-.24-.99-.37-1.02-2.28-5.41-3.22-7.38-4.84-11.14-5.41-14.39-.41-2.3-.69-5.73.14-10.11-1.82.45-10.01,2.64-12.25,9.12-1.17,3.37-.24,6.54.71,9.26,1.93,5.5,6.02,14.96,15.1,26.78Z"/>
        <path id="Petala4-10" data-name="Petala4" class="cls-50" d="m1338.17,398.92c3.55-6.38,5.81-12.02,7.27-16.24,3.44-9.98,2.62-12.78,1.42-14.39-1.3-1.75-3.56-2.79-5.56-2.56-3.77.42-6.15,5.28-6.27,8.97-.07,2.14.63,3.75.85,4.27,1.43,3.4,2.8,9.26,2.28,19.94Z"/>
        <path id="Petala3-10" data-name="Petala3" class="cls-43" d="m1338.74,400.63c8.28-16.26,12.42-19.09,14.67-18.52,2.26.57,3.59,4.78,2.99,7.84-1.12,5.75-9.25,8.39-12.82,9.54-1.96.64-3.65.96-4.84,1.14Z"/>
        <path id="Petala2-10" data-name="Petala2" class="cls-41" d="m1337.34,403.34c3.64-.18,7.36-.93,10.97-2.56,3.88-1.75,5.81-3.69,7.55-2.85,1.85.9,2.45,4.44,1.57,6.98-1.56,4.52-8.26,7.35-13.53,5.41-4.49-1.64-6.23-6.1-6.55-6.98Z"/>
        <path id="Petala1-10" data-name="Petala1" class="cls-11" d="m1314.1,412.24c-1.64.1-5.38,2.18-10.4,7.76-1.65,1.83-2.25,3.13-4.06,3.63-2.34.66-5.2-.41-6.77-2.35-2.47-3.06-1.61-8.18.93-10.54,2.03-1.89,6.18-1.33,14.46-.21,5.01.68,6.71,1.66,5.84,1.71Z"/>
        <path class="cls-10" d="m1325,412.74c0-1.91-4.39,2.43-6.46,5.38-1.19,1.69-1.75,3.21-2.15,4.31-.97,2.62-1.62,4.37-1.08,6.46.1.37.79,2.89,3.23,4.31,2.37,1.37,6.26,1.62,8.61-1.08,1.48-1.69,2.15-4.31,0-8.61-.29-.58-.44-1.02-.55-1.45-.17-.71-.21-1.44-.53-2.85-.61-2.7-1.08-4.31-1.08-6.46Z"/>
      </g>
    </g>
  </g>
</svg>