<?xml version="1.0" encoding="UTF-8"?>
<svg id="Objects" xmlns="http://www.w3.org/2000/svg" xmlns:xlink="http://www.w3.org/1999/xlink" viewBox="0 0 1934 1934">
  <defs>
    <style>
      .cls-1 {
        fill: url(#radial-gradient);
      }

      .cls-1, .cls-2, .cls-3 {
        stroke-width: 0px;
      }

      .cls-2 {
        fill: url(#radial-gradient-2);
      }

      .cls-3 {
        fill: url(#radial-gradient-3);
      }
    </style>
    <radialGradient id="radial-gradient" cx="751.08" cy="449.06" fx="751.08" fy="449.06" r="1281.54" gradientUnits="userSpaceOnUse">
      <stop offset="0" stop-color="#f964e1"/>
      <stop offset="1" stop-color="#ce2f79"/>
    </radialGradient>
    <radialGradient id="radial-gradient-2" cx="1038.09" cy="410.26" fx="1038.09" fy="410.26" r="489.83" gradientUnits="userSpaceOnUse">
      <stop offset="0" stop-color="#fff"/>
      <stop offset="1" stop-color="#cecece"/>
    </radialGradient>
    <radialGradient id="radial-gradient-3" cx="978.66" cy="1180.99" fx="978.66" fy="1180.99" r="687.99" xlink:href="#radial-gradient-2"/>
  </defs>
  <path class="cls-1" d="m1934,818.5c0,219.68-86.55,419.15-227.41,566.16-148.98,155.52-358.73,252.34-591.09,252.34s-442.11-96.82-591.09-252.34c-140.86-147.01-227.41-346.48-227.41-566.16C297,366.46,663.46,0,1115.5,0s818.5,366.46,818.5,818.5Z"/>
  <circle class="cls-2" cx="1115.5" cy="528.05" r="334.38"/>
  <path class="cls-3" d="m1706.59,1384.66c-148.98,155.52-358.73,252.34-591.09,252.34s-442.11-96.82-591.09-252.34c84.13-245.58,317-422.11,591.09-422.11s506.96,176.53,591.09,422.11Z"/>
</svg>