<?xml version="1.0" encoding="UTF-8"?>
<svg id="Layer_1" data-name="Layer 1" xmlns="http://www.w3.org/2000/svg" xmlns:xlink="http://www.w3.org/1999/xlink" viewBox="0 0 71.53 76.33">
  <defs>
    <style>
      .cls-1 {
        fill: url(#linear-gradient-3);
      }

      .cls-1, .cls-2, .cls-3, .cls-4, .cls-5, .cls-6, .cls-7, .cls-8, .cls-9, .cls-10 {
        stroke-miterlimit: 10;
        stroke-width: .27px;
      }

      .cls-1, .cls-2, .cls-3, .cls-4, .cls-5, .cls-6, .cls-9, .cls-10 {
        stroke: #d3d3d3;
      }

      .cls-2 {
        fill: url(#linear-gradient-7);
      }

      .cls-3 {
        fill: url(#linear-gradient-5);
      }

      .cls-4 {
        fill: url(#linear-gradient-6);
      }

      .cls-5 {
        fill: url(#linear-gradient-4);
      }

      .cls-6 {
        fill: url(#linear-gradient-2);
      }

      .cls-7 {
        fill: url(#linear-gradient-8);
      }

      .cls-7, .cls-8 {
        stroke: #e5e5e5;
      }

      .cls-8 {
        fill: url(#linear-gradient-9);
      }

      .cls-9 {
        fill: #d57eb4;
      }

      .cls-10 {
        fill: url(#linear-gradient);
      }
    </style>
    <linearGradient id="linear-gradient" x1="16.05" y1="73.57" x2="25.08" y2="64.97" gradientUnits="userSpaceOnUse">
      <stop offset="0" stop-color="#fff"/>
      <stop offset=".41" stop-color="#d57eb4"/>
    </linearGradient>
    <linearGradient id="linear-gradient-2" x1="-5.49" y1="32.45" x2="35.35" y2="43.25" xlink:href="#linear-gradient"/>
    <linearGradient id="linear-gradient-3" x1="10.69" y1="23.39" x2="43.08" y2="38.21" xlink:href="#linear-gradient"/>
    <linearGradient id="linear-gradient-4" x1="29.97" y1="22.76" x2="47.01" y2="22.76" xlink:href="#linear-gradient"/>
    <linearGradient id="linear-gradient-5" x1="48.6" y1="24.31" x2="61.46" y2="24.31" gradientUnits="userSpaceOnUse">
      <stop offset="0" stop-color="#fff"/>
      <stop offset=".09" stop-color="#efcce1"/>
      <stop offset=".68" stop-color="#d57eb4"/>
    </linearGradient>
    <linearGradient id="linear-gradient-6" x1="52.31" y1="33.34" x2="70.12" y2="33.34" gradientUnits="userSpaceOnUse">
      <stop offset="0" stop-color="#fff"/>
      <stop offset=".38" stop-color="#efcce1"/>
      <stop offset=".55" stop-color="#d57eb4"/>
    </linearGradient>
    <linearGradient id="linear-gradient-7" x1="50.91" y1="46.33" x2="71.4" y2="46.33" gradientUnits="userSpaceOnUse">
      <stop offset="0" stop-color="#fff"/>
      <stop offset=".25" stop-color="#efcce1"/>
      <stop offset=".52" stop-color="#d57eb4"/>
    </linearGradient>
    <linearGradient id="linear-gradient-8" x1="1.74" y1="61.58" x2="23.22" y2="55.07" gradientUnits="userSpaceOnUse">
      <stop offset=".23" stop-color="#fcf3f8"/>
      <stop offset=".55" stop-color="#d57eb4"/>
      <stop offset=".77" stop-color="#d57eb4"/>
    </linearGradient>
    <linearGradient id="linear-gradient-9" x1="30.7" y1="73.29" x2="39.7" y2="63.34" xlink:href="#linear-gradient-8"/>
  </defs>
  <g id="petalas">
    <path class="cls-10" d="m34.36,54.74c-.24-.31-.97-.04-3.21.78-7.75,2.84-9.06,3.32-10.83,4.84-1.2,1.04-1.94,1.68-2.56,2.85-2.12,3.98-.99,10.43,2.49,11.68,1.98.71,4.55-.32,6.05-1.92,2.4-2.55.65-5.01,2.49-9.76,2-5.15,6.17-7.7,5.56-8.48Z"/>
    <path class="cls-9" d="m48.39,46.69c.23.19,4.02,3.41,3.21,7.27-.06.28-.29,1.27-1.07,2.28-1.46,1.89-4.52,3.43-7.27,2.21-2.78-1.24-3.31-4.45-3.35-4.7,1.51-1.16,3.06-2.39,4.63-3.7,1.34-1.13,2.63-2.24,3.85-3.35Z"/>
    <path id="Petala7" class="cls-6" d="m37.07,52.39c-9.43-7.57-13.2-12.55-14.82-15.81-.15-.31-.55-1.13-1.21-2.21-1.25-2.03-4.17-6.76-8.83-8.41-4.91-1.73-11.49.06-12.04,2.64-.41,1.94,2.83,3.13,8.48,8.55,6.65,6.38,6.42,8.83,10.47,11.75,3.16,2.28,8.53,4.56,17.95,3.49Z"/>
    <path id="Petala6" class="cls-1" d="m15.48,11.72c8.94,3.6,14.66,8.55,17.81,11.75,2.88,2.92,6.47,6.66,8.41,12.68,1.26,3.92,2.87,12.09-.07,13.82-3.56,2.09-12.79-5.85-18.02-13.25-6.58-9.3-7.88-19.21-8.12-25Z"/>
    <path id="Petala5" class="cls-5" d="m46.33,45.34c2.63-3.91,5.37-9.48,3.99-15.24-.24-.99-.37-1.02-2.28-5.41-3.22-7.38-4.84-11.14-5.41-14.39-.41-2.3-.69-5.73.14-10.11-1.82.45-10.01,2.64-12.25,9.12-1.17,3.37-.24,6.54.71,9.26,1.93,5.5,6.02,14.96,15.1,26.78Z"/>
    <path id="Petala4" class="cls-3" d="m51.74,40.92c3.55-6.38,5.81-12.02,7.27-16.24,3.44-9.98,2.62-12.78,1.42-14.39-1.3-1.75-3.56-2.79-5.56-2.56-3.77.42-6.15,5.28-6.27,8.97-.07,2.14.63,3.75.85,4.27,1.43,3.4,2.8,9.26,2.28,19.94Z"/>
    <path id="Petala3" class="cls-4" d="m52.31,42.63c8.28-16.26,12.42-19.09,14.67-18.52,2.26.57,3.59,4.78,2.99,7.84-1.12,5.75-9.25,8.39-12.82,9.54-1.96.64-3.65.96-4.84,1.14Z"/>
    <path id="Petala2" class="cls-2" d="m50.91,45.34c3.64-.18,7.36-.93,10.97-2.56,3.88-1.75,5.81-3.69,7.55-2.85,1.85.9,2.45,4.44,1.57,6.98-1.56,4.52-8.26,7.35-13.53,5.41-4.49-1.64-6.23-6.1-6.55-6.98Z"/>
    <path id="Petala1" class="cls-7" d="m27.66,54.24c-1.64.1-5.38,2.18-10.4,7.76-1.65,1.83-2.25,3.13-4.06,3.63-2.34.66-5.2-.41-6.77-2.35-2.47-3.06-1.61-8.18.93-10.54,2.03-1.89,6.18-1.33,14.46-.21,5.01.68,6.71,1.66,5.84,1.71Z"/>
    <path class="cls-8" d="m38.56,54.74c0-1.91-4.39,2.43-6.46,5.38-1.19,1.69-1.75,3.21-2.15,4.31-.97,2.62-1.62,4.37-1.08,6.46.1.37.79,2.89,3.23,4.31,2.37,1.37,6.26,1.62,8.61-1.08,1.48-1.69,2.15-4.31,0-8.61-.29-.58-.44-1.02-.55-1.45-.17-.71-.21-1.44-.53-2.85-.61-2.7-1.08-4.31-1.08-6.46Z"/>
  </g>
</svg>