<?xml version="1.0" encoding="UTF-8"?>
<svg id="Layer_1" data-name="Layer 1" xmlns="http://www.w3.org/2000/svg" xmlns:xlink="http://www.w3.org/1999/xlink" viewBox="0 0 66.46 70.91">
  <defs>
    <style>
      .cls-1 {
        fill: url(#linear-gradient-3);
      }

      .cls-1, .cls-2, .cls-3, .cls-4, .cls-5, .cls-6, .cls-7, .cls-8, .cls-9, .cls-10 {
        stroke-miterlimit: 10;
        stroke-width: .25px;
      }

      .cls-1, .cls-2, .cls-3, .cls-4, .cls-5, .cls-6, .cls-9, .cls-10 {
        stroke: #d3d3d3;
      }

      .cls-2 {
        fill: url(#linear-gradient-2);
      }

      .cls-3 {
        fill: url(#linear-gradient-4);
      }

      .cls-4 {
        fill: url(#linear-gradient-7);
      }

      .cls-5 {
        fill: url(#linear-gradient-5);
      }

      .cls-6 {
        fill: url(#linear-gradient-6);
      }

      .cls-7 {
        fill: url(#linear-gradient-8);
      }

      .cls-7, .cls-8 {
        stroke: #e5e5e5;
      }

      .cls-8 {
        fill: url(#linear-gradient-9);
      }

      .cls-9 {
        fill: url(#linear-gradient);
      }

      .cls-10 {
        fill: #efb0cb;
      }
    </style>
    <linearGradient id="linear-gradient" x1="14.91" y1="68.35" x2="23.3" y2="60.36" gradientUnits="userSpaceOnUse">
      <stop offset="0" stop-color="#fff"/>
      <stop offset=".41" stop-color="#efb0cb"/>
    </linearGradient>
    <linearGradient id="linear-gradient-2" x1="-5.1" y1="30.15" x2="32.84" y2="40.18" xlink:href="#linear-gradient"/>
    <linearGradient id="linear-gradient-3" x1="9.93" y1="21.73" x2="40.02" y2="35.5" xlink:href="#linear-gradient"/>
    <linearGradient id="linear-gradient-4" x1="27.84" y1="21.15" x2="43.67" y2="21.15" xlink:href="#linear-gradient"/>
    <linearGradient id="linear-gradient-5" x1="45.15" y1="22.59" x2="57.1" y2="22.59" gradientUnits="userSpaceOnUse">
      <stop offset="0" stop-color="#fff"/>
      <stop offset=".09" stop-color="#f4ccdd"/>
      <stop offset=".68" stop-color="#efb0cb"/>
    </linearGradient>
    <linearGradient id="linear-gradient-6" x1="48.6" y1="30.98" x2="65.14" y2="30.98" gradientUnits="userSpaceOnUse">
      <stop offset="0" stop-color="#fff"/>
      <stop offset=".38" stop-color="#f4ccdd"/>
      <stop offset=".55" stop-color="#efb0cb"/>
    </linearGradient>
    <linearGradient id="linear-gradient-7" x1="47.3" y1="43.04" x2="66.33" y2="43.04" gradientUnits="userSpaceOnUse">
      <stop offset="0" stop-color="#fff"/>
      <stop offset=".25" stop-color="#f4ccdd"/>
      <stop offset=".52" stop-color="#efb0cb"/>
    </linearGradient>
    <linearGradient id="linear-gradient-8" x1="1.61" y1="57.21" x2="21.57" y2="51.16" gradientUnits="userSpaceOnUse">
      <stop offset=".23" stop-color="#fcf3f8"/>
      <stop offset=".55" stop-color="#efb0cb"/>
      <stop offset=".77" stop-color="#efb0cb"/>
    </linearGradient>
    <linearGradient id="linear-gradient-9" x1="28.53" y1="68.09" x2="36.88" y2="58.85" xlink:href="#linear-gradient-8"/>
  </defs>
  <g id="petalas">
    <path class="cls-9" d="m31.92,50.86c-.22-.28-.9-.03-2.98.73-7.2,2.64-8.42,3.08-10.06,4.5-1.11.96-1.8,1.56-2.38,2.65-1.97,3.69-.92,9.69,2.32,10.85,1.84.66,4.22-.3,5.63-1.79,2.23-2.37.6-4.66,2.32-9.07,1.86-4.78,5.73-7.15,5.16-7.88Z"/>
    <path class="cls-10" d="m44.96,43.38c.21.17,3.73,3.17,2.98,6.75-.05.26-.27,1.18-.99,2.12-1.36,1.76-4.2,3.19-6.75,2.05-2.58-1.15-3.08-4.14-3.11-4.37,1.4-1.07,2.84-2.22,4.3-3.44,1.25-1.05,2.44-2.08,3.57-3.11Z"/>
    <path id="Petala7" class="cls-2" d="m34.44,48.68c-8.76-7.03-12.27-11.66-13.76-14.69-.14-.29-.51-1.05-1.12-2.05-1.16-1.88-3.87-6.28-8.21-7.81-4.56-1.61-10.67.06-11.18,2.45-.39,1.8,2.63,2.9,7.87,7.94,6.18,5.93,5.96,8.2,9.73,10.92,2.94,2.12,7.93,4.24,16.68,3.24Z"/>
    <path id="Petala6" class="cls-1" d="m14.39,10.89c8.3,3.34,13.62,7.94,16.54,10.92,2.67,2.72,6.01,6.19,7.81,11.78,1.17,3.65,2.67,11.23-.07,12.84-3.31,1.94-11.88-5.43-16.74-12.31-6.11-8.64-7.32-17.85-7.54-23.23Z"/>
    <path id="Petala5" class="cls-3" d="m43.04,42.12c2.45-3.63,4.99-8.81,3.71-14.16-.22-.92-.34-.95-2.12-5.03-2.99-6.86-4.49-10.35-5.03-13.37-.38-2.13-.64-5.32.13-9.4-1.69.41-9.3,2.45-11.38,8.47-1.08,3.13-.23,6.07.66,8.6,1.79,5.11,5.59,13.9,14.03,24.88Z"/>
    <path id="Petala4" class="cls-5" d="m48.07,38.02c3.3-5.93,5.4-11.17,6.75-15.09,3.19-9.27,2.43-11.87,1.32-13.37-1.21-1.63-3.31-2.59-5.16-2.38-3.5.39-5.72,4.9-5.82,8.34-.06,1.99.59,3.48.79,3.97,1.33,3.16,2.6,8.6,2.12,18.53Z"/>
    <path id="Petala3" class="cls-6" d="m48.6,39.61c7.69-15.1,11.54-17.73,13.63-17.21,2.1.53,3.33,4.44,2.78,7.28-1.04,5.35-8.59,7.79-11.91,8.87-1.82.59-3.39.89-4.5,1.06Z"/>
    <path id="Petala2" class="cls-4" d="m47.3,42.12c3.39-.16,6.84-.87,10.19-2.38,3.61-1.63,5.4-3.43,7.01-2.65,1.72.83,2.27,4.12,1.46,6.49-1.45,4.2-7.67,6.83-12.57,5.03-4.17-1.53-5.79-5.67-6.09-6.49Z"/>
    <path id="Petala1" class="cls-7" d="m25.7,50.4c-1.52.09-5,2.03-9.66,7.21-1.53,1.7-2.09,2.9-3.77,3.37-2.17.61-4.83-.38-6.29-2.18-2.3-2.85-1.49-7.6.86-9.79,1.89-1.76,5.74-1.24,13.43-.2,4.66.63,6.24,1.54,5.43,1.59Z"/>
    <path class="cls-8" d="m35.83,50.86c0-1.77-4.08,2.26-6,5-1.1,1.57-1.62,2.98-2,4-.9,2.43-1.5,4.06-1,6,.09.34.73,2.69,3,4,2.2,1.27,5.81,1.51,8-1,1.37-1.57,2-4,0-8-.27-.54-.41-.94-.51-1.35-.16-.66-.2-1.33-.49-2.65-.57-2.51-1-4-1-6Z"/>
  </g>
</svg>