<svg width="21" height="20" viewBox="0 0 21 20" fill="none" xmlns="http://www.w3.org/2000/svg">
<g id="bag.svg" clip-path="url(#clip0_1_400)">
<g id="bag.svg fill" clip-path="url(#clip1_1_400)">
<g id="bag.svg_2">
<g id="Group">
<g id="Group_2">
<g id="Group_3">
<path id="Vector" d="M13.9325 6.25C13.7598 6.25 13.62 6.11008 13.62 5.9375V4.0625C13.62 2.33934 12.218 0.9375 10.495 0.9375C8.77199 0.9375 7.37 2.33934 7.37 4.0625V5.9375C7.37 6.11008 7.23023 6.25 7.0575 6.25C6.88476 6.25 6.745 6.11008 6.745 5.9375V4.0625C6.745 1.99477 8.42714 0.3125 10.495 0.3125C12.5628 0.3125 14.245 1.99477 14.245 4.0625V5.9375C14.245 6.11008 14.1052 6.25 13.9325 6.25Z" fill="#540002"/>
</g>
</g>
<g id="Group_4">
<path id="Vector_2" d="M19.0582 16.0875L18.0551 8.9C17.8195 7.21117 16.3559 5.9375 14.6509 5.9375H6.33909C4.63409 5.9375 3.17046 7.21113 2.93487 8.9L1.93175 16.0875C1.79413 17.0729 2.09015 18.0686 2.7432 18.819C3.39628 19.5695 4.34144 20 5.33632 20H15.6537C16.6486 20 17.5937 19.5695 18.2468 18.819C18.8998 18.0686 19.1959 17.0729 19.0582 16.0875Z" fill="#540002"/>
</g>
<g id="Group_5">
<path id="Vector_3" d="M14.6509 5.9375H6.33909C5.96284 5.9375 5.59972 6.0027 5.25757 6.1175L6.14772 11.6593C6.34397 12.6896 7.24761 13.4375 8.29651 13.4375H12.6935C13.7424 13.4375 14.646 12.6896 14.8438 11.6504L15.7324 6.1175C15.3903 6.0027 15.0271 5.9375 14.6509 5.9375Z" fill="#F0B1CC"/>
</g>
<g id="Group_6">
<path id="Vector_4" d="M12.37 11.875H8.62C8.2748 11.875 7.995 11.5952 7.995 11.25C7.995 10.9048 8.2748 10.625 8.62 10.625H12.37C12.7152 10.625 12.995 10.9048 12.995 11.25C12.995 11.5952 12.7152 11.875 12.37 11.875Z" fill="#FFEE43"/>
</g>
<g id="Group_7">
<path id="Vector_5" d="M7.995 15C7.995 14.6548 8.2748 14.375 8.62 14.375C8.96519 14.375 9.245 14.6548 9.245 15C9.245 15.3452 8.96519 15.625 8.62 15.625C8.2748 15.625 7.995 15.3452 7.995 15Z" fill="#FFD100"/>
</g>
<g id="Group_8">
<path id="Vector_6" d="M7.995 17.5C7.995 17.1548 8.2748 16.875 8.62 16.875C8.96519 16.875 9.245 17.1548 9.245 17.5C9.245 17.8452 8.96519 18.125 8.62 18.125C8.2748 18.125 7.995 17.8452 7.995 17.5Z" fill="#FFD100"/>
</g>
<g id="Group_9">
<path id="Vector_7" d="M11.745 15C11.745 14.6548 12.0248 14.375 12.37 14.375C12.7152 14.375 12.995 14.6548 12.995 15C12.995 15.3452 12.7152 15.625 12.37 15.625C12.0248 15.625 11.745 15.3452 11.745 15Z" fill="#FFD100"/>
</g>
<g id="Group_10">
<path id="Vector_8" d="M11.745 17.5C11.745 17.1548 12.0248 16.875 12.37 16.875C12.7152 16.875 12.995 17.1548 12.995 17.5C12.995 17.8452 12.7152 18.125 12.37 18.125C12.0248 18.125 11.745 17.8452 11.745 17.5Z" fill="#FFD100"/>
</g>
<g id="Group_11">
<g id="Group_12">
<path id="Vector_9" d="M13.147 2.5C12.9671 2.5 12.7884 2.42266 12.6648 2.27293C12.1278 1.62293 11.337 1.25 10.495 1.25C9.65297 1.25 8.86211 1.62293 8.32516 2.27297C8.10496 2.53922 7.71113 2.5766 7.44535 2.35687C7.1791 2.13715 7.14156 1.74316 7.36145 1.47707C8.13656 0.53832 9.27883 0 10.495 0C11.7111 0 12.8534 0.53832 13.6285 1.47707C13.8484 1.7432 13.8109 2.13715 13.5446 2.35687C13.4282 2.45316 13.2871 2.5 13.147 2.5Z" fill="#540002"/>
</g>
</g>
<g id="Group_13">
<path id="Vector_10" d="M6.4325 5.9375C6.4325 5.5923 6.7123 5.3125 7.0575 5.3125C7.40269 5.3125 7.6825 5.5923 7.6825 5.9375" fill="#FFD100"/>
</g>
<g id="Group_14">
<path id="Vector_11" d="M13.3075 5.9375C13.3075 5.5923 13.5873 5.3125 13.9325 5.3125C14.2777 5.3125 14.5575 5.5923 14.5575 5.9375" fill="#FFD100"/>
</g>
</g>
</g>
</g>
</g>
<defs>
<clipPath id="clip0_1_400">
<rect width="20" height="20" fill="white" transform="translate(0.494995)"/>
</clipPath>
<clipPath id="clip1_1_400">
<rect width="20" height="20" fill="white" transform="translate(0.494995)"/>
</clipPath>
</defs>
</svg>
