<svg id="Layer_15" viewBox="0 0 64 64" xmlns="http://www.w3.org/2000/svg" data-name="Layer 15"><g><g><rect fill="#4788c7" height="6" rx="1.341" transform="matrix(.342 -.94 .94 .342 24.991 62.976)" width="9.319" x="52.805" y="10.643"/><path d="m6.09042553 20.74637811h46.66311555c1.9816098 0 3.59042553 1.60881574 3.59042553 3.59042553v22.56382979c0 4.68247055-3.801572 8.48404255-8.48404255 8.48404255h-36.87588151c-4.68247055 0-8.48404255-3.801572-8.48404255-8.48404255v-22.56382979c0-1.9816098 1.60881574-3.59042553 3.59042553-3.59042553z" fill="#98ccfd"/><path d="m51.89001465 54.35998535c-1.20001221.65002441-2.57000732 1.02001953-4.0300293 1.02001953h-36.88000488c-4.67999268 0-8.47998047-3.79003906-8.47998047-8.4800415v-22.55999756c0-1.98999023 1.60998535-3.58996582 3.59002686-3.58996582h1.02996826c-.67999268.64996338-1.10998535 1.57000732-1.10998535 2.58996582v22.55999756c0 4.69000244 3.79998779 8.4800415 8.47998047 8.4800415h36.88000488c.16998291 0 .34997559-.01000977.52001953-.02001953z" fill="#65a5e0"/><path d="m21.58154297 20.62228195h11.19726562c2.47445496 0 4.48339844 2.00894348 4.48339844 4.48339844v36.87646484c0 2.47472445-2.00916227 4.48388672-4.48388672 4.48388672h-11.19677734z" fill="#4788c7" transform="matrix(0 1 -1 0 72.966 14.122)"/></g><g fill="#3678b8"><path d="m6.5 35.70382492h22.89538577v2.75989417c0 1.23645127-1.00384156 2.24029283-2.24029283 2.24029283h-18.41480011c-1.23645127 0-2.24029283-1.00384156-2.24029283-2.24029283z"/><path d="m29.39538577 35.70382492h22.89538577v2.75989417c0 1.23645127-1.00384156 2.24029283-2.24029283 2.24029283h-18.41480012c-1.23645127 0-2.24029283-1.00384156-2.24029283-2.24029283v-2.75989417z"/></g></g><path d="m60.95962961 8.89179748-3.11816406-1.13427734c-.58740234-.21435547-1.22412109-.18554688-1.79003906.07763672-.56689453.26464844-.99658203.73388672-1.20996094 1.32080078l-2.27050781 6.23730469c-.21435547.58789062-.18652344 1.22314453.07763672 1.79003906.26464844.56689453.73388672.99658203 1.32080078 1.20996094l.67431641.2454834-.5168457 1.34124756c-.43640137-.13806152-.89178467-.23321533-1.37329102-.23321533h-46.66308594c-2.53125 0-4.59033203 2.05908203-4.59033203 4.59033203v22.56347656c0 5.22949219 4.25439453 9.484375 9.48388672 9.484375h36.87597656c5.22949219 0 9.48388672-4.25488281 9.48388672-9.484375v-22.56347656c0-1.32098389-.56884766-2.50427246-1.46484375-3.3425293l.64416504-1.67163086.56481934.20556641c.26367188.09619141.53320312.14160156.79833984.14160156.95605469 0 1.85595703-.59082031 2.20166016-1.54052734l2.27099609-6.23779297c.44042969-1.21240234-.18701172-2.55810547-1.39941406-3zm-5.61572266 38.00878906c0 4.12695312-3.35742188 7.484375-7.48388672 7.484375h-36.87597656c-4.12646484 0-7.48388672-3.35742188-7.48388672-7.484375v-22.56347656c0-1.42822266 1.16210938-2.59033203 2.59033203-2.59033203h46.66308594c1.42822266 0 2.59033203 1.16210938 2.59033203 2.59033203zm5.13574219-35.69238281-2.27050781 6.23730469c-.06494141.17675781-.26123047.26708984-.43652344.20410156l-3.11914062-1.13574219c-.11523438-.04199219-.16992188-.12792969-.19189453-.17578125-.02246094-.04785156-.05371094-.14501953-.01171875-.26025391l2.27099609-6.23779297c.04199219-.11523438.12792969-.16992188.17578125-.19189453.03027344-.01464844.08154297-.03222656.14404297-.03222656.03564453 0 .07470703.00537109.11669922.02099609l3.11816406 1.13427734c.17675781.06445312.26806641.26025391.20410156.43701172zm-7.13574219 24.49609375c0-.55273438-.44775391-1-1-1h-45.84375c-.55224609 0-1 .44726562-1 1v11.19726562c0 3.0234375 2.45996094 5.48339844 5.48388672 5.48339844h36.87597656c3.02392578 0 5.48388672-2.45996094 5.48388672-5.48339844zm-2 2.76068115c-.00048828.6831665-.5567627 1.23931885-1.24053955 1.23931885h-18.44110107c-.68408203 0-1.24023438-.55664062-1.24023438-1.24023438v-1.75976562h20.921875zm-43.84375-1.76068115h20.921875v1.75976562c0 .68359375-.55615234 1.24023438-1.24023438 1.24023438h-18.44140624c-.68408203 0-1.24023438-.55664062-1.24023438-1.24023438zm0 10.19726562v-5.44610596c.38244629.15911865.80084229.24884033 1.24023438.24884033h18.44140625c.43939209 0 .85778809-.08972168 1.24023438-.24884033v8.92950439h-17.43798829c-1.92089844 0-3.48388672-1.5625-3.48388672-3.48339844zm40.35986328 3.48339844h-17.43798828v-8.92950439c.38244629.15911865.80084229.24884033 1.24023438.24884033h18.44110107c.43951416 0 .85803223-.08972168 1.24053955-.24884033v5.44610596c0 1.92089844-1.56298828 3.48339844-3.48388672 3.48339844zm-12.42919922-25.63867188c0-.13818359.11181641-.25.25-.25h2c.13818359 0 .25.11181641.25.25s-.11181641.25-.25.25h-2c-.13818359 0-.25-.11181641-.25-.25zm5 0c0-.13818359.11181641-.25.25-.25h2c.13818359 0 .25.11181641.25.25s-.11181641.25-.25.25h-2c-.13818359 0-.25-.11181641-.25-.25zm5 0c0-.13818359.11181641-.25.25-.25h2c.13818359 0 .25.11181641.25.25s-.11181641.25-.25.25h-2c-.13818359 0-.25-.11181641-.25-.25zm5 0c0-.13818359.11181641-.25.25-.25h2c.13818359 0 .25.11181641.25.25s-.11181641.25-.25.25h-2c-.13818359 0-.25-.11181641-.25-.25zm-45 0c0-.13818359.11181641-.25.25-.25h2c.13818359 0 .25.11181641.25.25s-.11181641.25-.25.25h-2c-.13818359 0-.25-.11181641-.25-.25zm25 0c0-.13818359.11181641-.25.25-.25h2c.13818359 0 .25.11181641.25.25s-.11181641.25-.25.25h-2c-.13818359 0-.25-.11181641-.25-.25zm-20 0c0-.13818359.11181641-.25.25-.25h2c.13818359 0 .25.11181641.25.25s-.11181641.25-.25.25h-2c-.13818359 0-.25-.11181641-.25-.25zm5 0c0-.13818359.11181641-.25.25-.25h2c.13818359 0 .25.11181641.25.25s-.11181641.25-.25.25h-2c-.13818359 0-.25-.11181641-.25-.25zm5 0c0-.13818359.11181641-.25.25-.25h2c.13818359 0 .25.11181641.25.25s-.11181641.25-.25.25h-2c-.13818359 0-.25-.11181641-.25-.25zm5 0c0-.13818359.11181641-.25.25-.25h2c.13818359 0 .25.11181641.25.25s-.11181641.25-.25.25h-2c-.13818359 0-.25-.11181641-.25-.25z" fill="#2a5075"/></svg>