<svg height="512" viewBox="0 0 64 64" width="512" xmlns="http://www.w3.org/2000/svg"><g id="_17-ballet_shoes" data-name="17-ballet shoes"><path d="m43.77 25.94 5.23-14.94a8.5 8.5 0 0 1 5.92 2.26 9.838 9.838 0 0 1 3.08 7.32v.62c0 2.04-1 4.07-5 7.13a11.368 11.368 0 0 0 -2.62 3.05 18.763 18.763 0 0 0 -2.32 13.58l1.76 8.96a6.106 6.106 0 0 1 .07 1.86c-.07.55-.17 1.31-.26 2.12a5.763 5.763 0 0 1 -5.69 5.1h-.12a5.5 5.5 0 0 1 -5.16-3.65l-4.66-12.35h3s5-9 5-16z" fill="#ff8088"/><path d="m49 11-5.23 14.94a23.4 23.4 0 0 1 -11.77-6.94v-1s8.6-8.6 14.59-8.98a4.36 4.36 0 0 0 2.41 1.98z" fill="#ffd0c4"/><path d="m46 6.84a4.29 4.29 0 0 0 .59 2.18c-5.99.38-14.59 8.98-14.59 8.98v-6s5-7 14-7z" fill="#ff8088"/><path d="m46 4v1c-9 0-14 7-14 7v-8z" fill="#ffd0c4"/><path d="m32 1h14v3h-14z" fill="#ff8088"/><path d="m43.77 25.94-1.77 5.06a24.279 24.279 0 0 1 -10-5.94v-6.06a23.4 23.4 0 0 0 11.77 6.94z" fill="#ff8088"/><path d="m42 31c0 7-5 16-5 16h-3l-2-15v-6.94a24.279 24.279 0 0 0 10 5.94z" fill="#ffd0c4"/><path d="m14 1h14s-.35 1.64-.81 3.88c-2.86-.44-12.34-1.88-13.19-1.88z" fill="#ffd0c4"/><path d="m24.47 24.37.53-7.37 1 7 1 23v1.05a23.849 23.849 0 0 1 -.72 5.82l-.51 2.07a9.33 9.33 0 0 1 -17.9.68l-.64-1.93a24.114 24.114 0 0 1 -1.23-7.58v-1.11l2-15s0 15 8 15 8-15 8-15z" fill="#ff8088"/><path d="m27.19 4.88c-.26 1.22-.54 2.62-.82 4.03l-13.05-1.86a24.765 24.765 0 0 0 .68-4.05c.85 0 10.33 1.44 13.19 1.88z" fill="#ff8088"/><path d="m13.32 7.05 13.05 1.86c-.14.71-.28 1.42-.41 2.12l-7.37 4.33c-2.16-3.35-4.59-6.9-5.35-8.01.03-.1.05-.2.08-.3z" fill="#ffd0c4"/><path d="m21.12 19.18-3.73 2.1-8.39 4.72-.33-.04.69-5.17 5.56-3.28 3.67-2.15 7.37-4.33a53.594 53.594 0 0 0 -.96 5.97z" fill="#ff8088"/><path d="m25 17-.53 7.37c-.88-1.18-2.07-3.27-3.35-5.19z" fill="#ffd0c4"/><path d="m24.47 24.37-.47 6.63c-1.4-1.87-4.12-5.93-6.61-9.72l3.73-2.1c1.28 1.92 2.47 4.01 3.35 5.19z" fill="#ff8088"/><path d="m24 31s0 15-8 15-8-15-8-15l.67-5.04.33.04 8.39-4.72c2.49 3.79 5.21 7.85 6.61 9.72z" fill="#ffd0c4"/><path d="m18.59 15.36-3.67 2.15c-1.7-2.61-2.92-4.51-2.92-4.51l-.31-.11c.02-.07.05-.14.07-.21.57-1.7 1.1-3.63 1.48-5.33.76 1.11 3.19 4.66 5.35 8.01z" fill="#ff8088"/><path d="m14.92 17.51-5.56 3.28.12-.88c.33-2.46 1.4-4.69 2.21-7.02l.31.11s1.22 1.9 2.92 4.51z" fill="#ffd0c4"/><path d="m15 59c-12-1-7-26-7-26l.042-.8c-.042-.745-.042-1.2-.042-1.2l-2 15v1.11a24.114 24.114 0 0 0 1.23 7.58l.64 1.93a9.329 9.329 0 0 0 17.9-.68l.51-2.07a23.849 23.849 0 0 0 .72-5.82v-1.05l-.25-5.761c-.658 6.593-3.05 18.486-11.75 17.761z" fill="#ff5c67"/><path d="m26.332 1h-12.332v2c.646 0 6.276.832 10.2 1.424.868-1.463 1.625-2.649 2.132-3.424z" fill="#ffe5de"/><path d="m24.2 4.424c-3.924-.592-9.554-1.424-10.2-1.424a24.765 24.765 0 0 1 -.68 4.05l8.7 1.24c.75-1.413 1.497-2.722 2.18-3.866z" fill="#ff9ea4"/><path d="m18.805 15.234a63.631 63.631 0 0 1 3.214-6.944l-8.7-1.24c-.03.1-.05.2-.08.3.76 1.11 3.19 4.66 5.35 8.01z" fill="#ffe5de"/><path d="m17.074 21.458a29.46 29.46 0 0 1 1.731-6.224l-.215.126-3.67 2.15-5.56 3.28-.69 5.17.33.04z" fill="#ff9ea4"/><path d="m8.067 32.6c.007.106.015.216.024.331l.007.083c.014.176.03.361.048.553.009.09.017.177.026.269.008.076.017.154.025.232s.015.13.022.2c4.422 6.76 7.864-4 8.781-12.26.02-.178.048-.361.074-.542l-8.074 4.534-.33-.04-.67 5.04s0 .455.042 1.2c.006.1.013.213.02.327z" fill="#ffe5de"/><path d="m14.92 17.51 3.67-2.15c-2.16-3.35-4.59-6.9-5.35-8.01-.38 1.7-.91 3.63-1.48 5.33-.02.07-.05.14-.07.21l.31.11s1.22 1.9 2.92 4.51z" fill="#ff9ea4"/><path d="m12 13-.31-.11c-.81 2.33-1.88 4.56-2.21 7.02l-.12.88 5.56-3.28c-1.7-2.61-2.92-4.51-2.92-4.51z" fill="#ffe5de"/><path d="m43 35a20.61 20.61 0 0 1 4.982-12.868 1.447 1.447 0 0 0 -1.01-2.365c-.337-.026-.67-.069-1-.123l-2.2 6.3-1.772 5.056c0 7-5 16-5 16h-3l4.571 12.115c8.644-.815 4.429-15.841 4.429-24.115z" fill="#ff9ea4"/><path d="m43.77 25.94 2.2-6.3a11.355 11.355 0 0 1 -8.4-6.375 55.157 55.157 0 0 0 -5.57 4.735v1a23.4 23.4 0 0 0 11.77 6.94z" fill="#ffe5de"/><path d="m36.5 9.011-.054-1.08a18.294 18.294 0 0 0 -4.446 4.069v6a55.157 55.157 0 0 1 5.57-4.731 11.3 11.3 0 0 1 -1.07-4.258z" fill="#ff9ea4"/><path d="m36.447 7.931-.197-3.931h-4.25v8a18.294 18.294 0 0 1 4.447-4.069z" fill="#ffe5de"/><path d="m36.1 1h-4.1v3h4.25z" fill="#ff9ea4"/><path d="m43.77 25.94a23.4 23.4 0 0 1 -11.77-6.94v6.06a24.279 24.279 0 0 0 10 5.94z" fill="#ff9ea4"/><path d="m42 31a24.279 24.279 0 0 1 -10-5.94v6.94l2 15h3s5-9 5-16z" fill="#ffe5de"/><path d="m55.863 14.282c-.316 3.195-1.363 8.918-4.863 11.718-5 4-6 10-6 14s3 12 2 17a5.016 5.016 0 0 1 -8.043 3.005 5.479 5.479 0 0 0 4.863 2.995h.12a5.763 5.763 0 0 0 5.69-5.1c.09-.81.19-1.57.26-2.12a6.106 6.106 0 0 0 -.07-1.86l-1.76-8.96a18.763 18.763 0 0 1 2.32-13.58 11.368 11.368 0 0 1 2.62-3.05c4-3.06 5-5.09 5-7.13v-.62a10.082 10.082 0 0 0 -2.137-6.298z" fill="#ff5c67"/><path d="m28.777.371a1 1 0 0 0 -.777-.371h-14a1 1 0 0 0 -1 1v2a47.725 47.725 0 0 1 -2.188 9.36c-.233.7-.495 1.383-.756 2.067a23.9 23.9 0 0 0 -1.569 5.35l-1.478 11.091-1.6 12 1.983.264.6-4.511c1.078 4.124 3.323 8.379 8.008 8.379 8.771 0 9-14.912 9-15.963l.19-2.661.81 18.624v1.046a22.979 22.979 0 0 1 -.687 5.578l-.513 2.076a8.325 8.325 0 0 1 -15.973.614l-.647-1.936a22.958 22.958 0 0 1 -1.18-7.273v-1.039l.125-.933-1.982-.266-.134 1a.991.991 0 0 0 -.009.133v1.1a24.961 24.961 0 0 0 1.283 7.906l.644 1.93a10.323 10.323 0 0 0 19.808-.761l.518-2.071a24.961 24.961 0 0 0 .747-6.058v-1.089l-1.009-23.1-.991-6.909c.033-1.514 1.789-10.2 2.975-15.739a1 1 0 0 0 -.198-.838zm-2.012 1.629c-.1.481-.228 1.078-.367 1.743-3.167-.483-8.998-1.36-11.398-1.643v-.1zm-1.584 7.75c-.042.217-.084.431-.126.646l-6.147 3.616c-1.377-2.12-2.806-4.242-3.8-5.7l1.748.25.284-1.979-2.615-.374c.166-.805.295-1.529.376-2.114 2.059.257 7.073 1 11.09 1.611-.138.668-.28 1.368-.423 2.081l-6.428-.919-.284 1.98zm-1.61 11.413c-.329-.529-.676-1.08-1.031-1.632l1.33-.748-.183 2.566zm.468-4.77-14.139 7.956.392-2.947 14.276-8.402c-.259 1.439-.454 2.65-.529 3.393zm-10.361-6.63c.959 1.413 2.251 3.336 3.5 5.263l-1.942 1.143c-1.313-2.028-2.236-3.469-2.366-3.669.288-.884.56-1.814.808-2.737zm-1.753 5.376c.033-.087.063-.175.1-.262.394.61.9 1.4 1.495 2.307l-2.82 1.659a29.525 29.525 0 0 1 1.225-3.704zm4.075 29.861c-6.671 0-6.985-12.922-7-13.938l.564-4.233 11.229-6.316c.371.578.736 1.155 1.08 1.707.6.961 1.113 1.776 1.577 2.433l-.25 3.5c-.415-.6-.864-1.254-1.376-2.012l-1.656 1.12c1.214 1.8 2.152 3.142 2.825 4.055-.056 2.069-.656 13.684-6.993 13.684z"/><path d="m19.357 22.45-1.668 1.1c.448.675.895 1.348 1.333 2l1.663-1.111c-.437-.647-.885-1.316-1.328-1.989z"/><path d="m55.6 12.519a9.483 9.483 0 0 0 -6.381-2.51 3.377 3.377 0 0 1 -2.219-3.171v-5.838a1 1 0 0 0 -1-1h-14a1 1 0 0 0 -1 1v31a.976.976 0 0 0 .009.132l.266 2 1.983-.264-.258-1.934v-4.659a24.316 24.316 0 0 0 7.973 4.442c-.273 5.603-3.588 12.383-4.573 14.283h-1.525l-.817-6.132-1.983.264.934 7a1.019 1.019 0 0 0 .054.221l4.656 12.347a6.551 6.551 0 0 0 6.104 4.3h.114a6.773 6.773 0 0 0 6.681-5.982l.259-2.117a6.916 6.916 0 0 0 -.077-2.177l-1.758-8.96a17.664 17.664 0 0 1 2.18-12.856 10.481 10.481 0 0 1 2.385-2.78c3.83-2.928 5.393-5.228 5.393-7.928v-.617a10.862 10.862 0 0 0 -3.4-8.064zm-22.6-7.519h7.107a19.683 19.683 0 0 0 -7.107 4.4zm12-3v1h-12v-1zm-12 19.413c.4.351.865.735 1.4 1.136l1.2-1.6a18.8 18.8 0 0 1 -2.6-2.324v-.2c.45-.433 1.4-1.321 2.644-2.368l-1.288-1.531c-.506.425-.958.82-1.356 1.176v-3.36a17.436 17.436 0 0 1 12-6.294v.79a5.37 5.37 0 0 0 .2 1.387c-2.56.554-5.643 2.211-9.215 4.985l1.227 1.58c3.543-2.752 6.585-4.363 8.881-4.715a5.361 5.361 0 0 0 1.666 1.453l-4.618 13.182a24.314 24.314 0 0 1 -5.777-2.561l-1.047 1.7a26.337 26.337 0 0 0 6.163 2.751l-1.1 3.146a22.979 22.979 0 0 1 -8.38-5.129zm24-.213c0 1.465-.559 3.246-4.607 6.343a12.447 12.447 0 0 0 -2.865 3.306 19.652 19.652 0 0 0 -2.449 14.3l1.758 8.96a4.922 4.922 0 0 1 .055 1.551l-.258 2.115a4.773 4.773 0 0 1 -4.697 4.225h-.114a4.548 4.548 0 0 1 -4.23-3l-4.147-11h1.554a1 1 0 0 0 .874-.515c.208-.373 5.048-9.166 5.125-16.312l6.7-19.146a7.486 7.486 0 0 1 4.551 1.973 8.855 8.855 0 0 1 2.75 6.579z"/><path d="m31.667 35.991h2v2.018h-2z" transform="matrix(.991 -.132 .132 .991 -4.593 4.63)"/></g></svg>