<svg height="464pt" viewBox="0 0 464 464" width="464pt" xmlns="http://www.w3.org/2000/svg"><path d="m176 24 11.246094-16.871094c2.96875-4.453125 7.964844-7.128906 13.3125-7.128906h62.882812c5.347656 0 10.34375 2.675781 13.3125 7.128906l11.246094 16.871094-56 120zm0 0" fill="#de9792"/><g fill="#f0b7b4"><path d="m464 352-64.214844-285.398438c-4.628906-20.566406-22.128906-35.703124-43.144531-37.320312l-68.640625-5.28125-88 184h112l32-56 56 208zm0 0"/><path d="m152 248h160c21.046875 42.085938 32 88.496094 32 135.550781v80.449219h-224v-80.449219c0-47.054687 10.953125-93.464843 32-135.550781zm0 0"/><path d="m152 248h112v216h-144v-80.449219c0-47.054687 10.953125-93.464843 32-135.550781zm0 0"/><path d="m144 208h176v40h-176zm0 0"/></g><path d="m344 88c4.417969 0 8 3.582031 8 8v56c0 4.417969-3.582031 8-8 8s-8-3.582031-8-8v-56c0-4.417969 3.582031-8 8-8zm0 0" fill="#e39c98"/><path d="m0 352 64.214844-285.398438c4.628906-20.566406 22.128906-35.703124 43.144531-37.320312l68.640625-5.28125 88 184h-112l-32-56-56 208zm0 0" fill="#f0b7b4"/><path d="m120 88c4.417969 0 8 3.582031 8 8v56c0 4.417969-3.582031 8-8 8s-8-3.582031-8-8v-56c0-4.417969 3.582031-8 8-8zm0 0" fill="#e39c98"/><path d="m128 312h40v16h-40zm0 0" fill="#e39c98"/><path d="m288 312h48v16h-48zm0 0" fill="#e39c98"/><path d="m208 24h48v16h-48zm0 0" fill="#f2c7c4"/><path d="m7.011719 327.941406 1.984375-15.878906 64 8-1.988282 15.878906zm0 0" fill="#e39c98"/><path d="m391.007812 320.0625 64-8 1.984376 15.878906-64 7.996094zm0 0" fill="#e39c98"/><path d="m264 216c-3.074219-.003906-5.871094-1.773438-7.199219-4.542969l-88-184c-1.609375-3.921875.117188-8.417969 3.9375-10.25 3.820313-1.832031 8.410157-.371093 10.460938 3.335938l88 184c1.1875 2.476562 1.019531 5.390625-.441407 7.714843-1.460937 2.324219-4.011718 3.738282-6.757812 3.742188zm0 0" fill="#e39c98"/><path d="m264 464c-4.417969 0-8-3.582031-8-8v-208c0-4.417969 3.582031-8 8-8s8 3.582031 8 8v208c0 4.417969-3.582031 8-8 8zm0 0" fill="#e39c98"/><path d="m208 216h40v208c0 4.417969-3.582031 8-8 8h-24c-4.417969 0-8-3.582031-8-8zm0 0" fill="#ebada9"/><path d="m152 240h160c4.417969 0 8 3.582031 8 8s-3.582031 8-8 8h-160c-4.417969 0-8-3.582031-8-8s3.582031-8 8-8zm0 0" fill="#e39c98"/><path d="m152 200h160c4.417969 0 8 3.582031 8 8s-3.582031 8-8 8h-160c-4.417969 0-8-3.582031-8-8s3.582031-8 8-8zm0 0" fill="#e39c98"/><path d="m192 200h40v208c0 4.417969-3.582031 8-8 8h-24c-4.417969 0-8-3.582031-8-8zm0 0" fill="#f2c7c4"/></svg>