<svg id="Capa_1" enable-background="new 0 0 497 497" height="512" viewBox="0 0 497 497" width="512" xmlns="http://www.w3.org/2000/svg"><g><g><g><path d="m263.66 182.568h-35.941v-33.299c0-9.925 8.046-17.971 17.971-17.971 9.925 0 17.971 8.046 17.971 17.971v33.299z" fill="#cdbfba"/></g></g><g><g><path d="m233.007 168.353c-141.946 29.076-233.007 73.323-233.007 115.915 0 41.117 45.269 54.524 57.12 54.337l379.948-17.423s59.932-33.354 59.932-83.06c0-67.54-106.902-101.948-263.993-69.769z" fill="#fd4755"/></g></g><g><g><path d="m429.044 365.702h-361.089c-4.432 0-8.024-3.592-8.024-8.024v-19.073l188.617-28.714 188.52 11.291v36.496c0 4.432-3.592 8.024-8.024 8.024z" fill="#fe646f"/></g></g><g><g><path d="m448.274 174.643c12.192 12.136 18.726 26.794 18.726 43.479 0 15.09-5.523 28.672-13.216 40.272-17.659 26.627-47.345 42.817-79.262 44.281l-347.402 15.93c-3.333.053-9.309-.97-16.178-3.382 14.179 17.236 38.046 23.51 46.178 23.382l379.948-17.423s59.932-33.354 59.932-83.06c0-27.32-17.497-49.215-48.726-63.479z" fill="#fb2b3a"/></g></g></g></svg>