<svg id="icons" height="512" viewBox="0 0 340 340" width="512" xmlns="http://www.w3.org/2000/svg"><path d="m69.059 63.728c1.017 64.81.847 139.421-3.143 203.6 0 0 58.378 18.276 108.453-5.5l-8.295-25.246 19.114 16.951a45.563 45.563 0 0 0 8.657-10.348 22.089 22.089 0 0 0 1.576-19.644 283.493 283.493 0 0 0 -20.064-41 151.581 151.581 0 0 1 -20.845-63.127 318.128 318.128 0 0 1 -1.422-48.724v-9.016z" fill="#ff8256"/><path d="m171.958 176.567a149.447 149.447 0 0 1 -9.214-20.616l-43.895 16.641.74 33.385z" fill="#f95732"/><path d="m110.421 62.717-41.362 1.011q.2 12.792.242 25.564l.086-.007c.581 58.352 0 122.152-3.471 178.045a181.477 181.477 0 0 0 44.505 6.638v-188.168l42.3-3.594c.041-3.832.151-7.679.367-11.515v-9.017z" fill="#f95732"/><path d="m211.634 147.121c-2.549-16.943-8.671-46.77-28.06-73.687l-16-1.653s21.178 39.855 20.847 66.974c0 0-16.1 5.122-27.009 4.46 0 0-22.489-1.984-34.064 3.638a171.63 171.63 0 0 1 -2.977-33.906l-25.371-3.134v25.917a18.068 18.068 0 0 1 -18.07 18.07h-4.33a21.712 21.712 0 0 0 -21.712 21.263c-.269 13.019-.346 30.152.454 45.905q.239 4.689.084 9.377c-.481 15.361-1.981 61.286-3.318 81.214a19.124 19.124 0 0 0 1.724 9.523c2.057 4.306 6.35 9.1 15.311 9.983h82.017s11.553-36.141-5.152-64.965a104.988 104.988 0 0 1 -6.273-12.448 54.126 54.126 0 0 1 -4.01-24.026l.884-14.312s26.7-8.138 13.141-41.54c0 0 25-12.926 51.78-14.38a10.72 10.72 0 0 0 10.104-12.273zm-126.806 104.836-8.587 14.043s-6.267-40.324 1.82-67.82l8.694 7.481 1.722 29.9a30.748 30.748 0 0 1 -3.649 16.396z" fill="#ffd4c8"/><path d="m75.223 211.961a93.315 93.315 0 0 1 2.838-13.778l.408-27.441s-20.628 15.764-3.246 41.219z" fill="#fa988e"/><path d="m125.24 132.26a163.921 163.921 0 0 1 -.869-18.947l-25.371-3.134v25.551a18.048 18.048 0 0 1 -.139 2.143z" fill="#fa988e"/><path d="m129.69 63.728h-35.89c4.153 24.294-9.638 33.128-9.638 33.128a27.653 27.653 0 0 0 55.161 0s-13.786-8.834-9.633-33.128z" fill="#ffd4c8"/><path d="m130.648 84.081c-1.637-5.029-2.436-11.707-.958-20.353h-35.89c1.83 10.705.174 18.406-2.249 23.674z" fill="#fa988e"/><path d="m149.157 60.528v-9.7a41.892 41.892 0 0 0 -41.892-41.892 41.892 41.892 0 0 0 -41.891 41.892v9.052z" fill="#ffddbe"/><path d="m190.494 84.071c-2.1-3.572-4.394-7.129-6.92-10.637l-16-1.653s3.629 6.831 7.858 16.757z" fill="#fa988e"/><path d="m90.111 12.612a41.89 41.89 0 0 0 -24.737 38.216v9.052l12.729.1c-1.503-27.193 6.86-41.342 12.008-47.368z" fill="#edad82"/><path d="m65.374 50.828v9.052l83.783.648v-9.7a41.874 41.874 0 0 0 -1.724-11.893h-80.333a41.874 41.874 0 0 0 -1.726 11.893z" fill="#333947"/><path d="m114.422 64.894s26.53 10.859 57.247 13.056a51.975 51.975 0 0 0 29.1-6.3c.855-.479 1.708-.989 2.552-1.532a7.133 7.133 0 0 0 -1.671-12.835c-15.719-4.817-48.461-10.294-99.631 2.5l-2.6 1.893z" fill="#ffddbe"/><circle cx="279.951" cy="64.894" fill="#ff8256" r="29.517"/><path d="m114.422 64.894s-36.722 9.821-64.386 9.821c0 0-20.509 1.247-34.5-6.021a6.7 6.7 0 0 1 -.371-11.611c12.322-7.774 41.912-17.55 99.257 7.811z" fill="#edad82"/><path d="m144.073 262.645s-.328.366-.9 1.019c.304-.333.606-.664.9-1.019z" fill="#90bdf2"/><path d="m88.19 230.588 47.946-7.568.476-7.708a20.069 20.069 0 0 0 2.776-1.168l-26.813-1.8a75.475 75.475 0 0 1 -25.724-5z" fill="#fa988e"/><path d="m143.173 263.664q-.21.23-.423.455l1.323-1.474v-.014q-.979-1.806-1.887-3.647a27.858 27.858 0 0 1 -3.771 5.78 33.315 33.315 0 0 1 -20.848 11.5 36.717 36.717 0 0 1 -4.09.4 38.963 38.963 0 0 1 -6.059-.666 33.745 33.745 0 0 1 -11.705-4.368 58.183 58.183 0 0 1 -15.089-12.791l-1.543 2.525.911.869a261.321 261.321 0 0 1 30.429 47.567c8.467-17.961 28.32-41.081 32.752-46.136z" fill="#fff"/><path d="m109.21 307.348c.8 1.577 1.211 2.456 1.211 2.456a125.9 125.9 0 0 1 9.168-15.742 69.115 69.115 0 0 0 -10.379 13.286z" fill="#eee"/><path d="m133.644 199.189a42.407 42.407 0 0 1 -10.315 9.371 22.02 22.02 0 0 1 -14.624 3.521l-.146-.018a14.05 14.05 0 0 1 -6.971-2.916 40.137 40.137 0 0 1 -4.572-4.241 37.877 37.877 0 0 1 -9.351-18.662l-.029-.031a165.043 165.043 0 0 1 -5.459-19.713c-.884 1.007-1.811 1.979-2.768 2.918a28.782 28.782 0 0 0 -6.909 11.482 24.258 24.258 0 0 0 14.372 31.11 51.493 51.493 0 0 0 17.417 2.735 86.667 86.667 0 0 1 12.3.718 68.241 68.241 0 0 0 20.453-.151s23-4.286 17.2-32.19c-1.145-5.51-6.565-13.434-11.047-16.838a73.515 73.515 0 0 1 -3.282 14.5 29.689 29.689 0 0 1 -6.269 18.405z" fill="#fff"/><g fill="#24242b"><path d="m187.738 256.621a49.473 49.473 0 0 0 9.517-11.338 26.194 26.194 0 0 0 1.887-23.2 285.453 285.453 0 0 0 -20.359-41.6q-1.006-1.671-1.965-3.365a4 4 0 0 0 -6.962 3.941q1.013 1.79 2.075 3.553a277.178 277.178 0 0 1 19.769 40.404 18.155 18.155 0 0 1 -1.264 16.084 43.851 43.851 0 0 1 -5.363 6.992l-16.346-14.5a4 4 0 0 0 -6.454 4.242l7.082 21.554c-2.607.884-5.289 1.676-8.014 2.363a4 4 0 1 0 1.958 7.757 111.349 111.349 0 0 0 12.5-3.942 4 4 0 0 0 2.37-4.984l-3.675-11.182 8.04 7.129a4 4 0 0 0 5.204.092z"/><path d="m279.951 98.411a33.517 33.517 0 1 0 -33.518-33.517 33.555 33.555 0 0 0 33.518 33.517zm0-59.034a25.517 25.517 0 1 1 -25.518 25.517 25.545 25.545 0 0 1 25.518-25.517z"/><path d="m13.7 72.243c11.153 5.799 25.78 6.557 32.68 6.557 1.984 0 3.331-.063 3.771-.087 4.856-.005 9.957-.3 15.079-.786.174 19.576.082 39.718-.28 59.957a4 4 0 0 0 3.928 4.072h.073a4 4 0 0 0 4-3.928c.369-20.595.458-41.091.273-61 6.035-.778 11.932-1.747 17.316-2.75-.619 13.718-8.21 18.988-8.53 19.2a4 4 0 0 0 -1.825 3.736 31.72 31.72 0 0 0 13.38 23.542c.469.336.953.638 1.436.945v14.029a14.084 14.084 0 0 1 -14.071 14.07h-4.33a25.854 25.854 0 0 0 -25.712 25.18c-.249 12.053-.372 29.849.458 46.191.15 2.94.177 5.985.081 9.049-.437 13.957-1.968 61.051-3.311 81.071a23.157 23.157 0 0 0 2.11 11.509 21.372 21.372 0 0 0 3.647 5.388 4 4 0 0 0 5.85-5.457 13.4 13.4 0 0 1 -2.278-3.378 15.146 15.146 0 0 1 -1.342-7.532c1.351-20.151 2.886-67.365 3.324-81.355.1-3.283.074-6.548-.088-9.706-.817-16.106-.7-33.7-.449-45.62a17.811 17.811 0 0 1 17.71-17.34h4.33a22.094 22.094 0 0 0 3.969-.364c-2.752 3.636-5.092 6.151-5.39 6.468a39.724 39.724 0 0 0 -11.009 16.315 27.954 27.954 0 0 0 3.763 25.469c-2 11.3-2.332 19.721-2.273 32.689a4 4 0 0 0 4 3.982h.019a4 4 0 0 0 3.981-4.019c-.047-10.266.162-17.551 1.289-25.779a28.183 28.183 0 0 0 4 2.28l1.205 20.959a26.752 26.752 0 0 1 -3.174 14.26l-3.775 6.982c-2.691 3.452-23.515 32.081-10.429 75.188a4 4 0 0 0 7.655-2.324c-8.922-29.391-.664-51.219 4.987-61.543a264.549 264.549 0 0 1 20.328 30.5 4 4 0 0 0 6.945-3.969c-2.791-4.885-6.547-11.1-11.145-17.9a46.471 46.471 0 0 0 17.681 3.674 50.98 50.98 0 0 0 12.256-2.11c-6.887 9-14.471 19.916-19.01 29.547 0 .009-.006.019-.01.028s-.012.019-.017.029c-.244.541-5.98 13.364-4.855 23.354a4 4 0 0 0 3.971 3.553 4.067 4.067 0 0 0 .452-.025 4 4 0 0 0 3.528-4.423c-.727-6.449 2.762-15.974 4.183-19.137 6.994-14.821 22.26-33.6 29.3-41.9 14.381 26.668 4.1 59.928 4 60.266a4 4 0 0 0 7.621 2.433c.494-1.545 11.893-38.175-5.5-68.189-.645-1.112-1.248-2.183-1.814-3.222l-.008-.014a90.567 90.567 0 0 1 -4.216-8.735 50.392 50.392 0 0 1 -3.713-22.251l.716-11.61a30.051 30.051 0 0 0 14.769-14.19c3.258-6.879 3.675-14.97 1.283-24.121-.038-.146-.074-.291-.113-.438-.123-.455-.255-.913-.392-1.374-.083-.281-.168-.563-.257-.846q-.177-.568-.369-1.14c-.054-.162-.1-.322-.157-.485 7.347-3.359 26.408-11.186 46.549-12.28a15.408 15.408 0 0 0 11.185-5.388 13.179 13.179 0 0 0 2.754-10.427c-2.327-15.467-6.9-38.706-19.643-61.839a4 4 0 0 0 -7.007 3.861c12.128 22.009 16.5 44.309 18.739 59.169a5.143 5.143 0 0 1 -1.046 4.184 7.434 7.434 0 0 1 -5.42 2.451c-22.109 1.2-42.447 9.722-49.957 13.219a34.262 34.262 0 0 0 -7.062-6.449l-.023-.012-.011-.009c-2.771-1.721-9.5-6.953-12.059-12.916 11.044-3.533 28.667-2.047 28.862-2.031l.108.008c11.525.7 27.778-4.423 28.464-4.641a4 4 0 0 0 2.786-3.763c.244-19.91-10.484-44.855-16.216-56.731a55.234 55.234 0 0 0 26.519-6.93c.944-.529 1.874-1.087 2.763-1.659a11.112 11.112 0 0 0 5.047-10.965 10.949 10.949 0 0 0 -7.711-9.058c-10.771-3.3-27.172-6.353-49.763-5.43a45.889 45.889 0 0 0 -91.357-2.732c-24.948-2.812-40.338 3.143-48.673 8.4a10.685 10.685 0 0 0 -5.027 9.584 10.477 10.477 0 0 0 5.694 8.959zm74.719 26.31c3.493-3.2 10.1-11.2 10.16-25.859 7.443-1.554 13.136-2.968 15.594-3.6 1.841.71 5.583 2.095 10.746 3.715.093 14.59 6.679 22.552 10.164 25.744a23.616 23.616 0 0 1 -46.664 0zm-12.36 84.29a29.433 29.433 0 0 1 3.4-6.772c1.708 9.424 6.079 24.022 17.248 34.2a41.678 41.678 0 0 1 -8.232-1.941 19.914 19.914 0 0 1 -12.42-25.487zm37.419 89.82c-13.075 0-24.168-7.934-28.872-11.876l3.745-6.928a34.726 34.726 0 0 0 4.123-18.524l-1.03-17.883a59.753 59.753 0 0 0 12.5 1.3 57.8 57.8 0 0 0 6.323-.328 79.744 79.744 0 0 0 16.256 1.736q2.931 0 5.8-.24l-.584 9.46a58.443 58.443 0 0 0 4.306 25.8c.919 2.223 1.965 4.469 3.175 6.832-10.22 10.133-25.669 10.648-25.746 10.651zm32.879-97.487c.089.12.178.243.266.366.1.259.2.516.3.772.114.3.23.594.338.888.139.383.269.761.4 1.138.072.213.149.427.218.638q.256.781.481 1.549c.016.054.034.109.049.163 2.23 7.706 2.086 14.311-.443 19.688-3.907 8.306-12.447 11.086-12.514 11.108-.02.006-.039.016-.06.023a61.681 61.681 0 0 1 -10.384.63c9.324-5.939 20.192-17.079 21.345-36.963zm-8.065.248c-1.408 19.029-13.149 28.136-21.2 32.171-1.971-2.525-2.1-6.779-2.068-8.341.007-.213.021-.416.023-.635q.006-.063.009-.126c.545-10.619 7.411-14.263 7.779-14.45a4 4 0 0 0 -3.473-7.207 21.906 21.906 0 0 0 -8.154 7.693 34.456 34.456 0 0 0 -4.5-6.621 4.069 4.069 0 0 0 -5.074-.938 4 4 0 0 0 -1.034 6.1 26.779 26.779 0 0 1 6.453 15.132c-.019.294-.042.8-.04 1.47-.233 3.969-1.451 5.864-2.565 6.595-9.8-7.574-14.308-19.485-16.371-28.286a19.3 19.3 0 0 1 3.41-15.981c3.421-4.559 7.383-10.7 9.488-16.945.025-.072.03-.146.05-.218a21.925 21.925 0 0 0 1.974-9.1v-10.398a30.819 30.819 0 0 0 17.659-.044 171.052 171.052 0 0 0 2.778 22.373v.009c1.142 6.811 6.034 12.553 10.22 16.35a14.015 14.015 0 0 1 4.632 11.397zm46.083-39.651c-4.925 1.364-15.234 3.89-22.663 3.453-1.409-.121-18.76-1.507-31.252 2.187a177.341 177.341 0 0 1 -1.969-19.7c.485-.309.972-.613 1.444-.951a31.72 31.72 0 0 0 13.375-23.538 4 4 0 0 0 -1.825-3.736c-.085-.055-7.569-5.024-8.479-18.307 4.682 1.278 10.007 2.566 15.772 3.693a336.466 336.466 0 0 0 1.754 40.944c.264 2.64.6 5.307.995 7.926a4 4 0 0 0 7.911-1.2c-.376-2.488-.695-5.02-.946-7.528a331.431 331.431 0 0 1 -1.748-38.751c3.331.514 6.766.953 10.276 1.295 7.871 15.308 16.564 37.57 17.351 54.213zm-77.11-122.837a37.934 37.934 0 0 1 34.384 22h-68.841a37.664 37.664 0 0 1 34.457-22zm-37.073 30h74.132a37.8 37.8 0 0 1 .755 5.578c-6.776.531-14.042 1.405-21.827 2.72a4 4 0 0 0 1.333 7.889c38.927-6.577 64.26-1.577 75.9 1.988a2.971 2.971 0 0 1 2.131 2.5 3.173 3.173 0 0 1 -1.453 3.143c-.751.483-1.538.956-2.342 1.405a47.8 47.8 0 0 1 -26.863 5.8c-29.665-2.122-55.737-12.654-56.018-12.768-17.94-7.923-33.272-12.473-46.311-14.748.134-1.189.324-2.358.563-3.509zm-52.892 17.53c6.019-3.8 16.22-7.961 32.03-7.961 13.2 0 30.326 2.907 52.174 11.359-12.957 2.858-34.156 6.851-51.471 6.851-.079 0-.161 0-.24.007-.194.011-19.6 1.081-32.412-5.577a2.513 2.513 0 0 1 -1.381-2.196 2.77 2.77 0 0 1 1.3-2.483z"/><path d="m276.254 18.366a3.782 3.782 0 0 0 .37.69 3.694 3.694 0 0 0 .5.61 4.008 4.008 0 0 0 5.66 0 3.639 3.639 0 0 0 .49-.61 3.256 3.256 0 0 0 .37-.69 3.956 3.956 0 0 0 .23-.74 3.891 3.891 0 0 0 0-1.57 4.3 4.3 0 0 0 -.23-.75 3.828 3.828 0 0 0 -.37-.69 3.985 3.985 0 0 0 -6.15-.6 4.081 4.081 0 0 0 -.5.6 4.579 4.579 0 0 0 -.37.69 5.371 5.371 0 0 0 -.23.75 4.436 4.436 0 0 0 0 1.57 4.87 4.87 0 0 0 .23.74z"/><path d="m279.954 116.946a4 4 0 1 0 -2.83-6.83 4 4 0 0 0 2.83 6.83z"/><path d="m324.314 66.426a4.524 4.524 0 0 0 .36.69 4.919 4.919 0 0 0 .5.61 4.093 4.093 0 0 0 .61.49 4.033 4.033 0 0 0 1.44.6 3.842 3.842 0 0 0 1.56 0 4.033 4.033 0 0 0 1.44-.6 4.093 4.093 0 0 0 .61-.49 4.919 4.919 0 0 0 .5-.61 4.524 4.524 0 0 0 .36-.69 4.053 4.053 0 0 0 .23-.75 4.129 4.129 0 0 0 .08-.78 4.047 4.047 0 0 0 -.08-.78 3.832 3.832 0 0 0 -.23-.75 4.1 4.1 0 0 0 -.36-.69 4.279 4.279 0 0 0 -.5-.61 4.161 4.161 0 0 0 -.61-.5 4.579 4.579 0 0 0 -.69-.37 3.809 3.809 0 0 0 -.75-.22 3.728 3.728 0 0 0 -1.56 0 3.809 3.809 0 0 0 -.75.22 4.579 4.579 0 0 0 -.69.37 4.161 4.161 0 0 0 -.61.5 4.279 4.279 0 0 0 -.5.61 4.1 4.1 0 0 0 -.36.69 3.832 3.832 0 0 0 -.23.75 4.047 4.047 0 0 0 -.08.78 4.129 4.129 0 0 0 .08.78 4.053 4.053 0 0 0 .23.75z"/><path d="m231.894 68.9a3.995 3.995 0 0 0 4-4 3.987 3.987 0 0 0 -1.17-2.83 4 4 0 1 0 -2.83 6.83z"/><path d="m310.234 32.446a4.579 4.579 0 0 0 .37.69 4.161 4.161 0 0 0 .5.61 4.023 4.023 0 0 0 2.82 1.17 4.15 4.15 0 0 0 .79-.08 3.956 3.956 0 0 0 .74-.23 3.6 3.6 0 0 0 .7-.37 3.968 3.968 0 0 0 1.77-3.32 4.114 4.114 0 0 0 -.07-.78 4.659 4.659 0 0 0 -.23-.75 3.828 3.828 0 0 0 -.37-.69 3.251 3.251 0 0 0 -.5-.61 4.82 4.82 0 0 0 -.6-.5 4.2 4.2 0 0 0 -.7-.36 3.956 3.956 0 0 0 -.74-.23 4.037 4.037 0 0 0 -3.61 1.09 3.694 3.694 0 0 0 -.5.61 4.579 4.579 0 0 0 -.37.69 4.659 4.659 0 0 0 -.23.75 4.381 4.381 0 0 0 0 1.56 4.659 4.659 0 0 0 .23.75z"/><path d="m245.974 102.876a4 4 0 0 0 2.83-6.83 4 4 0 0 0 -6.83 2.83 3.995 3.995 0 0 0 4 4z"/><path d="m310.234 100.406a4.579 4.579 0 0 0 .37.69 4.161 4.161 0 0 0 .5.61 4.023 4.023 0 0 0 2.82 1.17 4.15 4.15 0 0 0 .79-.08 3.956 3.956 0 0 0 .74-.23 3.6 3.6 0 0 0 .7-.37 4.013 4.013 0 0 0 .6-.49 3.605 3.605 0 0 0 .5-.61 3.828 3.828 0 0 0 .37-.69 5.371 5.371 0 0 0 .23-.75 4.114 4.114 0 0 0 .07-.78 4.042 4.042 0 0 0 -.07-.78 4.659 4.659 0 0 0 -.23-.75 3.519 3.519 0 0 0 -.37-.69 3.251 3.251 0 0 0 -.5-.61 4.081 4.081 0 0 0 -.6-.5 4.241 4.241 0 0 0 -.7-.37 3.922 3.922 0 0 0 -.74-.22 3.776 3.776 0 0 0 -1.57 0 3.922 3.922 0 0 0 -.74.22 3.782 3.782 0 0 0 -.69.37 4 4 0 0 0 -1.11 1.11 4.143 4.143 0 0 0 -.37.69 4.659 4.659 0 0 0 -.23.75 4.042 4.042 0 0 0 -.07.78 4.114 4.114 0 0 0 .07.78 5.371 5.371 0 0 0 .23.75z"/><path d="m242.274 32.446a4.579 4.579 0 0 0 .37.69 4.161 4.161 0 0 0 .5.61 4.008 4.008 0 0 0 5.66 0 4.093 4.093 0 0 0 .49-.61 4.033 4.033 0 0 0 .6-1.44 3.842 3.842 0 0 0 0-1.56 4.033 4.033 0 0 0 -.6-1.44 3.914 3.914 0 0 0 -3.32-1.78 4.047 4.047 0 0 0 -2.83 1.17 4.161 4.161 0 0 0 -.5.61 4.579 4.579 0 0 0 -.37.69 3.809 3.809 0 0 0 -.22.75 3.843 3.843 0 0 0 0 1.56 3.809 3.809 0 0 0 .22.75z"/><path d="m111.747 241.544a4 4 0 0 0 -4 4v2.083a4 4 0 0 0 8 0v-2.083a4 4 0 0 0 -4-4z"/><path d="m104.306 98.411a4 4 0 0 0 0-8h-.01a4 4 0 0 0 .01 8z"/><path d="m118.851 98.411a4 4 0 0 0 0-8h-.01a4 4 0 0 0 .01 8z"/></g></svg>