<svg height="512" viewBox="0 0 52 57" width="512" xmlns="http://www.w3.org/2000/svg"><path id="Shape" d="m32.93 0c-.4915497 3.44965822-3.4454967 6.01252848-6.93 6.01252848s-6.4384503-2.56287026-6.93-6.01252848zm-32.83 14.64c1.41-6.26 4.85-9 6.79-10.06-.07 2.7.22 8 3.34 11.06l.37.49c-3.5001873 1.5286315-7.56327278.9520603-10.5-1.49zm36.9 13.63c1.84 6.46 3.8 8.93 4.8 14-3 .75-11.64 3.69-12.73 12.83-.0317798.5287239-.4703227.9409542-1 .94h-4.19c-.5296773.0009542-.9682202-.4112761-1-.94-1.08-9.18-9.74-12.1-12.72-12.87 1-5 2.93-7.41 4.8-14 2.12-7.42-3-13.65-3.25-14-3-3-2.89-8.76-2.77-10.59l8.18-3.27c.7169688 4.34649136 4.4747723 7.53521333 8.88 7.53521333s8.1630312-3.18872197 8.88-7.53521333l8.18 3.33c.13 1.83.25 7.58-2.83 10.66-.23.26-5.31 6.49-3.23 13.91zm4.4-12.14c.0952822-.1457674.1987829-.2859941.31-.42 3.16-3.16 3.47-8.41 3.39-11.12 1.94 1.09 5.39 3.83 6.8 10.05-2.9463953 2.4201653-6.9966176 2.9949111-10.5 1.49z"/></svg>