<svg xmlns="http://www.w3.org/2000/svg" viewBox="0 0 64 64" id="bank"><path d="M60 15.94h-4.75L32.76 2.71a1.48 1.48 0 0 0-1.52 0L8.75 15.94H4c-.83 0-1.5.67-1.5 1.5V25c0 .83.67 1.5 1.5 1.5h3.66v24.44H4c-.83 0-1.5.67-1.5 1.5V60c0 .83.67 1.5 1.5 1.5h56c.83 0 1.5-.67 1.5-1.5v-7.56c0-.83-.67-1.5-1.5-1.5h-3.66V26.5H60c.83 0 1.5-.67 1.5-1.5v-7.56c0-.83-.67-1.5-1.5-1.5zM32 5.74l17.33 10.2H14.67L32 5.74zM10.66 26.5h4.32v24h-4.32v-24zm7.32 0h8.86v24.44h-8.86V26.5zm16.18 24h-4.32v-24h4.32v24zm24.34 8h-53v-4.56h53v4.56zm-21.34-7.56V26.5h8.86v24.44h-8.86zm16.18-.44h-4.32v-24h4.32v24zm5.16-27h-53v-4.56h53v4.56z"></path></svg>