<svg width="36" height="36" viewBox="0 0 36 36" fill="none" xmlns="http://www.w3.org/2000/svg">
<g id="Boy_Shorts">
<g id="Group">
<path id="Vector" d="M32.1115 11.2285C31.9235 11.0618 31.67 10.9892 31.4151 11.0163C22.3946 12.1456 13.2457 12.1456 4.22376 11.0163C3.98021 10.9877 3.72092 11.0618 3.53221 11.2285C3.34423 11.395 3.23676 11.6344 3.23676 11.885V19.3746C3.23676 20.0482 3.77576 20.6051 4.46438 20.6435C7.92369 20.8287 11.0304 22.129 13.9635 24.6141C14.2533 24.8591 14.6172 24.9943 14.9889 24.9943H20.6357C21.0188 24.9943 21.392 24.8505 21.6882 24.587C24.3642 22.213 27.476 20.9283 31.2015 20.6606C31.8864 20.6121 32.4034 20.071 32.4034 19.4017V11.8794C32.4034 11.6301 32.2967 11.3923 32.1115 11.2285ZM4.01507 11.7754C4.0314 11.7611 4.06494 11.7383 4.11336 11.7383C4.11978 11.7383 4.12619 11.7383 4.13334 11.7398C13.2151 12.879 22.4259 12.879 31.5063 11.7398C31.566 11.7284 31.6088 11.7598 31.6288 11.7754C31.65 11.7939 31.6743 11.8266 31.6743 11.8794V13.871C22.4792 15.0467 13.1617 15.0467 3.96592 13.871V11.885C3.96592 11.828 3.99655 11.791 4.01507 11.7754ZM14.4349 24.0586C11.3757 21.4653 8.12728 20.1095 4.50419 19.9143C4.19736 19.8973 3.96592 19.6651 3.96592 19.3746V14.6053C8.44315 15.1742 12.9485 15.4658 17.4555 15.4809V24.2653H14.9889C14.7895 24.2651 14.5922 24.191 14.4349 24.0586ZM31.1501 19.9343C27.258 20.2134 24.0052 21.5564 21.2039 24.0416C21.0415 24.1854 20.8393 24.2651 20.6357 24.2651H18.1847V15.4807C22.6917 15.4657 27.1975 15.1739 31.6743 14.6051V19.4016C31.6743 19.6836 31.4492 19.9129 31.1501 19.9343Z" fill="#540002"/>
<path id="Vector_2" d="M17.6571 14.2008C17.7083 14.2263 17.7645 14.2391 17.8201 14.2391C17.8757 14.2391 17.932 14.2263 17.9831 14.2006L18.7123 13.836C18.8924 13.7463 18.965 13.527 18.8754 13.3475C18.7849 13.1652 18.5678 13.0953 18.3862 13.1837L17.8201 13.4672L17.254 13.1839C17.0752 13.0969 16.856 13.1668 16.7649 13.3476C16.6752 13.527 16.7478 13.7463 16.9279 13.8362L17.6571 14.2008Z" fill="black"/>
</g>
</g>
</svg>
