<svg id="&#x5716;&#x5C64;_1" enable-background="new 0 0 512 512" viewBox="0 0 512 512" xmlns="http://www.w3.org/2000/svg"><path id="_x32__00000007400742371375792440000011365662347609179311_" d="m352.833.107h.181c10.659-.361 27.099.181 35.228 1.807 0 0-2.529 83.464 13.007 117.789 13.911 30.712 47.513 69.734 47.513 69.734 1.807 4.697-35.59 63.049-37.938 134.048-2.349 71.179 30.35 136.758 28.183 185.535-59.075 3.974-306.937 3.974-366.012 0-2.349-49.5 30.35-113.634 28.002-185.535-2.349-69.553-39.564-129.351-37.757-134.048 0 0 33.422-39.022 47.513-69.734 15.535-34.326 13.006-117.789 13.006-117.789 8.13-1.626 24.569-2.168 35.228-1.807 8.672.181 45.345 56.184 97.013 56.365 51.307.181 87.98-55.462 96.832-56.184v-.181z" fill="#8d7383"/><path id="_x31__00000103978329627172795590000008941013130179353278_" d="m326.457 99.288c-20.957 26.376-47.152 37.396-70.457 37.035-19.692-.361-49.5-10.659-70.456-37.035-27.279-33.964-26.557-99.181-26.557-99.181 8.672.181 45.345 56.184 97.013 56.365 51.307.181 87.98-55.462 96.832-56.184.001 0 .904 65.036-26.375 99z" fill="#f8c9ca"/></svg>