<svg width="43" height="35" viewBox="0 0 43 35" fill="none" xmlns="http://www.w3.org/2000/svg">
<g id="Group 1">
<g id="Group">
<g id="Group_2">
<path id="Vector" d="M19.2369 29.7367C19.5131 29.7367 19.7369 29.5128 19.7369 29.2367C19.7369 28.9605 19.5131 28.7367 19.2369 28.7367C18.9608 28.7367 18.7369 28.9605 18.7369 29.2367C18.7369 29.5128 18.9608 29.7367 19.2369 29.7367Z" stroke="#FF6AD3" stroke-width="6" stroke-linecap="round" stroke-linejoin="round"/>
<path id="Vector_2" d="M33.387 29.7367C33.6631 29.7367 33.887 29.5128 33.887 29.2367C33.887 28.9605 33.6631 28.7367 33.387 28.7367C33.1108 28.7367 32.887 28.9605 32.887 29.2367C32.887 29.5128 33.1108 29.7367 33.387 29.7367Z" stroke="#FF6AD3" stroke-width="6" stroke-linecap="round" stroke-linejoin="round"/>
</g>
<path id="Vector_3" d="M4.797 2.81666H8.487C9.927 2.81666 11.157 3.83666 11.437 5.24666L13.947 18.2367C14.217 19.6467 15.457 20.6667 16.897 20.6667H34.887C36.327 20.6667 37.557 19.6467 37.837 18.2367L40.127 6.38666C40.487 4.53666 39.067 2.81666 37.177 2.81666L16.637 2.66666" stroke="#D3686C" stroke-width="4" stroke-linecap="round" stroke-linejoin="round"/>
</g>
<g id="Group_3" opacity="0.15">
<g id="Group_4">
<g id="Group_5">
<path id="Vector_4" d="M17.257 31.6467C17.5331 31.6467 17.757 31.4228 17.757 31.1467C17.757 30.8705 17.5331 30.6467 17.257 30.6467C16.9808 30.6467 16.757 30.8705 16.757 31.1467C16.757 31.4228 16.9808 31.6467 17.257 31.6467Z" stroke="#FF6AD3" stroke-width="6" stroke-linecap="round" stroke-linejoin="round"/>
<path id="Vector_5" d="M31.407 31.6467C31.6831 31.6467 31.907 31.4228 31.907 31.1467C31.907 30.8705 31.6831 30.6467 31.407 30.6467C31.1308 30.6467 30.907 30.8705 30.907 31.1467C30.907 31.4228 31.1308 31.6467 31.407 31.6467Z" stroke="#D3686C" stroke-width="6" stroke-linecap="round" stroke-linejoin="round"/>
</g>
<path id="Vector_6" d="M2.81702 4.72669H6.50702C7.94702 4.72669 9.17702 5.74669 9.45702 7.15669L11.967 20.1467C12.237 21.5567 13.477 22.5767 14.917 22.5767H32.907C34.347 22.5767 35.577 21.5567 35.857 20.1467L38.147 8.29669C38.507 6.44669 37.087 4.72669 35.197 4.72669L14.657 4.57669" stroke="#D3686C" stroke-width="4" stroke-linecap="round" stroke-linejoin="round"/>
</g>
</g>
</g>
</svg>
