<svg height="512" viewBox="0 0 60 56" width="512" xmlns="http://www.w3.org/2000/svg"><g id="Page-1" fill="none" fill-rule="evenodd"><g id="030---Shorts-and-Tshirts" fill="rgb(0,0,0)" fill-rule="nonzero"><path id="Shape" d="m28 27c-1.6568542 0-3 1.3431458-3 3v3.862l-4.672 16.82c-.1495809.5396611-.0660536 1.1173148.2302712 1.5924991.2963249.4751842.7783002.8043658 1.3287288.9075009l14.072 2.638c.1203438.0226648.2425405.0340475.365.034.860888-.001261 1.6251853-.5511528 1.9-1.367l1.776-5.325 1.775 5.326c.3158369.9489373 1.2840848 1.5186958 2.267 1.334l14.071-2.638c.5504286-.1031351 1.0324039-.4323167 1.3287288-.9075009.2963248-.4751843.3798521-1.052838.2302712-1.5924991l-4.672-16.822v-3.862c0-1.6568542-1.3431458-3-3-3zm29.744 24.218-14.071 2.638-2.725-8.172c-.1348836-.4103745-.5180268-.6877501-.95-.6877501s-.8151164.2773756-.95.6877501l-2.725 8.172-14.067-2.638 4.504-16.218h8.52l2.472 7.417c.1747981.5246705.7418295.8082981 1.2665.6335s.8082981-.7418295.6335-1.2665l-2.265-6.784h15.853l4.506 16.217zm-4.744-21.218v3h-26v-3c0-.5522847.4477153-1 1-1h24c.5522847 0 1 .4477153 1 1z"/><path id="Shape" d="m34.707 13.293c-.2859943-.2859079-.7160366-.3714219-1.0896546-.216678-.3736179.1547439-.6172591.5192821-.6173454.923678v10c0 .5522847.4477153 1 1 1s1-.4477153 1-1v-7.586l.533.533c.7835116.7803533 2.0504884.7803533 2.834 0l4.633-4.63c.7809022-.7832848.7809022-2.0507152 0-2.834l-8.9-8.9c-.3744944-.37302039-.8814263-.58262415-1.41-.583h-21.38c-.5285737.00037585-1.0355056.20997961-1.41.583l-8.9 8.9c-.78035328.7835116-.78035328 2.0504884 0 2.834l4.631 4.631c.78316909.7802378 2.04983091.7802378 2.833 0l.536-.534v21.586c0 1.1045695.8954305 2 2 2h9c.5522847 0 1-.4477153 1-1s-.4477153-1-1-1h-9v-24c-.0000863-.4043959-.2437275-.7689341-.6173454-.923678-.373618-.1547439-.80366035-.0692299-1.0896546.216678l-2.246 2.24-4.63-4.633 8.893-8.9h3.731c0 3.85467141 3.1248286 6.9795 6.9795 6.9795s6.9795-3.12482859 6.9795-6.9795h3.684l8.9 8.906-4.636 4.63zm-12.687-6.333c-2.7409007-.00326787-4.9648034-2.21912914-4.978-4.96h9.958c-.0132015 2.74165019-2.2383189 4.9578314-4.98 4.96z"/><path id="Shape" d="m50.5 43c-1.9329966 0-3.5 1.5670034-3.5 3.5s1.5670034 3.5 3.5 3.5 3.5-1.5670034 3.5-3.5-1.5670034-3.5-3.5-3.5zm0 5c-.8284271 0-1.5-.6715729-1.5-1.5s.6715729-1.5 1.5-1.5 1.5.6715729 1.5 1.5-.6715729 1.5-1.5 1.5z"/><path id="Shape" d="m31 13.5c0-1.4156179-.8527476-2.6918449-2.160608-3.2335784-1.3078604-.54173346-2.8132727-.2422883-3.8142657.7587047s-1.3004382 2.5064053-.7587047 3.8142657 1.8179605 2.160608 3.2335784 2.160608c1.9329966 0 3.5-1.5670034 3.5-3.5zm-3.5 1.5c-.8284271 0-1.5-.6715729-1.5-1.5s.6715729-1.5 1.5-1.5 1.5.6715729 1.5 1.5-.6715729 1.5-1.5 1.5z"/></g></g></svg>