<svg id="Capa_1" enable-background="new 0 0 512.002 512.002" height="512" viewBox="0 0 512.002 512.002" width="512" xmlns="http://www.w3.org/2000/svg"><g><g><path d="m149.461 352.612c-9.325 10.516-22.152 17.734-34.43 20.358-10.109.208-14.255-.824-21.935-1.511-30.138-2.695-44.31-23.432-45.947-53.646-.524-9.675 1.257-18.879 4.839-27.121 2.937-6.758 1.64-14.611-3.527-19.865-12.251-12.456-19.812-29.537-19.812-48.389 0-19.762 8.305-37.581 21.613-50.165 4.632-4.38 6.619-10.932 5.057-17.112-1.185-4.687-1.817-9.593-1.817-14.648 0-20.932 10.753-39.346 27.033-50.037 3.892-2.556 6.559-6.545 7.586-11.086 6.031-26.665 19.828-46.261 48.317-46.261.451 0 .901.005 1.35.015.277.006.476-.207.866-.321 4.638-.122 9.023-2.122 12.3-5.445 12.098-12.267 28.905-19.878 47.497-19.878 13.532 0 26.116 4.034 36.63 10.959.733.483 1.497.902 2.28 1.265 1.478 3.354 4.764 4.567 7.502 4.488 2.388-.069 6.074-1.553 7.494-4.476.789-.365 1.55-.79 2.288-1.277 10.515-6.925 23.099-10.959 36.631-10.959 18.592 0 35.399 7.611 47.498 19.879 3.471 3.52 8.187 5.56 13.129 5.45.449-.01.899-.015 1.35-.015 28.488 0 52.321 19.912 58.353 46.576 1.027 4.541 3.694 8.53 7.586 11.086 16.28 10.691 27.033 29.105 27.033 50.037 0 5.055-.632 9.961-1.817 14.648-1.562 6.181.425 12.732 5.057 17.112 13.308 12.584 21.613 30.403 21.613 50.165 0 23.582-9.715 52.061-42.715 69.061l-24.679 10.497z" fill="#795252"/><path d="m73.504 135.73c0 5.16.63 10.17 1.82 14.95 1.56 6.31-.43 12.99-5.06 17.46-13.31 12.84-21.61 31.03-21.61 51.19 0 19.24 7.56 36.67 19.81 49.38 5.16 5.36 6.46 13.37 3.52 20.27-3.58 8.41-5.36 17.8-4.83 27.67 1.49 28.21 21.438 50.61 47.878 56.319-7.29 1.52-14.998 1.871-22.588 1.19-30.13-2.69-53.66-26.13-55.29-56.35-.53-9.67 1.25-18.88 4.83-27.12 2.94-6.76 1.64-14.61-3.52-19.86-12.25-12.46-19.81-29.54-19.81-48.39 0-19.76 8.3-37.58 21.61-50.17 4.63-4.38 6.62-10.93 5.06-17.11-1.19-4.69-1.82-9.59-1.82-14.65 0-20.93 10.75-39.34 27.03-50.03 3.89-2.56 6.56-6.55 7.59-11.09 6.03-26.66 29.86-46.58 58.35-46.58.45 0 .9.01 1.35.02.28.01.55.014.83-.006-15.26 8.19-26.63 22.916-30.53 40.536-1.03 4.63-3.7 8.7-7.59 11.31-16.28 10.911-27.03 29.701-27.03 51.061z" fill="#664645"/><path d="m86.679 244.5c-14.814-70.368 16.459-141.172 80.002-172.333 22.954-11.257 50.392-9.346 71.272 5.407 2.522 1.782 4.917 2.926 6.91 2.926 1.76 0 3.843-.941 6.05-2.447 21.327-14.555 48.631-17.336 71.837-6.014 63.742 31.098 95.135 101.984 80.298 172.461l-1.411 5.477-312.682 4.212z" fill="#876161"/><path d="m364.99 237h15.327c13.999.257 25.792 9.773 28.463 23.387.385 1.963.558 4.106.544 6.219 0 29.381-23.818 53.199-53.199 53.199h-222.602c-29.381 0-53.199-23.818-53.199-53.199v-.598c0-1.928.189-3.811.547-5.634 2.623-13.324 14.368-23.374 28.461-23.374h19.492z" fill="#fdd0bf"/><path d="m384.123 469.302-68.386-11.011c-13.571-2.185-23.549-13.898-23.549-27.644l.002-8.878-5.357-13.474.188-56.796h-84.423l-1.506 84.467c0 13.746-9.978 25.459-23.549 27.644l-69.063 8.403c-18.489 2.977-32.012 10.283-40.753 26.635-1.067 1.995.393 4.412 2.655 4.412l25.098 1.44h329.135c2.263 0 3.722-2.416 2.655-4.412-8.737-16.352-24.657-27.808-43.147-30.786z" fill="#fedecf"/><path d="m292.193 351.5-.002 70.27c-17.72 10.7-33.388 15.97-47.328 15.97-5.882 0-12.071-.935-18.593-2.825-3.861-1.119-7.727 1.724-7.727 5.744v13.401c0 11.78-8.56 21.82-20.19 23.69l-71.75 11.55c-11.83 1.91-22.6 7.28-31.12 15.2h-30.37c-2.27 0-3.72-2.42-2.66-4.41 8.74-16.35 24.66-27.81 43.15-30.79l68.39-11.01c13.57-2.18 23.55-13.9 23.55-27.64v-79.15z" fill="#fdd0bf"/><path d="m372.414 241.06c-.32 3.55-.73 7.67-1.15 10.45-.07.46-.14.88-.21 1.25l-8.75 48.26c-5.11 28.2-19.41 53.92-40.7 73.12-23.09 20.81-53.65 43.6-76.74 43.6s-53.65-22.79-76.74-43.6c-21.29-19.2-35.59-44.92-40.7-73.12l-8.75-48.26c-.06-.34-.13-.72-.19-1.13-.43-2.85-.83-7.16-1.14-10.8-.62-7.42-.49-14.91.68-22.26 9.72-60.79 71.34-105.07 126.84-105.07s117.4 43.98 126.95 105.07c1.16 7.43 1.27 15 .6 22.49z" fill="#fedecf"/><path d="m488.974 500.11c-2.93 2.93-6.77 4.39-10.61 4.39s-7.68-1.46-10.61-4.39l-30.9-30.9 2.689-16.528 18.531-4.692 30.9 30.9c5.85 5.86 5.85 15.36 0 21.22z" fill="#877587"/><path d="m458.074 447.99-21.22 21.22-10.81-10.81-3.348-8.918-54.942-49.372c-5.85-5.86-5.85-15.36 0-21.22 5.86-5.85 15.36-5.85 21.22 0l49.722 54.498 8.568 3.792z" fill="#f8f6fa"/><path d="m447.264 437.18c-6.19 7.9-13.32 15.03-21.22 21.22l-47.41-47.41-10.88-10.88c-5.85-5.86-5.85-15.36 0-21.22 5.86-5.85 15.36-5.85 21.22 0l10.88 10.88z" fill="#f3ecfb"/><circle cx="350.364" cy="361.5" fill="#fdd0bf" r="91.721"/><path d="m350.364 269.78c-50.66 0-91.72 41.06-91.72 91.72s41.06 91.72 91.72 91.72 91.72-41.06 91.72-91.72-41.06-91.72-91.72-91.72zm0 148.72c-31.43 0-57-25.57-57-57s25.57-57 57-57 57 25.57 57 57-25.57 57-57 57z" fill="#fcc1ac"/><path d="m350.364 256.5c-28.75 0-54.736 11.488-73.698 30.207-1.284 1.839-2.458 3.073-3.805 4.564-16.825 18.62-23.623 43.157-23.623 70.229 0 57.99 43.136 101.347 101.126 101.347 34.024 0 63.616-12.771 82.803-37.859 1.457-1.906 2.965-3.6 4.83-5.626 10.976-16.59 17.367-36.48 17.367-57.862 0-57.99-47.01-105-105-105zm0 180c-41.42 0-75-33.58-75-75s33.58-75 75-75 75 33.58 75 75-33.58 75-75 75z" fill="#877587"/><path d="m437.994 419.36c-18.79 28.41-51.02 47.14-87.63 47.14-57.99 0-105-47.01-105-105 0-29.31 12.01-55.81 31.37-74.86-10.98 16.59-17.37 36.47-17.37 57.86 0 57.99 47.01 105 105 105 28.69 0 54.67-11.5 73.63-30.14z" fill="#766176"/></g><g><path d="m333.027 211.339c-18.396-5.731-42.466-10.862-65.503.426-3.719 1.823-5.257 6.315-3.435 10.035s6.315 5.257 10.035 3.435c18.178-8.906 37.722-4.783 54.441.426.743.231 1.494.341 2.233.341 3.196 0 6.158-2.059 7.158-5.271 1.233-3.955-.974-8.16-4.929-9.392z"/><path d="m222.204 211.765c-23.036-11.288-47.106-6.157-65.503-.426-3.955 1.232-6.162 5.437-4.93 9.391 1 3.212 3.962 5.271 7.158 5.271.739 0 1.491-.11 2.233-.341 16.721-5.209 36.265-9.333 54.441-.426 3.719 1.823 8.213.284 10.035-3.435 1.823-3.718.285-8.211-3.434-10.034z"/><path d="m205.679 253.811c-12.004 4.54-23.675 4.54-35.68 0-3.877-1.466-8.203.488-9.668 4.362s.488 8.203 4.362 9.668c7.68 2.904 15.411 4.356 23.146 4.356 7.732 0 15.468-1.452 23.146-4.356 3.875-1.465 5.828-5.793 4.362-9.668-1.465-3.874-5.793-5.825-9.668-4.362z"/><path d="m494.273 473.59-50.087-50.087c11.795-17.789 18.677-39.106 18.677-62.003 0-25.534-8.556-49.103-22.944-68.005 16.072-10.235 27.345-24.045 33.545-41.175 1.41-3.895-.605-8.195-4.5-9.604-3.893-1.409-8.195.604-9.604 4.5-5.272 14.567-15.172 26.252-29.437 34.82-4.108-4.113-8.537-7.905-13.237-11.347.089-1.103.16-4.055.139-6.688 0-7.463-2.2-14.418-5.974-20.267 6.917-35.218 2.804-71.829-11.668-103.359-15.241-33.205-40.533-59.166-73.144-75.076-23.136-11.287-50.796-10.016-73.675 3.025v-40.577c2.231-.694 4.391-1.696 6.408-3.024 9.657-6.36 20.897-9.722 32.505-9.722 15.965 0 30.937 6.267 42.158 17.646 4.965 5.035 11.751 7.833 18.641 7.682 23.951-.677 46.975 16.747 52.216 40.718 1.476 6.527 5.306 12.103 10.784 15.7 14.809 9.725 23.65 26.086 23.65 43.768 0 4.331-.534 8.641-1.588 12.811-2.216 8.77.533 18.119 7.176 24.4 10.764 10.178 17.497 23.861 18.959 38.529.411 4.122 4.085 7.128 8.207 6.719 4.122-.411 7.13-4.085 6.719-8.207-1.82-18.258-10.194-35.284-23.58-47.94-2.699-2.553-3.825-6.317-2.938-9.825 1.357-5.371 2.045-10.917 2.045-16.486 0-22.75-11.371-43.799-30.417-56.306-2.214-1.454-3.772-3.752-4.387-6.471-3.315-14.658-11.609-27.963-23.353-37.464-11.58-9.491-28.199-15.364-43.832-14.941-2.761.053-5.546-1.112-7.623-3.218-14.062-14.263-32.827-22.116-52.838-22.116-14.549 0-28.643 4.217-40.756 12.196-3.384 2.229-7.93 2.229-11.313 0-12.113-7.979-26.207-12.196-40.756-12.196-20.011 0-38.775 7.853-52.837 22.112-2.078 2.107-4.868 3.283-7.618 3.219-14.65-.462-31.825 5.028-43.837 14.941-11.744 9.501-20.037 22.806-23.353 37.464-.615 2.719-2.173 5.017-4.387 6.471-19.046 12.507-30.417 33.556-30.417 56.306 0 5.569.688 11.116 2.045 16.486.887 3.508-.239 7.273-2.938 9.825-15.451 14.61-23.96 34.361-23.96 55.614 0 20.194 7.801 39.247 21.965 53.647 2.968 3.018 3.751 7.578 1.996 11.617-4.191 9.642-6.024 19.91-5.449 30.516.72 13.297 5.268 25.895 13.15 36.432 1.473 1.969 3.728 3.008 6.011 3.008 1.562 0 3.139-.487 4.487-1.495 3.317-2.481 3.994-7.181 1.513-10.498-6.102-8.157-9.624-17.929-10.183-28.258-.448-8.258.975-16.241 4.228-23.726 4.206-9.677 2.221-20.712-5.059-28.114-11.388-11.578-17.659-26.895-17.659-43.129 0-17.087 6.842-32.967 19.266-44.715 6.643-6.281 9.392-15.63 7.176-24.399-1.054-4.17-1.588-8.48-1.588-12.811 0-17.682 8.841-34.043 23.65-43.768 5.479-3.598 9.308-9.173 10.784-15.7 5.198-23.395 27.604-41.44 52.222-40.718 6.87.162 13.67-2.647 18.636-7.682 11.22-11.378 26.192-17.645 42.156-17.645 11.608 0 22.848 3.362 32.505 9.722 2.017 1.329 4.177 2.33 6.408 3.025v40.512c-22.314-13.33-50.14-14.519-73.985-2.825-32.512 15.944-57.721 41.905-72.902 75.077-14.403 31.471-18.498 67.997-11.618 103.129-3.81 5.868-6.034 12.858-6.034 20.361v2.606c0 15.97 6.152 31.049 17.322 42.459 9.931 10.145 22.844 16.374 36.794 17.874 3.355 8.732 7.594 17.108 12.632 24.976-14.75 14.218-33.184 15.963-46.456 14.776-4.782-.427-9.459-1.457-13.902-3.06-3.899-1.408-8.195.613-9.6 4.509-1.406 3.896.613 8.195 4.509 9.6 5.653 2.04 11.594 3.349 17.657 3.891 2.82.252 5.591.377 8.312.377 18.933 0 35.403-6.077 48.328-17.825 4.473 5.538 9.377 10.738 14.685 15.523 9.463 8.531 18.446 15.873 26.934 22.02v28.921c0 10.119-7.251 18.63-17.242 20.239l-68.385 11.011c-22.752 3.663-41.806 18.475-50.969 39.62-1.647 3.8.099 8.217 3.9 9.864.971.421 1.983.62 2.978.62 2.899 0 5.66-1.691 6.886-4.52 7.117-16.425 21.917-27.929 39.59-30.774l68.385-11.011c17.3-2.786 29.857-17.525 29.857-35.048v-19.003c15.204 9.036 28.523 13.599 39.825 13.599 3.703 0 7.655-.504 11.792-1.479 5.961 8.958 13.24 17.12 21.717 24.187 3.182 2.653 7.911 2.224 10.563-.958s2.223-7.911-.959-10.563c-22.315-18.601-35.114-45.913-35.114-74.931 0-53.762 43.738-97.5 97.5-97.5 53.355-.029 97.534 43.644 97.5 97.5 0 53.762-43.738 97.5-97.5 97.5-11.981 0-23.677-2.146-34.762-6.377-3.872-1.478-8.205.462-9.682 4.332s.462 8.205 4.332 9.682c12.799 4.886 26.295 7.363 40.111 7.363 4.008 0 7.966-.215 11.867-.626l20.7 3.333c17.673 2.845 32.473 14.35 39.59 30.774 1.226 2.83 3.986 4.52 6.886 4.52.995 0 2.007-.199 2.978-.62 3.801-1.647 5.547-6.063 3.9-9.864-7.724-17.824-22.475-31.146-40.545-37.086 5.817-2.574 11.375-5.627 16.627-9.109l50.087 50.086c4.25 4.25 9.9 6.591 15.91 6.591s11.661-2.341 15.91-6.59c8.773-8.773 8.773-23.047 0-31.82zm-115.595-220.979c.373-2.492.776-6.126 1.201-10.877.007-.073.01-.146.017-.219 11.267.284 20.499 8.884 21.772 19.882-7.244-3.729-14.943-6.692-22.99-8.786zm-123.536-168.363c19.42-13.254 44.066-15.35 64.32-5.468 55.783 27.215 86.836 88.782 78.245 152.554-5.206-2.941-11.177-4.67-17.537-4.812-.17-3.108-.483-6.151-.946-9.112-4.769-30.522-22.173-58.994-49.005-80.17-23.005-18.156-50.989-29.224-77.854-30.985v-20.325c.905-.477 1.83-1.036 2.777-1.682zm-167.318 182.358v-2.606c0-12.256 9.851-22.247 22.05-22.489.494 5.897.971 10.134 1.416 12.588l8.752 48.256c.512 2.825 1.115 5.629 1.804 8.409-19.504-5.223-34.022-23.185-34.022-44.158zm222.181-10.114c-8.693 1.51-17.19.635-25.957-2.681-3.875-1.466-8.203.488-9.668 4.362s.488 8.203 4.362 9.668c2.119.802 4.245 1.481 6.376 2.062-12.636 9.027-23.331 20.602-31.335 33.966-8.484 2.237-16.801 1.781-25.344-1.398-3.884-1.443-8.2.533-9.645 4.414-1.444 3.882.532 8.2 4.414 9.645 6.328 2.258 14.492 4.09 22.509 3.667-2.893 7.303-5.034 14.981-6.346 22.935-7.369 4.696-17.655 3.428-24.368.102-3.711-1.839-8.211-.32-10.05 3.39-1.839 3.712-.321 8.211 3.39 10.05 5.551 2.75 12.471 4.518 19.561 4.518 3.331 0 6.698-.395 9.979-1.256-.344 16.238 3.64 35.03 10.94 50.042-20.122 1.754-43.961-13.592-75.675-41.41-19.931-17.968-33.55-42.433-38.348-68.887-1.647-10.273-9.633-49.531-9.983-59.476-.605-7.239-.398-14.12.614-20.451 3.686-23.044 15.507-44.665 34.186-62.524 2.994-2.863 3.1-7.61.238-10.604-2.863-2.994-7.61-3.1-10.604-.238-21.066 20.142-34.425 44.692-38.631 70.997-.473 2.96-.794 6.01-.973 9.133-6.393.114-12.398 1.832-17.632 4.774-8.552-63.638 22.385-125.132 77.968-152.39 20.7-10.15 45.087-8.312 63.643 4.799 1.286.909 2.528 1.654 3.738 2.272v20.283c-19.692 1.271-39.809 7.492-58.628 18.203-3.6 2.049-4.857 6.628-2.808 10.228 2.048 3.6 6.629 4.857 10.228 2.808 18.688-10.637 39.537-16.495 58.708-16.495 50.28 0 110.312 39.67 119.54 98.725 1.007 6.445 1.188 13.399.536 20.671-.361 4.026-.71 7.27-1.011 9.425-4.448-.537-8.974-.82-13.564-.82-14.219-.001-27.826 2.657-40.36 7.491zm124.995 179.038 12.46 12.459-10.607 10.607-12.46-12.459c3.766-3.298 7.309-6.842 10.607-10.607zm48.666 59.274c-1.416 1.417-3.299 2.196-5.303 2.196s-3.887-.78-5.303-2.197l-25.601-25.601 10.607-10.607 25.601 25.601c2.924 2.925 2.924 7.683-.001 10.608z"/><path d="m400.127 427.248c19.334-14.585 32.874-39.134 32.737-65.748.437-44.1-36.869-82.774-82.5-82.5-44.387-.282-82.806 36.994-82.5 82.5 0 21.383 8.18 40.889 21.571 55.561 14.492 15.955 37.059 27.089 60.929 26.939 18.678 0 35.919-6.248 49.763-16.752zm-62.249-132.071 1.221 15.368-20.701 12.088c-3.347 1.954-4.872 6.131-3.275 9.663 1.283 2.838 4.027 4.437 6.854 4.437 1.284 0 2.586-.33 3.775-1.024l14.666-8.564.862 10.843c.16 2.659 2.604 6.572 6.965 6.881 4.607.327 8.331-3.763 7.965-8.367l-3.372-42.439c26.673.968 49.444 17.473 59.504 40.726l-17.94-3.242c-6.476-1.172-13.099 1.255-17.287 6.331l-13.882 16.822c-2.604 3.156-2.427 7.903.642 10.609 1.434 1.264 3.203 1.879 4.961 1.879 2.161 0 4.306-.929 5.789-2.726l14.059-17.037c.74-.897 1.906-1.324 3.051-1.117l25.286 4.569c.55 3.462.843 7.008.843 10.623 0 19.159-8.037 36.466-20.901 48.764l-17.483-20.387c-2.673-3.117-7.406-3.776-10.602-1.198-3.307 2.668-3.735 7.521-.989 10.724l17.141 19.989c-10.14 6.095-21.999 9.608-34.666 9.608-16.485 0-31.601-5.948-43.336-15.801l19.274-14.556c4.648-3.511 7.337-9.032 7.234-14.856l-.396-22.419c-.073-4.141-3.47-7.408-7.631-7.367-4.142.073-7.439 3.49-7.367 7.631l.396 22.419c.018 1.028-.456 2.002-1.277 2.622l-20.649 15.595c-8.619-11.336-13.748-25.462-13.748-40.769 0-32.952 23.742-60.447 55.014-66.322z"/></g></g></svg>