<?xml version="1.0" encoding="iso-8859-1"?>
<!-- Generator: Adobe Illustrator 19.0.0, SVG Export Plug-In . SVG Version: 6.00 Build 0)  -->
<svg version="1.1" id="Capa_1" xmlns="http://www.w3.org/2000/svg" xmlns:xlink="http://www.w3.org/1999/xlink" x="0px" y="0px"
	 viewBox="0 0 512 512" style="enable-background:new 0 0 512 512;" xml:space="preserve">
<g>
	<g>
		<path d="M493.314,241.746l-6.949-9.75c0.048-5.076,0.049-11.065,0.049-11.496V128c-0.08-70.659-57.341-127.92-128-128
			c-20.376-0.025-39.925,8.058-54.333,22.467S281.589,56.424,281.614,76.8v131.397L257.548,242
			c-0.558,0.845-1.033,1.724-1.543,2.588c-0.557-0.95-1.081-1.91-1.694-2.838l-23.896-33.56V76.8
			c0.025-20.376-8.058-39.925-22.467-54.333S173.991-0.025,153.614,0c-70.659,0.08-127.92,57.341-128,128v104.077l-7.083,9.94
			C2.023,267.191,6.323,300.64,28.66,320.821l14.021,12.504v110.409c0.043,37.685,30.582,68.224,68.267,68.267h34.133
			c37.685-0.043,68.224-30.582,68.267-68.267v-95.169l31.095-27.727c4.565-4.072,8.468-8.829,11.569-14.101
			c3.104,5.272,7.008,10.029,11.573,14.101l31.095,27.722v95.174c0.043,37.685,30.582,68.224,68.267,68.267h34.133
			c37.685-0.043,68.224-30.582,68.267-68.267V333.326l14.004-12.488C505.759,300.557,509.993,266.95,493.314,241.746z M42.681,128
			C42.749,66.761,92.376,17.135,153.614,17.067c15.85-0.026,31.059,6.259,42.267,17.467c11.208,11.208,17.493,26.416,17.467,42.267
			v107.42l-51.817-72.774V94.804c0.049-7.526-2.98-14.745-8.383-19.983c-0.198-0.21-0.408-0.409-0.629-0.596
			c-1.766-1.489-3.72-2.74-5.813-3.721l-0.108-0.054v-0.004c-0.64-0.321-1.306-0.587-1.992-0.796
			c-1.167-0.425-2.369-0.749-3.592-0.967c-0.188-0.038-0.388-0.067-0.588-0.092c-2.731-0.459-5.522-0.428-8.242,0.092
			c-1.386,0.248-2.746,0.625-4.062,1.125v0.009c-0.675,0.178-1.326,0.439-1.938,0.775c-0.529,0.25-1.087,0.554-1.758,0.937
			c-0.471,0.23-0.921,0.504-1.342,0.817l-2.063,1.537c-0.267,0.2-0.775,0.671-1.017,0.9c-5.429,5.24-8.474,12.476-8.425,20.021
			v16.642l-68.9,96.683V128z M196.281,443.733c-0.031,28.264-22.936,51.169-51.2,51.2h-34.133
			c-28.264-0.031-51.169-22.936-51.2-51.2v-95.189l4.062,3.623c4.488,3.996,10.282,6.213,16.292,6.233
			c13.83-0.083,24.984-11.345,24.933-25.175c-0.02-7.736-3.307-15.104-9.05-20.287l-28.996-25.75
			c-6.392-5.767-7.675-15.311-3.033-22.562l72.563-101.792l72.475,101.554c4.791,7.258,3.583,16.923-2.846,22.779l-29.013,25.763
			c-5.759,5.148-9.079,12.488-9.142,20.212c0.016,4.169,1.053,8.271,3.021,11.946c4.294,8.175,12.762,13.3,21.996,13.313
			c1.096-0.026,2.189-0.127,3.271-0.303V443.733z M233.114,308.071l-0.017,0.013l-35.091,31.295c-1.804,1.527-4.204,2.152-6.524,1.7
			c-2.32-0.452-4.31-1.933-5.409-4.025c-0.649-1.203-0.996-2.546-1.013-3.913c0.051-2.846,1.282-5.543,3.4-7.446l29.046-25.792
			c12.777-11.616,15.135-30.831,5.546-45.192L143.46,143.179c-1.603-2.244-4.191-3.576-6.949-3.575
			c-2.758,0.001-5.345,1.334-6.947,3.579L49.893,254.958c-9.436,14.353-7,33.443,5.738,44.967l28.954,25.713
			c2.131,1.951,3.356,4.699,3.383,7.587c0.012,1.271-0.275,2.527-0.838,3.667c-1.078,2.126-3.062,3.647-5.395,4.135
			c-2.333,0.489-4.761-0.108-6.601-1.623l-17.862-15.93l-0.093-0.083l-17.178-15.32c-15.987-14.438-19.117-38.35-7.387-56.417
			l94.45-132.525c1.03-1.447,1.583-3.178,1.583-4.954V94.804c0-2.843,1.106-5.574,3.083-7.617l1.146-0.854l0.242-0.163
			c0.226-0.083,0.447-0.178,0.663-0.283c0.233-0.075,0.479-0.158,0.646-0.221c0.357-0.108,0.722-0.189,1.092-0.242
			c0.684-0.142,1.391-0.142,2.075,0c0.171,0.033,0.346,0.058,0.525,0.083c0.213,0.042,0.471,0.1,0.846,0.204l0.013,0.004
			c0.121,0.063,0.242,0.125,0.362,0.179c0.701,0.321,1.362,0.725,1.967,1.204l0.083,0.071l-0.009,0.008
			c2.01,2.025,3.121,4.772,3.083,7.625v19.371c0,1.774,0.554,3.505,1.583,4.95L240.239,251.4
			C252.196,269.456,249.168,293.538,233.114,308.071z M298.681,76.8c-0.026-15.85,6.259-31.059,17.467-42.267
			c11.208-11.208,26.416-17.493,42.267-17.467C419.653,17.135,469.28,66.761,469.348,128v80.119l-68.9-96.673V94.804
			c0.044-7.563-3.013-14.814-8.458-20.062c-0.304-0.312-0.633-0.599-0.983-0.858l-2.063-1.537c-0.279-0.208-1.338-0.817-1.638-0.988
			c-0.258-0.146-0.512-0.287-0.767-0.421c-0.689-0.489-1.468-0.837-2.292-1.025c-0.129-0.046-0.354-0.125-0.596-0.204
			c-1.252-0.45-2.54-0.794-3.85-1.029c-2.685-0.514-5.441-0.547-8.138-0.096c-0.217,0.025-0.433,0.058-0.65,0.1
			c-1.223,0.218-2.425,0.541-3.592,0.967c-0.685,0.209-1.351,0.475-1.992,0.796v0.004l-0.1,0.046
			c-2.096,0.981-4.054,2.234-5.821,3.729c-0.204,0.175-0.396,0.354-0.583,0.546l-0.017,0.017c-5.421,5.243-8.46,12.475-8.412,20.017
			v16.642l-51.816,72.779V76.8z M452.281,443.733c-0.031,28.264-22.936,51.169-51.2,51.2h-34.133
			c-28.264-0.031-51.169-22.936-51.2-51.2v-85.636c1.082,0.175,2.175,0.277,3.271,0.303c9.294-0.028,17.802-5.219,22.079-13.471
			c1.921-3.633,2.93-7.678,2.938-11.788c-0.062-7.721-3.378-15.057-9.133-20.204l-28.996-25.75
			c-6.393-5.765-7.678-15.308-3.038-22.558l72.642-101.796l72.4,101.55c4.789,7.26,3.582,16.925-2.846,22.783l-29.087,25.83
			c-5.708,5.178-8.969,12.522-8.983,20.229c-0.048,13.829,11.104,25.089,24.933,25.175c6.024-0.023,11.831-2.251,16.325-6.263
			l4.029-3.593V443.733z M472.01,308.088l-17.156,15.3l-0.101,0.09l-17.827,15.898c-1.812,1.51-4.207,2.125-6.522,1.675
			c-2.315-0.45-4.305-1.917-5.42-3.996c-0.614-1.183-0.932-2.497-0.925-3.829c0.022-2.859,1.221-5.583,3.317-7.529l29.046-25.792
			c12.773-11.616,15.132-30.826,5.55-45.188l-79.508-111.533c-1.602-2.245-4.189-3.578-6.946-3.579h-0.004
			c-2.757,0-5.344,1.331-6.946,3.575L288.81,254.954c-9.44,14.354-7.004,33.447,5.738,44.971l29.029,25.779
			c2.113,1.901,3.342,4.595,3.392,7.438c-0.009,1.307-0.327,2.594-0.929,3.754c-1.06,2.142-3.045,3.678-5.385,4.167
			c-2.339,0.489-4.774-0.124-6.603-1.663l-35.121-31.317l-0.017-0.013c-15.999-14.442-19.095-38.385-7.296-56.421l94.363-132.525
			c1.03-1.445,1.583-3.176,1.583-4.95V94.805c-0.037-2.856,1.075-5.607,3.087-7.633l-0.008-0.004l0.071-0.063
			c0.601-0.479,1.259-0.882,1.958-1.2h0.004c0.261-0.078,0.517-0.173,0.767-0.283c0.133-0.042,0.268-0.075,0.404-0.1
			c0.196-0.025,0.392-0.058,0.588-0.096c0.686-0.127,1.389-0.127,2.075,0c0.501,0.083,0.995,0.209,1.475,0.375
			c0.279,0.146,0.567,0.274,0.862,0.383l0.425,0.237l1.025,0.763c2.011,2.022,3.122,4.769,3.083,7.621v19.371
			c0,1.776,0.554,3.507,1.583,4.954l94.267,132.254C491.132,269.48,488.067,293.551,472.01,308.088z"/>
	</g>
</g>
<g>
</g>
<g>
</g>
<g>
</g>
<g>
</g>
<g>
</g>
<g>
</g>
<g>
</g>
<g>
</g>
<g>
</g>
<g>
</g>
<g>
</g>
<g>
</g>
<g>
</g>
<g>
</g>
<g>
</g>
</svg>
