<svg width="20" height="20" viewBox="0 0 20 20" fill="none" xmlns="http://www.w3.org/2000/svg">
<g id="glasses.svg" clip-path="url(#clip0_1_380)">
<g id="glasses.svg fill" clip-path="url(#clip1_1_380)">
<g id="glasses.svg_2">
<g id="Group">
<g id="Group_2">
<path id="Vector" d="M10.9999 10.1582H8.99995C8.81561 10.1582 8.66663 10.0089 8.66663 9.8249C8.66663 9.64091 8.81561 9.49158 8.99995 9.49158H10.9999C11.1843 9.49158 11.3333/ 9.64091 11.3333/ 9.8249C11.3333/ 10.0089 11.1843 10.1582 10.9999 10.1582Z" fill="#BDC3C7"/>
<path id="Vector_2" d="M9.99969 7.50002C9.39203 7.50002 8.78434 7.39169 8.20602 7.17466L7.06637 6.744C6.89438 6.679 6.80738 6.48666 6.87238 6.31435C6.93738 6.14236 7.1307 6.05568 7.30203 6.12037L8.4407 6.55072C9.44672 6.92806 10.5544 6.92771 11.5604 6.55037L12.698 6.12037C12.8693 6.05502 13.0623 6.14205 13.1277 6.31435C13.1927 6.48669 13.1057 6.679 12.9337 6.744L11.795 7.17435C11.2157 7.39134 10.6077 7.50002 9.99969 7.50002Z" fill="#BDC3C7"/>
<path id="Vector_3" d="M1 10.1582H0.33332C0.148984 10.1582 0 10.0089 0 9.8249C0 9.64091 0.148984 9.49158 0.33332 9.49158H1C1.18434 9.49158 1.33332 9.64091 1.33332 9.8249C1.33332 10.0089 1.18434 10.1582 1 10.1582Z" fill="#BDC3C7"/>
<path id="Vector_4" d="M19.6666 10.1582H18.9999C18.8156 10.1582 18.6666 10.0089 18.6666 9.8249C18.6666 9.64091 18.8156 9.49158 18.9999 9.49158H19.6666C19.851 9.49158 19.9999 9.64091 19.9999 9.8249C19.9999 10.0089 19.851 10.1582 19.6666 10.1582Z" fill="#BDC3C7"/>
</g>
<path id="Vector_5" d="M4.64911 14.1582C2.63375 14.1582 1.00012 12.5245 1.00012 10.5092V9.49158C1.00012 8.1899 1.69145 7.08826 2.81579 6.43224C4.16543 5.6449 5.83477 5.6449 7.18411 6.43224C8.30875 7.08826 9.00012 8.1899 9.00012 9.49158V9.8249C9.00012 12.2279 7.05211 14.1582 4.64911 14.1582Z" fill="#540002"/>
<path id="Vector_6" d="M2.33332 9.92711C2.14898 9.92711 2 9.77777 2 9.59379C2 8.65144 2.50566 7.77113 3.31965 7.29613C3.47898 7.20348 3.68297 7.25715 3.77531 7.41613C3.86797 7.57512 3.81465 7.77914 3.65566 7.8718C3.04566 8.22781 2.66668 8.88746 2.66668 9.59379C2.66668 9.77777 2.51766 9.92711 2.33332 9.92711Z" fill="#3E4860"/>
<path id="Vector_7" d="M15.3509 14.1582C17.3662 14.1582 18.9999 12.5245 18.9999 10.5092V9.49158C18.9999 8.07525 18.3085 7.08826 17.1842 6.43224C15.8346 5.6449 14.1652 5.6449 12.8159 6.43224C11.6912 7.08826 10.9999 8.1899 10.9999 9.49158V9.8249C10.9999 12.2279 12.9479 14.1582 15.3509 14.1582Z" fill="#540002"/>
</g>
</g>
</g>
</g>
<defs>
<clipPath id="clip0_1_380">
<rect width="20" height="20" fill="white"/>
</clipPath>
<clipPath id="clip1_1_380">
<rect width="20" height="20" fill="white"/>
</clipPath>
</defs>
</svg>
