<svg id="Capa_1" enable-background="new 0 0 512.001 512.001" viewBox="0 0 512.001 512.001" xmlns="http://www.w3.org/2000/svg"><g><g><ellipse cx="185.964" cy="63.748" fill="#dd7f66" rx="70.394" ry="56.248"/><path d="m185.964 7.5c-5.169 0-10.202.458-15.054 1.303 31.641 5.51 55.34 28.01 55.34 54.945 0 26.934-23.699 49.435-55.34 54.945 4.852.845 9.885 1.303 15.054 1.303 38.878 0 70.394-25.183 70.394-56.248s-31.516-56.248-70.394-56.248z" fill="#d6694b"/><path d="m330.229 127.191c-53.064-60.746-143.281-56.984-143.281-56.984s-90.217-3.761-143.281 56.984c-39.055 44.708-21.121 140.069-21.121 140.069l164.402 65.288 160.409-65.288c.001 0 21.927-95.361-17.128-140.069z" fill="#dff6fd"/><path d="m347.357 267.26-30.81 12.54c4.7-28.02 16.13-115.34-16.43-152.61-39.73-45.49-100.31-54.8-128.22-56.61 9.36-.61 15.05-.37 15.05-.37s90.22-3.77 143.28 56.98c39.06 44.71 17.13 140.07 17.13 140.07z" fill="#c8effe"/><path d="m265.55 504.5h-161.205l10.356-81.055h140.493z" fill="#ffb09e"/><path d="m255.194 423.445h-30.108l10.356 81.055h30.108z" fill="#ffa78f"/><path d="m51.167 274.159s-25.962-16.982-39.031 0c-10.472 13.607-3.852 79.905 47.433 68.591l9.387-52.527z" fill="#ffcebf"/><path d="m312.024 296.79c6.082-15.423 9.437-32.22 9.471-49.796.145-74.4-60.155-104.037-134.547-105.102-76.33-1.092-138.548 28.751-138.548 104.83 0 17.675 3.358 34.566 9.471 50.069-8.313 94.218 54.891 146.601 83.744 165.399 8.152 5.311 17.697 8.082 27.426 8.082h31.812c9.729 0 19.274-2.771 27.426-8.082 28.854-18.798 92.058-71.181 83.745-165.4z" fill="#ffdfcf"/><path d="m321.495 246.995c.145-74.4-60.155-104.037-134.547-105.102-6.396-.092-12.69.04-18.859.391 69.126 3.813 123.435 34.1 123.297 104.711-.034 17.576-3.39 34.373-9.471 49.796 8.313 94.219-54.891 146.602-83.744 165.4-8.152 5.311-17.697 8.082-27.426 8.082h30.108c9.729 0 19.274-2.771 27.426-8.082 28.853-18.798 92.057-71.181 83.744-165.4 6.082-15.424 9.438-32.221 9.472-49.796z" fill="#ffcebf"/><path d="m398.176 228.627c-54.465-.438-99.592 39.892-106.713 92.303l-33.062 8.447c-6.283 1.605-6.283 10.529 0 12.134l33.062 8.447c7.082 52.129 51.763 92.306 105.835 92.306 58.667 0 106.288-47.295 106.816-105.838.529-58.763-47.174-107.326-105.938-107.799z" fill="#fff9df"/><path d="m398.176 228.627c-8.455-.068-16.684.848-24.582 2.638 47.875 10.884 83.722 54.18 83.262 105.161-.454 50.438-35.866 92.522-83.18 103.21 7.599 1.716 15.504 2.628 23.622 2.628 58.667 0 106.288-47.295 106.815-105.838.53-58.763-47.173-107.326-105.937-107.799z" fill="#fcefb9"/><path d="m477.116 335.44c0 5.68-.6 11.22-1.73 16.56-7.64 36.1-39.75 63.26-78.09 63.26s-70.45-27.16-78.09-63.26c-1.13-5.34-1.73-10.88-1.73-16.56 0-44.01 35.81-79.82 79.82-79.82 44.02 0 79.82 35.81 79.82 79.82z" fill="#dff6fd"/><path d="m426.68 261.248c18.873 19.495 30.439 46.084 30.177 75.178-.256 28.372-11.572 54.101-29.846 73.086 24.37-9.81 42.827-31.298 48.374-57.512 1.13-5.34 1.73-10.88 1.73-16.56.001-33.637-20.923-62.463-50.435-74.192z" fill="#c8effe"/><path d="m475.385 352c-7.64 36.1-39.75 63.26-78.09 63.26s-70.45-27.16-78.09-63.26c52.061-11.478 104.121-11.478 156.18 0z" fill="#ffcebf"/><path d="m456.091 348.273c-2.832 23.654-13.386 44.935-29.08 61.239 24.37-9.81 42.827-31.298 48.374-57.512-6.431-1.418-12.862-2.659-19.294-3.727z" fill="#ffb09e"/><path d="m421.442 341.015c0 13.336-10.811 24.146-24.146 24.146-13.336 0-24.146-10.811-24.146-24.146s24.146-45.079 24.146-45.079 24.146 31.743 24.146 45.079z" fill="#62dbfb"/></g><g><path d="m131.195 280.288c-10.349 5.594-20.267.344-20.79.059-3.589-2.017-8.14-.763-10.186 2.817-2.056 3.597-.806 8.178 2.791 10.233.466.267 7.955 4.446 18.146 4.446 5.211 0 11.127-1.093 17.172-4.36 3.644-1.97 5.001-6.52 3.031-10.164-1.97-3.645-6.522-5.002-10.164-3.031z"/><path d="m259.501 280.288c-10.35 5.594-20.268.344-20.79.059-3.588-2.017-8.14-.763-10.186 2.817-2.056 3.597-.806 8.178 2.791 10.233.466.267 7.955 4.446 18.146 4.446 5.211 0 11.127-1.093 17.172-4.36 3.644-1.97 5.001-6.52 3.031-10.164-1.969-3.645-6.52-5.002-10.164-3.031z"/><path d="m286.754 227.553c-14.388-14.33-33.098-10.127-33.889-9.942-4.032.95-6.561 4.996-5.611 9.027s4.952 6.537 8.989 5.587c.469-.102 11.545-2.391 19.927 5.955 1.463 1.458 3.377 2.186 5.292 2.186 1.924 0 3.849-.736 5.314-2.208 2.924-2.934 2.914-7.682-.022-10.605z"/><path d="m113.642 232.224c4.018.915 8.021-1.578 8.967-5.593.95-4.032-1.548-8.07-5.58-9.02-.79-.186-19.499-4.388-33.889 9.941-2.936 2.923-2.945 7.672-.022 10.606 1.466 1.472 3.39 2.208 5.314 2.208 1.914 0 3.829-.729 5.292-2.186 8.336-8.301 19.343-6.079 19.918-5.956z"/><path d="m185.964 340.049c4.143 0 7.5-3.358 7.5-7.5v-29.449c0-4.142-3.357-7.5-7.5-7.5s-7.5 3.358-7.5 7.5v29.449c0 4.142 3.358 7.5 7.5 7.5z"/><path d="m478.73 255.411c-21.483-21.863-50.069-34.039-80.493-34.284-.312-.002-.615-.003-.927-.003-25.409 0-49.15 8.418-68.343 22.747-1.396-68.353-52.926-108.2-141.913-109.479-51.385-.722-91.884 12.014-117.093 36.865-19.286 19.012-29.064 44.402-29.064 75.464 0 4.934.255 9.834.746 14.691-4.038-1.301-8.403-2.181-12.776-2.277-3.07-21.984-9.987-92.174 20.448-127.011 49.988-57.233 136.457-54.458 137.317-54.42.204.008.416.008.62 0 .87-.034 87.335-2.815 137.325 54.42 13.151 15.058 20.318 38.431 21.301 69.468.131 4.141 3.567 7.422 7.733 7.259 4.14-.131 7.39-3.593 7.259-7.733-1.095-34.592-9.505-61.125-24.996-78.861-18.341-20.999-43.373-37.125-73.219-47.332.791-3.672 1.2-7.408 1.2-11.174 0-35.152-34.941-63.75-77.89-63.75-42.954 0-77.9 28.598-77.9 63.75 0 3.99.454 7.94 1.339 11.811-29.038 10.236-53.423 26.127-71.387 46.694-35.569 40.716-27.175 117.972-23.84 140.315-2.893 1.638-5.599 3.917-7.984 7.016-8.466 11.004-8.296 40.656 4.611 60.972 9.556 15.314 25.366 22.543 42.768 20.7 8.715 40.465 30.47 70.395 51.185 90.793l-7.849 61.498c-.524 4.109 2.381 7.865 6.49 8.389.322.042.642.062.959.062 3.719 0 6.946-2.765 7.43-6.551l6.529-51.152c7.208 5.973 13.847 10.683 19.208 14.176 9.334 6.082 20.231 9.296 31.514 9.296h31.82c11.283 0 22.181-3.215 31.513-9.295 5.394-3.512 12.028-8.219 19.211-14.162l6.528 51.137c.483 3.787 3.711 6.551 7.43 6.551.316 0 .637-.02.959-.062 4.109-.524 7.015-4.28 6.49-8.389l-7.847-61.474c12.28-12.075 24.893-27.475 34.952-46.412 17.15 27.755 46.309 47.487 78.524 52.579 3.992.685 7.965-2.073 8.617-6.183.673-4.087-2.096-7.945-6.184-8.618-42.01-6.343-76.973-42.307-82.153-84.495-.411-3.026-2.616-5.501-5.575-6.257l-28.366-7.247 28.366-7.247c2.959-.756 5.164-3.231 5.575-6.257 6.701-49.323 49.355-86.252 99.22-85.812 26.413.212 51.242 10.794 69.914 29.797 18.671 19.001 28.822 44.015 28.584 70.435-.436 48.408-35.369 89.237-83.064 97.083-4.087.672-6.855 4.531-6.183 8.618s4.527 6.857 8.618 6.183c26.258-4.319 50.352-17.845 67.842-38.084 17.675-20.453 27.543-46.614 27.787-73.665.271-30.427-11.407-59.223-32.886-81.083zm-355.663-191.661c0-26.881 28.217-48.75 62.9-48.75 34.678 0 62.89 21.869 62.89 48.75 0 2.286-.206 4.56-.614 6.805-2.599-.691-5.227-1.343-7.887-1.949-28.314-6.452-50.423-5.999-53.409-5.901-2.992-.098-25.098-.55-53.409 5.901-3.3.752-6.55 1.576-9.756 2.458-.472-2.408-.715-4.851-.715-7.314zm-99.602 258.766c-10.208-16.067-9.048-39.019-5.385-43.781 6.845-8.894 20.767-2.793 26.44.243 1.468 6.411 3.377 12.722 5.728 18.908-1.09 13.691-.723 26.528.791 38.534-11.915.806-21.178-3.836-27.574-13.904zm261.366-7.632-28.286 7.227c-6.193 1.583-10.355 6.941-10.355 13.333s4.162 11.751 10.355 13.333l28.284 7.226c1.437 7.944 3.704 15.63 6.728 22.985-18.098 40.46-49.814 65.481-67.376 76.918-6.891 4.49-14.957 6.864-23.325 6.864h-31.82c-8.367 0-16.434-2.374-23.325-6.864-26.826-17.481-88.359-67.916-80.374-158.458.103-1.159-.066-2.326-.493-3.409-5.937-15.063-8.947-30.983-8.947-47.32 0-26.898 8.274-48.694 24.595-64.782 22.285-21.969 59.033-33.229 106.348-32.549 110.795 1.594 127.226 61.825 127.158 97.584-.008 3.586-.173 7.191-.476 10.752-14.466 15.553-24.701 35.184-28.691 57.16z"/><path d="m482.725 353.553c1.246-5.934 1.894-12.024 1.891-18.113 0-48.148-39.172-87.32-87.32-87.32s-87.319 39.171-87.319 87.32c-.537 47.368 39.969 87.758 87.321 87.32 41.013 0 76.941-29.106 85.427-69.207zm-17.373 6.337c-9.835 28.114-38.26 48.151-68.056 47.87-30.586.308-59.664-20.854-68.793-50.043 13.033-2.582 26.158-4.441 39.178-5.556 4.519 11.966 16.086 20.5 29.614 20.5s25.095-8.535 29.614-20.5c13.021 1.115 26.147 2.973 39.178 5.555-.234.728-.478 1.453-.735 2.174zm-68.057-2.229c-9.179 0-16.646-7.467-16.646-16.646 0-5.446 7.843-19.513 16.646-32.283 8.804 12.77 16.646 26.837 16.646 32.283.001 9.179-7.467 16.646-16.646 16.646zm0-94.541c39.878 0 72.32 32.442 72.32 72.32 0 2.542-.135 5.085-.401 7.611-13.518-2.686-27.139-4.636-40.657-5.807-2.858-15.696-21.339-40.651-25.292-45.849-1.419-1.865-3.627-2.959-5.97-2.959s-4.551 1.095-5.97 2.959c-.254.334-6.31 8.314-12.453 18.087-7.432 11.821-11.662 20.955-12.858 27.762-13.511 1.172-27.124 3.122-40.637 5.807-.266-2.527-.401-5.07-.401-7.612 0-39.876 32.442-72.319 72.319-72.319z"/><path d="m209.093 378.713c-24.984 7.585-45.452.281-45.809.152-3.866-1.449-8.184.506-9.644 4.374-1.464 3.875.49 8.203 4.365 9.667.676.255 11.588 4.274 27.666 4.274 8.151 0 17.632-1.033 27.778-4.113 3.964-1.203 6.201-5.392 4.998-9.355-1.202-3.965-5.39-6.201-9.354-4.999z"/></g></g><g/><g/><g/><g/><g/><g/><g/><g/><g/><g/><g/><g/><g/><g/><g/></svg>