<svg width="21" height="20" viewBox="0 0 21 20" fill="none" xmlns="http://www.w3.org/2000/svg">
<g id="dress.svg" clip-path="url(#clip0_1_264)">
<path id="Vector" d="M15.4651 9.75394C15.4651 8.19844 16.3662 6.04144 16.7721 5.14984C16.7726 5.14934 16.7732 5.14894 16.7737 5.14844C17.2561 4.61814 17.512 3.86424 17.4583 3.13864L17.3167 0.238235C17.3128 0.170835 17.2835 0.108338 17.2337 0.0644379C17.1839 0.0195379 17.1165 -6.10352e-05 17.0521 -6.10352e-05L15.4593 0.0917358C13.6907 0.253836 12.4564 0.80464 11.387 3.12394L10.9759 3.88074L10.5989 3.12784C9.39379 0.803638 8.12819 0.243036 6.46709 0.0907364L4.88209 -6.10352e-05C4.81959 0.00193896 4.75029 0.0194379 4.70049 0.0644379C4.65069 0.108338 4.62139 0.170835 4.61749 0.238235L4.47689 3.13184C4.42219 3.86424 4.67809 4.61814 5.16049 5.14844C5.16389 5.15214 5.16839 5.15443 5.17179 5.15813C5.17329 5.16203 5.17049 5.16604 5.17219 5.16994C5.56179 6.03124 6.46909 8.20114 6.46909 9.75394C6.46909 11.7168 5.01109 14.6094 4.99639 14.6387C4.95929 14.7119 4.96029 14.7989 4.99929 14.8711C5.03829 14.9433 5.10969 14.9912 5.19169 15C5.23169 15.0049 9.26979 15.499 9.46029 19.4492C9.47489 19.7578 9.72199 20 10.0248 20H11.9096C12.2123 20 12.4594 19.7578 12.4741 19.4492C12.6636 15.5078 16.5766 15.0195 16.7436 15C16.8247 14.9912 16.8959 14.9424 16.935 14.8701C16.9741 14.7988 16.975 14.7119 16.9379 14.6387C16.9232 14.6093 15.4651 11.7167 15.4651 9.75394ZM6.42999 0.589836C7.95249 0.729436 9.05009 1.22754 10.1536 3.35544L10.7434 4.53414C10.7854 4.61714 10.8694 4.66984 10.9631 4.67184C11.0285 4.66794 11.1418 4.62304 11.1867 4.54094L11.8332 3.34754C12.9123 1.00964 14.134 0.715736 15.4963 0.590736L16.8293 0.513641L16.8798 1.54724L15.7277 1.64934C14.2892 1.82614 13.008 2.16004 11.9015 4.45504L10.9671 6.24124L10.0364 4.46394C8.94459 2.15824 7.70829 1.83404 6.19849 1.64854L5.05449 1.54744L5.10479 0.51384L6.42999 0.589836ZM11.9739 19.4257C11.9729 19.4628 11.9475 19.4999 11.9094 19.4999H10.0246C9.98649 19.4999 9.96109 19.4628 9.96009 19.4257C9.78329 15.7724 6.64269 14.7909 5.58799 14.5644C5.97179 13.7509 6.96889 11.4716 6.96889 9.75394C6.96889 8.46294 6.39619 6.81283 5.95299 5.72523C6.45209 5.98104 7.04879 6.13184 7.76389 6.14654C7.89669 6.14654 8.01589 6.04014 8.01879 5.90144C8.02169 5.76374 7.91239 5.64944 7.77369 5.64654C6.77079 5.62604 6.01589 5.34574 5.53049 4.81154C4.94939 4.17384 4.95819 3.39264 4.97579 3.16214L5.03009 2.04713L6.14579 2.14554C7.58229 2.32234 8.59789 2.59374 9.58919 4.68754L10.7454 6.89654C10.7884 6.97854 10.8743 7.03033 10.9671 7.03033C11.0599 7.03033 11.1458 6.97854 11.1888 6.89654L12.349 4.67974C13.3529 2.59674 14.4076 2.31544 15.7806 2.14654L16.9044 2.04713L16.9593 3.16894C16.9759 3.39254 16.9847 4.17384 16.4036 4.81154C15.9182 5.34574 15.1634 5.62604 14.1604 5.64654C14.0217 5.64944 13.9124 5.76374 13.9153 5.90144C13.9182 6.03814 14.0296 6.14654 14.1653 6.14654C14.1673 6.14654 14.1682 6.14654 14.1702 6.14654C14.8851 6.13194 15.4817 5.98124 15.9807 5.72554C15.5318 6.82504 14.9651 8.46494 14.9651 9.75394C14.9651 11.4717 15.9622 13.751 16.346 14.5644C15.2913 14.791 12.1507 15.7734 11.9739 19.4257Z" fill="#540002"/>
</g>
<defs>
<clipPath id="clip0_1_264">
<rect width="20" height="20" fill="white" transform="translate(0.967407)"/>
</clipPath>
</defs>
</svg>
