<svg width="52" height="52" viewBox="0 0 52 52" fill="none" xmlns="http://www.w3.org/2000/svg">
<g id="div.category-img-box">
<rect x="1.16663" y="0.835022" width="50.3333/" height="50.3333/" rx="4.5" fill="#EDEDED"/>
<rect x="1.16663" y="0.835022" width="50.3333/" height="50.3333/" rx="4.5" stroke="#CCCCCC"/>
<g id="dress.svg" clip-path="url(#clip0_1_156)">
<g id="dress.svg fill" clip-path="url(#clip1_1_156)">
<g id="dress.svg_2" clip-path="url(#clip2_1_156)">
<g id="Group">
<path id="Vector" d="M18.3805 15.1557C18.4973 14.9327 18.6722 14.7461 18.8698 14.5924C20.1153 13.6262 21.7421 13.9236 23.1831 13.592C23.9682 13.4115 24.6966 12.9248 24.7813 12.0362C24.7886 11.9612 24.7813 11.0017 24.7813 11.0017H26.3331H27.8848C27.8848 11.0017 27.8776 11.9612 27.8848 12.0362C27.9697 12.9248 28.698 13.4116 29.4831 13.592C30.9242 13.9236 32.5509 13.6262 33.7964 14.5924C33.994 14.7461 34.1688 14.9328 34.2857 15.1557C34.2857 15.1557 34.9969 16.9661 30.9883 20.3121H26.3331H21.6779C17.6692 16.9661 18.3805 15.1557 18.3805 15.1557Z" fill="#f0b1cc"/>
<path id="Vector_2" d="M34.5176 31.1358C33.0611 29.1847 31.6449 27.6775 30.7863 26.8199C30.3062 26.3409 30.1185 25.6504 30.2835 24.9925C30.6539 23.5152 31.0097 21.1566 31.0097 20.3119H26.3333H21.6564C21.6564 21.1565 22.0128 23.5152 22.3831 24.9925C22.5481 25.6504 22.3604 26.3409 21.8804 26.8199C21.0212 27.6775 19.605 29.1848 18.1485 31.1358C16.4431 33.4209 15.3569 36.1101 14.954 38.9327C15.3994 39.3238 17.0023 39.9667 17.7782 39.9667C19.8471 39.9667 20.773 39.601 21.1821 39.4499C21.1821 39.4499 22.7127 41.0017 24.2644 41.0017C25.9501 41.0017 26.3334 40.4772 26.3334 40.4772C26.3334 40.4772 26.7161 41.0017 28.4023 41.0017C29.9541 41.0017 31.4841 39.4499 31.4841 39.4499C31.8937 39.601 32.8191 39.9667 34.8881 39.9667C35.6639 39.9667 37.2674 39.3237 37.7127 38.9327C37.3092 36.1101 36.2235 33.4209 34.5176 31.1358Z" fill="#f0b1cc"/>
<g id="Group_2">
<path id="Vector_3" d="M21.6661 27.0362H31.0004C30.9279 26.9627 30.8592 26.8934 30.7929 26.8277C30.3093 26.3441 30.1195 25.6447 30.2855 24.9806L30.2886 24.9672H22.3774L22.381 24.9806C22.5465 25.6448 22.3572 26.3441 21.873 26.8277C21.8074 26.8934 21.738 26.9627 21.6661 27.0362Z" fill="#540002"/>
<path id="Vector_4" d="M26.3332 25.4844C26.6187 25.4844 26.8505 25.2532 26.8505 24.9671V20.312H26.3332H25.8159V24.9671C25.816 25.2532 26.0477 25.4844 26.3332 25.4844Z" fill="#f0b1cc"/>
<path id="Vector_5" d="M31.4329 13.8244C31.0434 13.7871 30.6498 13.7623 30.2624 13.7189C28.7773 15.3766 27.9011 18.2919 27.9011 20.3117H28.9356C28.9356 18.1403 29.9867 15.3787 31.2782 14.1565C31.3739 14.0659 31.4225 13.9465 31.4329 13.8244Z" fill="#540002"/>
<path id="Vector_6" d="M21.2334 13.8244C21.2438 13.9465 21.2923 14.0659 21.388 14.1565C22.6796 15.3787 23.7306 18.1403 23.7306 20.3117H24.7651C24.7651 18.2918 23.8889 15.3766 22.4039 13.7189C22.0165 13.7623 21.6229 13.7871 21.2334 13.8244Z" fill="#540002"/>
</g>
</g>
</g>
</g>
</g>
</g>
<defs>
<clipPath id="clip0_1_156">
<rect width="30" height="30" fill="white" transform="translate(11.3333/ 11.0017)"/>
</clipPath>
<clipPath id="clip1_1_156">
<rect width="30" height="30" fill="white" transform="translate(11.3333/ 11.0017)"/>
</clipPath>
<clipPath id="clip2_1_156">
<rect width="30" height="30" fill="white" transform="translate(11.3333/ 11.0017)"/>
</clipPath>
</defs>
</svg>
