<svg width="84" height="120" viewBox="0 0 84 120" fill="none" xmlns="http://www.w3.org/2000/svg">
<path fill-rule="evenodd" clip-rule="evenodd" d="M0 0V120H83.924V0H0Z" fill="#E8702A"/>
<path fill-rule="evenodd" clip-rule="evenodd" d="M42.5434 56.9008C41.3806 56.9008 39.4519 58.8378 38.6767 61.1622C37.9015 63.4866 37.9015 65.4235 39.4519 65.4235C40.2824 65.4235 41.5006 64.4274 42.4142 63.0254C43.1156 61.9462 43.6878 60.5534 43.8908 59.5757C44.2138 58.0169 43.7154 56.9101 42.5434 56.9101V56.9008Z" fill="#1A1413"/>
<path fill-rule="evenodd" clip-rule="evenodd" d="M16.6297 29.4235C16.0668 28.8885 17.0173 27.8739 17.0173 27.8739C17.0173 27.8739 23.9849 20.1353 27.4548 16.2613C28.4145 15.1914 29.3374 14.6103 29.8542 14.3059C30.6848 13.8078 31.2662 13.6971 31.8845 13.8355C32.7243 14.02 33.1949 14.9516 32.8811 17.0453L20.1643 95.3543L20.1181 95.6218C19.9797 96.8301 19.7305 98.3336 20.5057 98.3336C20.8933 98.3336 21.2809 98.3336 22.0561 96.784C22.0561 96.4151 34.2562 74.4166 36.1573 70.5334C36.2588 70.3305 36.7017 69.6664 36.9048 69.445C37.1632 69.1591 37.4862 68.827 37.9199 68.9101C38.409 69.0023 38.3075 69.6848 37.9199 70.847C35.419 76.2152 25.9874 96.7748 22.739 102.318C22.4714 102.779 21.5578 104.135 21.2809 104.486C18.0417 108.47 12.8461 108.59 13.5659 101.82L20.1366 57.6941C20.1366 57.6941 24.9354 29.9308 25.8213 26.0107C25.8767 25.7617 26.089 24.4243 26.0336 23.8893C25.9413 22.9946 25.4614 22.4135 24.0033 23.631L17.811 29.0546C17.811 29.0546 17.0358 29.8293 16.6482 29.442L16.6297 29.4235Z" fill="#1A1413"/>
<path fill-rule="evenodd" clip-rule="evenodd" d="M62.2647 46.063C66.9066 43.7387 69.223 44.1261 68.4478 47.2252C67.6726 51.0991 58.7763 69.6756 58.7763 69.6756L44.4629 99.4865C43.6877 101.036 44.4629 101.811 45.6257 101.424C49.4924 99.8739 55.2972 97.937 71.5393 91.7479C71.5393 91.7479 73.1267 90.9639 73.4773 92.1353C73.7173 92.9285 71.5393 93.6849 71.5393 93.6849C71.5393 93.6849 49.1049 103.748 41.3714 106.847C35.9542 108.397 34.4131 105.685 36.3418 101.424C36.3418 101.424 60.3175 51.8739 60.3175 51.4865C60.7051 50.7118 60.7051 49.6603 59.1547 50.3244C59.1547 50.3244 48.7542 55.0653 47.9421 55.3605C47.5452 55.4988 46.5393 55.8309 46.3917 54.9731C46.2902 54.3367 47.5545 53.8109 47.5545 53.8109L62.2462 46.0722L62.2647 46.063Z" fill="#1A1413"/>
</svg>