<svg id="Layer_1" viewBox="0 0 128 128" xmlns="http://www.w3.org/2000/svg" data-name="Layer 1"><path d="m125.62 78.38c-2.62 2.12-16.3 7.19-22.12 15.76s-17.88 17.01-26.5 17.87c-8.62.87-18.81 7.11-39.03-7.39s-25.85-22.04-30.22-22.96c-4.37-.91-7.37-4.41-4.13-5.66 3.26-1.25 20.76-4.25 25.88-12s19.62-14.88 27.38-11.38c7.74 3.5 5.48 6.13 7.11 5.63s2.01-5 8.89-5.63c0 0 .43.19 1.21.53a14.41937 14.41937 0 0 0 4.44 9.85s11.71 11.04 11.85 11.17a6.76111 6.76111 0 0 0 9.23 0s1.27-1.19 2.97-2.79c.39-.37.8-.76 1.22-1.16.62-.58 1.26-1.18 1.9-1.79l1.05.57c17.24 9.38 21.5 7.25 18.87 9.38z" fill="#fc785e"/><path d="m75.28 22.71a9.32831 9.32831 0 0 0 -11.29-1.4 9.25292 9.25292 0 0 0 -11.28 14.49s9.45 9.44 9.47 9.45a2.58963 2.58963 0 0 0 3.63.01s9.46-9.45 9.47-9.46a9.34762 9.34762 0 0 0 0-13.09zm-2.82 10.26-8.47 8.45s-8.44-8.43-8.46-8.45a5.25707 5.25707 0 0 1 7.16-7.69 2.01393 2.01393 0 0 0 2.61 0 5.25709 5.25709 0 0 1 7.16 7.69z" fill="#2d4356"/><path d="m72.46 32.97-8.47 8.45s-8.44-8.43-8.46-8.45a5.25707 5.25707 0 0 1 7.16-7.69 2.01393 2.01393 0 0 0 2.61 0 5.25709 5.25709 0 0 1 7.16 7.69z" fill="#fc785e"/><path d="m105.62 14.32a8.18681 8.18681 0 0 0 -9.63-1.29 8.18882 8.18882 0 0 0 -9.63 1.29 8.0007 8.0007 0 0 0 0 11.24s7.88 7.72 7.9 7.74a2.51639 2.51639 0 0 0 3.47 0s7.89-7.73 7.89-7.74a7.93677 7.93677 0 0 0 0-11.24zm-2.8 8.39-6.83 6.69s-6.82-6.69-6.83-6.69a3.91709 3.91709 0 0 1 0-5.54 4.22577 4.22577 0 0 1 5.54-.2 1.9972 1.9972 0 0 0 2.58 0 4.14806 4.14806 0 0 1 5.54.2 3.91709 3.91709 0 0 1 0 5.54z" fill="#2d4356"/><path d="m102.82 22.71-6.83 6.69s-6.82-6.69-6.83-6.69a3.91709 3.91709 0 0 1 0-5.54 4.22577 4.22577 0 0 1 5.54-.2 1.9972 1.9972 0 0 0 2.58 0 4.14806 4.14806 0 0 1 5.54.2 3.91709 3.91709 0 0 1 0 5.54z" fill="#fc785e"/><path d="m39.62 34.32a8.17174 8.17174 0 0 0 -9.62-1.29 8.1848 8.1848 0 0 0 -9.63 1.29 7.93677 7.93677 0 0 0 0 11.24s7.88 7.72 7.89 7.74a2.53637 2.53637 0 0 0 3.47 0s7.89-7.73 7.89-7.74a7.9458 7.9458 0 0 0 0-11.24zm-2.79 8.39-6.83 6.69s-6.82-6.69-6.83-6.69a3.90806 3.90806 0 0 1 0-5.54 4.19282 4.19282 0 0 1 5.54-.2 1.99712 1.99712 0 0 0 2.58 0 4.14854 4.14854 0 0 1 5.54.2 3.92619 3.92619 0 0 1 0 5.54z" fill="#2d4356"/><path d="m36.83 42.71-6.83 6.69s-6.82-6.69-6.83-6.69a3.90806 3.90806 0 0 1 0-5.54 4.19282 4.19282 0 0 1 5.54-.2 1.99712 1.99712 0 0 0 2.58 0 4.14854 4.14854 0 0 1 5.54.2 3.92619 3.92619 0 0 1 0 5.54z" fill="#fc785e"/><path d="m38.12 13.71a6.40866 6.40866 0 0 0 -7.12-1.09 6.43983 6.43983 0 0 0 -7.13 1.09 5.84528 5.84528 0 0 0 0 8.51s5.53 5.16 5.54 5.17a2.37376 2.37376 0 0 0 3.18-.01s5.53-5.15 5.53-5.16a5.85348 5.85348 0 0 0 0-8.51zm-2.73 5.59-4.39 4.1s-4.39-4.1-4.4-4.1a1.8158 1.8158 0 0 1 0-2.67 2.48676 2.48676 0 0 1 3.14-.11 2.00088 2.00088 0 0 0 2.51 0 2.473 2.473 0 0 1 3.14.11 1.8158 1.8158 0 0 1 0 2.67z" fill="#2d4356"/><path d="m35.39 19.3-4.39 4.1s-4.39-4.1-4.4-4.1a1.8158 1.8158 0 0 1 0-2.67 2.48676 2.48676 0 0 1 3.14-.11 2.00088 2.00088 0 0 0 2.51 0 2.473 2.473 0 0 1 3.14.11 1.8158 1.8158 0 0 1 0 2.67z" fill="#fc785e"/><path d="m95.55 77.66h-63.11a1.92051 1.92051 0 0 0 -1 3.6c1.77.99 5.52 2.04 7.24 3.17 8.24 5.42 16.5 9.71 25.97 9.71h.25c8.9-.07 16.73-4.66 24.41-9.71 1.72-1.13 5.47-2.18 7.24-3.17a1.92051 1.92051 0 0 0 -1-3.6zm-30.68 12.48h-.22c-8.44 0-15.99005-4-22.89-8.48h44.48c-6.66 4.34-13.78 8.42-21.37 8.48z" fill="#2d4356"/><path d="m86.24 81.66c-6.66 4.34-13.78 8.42-21.37 8.48h-.22c-8.44 0-15.99005-4-22.89-8.48z" fill="#fff"/><path d="m108.71 45.06a11.58641 11.58641 0 0 0 -13.72-1.42 11.5728 11.5728 0 0 0 -13.71 1.42 10.39328 10.39328 0 0 0 0 15.03s11.83 11.16 11.84 11.17a2.74636 2.74636 0 0 0 3.74 0s11.84-11.17 11.85-11.17a10.37666 10.37666 0 0 0 0-15.03zm-2.75 12.12-10.97 10.35s-10.96-10.35-10.97-10.35a6.34506 6.34506 0 0 1 0-9.21 7.5361 7.5361 0 0 1 9.71-.34 2.00313 2.00313 0 0 0 2.53 0 7.47311 7.47311 0 0 1 9.7.34 6.3369 6.3369 0 0 1 0 9.21z" fill="#2d4356"/><path d="m105.96 57.18-10.97 10.35s-10.96-10.35-10.97-10.35a6.34506 6.34506 0 0 1 0-9.21 7.5361 7.5361 0 0 1 9.71-.34 2.00313 2.00313 0 0 0 2.53 0 7.47311 7.47311 0 0 1 9.7.34 6.3369 6.3369 0 0 1 0 9.21z" fill="#fc785e"/><path d="m123.99 78.38c-1.01.41-1.5.61-2.24.94q-.6.27-1.2.57a29.109 29.109 0 0 1 -4.6-1.2 49.80117 49.80117 0 0 1 -12.17-6.46l-1.2-.85c.39-.37.8-.76 1.22-1.16l1.21.85a48.25555 48.25555 0 0 0 10.94 5.62 34.02565 34.02565 0 0 0 8.04 1.69z" fill="#f9dbd7" opacity=".3"/><g fill="#a54b3f"><path d="m72.46 32.97-8.47 8.45s-8.44-8.43-8.46-8.45a5.28082 5.28082 0 0 1 -1.41-4.7 5.167 5.167 0 0 0 1.41 2.7c.02.02 8.46 8.45 8.46 8.45l8.47-8.45a5.178 5.178 0 0 0 1.42-2.71 5.29794 5.29794 0 0 1 -1.42 4.71z" opacity=".5"/><path d="m102.82 22.71-6.83 6.69s-6.82-6.69-6.83-6.69a3.91509 3.91509 0 0 1 -1.02-3.77 3.78477 3.78477 0 0 0 1.02 1.77c.01 0 6.83 6.69 6.83 6.69l6.83-6.69a3.803 3.803 0 0 0 1.02-1.76 3.88478 3.88478 0 0 1 -1.02 3.76z" opacity=".5"/><path d="m36.83 42.71-6.83 6.69s-6.82-6.69-6.83-6.69a3.89779 3.89779 0 0 1 -1.02-3.77 3.78425 3.78425 0 0 0 1.02 1.77c.01 0 6.83 6.69 6.83 6.69l6.83-6.69a3.76559 3.76559 0 0 0 1.01-1.77 3.88669 3.88669 0 0 1 -1.01 3.77z" opacity=".5"/><path d="m35.39 19.3-4.39 4.1s-4.39-4.1-4.4-4.1a1.8087 1.8087 0 0 1 -.28-2.33 1.75034 1.75034 0 0 0 .28.33c.01 0 4.4 4.1 4.4 4.1l4.39-4.1a1.74808 1.74808 0 0 0 .28-.33 1.80862 1.80862 0 0 1 -.28 2.33z" opacity=".5"/><path d="m123.99 78.38c-1.01.41-1.5.61-2.24.94-8.82 4-16.49 10.41-23.27 17.08-6.1 6.01-11.72 11.12-20.24 13.67a45.68667 45.68667 0 0 1 -13.07 1.93c-13.37 0-25.91-6-35.66-15.6-6.78-6.67-14.45-13.08-23.27-17.08-.74-.33-1.23-.53-2.24-.94 1.35-.15 2.47-.32 3.43-.5 8.32 4.02 15.61 10.15 22.08 16.52 9.75 9.6 22.29 15.6 35.66 15.6a45.68667 45.68667 0 0 0 13.07-1.93c8.52-2.55 14.14-7.66 20.24-13.67 6.47-6.36 13.75-12.49 22.07-16.50995 1 .18995 2.14.35995 3.44.48995z" opacity=".5"/><path d="m105.96 57.18-10.97 10.35s-10.96-10.35-10.97-10.35a6.34122 6.34122 0 0 1 -1.9-5.61 6.29177 6.29177 0 0 0 1.9 3.61c.01 0 10.97 10.35 10.97 10.35l10.97-10.35a6.29132 6.29132 0 0 0 1.9-3.61 6.33238 6.33238 0 0 1 -1.9 5.61z" opacity=".5"/></g><path d="m74.15143 54.10089c-.051.00958-.09595.02124-.15143.02911a10.54193 10.54193 0 0 0 -4.12 1.52 14.34469 14.34469 0 0 0 -4.16 4.5 2.06014 2.06014 0 0 1 -3.45 0 14.34469 14.34469 0 0 0 -4.16-4.5c-7.88-4.99-17.63 2.03-23.73 6.79-7.11 5.55-13.57 11.18-22.34 14.25a33.88332 33.88332 0 0 1 -8.04 1.69c1.01.41 1.5.61 2.24.94.4.18.8.37 1.19.56a26.7612 26.7612 0 0 0 4.61-1.19c8.77-3.07 15.23-8.7 22.34-14.25 6.1-4.76 15.85-11.78 23.73-6.79a14.34469 14.34469 0 0 1 4.16 4.5 2.06014 2.06014 0 0 0 3.45 0 14.34469 14.34469 0 0 1 4.16-4.5 10.38992 10.38992 0 0 1 4.2-1.53c.16132-.01312.30023-.0321.436-.05188a14.42305 14.42305 0 0 1 -.36457-1.96723z" fill="#f9dbd7" opacity=".3"/><path d="m127.953 77.82141a3.9998 3.9998 0 0 0 -3.54327-3.41882c-6.5191-.68408-12.26746-3.32019-17.64355-6.98254l-2.982 2.81378a49.74026 49.74026 0 0 0 12.1698 6.4538 33.92337 33.92337 0 0 0 8.03845 1.69269c-1.01007.40924-1.5072.60895-2.24689.944-8.81818 3.9928-16.48627 10.40131-23.26447 17.07758-6.10168 6.00989-11.71655 11.11975-20.24066 13.6665a45.52231 45.52231 0 0 1 -13.06989 1.93207c-13.37311 0-25.9129-5.996-35.6626-15.59882-6.77812-6.67619-14.44609-13.08465-23.26415-17.07737-.73969-.335-1.23682-.53473-2.24689-.944a33.727 33.727 0 0 0 8.03851-1.69269c8.77429-3.06519 15.23749-8.69641 22.34192-14.2442 6.10419-4.76672 15.85193-11.7832 23.731-6.7912a14.37064 14.37064 0 0 1 4.16513 4.49481 2.05146 2.05146 0 0 0 3.44244.00012 14.37049 14.37049 0 0 1 4.16512-4.4949 10.436 10.436 0 0 1 4.2-1.53174c.02612-.00281.04633-.00842.07172-.01154a13.54593 13.54593 0 0 1 .14716-4.03094c-.02588.00214-.04663.00317-.0733.00549a14.47573 14.47573 0 0 0 -6.48639 2.19031 16.39677 16.39677 0 0 0 -3.74554 3.41058 16.39527 16.39527 0 0 0 -3.7453-3.41052c-9.55084-6.052-20.74072 1.08789-28.33392 7.01727-6.626 5.17426-13.14282 10.80353-21.19922 13.62073a29.81162 29.81162 0 0 1 -7.17532 1.49494 3.93889 3.93889 0 0 0 -2.27264 6.8102 10.91392 10.91392 0 0 0 3.32526 1.75055c7.04016 3.18772 14.06482 8.3618 22.10749 16.28345 10.96593 10.80076 24.628 16.749 38.46953 16.749a49.64013 49.64013 0 0 0 14.2149-2.09949c9.33081-2.78778 15.43976-8.28375 21.90259-14.64929 8.04144-7.92053 15.06549-13.09442 22.10468-16.28223 2.29102-1.03753 4.99811-2.04559 4.5603-5.14758z" fill="#2d4356"/></svg>