<svg id="Layer_1" viewBox="0 0 30 30" xmlns="http://www.w3.org/2000/svg" data-name="Layer 1"><g fill="none" stroke="#fcf3f7" stroke-linecap="round" stroke-linejoin="round" stroke-width="1.5"><path d="m16.009 23.35a19.919 19.919 0 0 1 1.461 2.055 1.438 1.438 0 0 0 1.046.258l8.684-2.248a1.431 1.431 0 0 0 1.2-1.1 32.465 32.465 0 0 0 -1.377-17.047 1.432 1.432 0 0 0 -1.352-.945h-21.342a1.432 1.432 0 0 0 -1.352.945 32.465 32.465 0 0 0 -1.377 17.044 1.431 1.431 0 0 0 1.2 1.1l8.686 2.248a1.438 1.438 0 0 0 1.046-.258 19.919 19.919 0 0 1 1.461-2.055 1.486 1.486 0 0 1 2.016.003z"/><path d="m2.045 8.338h25.91"/><path d="m11.587 8.338h6.827a0 0 0 0 1 0 0v8.18a3.413 3.413 0 0 1 -3.414 3.414 3.413 3.413 0 0 1 -3.413-3.413v-8.181a0 0 0 0 1 0 0z"/></g></svg>