<svg id="Capa_1" enable-background="new 0 0 512.894 512.894" height="512" viewBox="0 0 512.894 512.894" width="512" xmlns="http://www.w3.org/2000/svg"><g><path d="m143.617 188.997c20.65-1.72 39.69 1.04 56.32 5.81-7.64-17.97-11.33-37.22-11.07-56.44-15.85-16.893-38.277-28.212-62.26-32.5-7.845 28.255-5.496 58.357 8.68 83.98 2.73-.33 5.51-.62 8.33-.85z"/><path d="m369.277 188.997c2.82.23 5.6.52 8.33.85 14.176-25.622 16.525-55.726 8.68-83.98-23.986 4.289-46.408 15.606-62.26 32.5.26 19.22-3.43 38.49-11.07 56.46 16.63-4.79 35.67-7.55 56.32-5.83z"/><path d="m232.917 193.997c6.013 10.231 13.628 20.956 23.53 28.18 50.501-40.846 49.208-122.769 0-164.96-39.121 34.868-49.069 91.714-23.53 136.78z"/><path d="m428.927 232.207c-22.627-6.703-47.554-13.538-71.88-13.71-35.807.436-66.391 14.68-90.66 33.88l-9.94 8.76-9.97-8.79c-33.908-27.546-79.438-41.003-125.64-29.779-41.552 8.405-75.584 26.848-120.39 20.949-8.448 120.889 104.301 209.276 219.34 169.55l36.66 42.61 35-42.61c115.375 41.18 229.499-47.913 221-169.55-30.94 4.07-56.61-3.44-83.52-11.31zm-225.89 121.43h-54.7c-37.113-.437-62.761-31.006-60-67.47h54.7c37.102.437 62.763 31.015 60 67.47zm221.52-60c0 33.14-26.86 60-60 60h-54.7c-2.765-36.457 22.906-67.036 60-67.47h54.7z"/></g></svg>