<svg width="15" height="31" viewBox="0 0 15 31" fill="none" xmlns="http://www.w3.org/2000/svg">
<path d="M13.0771 15.2841C13.8682 12.8587 14.4207 9.44646 14.4207 6.98602C14.4207 3.07881 13.8196 1.24551 13.4612 0.50048C13.315 0.196414 13.0021 0 12.6641 0H1.99566C1.65769 0 1.34484 0.196414 1.1985 0.500541C0.840184 1.24557 0.239014 3.07881 0.239014 6.98602C0.239014 9.44646 0.791504 12.8587 1.58267 15.2841C1.95225 16.417 2.02884 17.6426 1.80427 18.8284C1.44263 20.7377 1.46775 23.2263 1.95007 25.108C2.3768 26.773 2.5932 28.5182 2.5932 30.2949C2.5932 30.6837 2.90949 31.0001 3.29827 31.0001H5.8769C6.26567 31.0001 6.58196 30.6837 6.58196 30.2949C6.65444 24.7873 6.34704 20.7833 7.08886 14.4725L7.3299 13.0382L7.57094 14.4725C8.2223 20.0135 8.05041 23.9506 8.07784 25.2193C8.07784 25.4701 8.28115 25.6734 8.53194 25.6734C8.78272 25.6734 8.98604 25.4701 8.98604 25.2193C8.95782 23.9214 9.13099 19.9576 8.47163 14.3551C8.47072 14.3477 8.4697 14.3403 8.46848 14.333L7.96643 11.3458C7.84618 10.6303 6.8135 10.6309 6.69337 11.3458L6.19132 14.333C6.19011 14.3404 6.18902 14.3478 6.18817 14.3552C5.43781 20.7311 5.74557 24.7645 5.67376 30.0917H3.50043C3.48451 28.3091 3.25915 26.5576 2.82981 24.8824C2.40393 23.2205 2.34187 20.8703 2.69661 18.9973C2.94958 17.6617 2.86293 16.2803 2.44613 15.0024C1.68136 12.6578 1.14722 9.36139 1.14722 6.98602C1.14722 5.84023 1.20062 4.88637 1.2826 4.09703L2.09762 4.28981C2.68153 4.42731 2.89339 3.54472 2.30663 3.40594L1.39861 3.19118C1.59429 1.92581 1.85755 1.22977 2.01025 0.908203H12.6494C12.8021 1.22983 13.0653 1.92581 13.2611 3.19118L11.1934 3.68016C8.93833 4.21358 6.63858 4.276 4.35784 3.86562C4.11123 3.8216 3.87491 3.98538 3.83053 4.23217C3.78615 4.47902 3.95023 4.71515 4.19708 4.75953C6.60007 5.19177 9.02485 5.12632 11.4024 4.56402L13.3771 4.09696C13.4591 4.88631 13.5125 5.84023 13.5125 6.98602C13.5125 9.36139 12.9783 12.6579 12.2136 15.0024C11.7967 16.2803 11.7101 17.6618 11.9631 18.9973C12.3179 20.8706 12.2558 23.2208 11.8299 24.8824C11.4005 26.5576 11.1752 28.3091 11.1592 30.0917H8.98592V27.3429C8.98592 27.0921 8.7826 26.8888 8.53182 26.8888C8.28103 26.8888 8.07772 27.0921 8.07772 27.3429V30.2949C8.07772 30.6836 8.39401 31 8.78278 31H11.3614C11.7502 31 12.0665 30.6836 12.0665 30.2949C12.0665 28.5181 12.2829 26.773 12.7096 25.1079C13.1906 23.2313 13.2181 20.743 12.8554 18.8283C12.6309 17.6426 12.7076 16.417 13.0771 15.2841Z" fill="#540002"/>
</svg>
