<svg height="480pt" viewBox="-88 0 480 480" width="480pt" xmlns="http://www.w3.org/2000/svg"><g fill="#f98c96"><path d="m55.996094 0h16v96h-16zm0 0"/><path d="m223.996094 0h16v96h-16zm0 0"/><path d="m295.996094 472h-288l80-272h120zm0 0"/></g><path d="m207.996094 200h-120l-45.816406-85.785156c-7.535157-20 5.363281-42.214844 24.488281-42.214844l85.472656 30.121094 84.65625-30.121094c19.519531 0 32.6875 22.6875 24.992187 43.089844zm0 0" fill="#e9686a"/><path d="m1.597656 476.800781c1.511719 2.011719 3.882813 3.199219 6.398438 3.199219h288c2.558594 0 4.964844-1.226562 6.46875-3.296875 1.503906-2.066406 1.929687-4.734375 1.140625-7.167969l-86.808594-268.421875 51.761719-81.746093c.296875-.457032.539062-.949219.726562-1.464844 4.929688-12.859375 3.230469-27.316406-4.542968-38.6875-5.613282-8.425782-14.675782-13.929688-24.746094-15.015625v-64.199219h-16v68.054688l-71.871094 25.601562-80.128906-28.265625v-65.390625h-16v65.878906c-6.839844 2.492188-12.71875 7.078125-16.796875 13.105469-7.652344 11.179687-9.324219 25.398437-4.472657 38.046875.117188.324219.261719.640625.429688.945312l44.25 82.902344-79.082031 268.863282c-.710938 2.421874-.2382815 5.039062 1.273437 7.058593zm50.734375-388.703125c2.929688-4.519531 7.75-7.460937 13.105469-8l84.054688 29.597656c1.726562.613282 3.609374.613282 5.335937 0l83.203125-29.597656c5.527344.5625 10.5 3.605469 13.519531 8.269532 4.570313 6.839843 5.679688 15.425781 2.992188 23.199218l-50.953125 80.433594h-110.792969l-43.304687-81.070312c-2.722657-7.632813-1.671876-16.105469 2.832031-22.839844zm41.648438 119.902344h108.191406l82.824219 256h-266.300782zm0 0"/></svg>