<svg id="svg11393" height="512" viewBox="0 0 16.933333 16.933334" width="512" xmlns="http://www.w3.org/2000/svg" xmlns:svg="http://www.w3.org/2000/svg"><g id="layer1" transform="translate(0 -280.067)"><path id="path11543" d="m16.13958 290.38538c-4.60242 0-6.2593904.88472-7.6729104 1.63194 1.0242801.54147 1.9254504 1.01251 3.7041604 1.01389 2.64582 0 3.96875-2.64583 3.96875-2.64583z" fill="#fcaa52"/><path id="path11901" d="m8.4666598 283.50621c-4.4979202 0-4.4979101 4.49792-4.4979101 5.55625h8.9958303c0-1.05833 0-5.55625-4.4979202-5.55625z" fill="#fcb860"/><path id="path11903" d="m12.96457 289.06246h-8.9958203l-3.17500996 1.32292s1.32291996 2.64583 3.96874016 2.64583c4.2333397-.003 3.4395997-2.64583 11.3770901-2.64583z" fill="#fcb860"/><path id="path12556-4" d="m9.2764396 283.55995c1.1772004.44596 1.9003004 1.3072 2.3089004 2.22054.54433 1.21679.58249 2.66836.58549 3.28197h.79375c0-.99052-.000529-4.99352-3.6881404-5.50251z" fill="#fcaa52" font-variant-ligatures="normal" font-variant-position="normal" font-variant-caps="normal" font-variant-numeric="normal" font-variant-alternates="normal" font-feature-settings="normal" text-indent="0" text-align="start" text-decoration-line="none" text-decoration-style="solid" text-decoration-color="#000000" text-transform="none" text-orientation="mixed" white-space="normal" shape-padding="0" isolation="auto" mix-blend-mode="normal" solid-color="#000000" solid-opacity="1" vector-effect="none"/><path id="path11905" d="m4.0199098 288.00413c-.0486.44412-.0512.82437-.0512 1.05833h8.9958302c0-.23396-.003-.61421-.0512-1.05833z" fill="#fc6067"/><path id="path11907" d="m4.2333298 286.68121c-.4281201 0-.7745499.3396-.7906501.76378-.4083799-.11576-.83871.10858-.971.51573-.13233.40725.0841.84227.4826601.98857-.2361602.35261-.1561301.83102.1901698 1.08262.34627.25159.82643.18054 1.0888202-.15296.26239.33349.7425598.40455 1.08882.15296.34631-.2516.4263599-.73.1901698-1.08262.39859-.1463.6149901-.58133.4826601-.98857-.1322901-.40717-.56261-.6315-.971-.51573-.0161-.42418-.3625299-.76378-.7906499-.76378z" fill="#e7eaef"/><path id="circle11909" d="m4.7624997 288.5333a.52916945.52916945 0 0 1 -.5291699.52917.52916945.52916945 0 0 1 -.5291701-.52917.52916945.52916945 0 0 1 .5291701-.52917.52916945.52916945 0 0 1 .5291699.52917z" fill="#fc6067"/><path id="path13158-9" d="m12.12329 288.00413c.0308.34947.0444.66453.0455.88056l.001.17777h.79478c0-.23396-.003-.61421-.0512-1.05833z" fill="#fb4b5b" font-variant-ligatures="normal" font-variant-position="normal" font-variant-caps="normal" font-variant-numeric="normal" font-variant-alternates="normal" font-feature-settings="normal" text-indent="0" text-align="start" text-decoration-line="none" text-decoration-style="solid" text-decoration-color="#000000" text-transform="none" text-orientation="mixed" white-space="normal" shape-padding="0" isolation="auto" mix-blend-mode="normal" solid-color="#000000" solid-opacity="1" vector-effect="none"/><path id="path4399-4" d="m16.24145 290.14095-3.01429-1.25573c-.002-.60231-.0312-1.87144-.58343-3.10575-.59198-1.32312-1.83991-2.53784-4.1770702-2.53784-1.4150602 0-2.4404201.43698-3.1512301 1.08572-.6557201.59847-1.0399599 1.36336-1.2691701 2.10633-.3928798.068-.6988198.34619-.8185499.7183-.44464-.006-.85874.26975-1.00769.72812-.14899.45849.0323.9387.38809 1.18185-.0354.0937-.0535.19743-.0548.30385l-1.86138996.77515c-.14161.059-.20356.22561-.13487.36277 0 0 1.38321996 2.79207 4.20543016 2.79207 1.7562697-.001 2.7143599-.4618 3.7031298-.98081.98167.51632 1.9529003.97945 3.7052003.98081 2.74746 0 4.11428-2.63018 4.1928-2.76933.0813-.14402.0282-.32296-.12218-.38551zm-7.7747902-6.37016c2.1607702 0 3.1617902 1.03424 3.6943502 2.22467.26041.58209.39396 1.20043.46354 1.74357h-6.4363004c-.1814298-.37292-.5525098-.59283-.9492999-.58756-.10224-.31776-.34027-.56653-.65215-.6749.21273-.64084.5510601-1.27104 1.0851999-1.75855.6132402-.55969 1.4864102-.94723 2.7946602-.94723zm-4.23333 3.17552c.2882199-.00026.5163.22168.5270998.50746.006.17152.1706602.29231.3359002.24598.2751799-.078.5574699.0676.6464699.34158.089.27397-.0535.55984-.3219399.65836-.1616001.0587-.2251901.25365-.1292.39636.1592299.23771.10791.55164-.1250501.72089-.233.16929-.54782.12277-.7245101-.1018-.0531-.0675-.1310698-.10118-.2087698-.10077-.0777.00011-.15569.0338-.20877.10128-.17669.22457-.4915.2711-.7245.10181-.2329601-.16926-.28427-.48318-.1250601-.72089.096-.14271.0324-.33761-.12919-.39636-.2684801-.0985-.41098-.38439-.32195-.65836.089-.27394.3712901-.41958.6464699-.34158.16524.0463.33019-.0745.3359002-.24598.0108-.28579.2388799-.50773.5271-.50798zm0 .79272c-.4352501 0-.7927101.36005-.7927101.7953 0 .43524.35746.79271.7927101.79271.4352399 0 .7932399-.35747.7932399-.79271 0-.43525-.358-.7953-.7932399-.7953zm0 .52968c.14926 0 .2635499.11636.2635499.26562s-.1142899.26355-.2635499.26355c-.1492601 0-.2656202-.11429-.2656202-.26355s.1163601-.26562.2656202-.26562zm8.6780202 1.05833 1.9603.81921c-3.13905.12028-4.7364.7289-5.9280102 1.32433-1.3450401.6721-2.1195401 1.29444-4.1811401 1.29605-2.0823299 0-3.25162-1.69742-3.58428-2.25464l1.5048201-.62684c.0726.13757.1735299.26361.3064399.36018.3899.2833.92813.25428 1.2438501-.003.3157199.25637.8539499.28531 1.24385.002.3037699-.2206.4493498-.58843.43254-.91777h3.3512099c.35286 0 .35286-.52917 0-.52917h-3.1450299c.1040699-.1535.1676498-.33622.1788099-.52916v.00001h6.3810003c.0142.21213.0176.37312.0196.52916h-1.067371c-.36552.0191-.33824.54634.0137.52917zm-2.32853 0c.35285 0 .35285-.52916 0-.52916h-.26407c-.3660304 0-.3503803.52916.000529.52916zm5.08599 1.32757c-.46957.70206-1.64312 2.11202-3.49798 2.11202-1.4699-.001-2.2884303-.32472-3.1274603-.75138 2.3759303-1.25613 4.9061903-1.32283 6.6254403-1.36064z" font-variant-ligatures="normal" font-variant-position="normal" font-variant-caps="normal" font-variant-numeric="normal" font-variant-alternates="normal" font-feature-settings="normal" text-indent="0" text-align="start" text-decoration-line="none" text-decoration-style="solid" text-decoration-color="#000000" text-transform="none" text-orientation="mixed" white-space="normal" shape-padding="0" isolation="auto" mix-blend-mode="normal" solid-color="#000000" solid-opacity="1" vector-effect="none"/></g></svg>