<svg width="20" height="20" viewBox="0 0 20 20" fill="none" xmlns="http://www.w3.org/2000/svg">
<g id="perfume.svg" clip-path="url(#clip0_3_2009)">
<g id="perfume.svg fill" clip-path="url(#clip1_3_2009)">
<g id="perfume.svg_2">
<path id="Vector" d="M12.4748 1.94702H8.58911V3.25136H12.4748V1.94702Z" fill="#DFDFE0"/>
<path id="Vector_2" d="M7.37527 6.39688H5.52527V0.680359H7.37527H9.22527V6.39688H7.37527Z" fill="#CECED1"/>
<path id="Vector_3" d="M8.30024 6.39688H7.37524V0.680359H8.30024H9.22524V6.39688H8.30024Z" fill="#BEBEC1"/>
<path id="Vector_4" d="M11.4778 20H3.2728L2.6548 19.1758C0.33507 16.0824 0.496789 11.7876 3.04265 8.87749L4.03859 7.73901C4.03859 7.73901 4.81132 6.77725 7.37527 6.77725C9.93921 6.77725 10.7119 7.73901 10.7119 7.73901L11.7079 8.87749C14.2537 11.7876 14.4155 16.0824 12.0957 19.1758L11.4778 20Z" fill="#F0B1CC"/>
<g id="Group">
<path id="Vector_5" d="M11.7079 8.87758L10.7119 7.7391C10.7119 7.7391 9.93919 6.77734 7.37524 6.77734V20H11.4777L12.0957 19.1759C14.4155 16.0825 14.2537 11.7877 11.7079 8.87758Z" fill="#540002"/>
<path id="Vector_6" d="M1.02791 13.8778C0.940136 15.7279 1.47787 17.6065 2.65475 19.1759L3.27275 20H11.4778L12.0958 19.1759C13.2726 17.6065 13.8104 15.7279 13.7226 13.8778H1.02791Z" fill="#540002"/>
</g>
<path id="Vector_7" d="M7.37524 13.8778V20H11.4777L12.0957 19.1759C13.2726 17.6065 13.8103 15.7279 13.7225 13.8778H7.37524Z" fill="#F0B1CC"/>
<path id="Vector_8" d="M8.02736 6.98523H6.72302V16.607H8.02736V6.98523Z" fill="#EDEDEE"/>
<path id="Vector_9" d="M8.02731 6.98523H7.37512V16.607H8.02731V6.98523Z" fill="#DFDFE0"/>
<path id="Vector_10" d="M7.37525 4.51813H4.03857V7.7391H7.37525H10.712V4.51813H7.37525Z" fill="#9B9BA1"/>
<path id="Vector_11" d="M9.0436 4.51813H7.37524V7.7391H9.0436H10.712V4.51813H9.0436Z" fill="#757576"/>
<path id="Vector_12" d="M15.2778 5.19844C17.3234 5.19844 18.9817 4.03473 18.9817 2.59922C18.9817 1.16371 17.3234 0 15.2778 0C13.2321 0 11.5739 1.16371 11.5739 2.59922C11.5739 4.03473 13.2321 5.19844 15.2778 5.19844Z" fill="#F0B1CC"/>
<path id="Vector_13" d="M18.9815 2.59921C18.9815 4.03472 17.3233 5.19843 15.2778 5.19843C13.2323 5.19843 11.5741 4.03468 11.5741 2.59921C12.4748 2.59921 17.3823 2.59921 18.9815 2.59921Z" fill="#540002"/>
</g>
</g>
</g>
<defs>
<clipPath id="clip0_3_2009">
<rect width="20" height="20" fill="white"/>
</clipPath>
<clipPath id="clip1_3_2009">
<rect width="20" height="20" fill="white"/>
</clipPath>
</defs>
</svg>
