<svg width="18" height="26" viewBox="0 0 18 26" fill="none" xmlns="http://www.w3.org/2000/svg">
<g id="Vector">
<mask id="path-1-inside-1_3_2008" fill="white">
<path d="M17.097 15.3695L16.5466 11.1417C16.2155 8.59911 15.5924 6.09275 14.6947 3.69236C14.5845 3.39702 14.2214 2.98381 13.7805 2.78993L12.2519 2.11804C12.1641 1.88627 12.0152 1.67792 11.8155 1.51907C11.7397 1.45885 11.6782 1.38125 11.6376 1.29477C11.5196 1.04356 11.1524 0.351255 10.8632 0.186571C10.6587 0.0700783 10.4316 0 10.1972 0H7.16944C6.93831 0 6.71121 0.062715 6.51197 0.181493C6.28441 0.311442 5.87407 0.940725 5.71594 1.27146C5.66674 1.37424 5.5953 1.46484 5.50926 1.53324C5.49478 1.54771 5.24654 1.71966 5.08011 2.06655L3.43442 2.78988C2.99278 2.98401 2.63014 3.39778 2.52021 3.69231C1.64947 6.02043 1.03667 8.45027 0.698781 10.9144C0.670204 11.1227 0.814347 11.3151 1.02077 11.3438C1.03833 11.3463 1.05574 11.3475 1.073 11.3475C1.25845 11.3475 1.4201 11.2094 1.44626 11.0188C1.75155 8.79274 2.28651 6.59518 3.03781 4.47836C3.31639 5.35241 3.59491 6.44497 3.80934 7.52295C4.0942 8.95473 4.12867 10.4062 3.91308 11.8495C3.91182 11.8546 3.54093 13.7348 3.44795 14.3653L1.07873 13.8356L1.21397 12.797C1.24109 12.5884 1.09559 12.3971 0.889009 12.3697C0.68248 12.3427 0.492856 12.4892 0.465688 12.6977L0.117834 15.3695C0.0372857 15.9883 0.431728 16.5567 1.03547 16.6917L3.2046 17.1767C3.18568 17.8681 3.19594 18.5653 3.23559 19.2663L3.55632 24.935C3.59013 25.5322 4.08082 26 4.67344 26H12.5413C13.1339 26 13.6246 25.5322 13.6584 24.935L13.7369 23.5483C13.7487 23.3382 13.5897 23.1583 13.3817 23.1463C13.1738 23.1345 12.9953 23.2948 12.9834 23.5049L12.9049 24.8916C12.8939 25.086 12.7342 25.2383 12.5413 25.2383H10.3726C10.373 24.673 10.3802 14.9038 10.381 13.8779H12.9234C13.0964 14.8623 13.203 15.8639 13.2446 16.8748C13.2447 16.8841 13.2451 16.8935 13.2458 16.9029C13.2764 17.6692 13.2697 18.4435 13.2256 19.2229L13.0837 21.7306C13.0719 21.9406 13.2309 22.1206 13.439 22.1325C13.4463 22.133 13.4536 22.1332 13.4608 22.1332C13.6594 22.1332 13.8258 21.9766 13.8372 21.7741L13.9791 19.2664C14.0188 18.5653 14.0291 17.8681 14.0101 17.1768L16.1793 16.6918C16.7831 16.5568 17.1776 15.9884 17.097 15.3695ZM3.23815 16.4041L1.19878 15.9481C0.979922 15.8991 0.836937 15.6931 0.866168 15.4688L0.980123 14.5937L3.34894 15.1234C3.30059 15.5473 3.26371 15.9744 3.23815 16.4041ZM10.9117 1.53136C10.9744 1.6538 11.0699 1.89592 11.3485 2.11738C11.5216 2.2551 11.6158 2.47981 11.5816 2.70756C11.3693 4.12233 9.8353 6.28963 8.6797 7.63051C8.63773 7.49853 8.59567 7.36507 8.55366 7.23045C9.84591 4.89888 10.6358 2.98874 10.9117 1.53136ZM8.2448 6.21401C7.84538 4.86145 7.48027 3.45963 7.2676 2.25495H9.9563C9.63124 3.35319 9.05532 4.68717 8.2448 6.21401ZM10.2557 0.76497C10.2383 0.98983 10.2028 1.23287 10.1492 1.49323H7.15088C7.11848 1.23724 7.09559 0.994705 7.08376 0.768677C7.15405 0.757201 10.2175 0.760755 10.2557 0.76497ZM5.96418 2.1412L5.97631 2.1316C6.15184 1.99195 6.29684 1.80903 6.3956 1.60261C6.39777 1.59804 6.39998 1.59342 6.40224 1.5888C6.58799 3.05978 7.08688 5.09032 7.89166 7.64792C7.98147 7.93337 8.07133 8.21312 8.16003 8.48465C8.16189 8.491 8.164 8.49729 8.16621 8.50354C8.2852 8.86749 8.40193 9.21641 8.51336 9.5439C7.22142 7.58623 5.797 4.95601 5.68822 2.74849C5.6765 2.51154 5.78261 2.28557 5.96418 2.1412ZM3.53776 3.60329C3.69709 3.48467 3.73815 3.49558 4.94522 2.95659C5.05596 4.38213 5.76429 7.23543 9.00189 11.5601H4.71344C4.87962 10.1623 4.82498 8.75912 4.54927 7.37305C4.26984 5.96854 3.89784 4.5851 3.53776 3.60329ZM7.58844 13.8779H8.23011V15.2431H7.58844V13.8779ZM6.83377 12.3218V13.1163H4.43904C4.49222 12.866 4.53669 12.6855 4.60094 12.3218H6.83377ZM9.6181 25.2383H4.67354C4.4806 25.2383 4.32086 25.086 4.30989 24.8916L3.98915 19.223C3.94503 18.4434 3.93839 17.669 3.96898 16.9028C3.96968 16.8935 3.97009 16.8843 3.97014 16.8752C4.01119 15.8762 4.11624 14.8742 4.29127 13.878H6.83377V15.2777C6.83377 15.6786 7.15697 16.0049 7.55423 16.0049H8.23011V16.7966C8.23011 17.1976 8.55331 17.5238 8.95057 17.5238H9.6181V25.2383ZM9.6181 16.7621H8.98478V13.8779H9.6181V16.7621ZM9.6181 13.1162H7.58844V12.3218H9.6181V13.1162ZM10.3811 13.1162V12.3218H12.614C12.6766 12.6764 12.726 12.8818 12.7759 13.1162H10.3811ZM12.6656 7.37305C12.3899 8.75912 12.3352 10.1623 12.5014 11.5601H10.0304C9.84989 11.0733 9.42451 9.90597 8.95103 8.46865C10.9411 6.29668 12.0603 4.15214 12.3012 2.97045C13.4868 3.50026 13.5154 3.48345 13.677 3.60355C13.317 4.5854 12.945 5.96874 12.6656 7.37305ZM13.7669 14.3653C13.6754 13.7453 13.303 11.8547 13.3018 11.8496C13.0862 10.4063 13.1207 8.95478 13.4055 7.523C13.6199 6.44502 13.8985 5.35246 14.177 4.47841C14.9535 6.66597 15.4985 8.93828 15.7982 11.241L16.1361 13.8356L13.7669 14.3653ZM16.0162 15.9481L13.9767 16.4042C13.9512 15.9744 13.9143 15.5474 13.866 15.1234L16.2348 14.5937L16.3487 15.4688C16.378 15.6931 16.2349 15.8992 16.0162 15.9481Z"/>
</mask>
<path d="M17.097 15.3695L16.5466 11.1417C16.2155 8.59911 15.5924 6.09275 14.6947 3.69236C14.5845 3.39702 14.2214 2.98381 13.7805 2.78993L12.2519 2.11804C12.1641 1.88627 12.0152 1.67792 11.8155 1.51907C11.7397 1.45885 11.6782 1.38125 11.6376 1.29477C11.5196 1.04356 11.1524 0.351255 10.8632 0.186571C10.6587 0.0700783 10.4316 0 10.1972 0H7.16944C6.93831 0 6.71121 0.062715 6.51197 0.181493C6.28441 0.311442 5.87407 0.940725 5.71594 1.27146C5.66674 1.37424 5.5953 1.46484 5.50926 1.53324C5.49478 1.54771 5.24654 1.71966 5.08011 2.06655L3.43442 2.78988C2.99278 2.98401 2.63014 3.39778 2.52021 3.69231C1.64947 6.02043 1.03667 8.45027 0.698781 10.9144C0.670204 11.1227 0.814347 11.3151 1.02077 11.3438C1.03833 11.3463 1.05574 11.3475 1.073 11.3475C1.25845 11.3475 1.4201 11.2094 1.44626 11.0188C1.75155 8.79274 2.28651 6.59518 3.03781 4.47836C3.31639 5.35241 3.59491 6.44497 3.80934 7.52295C4.0942 8.95473 4.12867 10.4062 3.91308 11.8495C3.91182 11.8546 3.54093 13.7348 3.44795 14.3653L1.07873 13.8356L1.21397 12.797C1.24109 12.5884 1.09559 12.3971 0.889009 12.3697C0.68248 12.3427 0.492856 12.4892 0.465688 12.6977L0.117834 15.3695C0.0372857 15.9883 0.431728 16.5567 1.03547 16.6917L3.2046 17.1767C3.18568 17.8681 3.19594 18.5653 3.23559 19.2663L3.55632 24.935C3.59013 25.5322 4.08082 26 4.67344 26H12.5413C13.1339 26 13.6246 25.5322 13.6584 24.935L13.7369 23.5483C13.7487 23.3382 13.5897 23.1583 13.3817 23.1463C13.1738 23.1345 12.9953 23.2948 12.9834 23.5049L12.9049 24.8916C12.8939 25.086 12.7342 25.2383 12.5413 25.2383H10.3726C10.373 24.673 10.3802 14.9038 10.381 13.8779H12.9234C13.0964 14.8623 13.203 15.8639 13.2446 16.8748C13.2447 16.8841 13.2451 16.8935 13.2458 16.9029C13.2764 17.6692 13.2697 18.4435 13.2256 19.2229L13.0837 21.7306C13.0719 21.9406 13.2309 22.1206 13.439 22.1325C13.4463 22.133 13.4536 22.1332 13.4608 22.1332C13.6594 22.1332 13.8258 21.9766 13.8372 21.7741L13.9791 19.2664C14.0188 18.5653 14.0291 17.8681 14.0101 17.1768L16.1793 16.6918C16.7831 16.5568 17.1776 15.9884 17.097 15.3695ZM3.23815 16.4041L1.19878 15.9481C0.979922 15.8991 0.836937 15.6931 0.866168 15.4688L0.980123 14.5937L3.34894 15.1234C3.30059 15.5473 3.26371 15.9744 3.23815 16.4041ZM10.9117 1.53136C10.9744 1.6538 11.0699 1.89592 11.3485 2.11738C11.5216 2.2551 11.6158 2.47981 11.5816 2.70756C11.3693 4.12233 9.8353 6.28963 8.6797 7.63051C8.63773 7.49853 8.59567 7.36507 8.55366 7.23045C9.84591 4.89888 10.6358 2.98874 10.9117 1.53136ZM8.2448 6.21401C7.84538 4.86145 7.48027 3.45963 7.2676 2.25495H9.9563C9.63124 3.35319 9.05532 4.68717 8.2448 6.21401ZM10.2557 0.76497C10.2383 0.98983 10.2028 1.23287 10.1492 1.49323H7.15088C7.11848 1.23724 7.09559 0.994705 7.08376 0.768677C7.15405 0.757201 10.2175 0.760755 10.2557 0.76497ZM5.96418 2.1412L5.97631 2.1316C6.15184 1.99195 6.29684 1.80903 6.3956 1.60261C6.39777 1.59804 6.39998 1.59342 6.40224 1.5888C6.58799 3.05978 7.08688 5.09032 7.89166 7.64792C7.98147 7.93337 8.07133 8.21312 8.16003 8.48465C8.16189 8.491 8.164 8.49729 8.16621 8.50354C8.2852 8.86749 8.40193 9.21641 8.51336 9.5439C7.22142 7.58623 5.797 4.95601 5.68822 2.74849C5.6765 2.51154 5.78261 2.28557 5.96418 2.1412ZM3.53776 3.60329C3.69709 3.48467 3.73815 3.49558 4.94522 2.95659C5.05596 4.38213 5.76429 7.23543 9.00189 11.5601H4.71344C4.87962 10.1623 4.82498 8.75912 4.54927 7.37305C4.26984 5.96854 3.89784 4.5851 3.53776 3.60329ZM7.58844 13.8779H8.23011V15.2431H7.58844V13.8779ZM6.83377 12.3218V13.1163H4.43904C4.49222 12.866 4.53669 12.6855 4.60094 12.3218H6.83377ZM9.6181 25.2383H4.67354C4.4806 25.2383 4.32086 25.086 4.30989 24.8916L3.98915 19.223C3.94503 18.4434 3.93839 17.669 3.96898 16.9028C3.96968 16.8935 3.97009 16.8843 3.97014 16.8752C4.01119 15.8762 4.11624 14.8742 4.29127 13.878H6.83377V15.2777C6.83377 15.6786 7.15697 16.0049 7.55423 16.0049H8.23011V16.7966C8.23011 17.1976 8.55331 17.5238 8.95057 17.5238H9.6181V25.2383ZM9.6181 16.7621H8.98478V13.8779H9.6181V16.7621ZM9.6181 13.1162H7.58844V12.3218H9.6181V13.1162ZM10.3811 13.1162V12.3218H12.614C12.6766 12.6764 12.726 12.8818 12.7759 13.1162H10.3811ZM12.6656 7.37305C12.3899 8.75912 12.3352 10.1623 12.5014 11.5601H10.0304C9.84989 11.0733 9.42451 9.90597 8.95103 8.46865C10.9411 6.29668 12.0603 4.15214 12.3012 2.97045C13.4868 3.50026 13.5154 3.48345 13.677 3.60355C13.317 4.5854 12.945 5.96874 12.6656 7.37305ZM13.7669 14.3653C13.6754 13.7453 13.303 11.8547 13.3018 11.8496C13.0862 10.4063 13.1207 8.95478 13.4055 7.523C13.6199 6.44502 13.8985 5.35246 14.177 4.47841C14.9535 6.66597 15.4985 8.93828 15.7982 11.241L16.1361 13.8356L13.7669 14.3653ZM16.0162 15.9481L13.9767 16.4042C13.9512 15.9744 13.9143 15.5474 13.866 15.1234L16.2348 14.5937L16.3487 15.4688C16.378 15.6931 16.2349 15.8992 16.0162 15.9481Z" stroke="#540002" stroke-width="0.4" mask="url(#path-1-inside-1_3_2008)"/>
</g>
</svg>
