<svg width="31" height="30" viewBox="0 0 31 30" fill="none" xmlns="http://www.w3.org/2000/svg">
<g id="coat.svg fill" clip-path="url(#clip0_1_179)">
<g id="coat.svg" clip-path="url(#clip1_1_179)">
<g id="Group">
<path id="Vector" d="M7.02929 4.14168C7.44586 3.74839 8.83016 3.17917 10.1591 2.74548C9.95312 3.8902 10.6823 5.16628 12.2042 5.17666C12.5716 5.17924 12.7584 5.17666 13.2392 5.17666L11.4037 6.52883C10.5695 7.12291 10.3982 8.3178 11.0746 9.0868C11.0849 9.09818 11.0953 9.11008 11.1061 9.12198C12.1737 10.3024 14.4362 12.939 15.8266 12.939C17.2171 12.939 19.4796 10.3023 20.5472 9.12198C20.558 9.11008 20.5684 9.09818 20.5787 9.0868C21.2551 8.3178 21.0838 7.12291 20.2496 6.52883L18.4141 5.17666C18.8949 5.17666 19.0817 5.17924 19.4491 5.17666C20.971 5.16628 21.7002 3.8902 21.4942 2.74548C22.8231 3.17917 24.2074 3.74839 24.624 4.14168C25.7883 5.24138 28.5698 21.4456 29.7989 27.4288L26.1765 27.9463C26.1765 27.9463 23.8478 15.0411 23.4917 13.974C23.1362 12.9064 22.0474 10.3624 22.0474 10.3624C21.5258 11.8393 21.0807 13.9579 21.015 16.0439L21.1065 16.5469H21.519C21.7121 17.4743 21.8388 18.5403 22.0365 19.6519H21.6888C22.2823 22.4469 23.0715 26.2743 23.0715 28.9668C21.0016 30.0017 17.8966 30.0017 15.8266 30.0017C13.7567 30.0017 10.6517 30.0017 8.58178 28.9668C8.58178 26.2758 9.36162 22.4909 9.96449 19.6519H9.61675C9.81442 18.5403 9.94122 17.4743 10.1343 16.5469H10.5467L10.6383 16.0439C10.5726 13.9579 10.1275 11.8393 9.6059 10.3624C9.6059 10.3624 8.51712 12.9064 8.16157 13.974C7.80556 15.041 5.4768 27.9463 5.4768 27.9463L1.85437 27.4288C3.08344 21.4456 5.86494 5.24132 7.02929 4.14168Z" fill="#D3686C"/>
<g id="Group_2">
<path id="Vector_2" d="M14.2742 19.652H9.61682C9.81449 18.5404 9.94129 17.4744 10.1343 16.547H14.2743V19.652H14.2742Z" fill="#F0B1CC"/>
<path id="Vector_3" d="M17.3792 16.547H21.5191C21.7121 17.4743 21.8389 18.5404 22.0366 19.652H17.3792L17.3792 16.547Z" fill="#F0B1CC"/>
<path id="Vector_4" d="M12.2043 0.519226C11.6619 0.738648 11.1874 1.1966 10.7651 1.60907C10.7599 1.61423 10.7547 1.61944 10.7495 1.6246C9.52464 2.8076 10.1348 5.16268 12.2042 5.17669C12.5716 5.17927 12.7584 5.17669 13.2392 5.17669L11.4037 6.52886C10.5695 7.12294 10.3982 8.31783 11.0745 9.08684C11.0849 9.09821 11.0952 9.11011 11.1061 9.12201C12.1737 10.3024 14.4356 12.939 15.8266 12.939V10.3515C13.5953 9.004 12.2043 0.519226 12.2043 0.519226Z" fill="#F0B1CC"/>
<path id="Vector_5" d="M19.4491 0.519226C19.9914 0.738648 20.4659 1.1966 20.8882 1.60907C20.8934 1.61423 20.8986 1.61944 20.9037 1.6246C22.1286 2.8076 21.5185 5.16268 19.4491 5.17669C19.0816 5.17927 18.8949 5.17669 18.4141 5.17669L20.2496 6.52886C21.0838 7.12294 21.2551 8.31783 20.5787 9.08684C20.5684 9.09821 20.558 9.11011 20.5472 9.12201C19.4796 10.3024 17.2176 12.939 15.8267 12.939V10.3515C18.058 9.004 19.4491 0.519226 19.4491 0.519226Z" fill="#F0B1CC"/>
</g>
<path id="Vector_6" d="M15.8267 0.00170898C14.2742 0.00170898 12.8863 0.25736 12.2042 0.519224L12.7217 3.10668H15.8267H18.9317L19.4492 0.519224C18.7671 0.25736 17.3791 0.00170898 15.8267 0.00170898Z" fill="#DF7272"/>
<path id="Vector_7" d="M15.8266 3.10669H12.7238C13.3199 5.72 14.4009 9.49098 15.8266 10.3516C17.2523 9.49098 18.3334 5.72 18.9295 3.10669H15.8266Z" fill="#540002"/>
<g id="Group_3">
<path id="Vector_8" d="M8.65942 27.4063C11.0999 27.3018 12.9308 24.8431 11.9206 22.2396H9.43406C9.09774 23.9639 8.79402 25.7839 8.65942 27.4063Z" fill="#540002"/>
<path id="Vector_9" d="M22.219 22.2394H19.7324C18.7223 24.843 20.5532 27.3015 22.9936 27.4061C22.8586 25.7827 22.5538 23.9575 22.219 22.2394Z" fill="#540002"/>
<path id="Vector_10" d="M15.8267 16.547C15.5405 16.547 15.3092 16.3157 15.3092 16.0295V12.9245C15.3092 12.6383 15.5405 12.407 15.8267 12.407C16.1129 12.407 16.3442 12.6383 16.3442 12.9245V16.0295C16.3442 16.3157 16.1129 16.547 15.8267 16.547Z" fill="#540002"/>
<path id="Vector_11" d="M16.3442 30.0005V20.1692C16.3442 19.8836 16.1129 19.6517 15.8267 19.6517C15.5405 19.6517 15.3092 19.8836 15.3092 20.1692V30.0005C15.4841 30.001 15.6637 30.0016 15.8267 30.0016C15.9897 30.0016 16.1693 30.001 16.3442 30.0005Z" fill="#540002"/>
</g>
<g id="Group_4">
<path id="Vector_12" d="M17.379 19.652H18.414L19.9665 18.0995L18.414 16.547H17.379V19.652Z" fill="#540002"/>
<path id="Vector_13" d="M14.2742 20.1696H17.3791V16.0297H14.2742V20.1696Z" fill="#F0B1CC"/>
</g>
<path id="Vector_14" d="M15.8266 19.1345C15.5404 19.1345 15.3091 18.9031 15.3091 18.6169V17.582C15.3091 17.2958 15.5404 17.0645 15.8266 17.0645C16.1128 17.0645 16.3441 17.2958 16.3441 17.582V18.6169C16.3441 18.9031 16.1128 19.1345 15.8266 19.1345Z" fill="#D3686C"/>
</g>
</g>
</g>
<defs>
<clipPath id="clip0_1_179">
<rect width="30" height="30" fill="white" transform="translate(0.82666 0.00170898)"/>
</clipPath>
<clipPath id="clip1_1_179">
<rect width="30" height="30" fill="white" transform="translate(0.82666 0.00170898)"/>
</clipPath>
</defs>
</svg>
