<svg viewBox="0 0 64 64" xmlns="http://www.w3.org/2000/svg"><g id="Layer_31" data-name="Layer 31"><path d="m28.34915 20.2473.69 4.4-7.99 1.2v-7.57998s-2.13-4.19-2.13-6.94a7.81855 7.81855 0 0 1 7.82-7.82c4.32 0 7.11916.81439 7.98915 5.04437a18.98936 18.98936 0 0 1 .18789 4.94711c-.02054.63454.52464 1.46854.448 2.01122-.63587 4.49998-3.51873 4.60608-7.01504 4.73728z" fill="#fbc390"/><path d="m27.255 12.169a2.378 2.378 0 0 0 -2.05375-1.18822 1.70639 1.70639 0 0 0 -1.56513.953 2.38618 2.38618 0 0 0 .29457 2.74349c.74053.76829 1.16425 1.298.976 2.34833l-.00143.48778a9.65054 9.65054 0 0 1 -4.06526 6.15417l-3.69459 2.805.82359-15.0452a15.26673 15.26673 0 0 1 .53018-3.23735l.02-.06a8.81607 8.81607 0 0 1 15.79782-1.30326l.31317.67172a1.04748 1.04748 0 0 1 -.173 1.14578l-.6181.68243c-3.88074 3.34-5.83907 4.13166-5.83907 4.13166z" fill="#7a4e4d"/><path d="m47.35916 45.88a14.72057 14.72057 0 0 1 -6.10758 11.94176 2.08982 2.08982 0 0 0 -.84241 1.69746v1.09892a.87186.87186 0 0 1 -.87186.87185h-20.97731a.87186.87186 0 0 1 -.83588-.624l-.40441-1.3638a16.45222 16.45222 0 0 1 .42138-10.59274 20.18985 20.18985 0 0 0 1.17046-9.9473l-1.0024-7.46215a7.92949 7.92949 0 0 1 7.93-7.93h4.87a4.09777 4.09777 0 0 1 3.7 2.34c1.16 2.46 2.88 5.98 3.2 6.1a14.72819 14.72819 0 0 1 9.75001 13.87z" fill="#f8869d"/><path d="m41.64049 49.25753-.63241.08343a5.18433 5.18433 0 0 1 -3.744-.95924c-8.36253-2.26862-13.3039-7.77456-16.06007-16.111l-1.3457-4.06641 5.69824-1.8833 1.34375 4.06599c2.1237 6.4235 5.49119 10.46176 11.93709 12.205a4.89822 4.89822 0 0 0 1.19175.0608 4.06823 4.06823 0 0 1 2.97086 1.14755l.27554.2679a2.42634 2.42634 0 0 1 .66252 2.32812l-.261 1.04413a2.42633 2.42633 0 0 1 -2.03657 1.81703zm4.38863-13.3171.09007-.156a2.31985 2.31985 0 0 0 -.84912-3.169l-2.33276-1.34682a2.31985 2.31985 0 0 0 -3.169.84913l-.09008.156a3.66666 3.66666 0 0 0 1.3421 5.00875 3.66667 3.66667 0 0 0 5.00879-1.34206z" fill="#fbc390"/><path d="m31.15915 34.42729-9.23 4.14a27.30786 27.30786 0 0 1 -2.62-5.67l-.40157-1.20881a4.999 4.999 0 0 1 3.1752-6.32241 4.999 4.999 0 0 1 6.31522 3.1776l.40114 1.21364a17.99033 17.99033 0 0 0 2.36001 4.66998z" fill="#b4e0e9"/><path d="m45.96849 37.55377a4.65938 4.65938 0 0 0 .9256-1.11529l.08887-.1543a3.32438 3.32438 0 0 0 -1.21484-4.53518l-2.333-1.34668a3.3189 3.3189 0 0 0 -4.45683 1.10688c-.26556-.11737-.52655-.25165-.79413-.35248-.35644-.53906-1.33594-2.41455-2.874-5.67578a5.12171 5.12171 0 0 0 -4.6035-2.91114h-.98291l-.21533-1.37158c3.165-.1709 6.16992-.78271 6.84375-5.54931a3.16921 3.16921 0 0 0 -.25781-1.46485 2.9194 2.9194 0 0 1 -.18164-.65234l.02929-.70264a16.97554 16.97554 0 0 0 -.23632-4.479c-.00342-.01666-.015-.02881-.01917-.04511a2.02927 2.02927 0 0 0 -.15271-1.22833l-.3125-.67187a.8281.8281 0 0 0 -.04687-.08985 9.81546 9.81546 0 0 0 -17.60352 1.4917c-.00684.019-.0332.09815-.03809.11719a16.3584 16.3584 0 0 0 -.56445 3.44873l-.82331 15.04546a.99945.99945 0 0 0 1.60254.85107l.418-.31738a8.86243 8.86243 0 0 0 -1.25882 4.54831 1.01844 1.01844 0 0 0 .00879.1333l1.002 7.4624a19.23848 19.23848 0 0 1 -1.11133 9.4541 17.53724 17.53724 0 0 0 -.44825 11.23633l.40527 1.36621a1.88438 1.88438 0 0 0 1.79395 1.33789h20.9775a1.87424 1.87424 0 0 0 1.87207-1.87207v-1.09863a1.09252 1.09252 0 0 1 .42969-.88867 15.80516 15.80516 0 0 0 6.5205-12.751 15.64479 15.64479 0 0 0 -2.38849-8.32609zm-5.33612-4.93609a1.31988 1.31988 0 0 1 1.80272-.48291l2.333 1.34668a1.32149 1.32149 0 0 1 .48144 1.80468l-.08887.1543a2.66629 2.66629 0 1 1 -4.61718-2.668zm-12.32228-13.37012a1.00142 1.00142 0 0 0 -.95115 1.1543l.33984 2.168h-1.8623a8.8884 8.8884 0 0 0 -2.72608.42914 9.886 9.886 0 0 0 2.77686-5.309.954.954 0 0 0 .01562-.1748l.001-.40625a3.41126 3.41126 0 0 0 -1.25588-3.12555 1.44024 1.44024 0 0 1 -.10742-1.62891.71443.71443 0 0 1 .65429-.37353h.002a1.38037 1.38037 0 0 1 1.18945.688v.00048l.74508 1.28956a1.00469 1.00469 0 0 0 1.24121.42676 24.68273 24.68273 0 0 0 5.58939-3.85549c.03895.77515.01514 1.50153-.01715 2.207l-.03027.7295a3.82759 3.82759 0 0 0 .291 1.377 4.50776 4.50776 0 0 1 .166.52637c-.49604 3.51414-2.31733 3.73728-6.06149 3.87742zm.41121 17.368a16.15468 16.15468 0 0 0 9.8515 6.941 4.85635 4.85635 0 0 0 1.48633.09473 3.12947 3.12947 0 0 1 2.24121.86621l.27539.26758a1.43219 1.43219 0 0 1 .39063 1.36816l-.2627 1.04492a1.41839 1.41839 0 0 1 -1.19531 1.06836l-.63379.083a4.16354 4.16354 0 0 1 -3.02246-.77441 1.006 1.006 0 0 0 -.3291-.15821 20.25118 20.25118 0 0 1 -12.47052-9.156zm-6.3858.67249a26.34845 26.34845 0 0 1 -2.0791-4.70655l-.40235-1.208a3.99949 3.99949 0 1 1 7.59278-2.51661l.40136 1.2168a19.02188 19.02188 0 0 0 1.82813 3.92236zm-3.37109-25.80563a14.402 14.402 0 0 1 .48437-2.99023 7.81607 7.81607 0 0 1 13.97461-1.20752l.29.688-.57617.63623a33.29069 33.29069 0 0 1 -4.75293 3.51953l-.26559-.45943a3.38777 3.38777 0 0 0 -2.918-1.688h-.00586a2.70939 2.70939 0 0 0 -2.46972 1.53369 3.35146 3.35146 0 0 0 .48242 3.85644c.708.73487.80859.9419.71191 1.47754a1.04864 1.04864 0 0 0 -.01562.17481l-.001.39746a8.63346 8.63346 0 0 1 -3.66983 5.45015l-1.97363 1.49805zm21.69824 45.5293a3.01507 3.01507 0 0 0 -.92621 1.10235c-.1402-.01361-.2796-.02349-.42047-.03985a.38117.38117 0 0 0 -.416.33008.37677.37677 0 0 0 .33008.416c.08545.00965.17023.01514.25562.024a3.16589 3.16589 0 0 0 -.07886.67523v.9707h-20.75393l-.377-1.27246a15.52618 15.52618 0 0 1 .39648-9.94922 21.24411 21.24411 0 0 0 1.22764-10.43945l-.34814-2.59161a28.298 28.298 0 0 0 1.521 2.8504.99858.99858 0 0 0 1.2627.3916l.87482-.39233a22.13266 22.13266 0 0 0 13.61633 10.21264 6.17093 6.17093 0 0 0 4.30859 1.0322l.63477-.083a3.40587 3.40587 0 0 0 2.874-2.56543l.2627-1.04492a3.44026 3.44026 0 0 0 -.93653-3.28711l-.27539-.26758a5.05622 5.05622 0 0 0 -3.70214-1.43066 4.41464 4.41464 0 0 1 -.89747-.02637 14.2926 14.2926 0 0 1 -8.52514-5.84051l.99585-.4466a.99965.99965 0 0 0 .4082-1.4873 17.02377 17.02377 0 0 1 -2.22851-4.40869l-.4004-1.21436a5.98345 5.98345 0 0 0 -3.42456-3.65967h4.78589a3.11147 3.11147 0 0 1 2.7959 1.76709c2.98047 6.3208 3.30567 6.4419 3.7666 6.61426.33246.1192.6612.25684.98657.403a4.65957 4.65957 0 0 0 4.58863 5.4212 4.69662 4.69662 0 0 0 1.21484-.16016c.06012-.01617.11328-.04644.17243-.06481a13.64525 13.64525 0 0 1 2.12546 7.3295 13.80012 13.80012 0 0 1 -5.69435 11.13184zm-7.9336-.15723a.37436.37436 0 0 1 -.34765.23535.37037.37037 0 0 1 -.13965-.02734c-.57227-.22949-1.12891-.47656-1.65332-.7334a.37517.37517 0 1 1 .33008-.67383c.50781.249 1.04785.48828 1.60254.71192a.37419.37419 0 0 1 .208.4873zm-3.98925-1.96679a.37564.37564 0 0 1 -.51856.1123c-.50976-.32812-1.00879-.67969-1.48144-1.04492a.37523.37523 0 1 1 .459-.59375c.45508.35254.93652.6914 1.42871 1.00781a.37532.37532 0 0 1 .11229.51856zm8.26269 3.2041a.37519.37519 0 0 1 -.36621.2959.3636.3636 0 0 1 -.0791-.00879c-.58594-.126-1.17188-.27344-1.752-.43946a.37492.37492 0 1 1 .207-.7207q.84668.24316 1.70312.42773a.37424.37424 0 0 1 .28719.44532zm-11.75879-6.47754a.375.375 0 0 1 -.541.51953q-.35449-.36768-.6875-.75391a.37529.37529 0 0 1 .56836-.49023q.31933.37208.66014.72461z" fill="#0b2230"/></g></svg>