<svg height="512pt" viewBox="-36 0 512 512" width="512pt" xmlns="http://www.w3.org/2000/svg"><path d="m224.664062 154.476562 59.714844-144.476562h-128.96875l64.273438 134.089844zm0 0" fill="#f4f4f4"/><path d="m243.058594 502h132.011718v-24.324219c0-58.386719-9.980468-95.113281-29.5-150.140625l-34.632812-67.667968 4.25-37.878907 22.382812-47.949219 22.894532 103.164063c9.261718 28.941406 42.402344 42.527344 69.324218 28.421875l-68.5-275.261719c-4.539062-12.234375-16.222656-20.363281-29.277343-20.363281h-47.632813l-59.714844 142.476562" fill="#f9c0ca"/><path d="m276.285156 262.164062-33.226562 239.835938h-178.339844v-24.324219c0-58.386719 9.980469-95.113281 29.5-150.140625l34.632812-67.667968-4.25-37.878907-22.382812-47.949219-22.898438 103.164063c-9.253906 28.941406-42.398437 42.527344-69.320312 28.421875l68.5-275.261719c4.539062-12.234375 16.222656-20.363281 29.277344-20.363281h47.632812l64.277344 134.089844zm0 0" fill="#f48b93"/><path d="m439.492188 303.210938-68.5-275.261719c-.089844-.359375-.199219-.714844-.328126-1.0625-5.960937-16.082031-21.496093-26.886719-38.652343-26.886719h-224.234375c-17.15625 0-32.691406 10.804688-38.652344 26.886719-.128906.347656-.238281.703125-.328125 1.0625l-68.5 275.261719c-1.113281 4.476562.976563 9.132812 5.0625 11.273437 15.460937 8.097656 33.582031 8.945313 49.730469 2.320313 16.140625-6.621094 28.445312-19.945313 33.757812-36.554688.09375-.289062.171875-.585938.238282-.878906l16.519531-74.433594 9.242187 19.796875 3.734375 33.257813-33.265625 64.984374c-.199218.394532-.375.800782-.523437 1.214844-20.375 57.445313-30.070313 95.066406-30.070313 153.484375v24.324219c0 5.523438 4.476563 10 10 10h310.347656c5.523438 0 10-4.476562 10-10v-24.324219c0-58.417969-9.695312-96.039062-30.074218-153.484375-.144532-.414062-.320313-.820312-.519532-1.214844l-33.265624-64.984374 3.734374-33.257813 9.242188-19.796875 16.519531 74.433594c.066407.296875.144531.589844.238281.878906 5.3125 16.613281 17.617188 29.9375 33.757813 36.558594 16.144531 6.621094 34.269531 5.773437 49.730469-2.324219 4.082031-2.140625 6.171875-6.800781 5.058594-11.273437zm-268.199219-283.210938h98.054687l-45.742187 109.132812zm-59.222657 151.503906v-57.371094c0-5.523437-4.476562-10-10-10-5.523437 0-10 4.476563-10 10v59.480469l-22.40625 100.953125c-3.578124 10.78125-11.636718 19.417969-22.164062 23.734375-8.257812 3.390625-17.304688 3.820313-25.710938 1.355469l66.269532-266.285156c3.191406-8.019532 11.054687-13.371094 19.71875-13.371094h41.335937l110.1875 229.867188h-121.507812l-3.253907-28.992188c-.121093-1.078125-.417968-2.132812-.875-3.113281zm-37.351562 306.171875c0-55.628906 8.855469-90.15625 28.703125-146.175781l31.546875-61.632812h24.59375l-24.007812 39.480468c-2.871094 4.71875-1.371094 10.871094 3.347656 13.742188 1.625.984375 3.414062 1.457031 5.1875 1.457031 3.375 0 6.667968-1.710937 8.554687-4.808594l22.773438-37.449219 22.78125 37.449219c2.867187 4.71875 9.019531 6.21875 13.738281 3.351563 4.71875-2.871094 6.21875-9.023438 3.347656-13.742188l-24.011718-39.480468h73.851562l-30.777344 222.132812h-159.628906zm261.648438-146.175781c19.847656 56.023438 28.703124 90.546875 28.703124 146.175781v14.324219h-110.53125l30.777344-222.132812h19.503906zm55.925781-33.199219c-10.53125-4.316406-18.589844-12.953125-22.167969-23.734375l-22.71875-102.363281v-58.070313c0-5.523437-4.476562-10-10-10s-10 4.476563-10 10v58.039063l-21.277344 45.589844c-.460937.980469-.757812 2.035156-.878906 3.113281l-3.253906 28.992188h-20.515625l-46.304688-96.597657 55.855469-133.269531h40.980469c8.664062 0 16.527343 5.351562 19.722656 13.371094l66.265625 266.285156c-8.40625 2.460938-17.449219 2.035156-25.707031-1.355469zm0 0"/><path d="m210.976562 475.511719c-.652343 0-1.3125-.070313-1.953124-.203125-.640626-.117188-1.269532-.320313-1.867188-.570313-.613281-.25-1.191406-.558593-1.730469-.917969-.550781-.359374-1.0625-.78125-1.519531-1.242187-.460938-.457031-.882812-.96875-1.242188-1.519531-.359374-.539063-.667968-1.117188-.917968-1.730469-.25-.597656-.441406-1.226563-.570313-1.867187-.132812-.640626-.199219-1.300782-.199219-1.949219 0-.652344.066407-1.3125.199219-1.953125.128907-.636719.320313-1.269532.570313-1.878906.25-.601563.558594-1.179688.917968-1.71875.359376-.550782.78125-1.0625 1.242188-1.519532.457031-.460937.96875-.882812 1.519531-1.25.539063-.363281 1.117188-.660156 1.730469-.910156.597656-.25 1.226562-.453125 1.867188-.570312 1.292968-.261719 2.621093-.261719 3.910156 0 .632812.117187 1.261718.320312 1.871094.570312.601562.25 1.179687.546875 1.71875.910156.550781.367188 1.0625.789063 1.519531 1.25.460937.457032.882812.96875 1.25 1.519532.363281.539062.671875 1.117187.921875 1.71875.25.609374.441406 1.242187.570312 1.878906.128906.640625.191406 1.300781.191406 1.953125 0 .648437-.0625 1.308593-.191406 1.949219-.128906.640624-.320312 1.269531-.570312 1.867187-.25.613281-.558594 1.191406-.921875 1.730469-.367188.550781-.789063 1.0625-1.25 1.519531-.457031.460937-.96875.882813-1.519531 1.242187-.539063.359376-1.117188.667969-1.71875.917969-.609376.25-1.238282.453125-1.871094.570313-.648438.132812-1.308594.203125-1.957032.203125zm0 0"/><path d="m217.203125 438.679688c-.554687 0-1.113281-.046876-1.675781-.144532-5.445313-.917968-9.117188-6.074218-8.195313-11.523437l14.074219-83.449219c.917969-5.449219 6.082031-9.113281 11.523438-8.199219 5.445312.917969 9.117187 6.078125 8.195312 11.523438l-14.074219 83.453125c-.824219 4.882812-5.054687 8.339844-9.847656 8.339844zm0 0"/></svg>