<svg height="512" viewBox="0 0 64 64" width="512" xmlns="http://www.w3.org/2000/svg"><g id="Layer_31" data-name="Layer 31"><path d="m41.606 14.585a10.281 10.281 0 0 0 3.84-5.5 8.27 8.27 0 0 1 1.509-2.923l2.826-3.533a1 1 0 0 0 .084-1.129.989.989 0 0 0 -1.017-.487l-2.681.412a17.492 17.492 0 0 0 -13.326 10.157 3.793 3.793 0 0 0 -1.956-.576 17.441 17.441 0 0 0 -13.052-9.582l-2.681-.412a1 1 0 0 0 -.933 1.613l2.827 3.533a8.28 8.28 0 0 1 1.508 2.924 10.388 10.388 0 0 0 6.02 6.722 39.565 39.565 0 0 0 -14.507 11.26 9.43 9.43 0 0 0 5.123 15.052l.6 1.987a14.364 14.364 0 0 0 5.107 7.316 12.342 12.342 0 0 1 4.814 8.3l.3 2.409a1 1 0 0 0 1.371.8l8.118-3.323a23.185 23.185 0 0 0 14.379-19.361 11.588 11.588 0 0 0 3.192-17.918 27.864 27.864 0 0 0 -11.465-7.741zm-12.867 3.568.764.764-2.517 2.288a21.44 21.44 0 0 0 -6.537 11.531 11.4 11.4 0 0 1 -2.379.264 2.07 2.07 0 0 1 -1.722-3.219 34.012 34.012 0 0 1 8.32-8.667zm-.407 4.533 1.993-1.813a3.577 3.577 0 0 0 5.587 1.275l.7.62a19.1 19.1 0 0 1 5.832 9.667 11.338 11.338 0 0 1 -1.614-.64 17.093 17.093 0 0 0 -7.6-1.8h-2.452a17.093 17.093 0 0 0 -7.6 1.8c-.166.083-.342.145-.513.22a19.435 19.435 0 0 1 5.667-9.329zm6.727-8.971a1.605 1.605 0 0 1 2.941.89 3.6 3.6 0 0 1 -.6 2l-2.454 3.68a1.605 1.605 0 0 1 -2.946-.885 3.6 3.6 0 0 1 .6-2zm9.522 19.2a21.09 21.09 0 0 0 -6.643-11.644l-.786-.7.47-.7 1.71 1.244a34.012 34.012 0 0 1 8.32 8.667 2.07 2.07 0 0 1 -1.722 3.218 11.269 11.269 0 0 1 -1.349-.083zm1.891-29.515.145-.022-1.223 1.53a10.249 10.249 0 0 0 -1.872 3.624 8.41 8.41 0 0 1 -3.747 4.859 3.513 3.513 0 0 0 -4.507-2.191 15.494 15.494 0 0 1 11.204-7.8zm-13.959 10.527-1.572 2.358a5.812 5.812 0 0 0 -.439.8l-.967-.968a1.829 1.829 0 0 1 1.293-3.117 1.84 1.84 0 0 1 1.293.535zm-12.035-5.395a10.264 10.264 0 0 0 -1.871-3.624l-1.224-1.53.145.022a15.457 15.457 0 0 1 11.389 8.131 3.809 3.809 0 0 0 -1.882 2.947l-.552-.137a8.379 8.379 0 0 1 -6.005-5.809zm25.507 30.957a17.758 17.758 0 0 0 -6.237 2.3l-2.263 1.358 1.03 1.714 2.262-1.361a15.742 15.742 0 0 1 5.536-2.038 11.843 11.843 0 0 0 1.459-.351 21.2 21.2 0 0 1 -13.034 16.643l-6.908 2.826-.139-1.113a14.35 14.35 0 0 0 -5.6-9.648 12.352 12.352 0 0 1 -4.391-6.291l-.285-.95a57.324 57.324 0 0 1 6.193 1.679l2.074.691.632-1.9-2.073-.692a59.572 59.572 0 0 0 -8.138-2.084 7.436 7.436 0 0 1 -4.473-11.958 37.569 37.569 0 0 1 14.845-11.178l.619-.259-3.6 2.62a35.976 35.976 0 0 0 -8.808 9.175 4.07 4.07 0 0 0 3.384 6.328 13.467 13.467 0 0 0 6-1.416 15.087 15.087 0 0 1 6.708-1.584h2.444a15.087 15.087 0 0 1 6.711 1.584 13.467 13.467 0 0 0 6 1.416 4.07 4.07 0 0 0 3.386-6.328 35.976 35.976 0 0 0 -8.811-9.172l-1.776-1.3.327-.49a5.629 5.629 0 0 0 .73-1.614 25.882 25.882 0 0 1 11.788 7.553 9.593 9.593 0 0 1 -5.592 15.835z"/></g></svg>