<svg id="Layer_1" height="512" viewBox="0 0 520 520" width="512" xmlns="http://www.w3.org/2000/svg" data-name="Layer 1"><path d="m476.838 348.459c-.806-.432-80.832-44.006-107.906-134.62-9.171-30.781-21.941-55.212-38.837-74.476 17.624-12.324 33.041-21.619 44.376-30.264a.007.007 0 0 0 .008-.007c21.805-16.684 15.159-36.445 12.983-42.93-14.456-43.2-58.981-49.653-62.76-50.12-47.53-10.45-99.016 3.017-123.471 21.032-.061.043-.12.108-.184.158-39.557 26.886-33.301 58.768-28.747 71.268 3.4 9.262 10.348 17.8 22.533 27.612-37.674 32.978-65.132 78.754-88.315 146.853-12.118 35.625-27.944 75.341-62.535 95.935l-36.069 19.64a7.5 7.5 0 0 0 7.18 13.174l33.792-18.4q3.715.708 7.21 1.556l-23.49 17.942a7.506 7.506 0 1 0 9.115 11.928l31.879-24.34a89.217 89.217 0 0 1 8.873 4.213l-26.487 21.044a7.5 7.5 0 0 0 9.335 11.753l30.015-23.861a61.039 61.039 0 0 1 6.485 6.67l-29.407 23.375a7.5 7.5 0 1 0 9.334 11.752l28.22-22.435a71.3 71.3 0 0 1 3.481 8.64l-31.73 25.225a7.5 7.5 0 0 0 9.335 11.753l26.225-20.849c.525 3.149.82 5.363 1.4 9.076l-29.23 27.937a7.5 7.5 0 0 0 10.375 10.844l32.115-30.693c.007-.006.007-.015.014-.021 73.773-69.522 86.456-127.844 97.648-179.3 6.089-28 11.84-54.447 26.663-80.817a167.54 167.54 0 0 1 12.436-18.649c23.765 28.7 33.439 62.121 29.158 102.036-7.652 71.834 27.059 119.563 32.5 126.551l17.387 39.832a7.5 7.5 0 0 0 13.746-6.008l-13.141-30.105a108.468 108.468 0 0 0 13.216-1.486l15.363 35.2a7.5 7.5 0 0 0 13.746-6.009l-14.449-33.1a80.058 80.058 0 0 0 16.839-7.807l19.759 30.855a7.5 7.5 0 0 0 12.632-8.089l-20.627-32.21c8.047-7.9 4.644-5.307 12.316-13.577l22.137 28.2a7.5 7.5 0 0 0 11.8-9.262l-23.055-29.369a83.438 83.438 0 0 1 14.293-9.845l24.991 29.279a7.5 7.5 0 0 0 11.416-9.745l-21.758-25.491a101.849 101.849 0 0 1 14.288-2.942l32.667 25.143a7.5 7.5 0 0 0 9.159-11.885c-5.683-4.355-35.317-27.27-36.245-27.764zm-158.067-318.338c8.892 14.508 4.977 26.377-7.831 37.066-15.7-1.2-35.355-.735-50.881 2.324a220.77 220.77 0 0 0 -36.144 10.148c-6.237-3.446-12.7-8.594-14.661-15.511-1.449-5.131-.309-11.154 2.1-15.88 22.112-15.446 67.192-26.053 107.417-18.147zm-57.166 64.1c-4.211-1.652-10.09-3.82-15.947-5.825l-.135-.048c15.5-4.291 28.151-6.451 44.1-6.744-10.205 5.396-21.702 9.81-28.018 12.621zm-75.212 9.115c-3.209-8.814-5.436-24.025 7.459-39.808 1.907 14.834 12.789 24.455 26.114 31.117 6.593 3.3 11.722 4.807 22.868 8.651a263.215 263.215 0 0 0 -36.159 23.076c-11.375-8.781-17.703-15.998-20.282-23.032zm56.785 104.007c-15.922 28.334-21.908 55.855-28.246 84.987-10.683 49.121-21.717 99.846-83.059 161.635-2.039-11.838-5.933-26.949-16.57-40.852 17.442-8.9 45.4-29.666 56.18-86.573 11.628-61.291 28.238-79.916 34.847-85.074a7.506 7.506 0 1 0 -9.247-11.826c-9.862 7.715-28.223 30.187-40.342 94.1-10.465 55.2-37.383 71.229-52.348 77.968-9.068-7.808-20.367-14.711-38.6-19.9 29.221-24.231 43.633-60.822 54.924-94.013 23.681-69.556 51.685-114.625 90.811-146.131 15.5-12.581 32.95-23.2 53.466-32.5 23.492-11.047 84.291-31.465 72.208-74.391 12.258 4.7 28.9 14.83 36.027 36.151 2.733 8.141 4.382 16.867-7.862 26.239-27.484 20.97-89.315 51.681-122.189 110.184zm35.194-23.375c11.633-13.3 25.322-25.115 39.564-35.8 15.9 17.774 27.912 40.731 36.62 69.95 21.374 71.541 72.179 114.741 98.659 133.169a90.229 90.229 0 0 0 -12.089 4.367 91.146 91.146 0 0 0 -10.756 5.846 334.961 334.961 0 0 1 -41.259-39.226c-23.491-26.518-29.631-44.059-29.711-44.294a7.5 7.5 0 0 0 -14.244 4.712c.271.82 6.865 20.339 32.723 49.53a353.275 353.275 0 0 0 39.978 38.464 140.685 140.685 0 0 0 -19.184 19.889c-8.163 10.075-19.732 16.962-34.408 20.457a94.26 94.26 0 0 1 -23.513 2.418c-7.488-10.551-34.415-53.275-27.974-113.767 4.865-45.334-6.393-83.263-34.406-115.711z"/></svg>