<svg id="Layer_1" enable-background="new 0 0 64 64" viewBox="0 0 64 64" xmlns="http://www.w3.org/2000/svg"><path d="m39 57h-20c-1.1 0-2-.9-2-2v-32c0-1.1.9-2 2-2h20c1.1 0 2 .9 2 2v32c0 1.1-.9 2-2 2z" fill="#d9dce1"/><path d="m32.6 15h-7.1c-.9 0-1.6.6-1.9 1.4l-1.6 4.6h14l-1.5-4.6c-.3-.8-1.1-1.4-1.9-1.4z" fill="#56aaff"/><path d="m29 11v7" fill="none" stroke="#56aaff" stroke-miterlimit="10" stroke-width="4"/><path d="m24 9.5h21" fill="none" stroke="#56aaff" stroke-miterlimit="10" stroke-width="3"/><path d="m34 39.3c.7-1.5.8-3-.4-4.2s-3.5-1-4.3.7c-.8-1.7-3-1.8-4.3-.7-1.1.9-1.4 2.5-.6 4.1 1.3 2.7 3.7 4 4.6 4.5.2.1.5.1.7 0 .8-.5 3-1.8 4.3-4.4z" fill="#fff"/><path d="m47.2 20c-1.2 1.2-3.2 1.2-4.5 0-1.1-1.1-1.2-3-.2-4.2l2.5-3 2.5 3c1 1.2.9 3.1-.3 4.2z" fill="#0478ed"/></svg>