<svg id="Outline" height="512" viewBox="0 0 128 128" width="512" xmlns="http://www.w3.org/2000/svg"><path d="m64 68.277a5.863 5.863 0 0 0 3.82-1.589 1.5 1.5 0 1 0 -1.957-2.274 2.459 2.459 0 0 1 -3.726 0 1.5 1.5 0 1 0 -1.957 2.274 5.863 5.863 0 0 0 3.82 1.589z"/><path d="m71.444 73.627h-.017a10.115 10.115 0 0 1 -3.5.1c-.29-.041-.574-.1-.91-.161a4.1 4.1 0 0 0 -1.455-.069 3.581 3.581 0 0 0 -1.415.58.307.307 0 0 1 -.3 0 3.582 3.582 0 0 0 -1.414-.58 4.1 4.1 0 0 0 -1.456.069c-.336.065-.62.12-.91.161a10.115 10.115 0 0 1 -3.5-.1h-.018a1.076 1.076 0 0 0 -.632 2.045 10.3 10.3 0 0 0 4.369.836c.372-.011.748-.043 1.07-.068a1.32 1.32 0 0 1 .908.29 3.23 3.23 0 0 0 1.618.469h.224a3.23 3.23 0 0 0 1.618-.469 1.321 1.321 0 0 1 .909-.29c.321.025.7.057 1.069.068a10.3 10.3 0 0 0 4.369-.836 1.076 1.076 0 0 0 -.633-2.045z"/><path d="m64.96 79.039a2.04 2.04 0 0 1 -1.92 0 1.5 1.5 0 1 0 -1.3 2.7 5.062 5.062 0 0 0 4.526 0 1.5 1.5 0 0 0 -1.3-2.7z"/><path d="m72.746 45.956.049-.009a47.773 47.773 0 0 1 7.655-.506 33.419 33.419 0 0 1 3.963.119 19.058 19.058 0 0 1 3.827.709l.044.014a.691.691 0 0 0 .547-1.261 16.947 16.947 0 0 0 -4.042-1.539 34.816 34.816 0 0 0 -4.182-.826 18.278 18.278 0 0 0 -4.293-.056 13.6 13.6 0 0 0 -4.295 1.111 1.188 1.188 0 0 0 .727 2.244z"/><path d="m85.688 54.389a2.484 2.484 0 0 0 -2-1.177 4.736 4.736 0 0 0 -2.11.395l-.434.188-.321.148c-.222.091-.439.188-.669.266-.445.184-.908.334-1.368.479a13.2 13.2 0 0 1 -2.759.562 6.092 6.092 0 0 1 -2.5-.233l-.139-.047a1.073 1.073 0 0 0 -1.031 1.839 6 6 0 0 0 3.708 1.291 11.043 11.043 0 0 0 3.615-.521 13.338 13.338 0 0 0 1.668-.657c.27-.128.533-.281.8-.428l.392-.237c.124-.079.184-.13.28-.2a5.376 5.376 0 0 1 .98-.517 1.791 1.791 0 0 1 .988-.153l.186.025a.7.7 0 0 0 .423-.076.7.7 0 0 0 .291-.947z"/><path d="m55.97 55.646a1.073 1.073 0 0 0 -1.359-.675l-.137.046a6.092 6.092 0 0 1 -2.5.233 13.2 13.2 0 0 1 -2.759-.562c-.46-.145-.923-.3-1.368-.479-.23-.078-.447-.175-.669-.266l-.321-.148-.434-.188a4.736 4.736 0 0 0 -2.11-.395 2.484 2.484 0 0 0 -2 1.177.705.705 0 0 0 .717 1.029l.186-.025a1.791 1.791 0 0 1 .988.153 5.376 5.376 0 0 1 .98.517c.1.067.156.118.28.2l.392.237c.264.147.527.3.8.428a13.338 13.338 0 0 0 1.668.657 11.043 11.043 0 0 0 3.615.521 6 6 0 0 0 3.709-1.294 1.077 1.077 0 0 0 .322-1.166z"/><path d="m43.588 45.56a33.4 33.4 0 0 1 3.962-.119 47.773 47.773 0 0 1 7.655.506l.05.01a1.189 1.189 0 0 0 .726-2.245 13.6 13.6 0 0 0 -4.3-1.111 18.278 18.278 0 0 0 -4.293.056 34.816 34.816 0 0 0 -4.182.826 16.947 16.947 0 0 0 -4.042 1.539.691.691 0 0 0 .547 1.26l.044-.013a19.055 19.055 0 0 1 3.833-.709z"/><path d="m112.769 125.094a29.385 29.385 0 0 0 -7.29-10.895c-3-2.778-8.434-4.695-13.471-6.364a42.205 42.205 0 0 1 2.7-8.49 6.089 6.089 0 0 1 1.886-2.425c2.652-2.081 3.988-4.473 3.945-9.374-.013-1.594-2.046-13.567-6.409-14.374a3.644 3.644 0 0 0 -2.192.264c-.086-.243-.165-.474-.247-.71 4.628-.876 9-5.787 9.747-10.261a9.615 9.615 0 0 0 -1.907-8.108c2.012-9.7 2.922-23.1-.965-30.178-7.749-14.098-20.992-22.859-34.566-22.865s-26.817 8.767-34.563 22.865c-3.887 7.075-2.977 20.482-.965 30.178a9.615 9.615 0 0 0 -1.907 8.108c.742 4.474 5.119 9.385 9.747 10.261-.082.236-.162.467-.247.71a3.627 3.627 0 0 0 -2.19-.264c-4.365.807-6.4 12.78-6.411 14.374-.043 4.9 1.293 7.294 3.947 9.375a6.081 6.081 0 0 1 1.889 2.424 41.973 41.973 0 0 1 2.7 8.485c-5.023 1.658-10.454 3.566-13.473 6.369a29.371 29.371 0 0 0 -7.289 10.895 1.5 1.5 0 0 0 2.777 1.133 26.5 26.5 0 0 1 6.552-9.828c2.343-2.175 6.969-3.907 11.233-5.341-1.041 3.4-4.323 11.047-5.631 13.994a1.5 1.5 0 0 0 2.742 1.217c.218-.492 5.346-12.066 6.085-15.546.92-4.342-3.4-13.7-4.079-15.136a16.531 16.531 0 0 1 .2-10.868l.844-2.265c1.135-3.042 2.42-6.49 3.363-9.24a.808.808 0 0 1 .28-.4.927.927 0 0 1 .879-.071.73.73 0 0 1 .418.684 8.014 8.014 0 0 1 -.019 1.076 103.3 103.3 0 0 1 -1.641 11.186c-.559 2.507 1.51 5.039 3.511 7.487.639.78 1.241 1.518 1.691 2.178 4.876 7.178 3.058 11.244 1.855 13.933l-.232.526c-1.041 2.4-3.651 14.189-3.945 15.526a1.5 1.5 0 1 0 2.93.644c1.13-5.133 3.066-13.36 3.767-14.977l.218-.493a15.7 15.7 0 0 0 1.583-5.757c4.219-3.551 4.876-8.391 5.118-12a33.177 33.177 0 0 0 7.211 2.305 5.052 5.052 0 0 0 1.036.139 5.936 5.936 0 0 0 1.165-.155 32.822 32.822 0 0 0 7.124-2.28c.243 3.606.9 8.452 5.121 12a15.7 15.7 0 0 0 1.582 5.743l.218.493c.7 1.617 2.636 9.843 3.767 14.977a1.5 1.5 0 1 0 2.93-.644c-.294-1.337-2.9-13.125-3.945-15.526l-.232-.526c-1.2-2.689-3.021-6.755 1.855-13.933.45-.66 1.052-1.4 1.691-2.178 2-2.448 4.07-4.98 3.511-7.488a103.227 103.227 0 0 1 -1.647-11.183 7.415 7.415 0 0 1 -.01-1.165.675.675 0 0 1 .409-.594.927.927 0 0 1 .879.071.793.793 0 0 1 .279.4c.948 2.751 2.229 6.2 3.364 9.242l.844 2.265a16.531 16.531 0 0 1 .2 10.868c-.681 1.436-5 10.794-4.079 15.136.739 3.48 5.867 15.054 6.085 15.546a1.5 1.5 0 0 0 2.742-1.217c-1.307-2.945-4.585-10.579-5.628-13.986 4.4 1.48 8.887 3.167 11.228 5.334a26.478 26.478 0 0 1 6.551 9.827 1.5 1.5 0 0 0 1.39.933 1.484 1.484 0 0 0 .565-.111 1.5 1.5 0 0 0 .826-1.955zm-79.625-43.689-.844 2.271a19.489 19.489 0 0 0 -1.135 8.37 10.44 10.44 0 0 1 -.7-4.475c.022-2.729 2.493-10.95 3.958-11.45a.671.671 0 0 1 .608.193c-.622 1.698-1.276 3.453-1.887 5.091zm65.332-19.43c-.524 3.158-3.8 6.922-6.982 7.735a55.367 55.367 0 0 0 1.4-7.093 1.67 1.67 0 0 1 1.711-1.04 1.5 1.5 0 1 0 .289-2.986 4.667 4.667 0 0 0 -1.6.125q.147-2 .181-4.092a5.433 5.433 0 0 1 3.731 1.628 6.668 6.668 0 0 1 1.27 5.723zm-66.411-36.351c7.111-12.94 19.646-21.305 31.935-21.31s24.825 8.37 31.936 21.31c3.13 5.7 2.747 17.182.924 26.784a9.617 9.617 0 0 0 -3.5-.788c-.96-13.103-2.81-23.32-13.542-26.767a3.486 3.486 0 0 1 -1.641-1.1c-4.622-5.64-11.684-8.556-17.992-7.431-5.537.989-9.755 4.914-11.879 11.052-2.461 7.115-5.19 9.142-7.6 10.929-3.017 2.241-5.635 4.219-6.105 13.317a9.6 9.6 0 0 0 -3.461.784c-1.819-9.599-2.206-21.082.925-26.78zm-2.541 36.351a6.668 6.668 0 0 1 1.266-5.723 5.466 5.466 0 0 1 3.81-1.633c.025 1.4.083 2.776.182 4.119a4.688 4.688 0 0 0 -1.683-.147 1.5 1.5 0 1 0 .289 2.986c.291-.027 1.162-.1 1.819 1.235a55.037 55.037 0 0 0 1.386 6.92c-3.213-.76-6.539-4.567-7.069-7.757zm23.276 29.59c-.162 2.766-.381 6.343-2.55 9.242a21.737 21.737 0 0 0 -3.334-7.14c-.522-.77-1.166-1.558-1.848-2.392-1.329-1.625-3.148-3.849-2.906-4.934.172-.768.413-2.065.662-3.558a23.686 23.686 0 0 0 2.016 2.237 41.346 41.346 0 0 0 7.98 6.229c-.005.109-.013.204-.02.316zm30.13-.29c-.682.834-1.326 1.622-1.848 2.392a21.732 21.732 0 0 0 -3.332 7.133c-2.166-2.9-2.39-6.469-2.553-9.231-.006-.112-.014-.208-.02-.317a41.533 41.533 0 0 0 7.982-6.236 23.705 23.705 0 0 0 2.015-2.24c.249 1.494.491 2.792.663 3.56.242 1.09-1.577 3.314-2.906 4.939zm3.37-21.275a3.682 3.682 0 0 0 -2.173 3.023s-.041 1.009 0 1.663c.064 1.041.214 2.391.4 3.813a23.007 23.007 0 0 1 -3.461 4.364c-4 3.877-8.771 7.68-16.509 9.238a2.873 2.873 0 0 1 -1.124 0c-7.738-1.558-12.507-5.361-16.509-9.238a23.023 23.023 0 0 1 -3.456-4.363c.189-1.422.338-2.77.4-3.812a10.741 10.741 0 0 0 .013-1.522c0-.009-.012-.133-.013-.141a3.682 3.682 0 0 0 -2.168-3.025 3.946 3.946 0 0 0 -1.994-.323 59.582 59.582 0 0 1 -2.121-16.543c0-.012 0-.024 0-.036.269-8.474 2.115-10.298 4.915-12.384 2.618-1.945 5.878-4.366 8.643-12.357 2.246-6.492 6.444-8.52 9.57-9.078 5.257-.943 11.2 1.565 15.145 6.38a6.486 6.486 0 0 0 3.044 2.05c8.465 2.72 10.537 10.7 11.565 25.5v.053s.006.028.008.043c.007.1.015.2.022.3a59.239 59.239 0 0 1 -2.12 16.094 3.928 3.928 0 0 0 -2.077.301zm6.667 6.312a.662.662 0 0 1 .595-.2c1.478.5 3.949 8.724 3.971 11.453a10.448 10.448 0 0 1 -.7 4.464 19.5 19.5 0 0 0 -1.133-8.353l-.845-2.271c-.61-1.638-1.264-3.393-1.885-5.091z"/><path d="m41.925 64.741a9.662 9.662 0 0 0 -1.069-.2 1 1 0 1 0 -.259 1.982 8.067 8.067 0 0 1 .851.161.983.983 0 0 0 .239.029 1 1 0 0 0 .238-1.971z"/><path d="m49.613 74.781a1 1 0 0 0 -.949 1.049c.008.157.013.315.012.478 0 .135 0 .271-.009.4a1 1 0 0 0 .953 1.045h.047a1 1 0 0 0 1-.954c.008-.165.011-.33.011-.492 0-.194 0-.388-.014-.583a1 1 0 0 0 -1.051-.943z"/><path d="m45.788 66.59a1 1 0 1 0 -1.2 1.6q.351.262.682.563a1 1 0 1 0 1.342-1.484c-.264-.241-.541-.469-.824-.679z"/><path d="m47.856 72.386a1 1 0 0 0 1.844-.786c-.138-.323-.291-.641-.431-.9-.016-.034-.05-.1-.07-.131a.988.988 0 0 0 -1.341-.34 1.015 1.015 0 0 0 -.383 1.354c.137.262.266.531.381.803z"/><path d="m49.166 79.63a1 1 0 0 0 -1.341.451 7.573 7.573 0 0 1 -.427.749 1 1 0 1 0 1.678 1.088 9.39 9.39 0 0 0 .54-.948 1 1 0 0 0 -.45-1.34z"/><path d="m82.3 66.59q-.425.318-.827.68a1 1 0 0 0 1.342 1.484q.332-.3.683-.563a1 1 0 1 0 -1.2-1.6z"/><path d="m87.227 64.54a9.645 9.645 0 0 0 -1.068.2 1 1 0 0 0 .237 1.971.983.983 0 0 0 .239-.029 8.085 8.085 0 0 1 .852-.161 1 1 0 1 0 -.26-1.982z"/><path d="m78.914 72.912a.99.99 0 0 0 .393.08 1 1 0 0 0 .92-.606q.172-.408.386-.807a1.015 1.015 0 0 0 -.384-1.354.988.988 0 0 0 -1.341.34c-.019.033-.054.1-.069.131-.141.262-.293.58-.432.9a1 1 0 0 0 .527 1.316z"/><path d="m80.258 80.081a1 1 0 1 0 -1.791.889 9.39 9.39 0 0 0 .54.948 1 1 0 0 0 1.678-1.088 7.779 7.779 0 0 1 -.427-.749z"/><path d="m78.463 77.758a1 1 0 0 0 .953-1.045c0-.134-.008-.27-.008-.4 0-.163 0-.321.011-.478a1 1 0 0 0 -2-.1c-.009.195-.014.389-.013.583 0 .162 0 .327.01.492a1 1 0 0 0 1 .954z"/></svg>