<svg id="Capa_1" enable-background="new 0 0 511.987 511.987" height="512" viewBox="0 0 511.987 511.987" width="512" xmlns="http://www.w3.org/2000/svg"><g><g><path d="m359.953 344.429c54.606-60.782 90.343-117.168 111.56-153.917 31.609-54.749 32.972-111.71 12.176-145.508-7.659-9.848-17.19-18.076-28.198-24.431-49.631-28.655-117.218-12.399-164.61 69.687-17.729 30.707-50.329 100.806-66.051 141.219z" fill="#e4a4ad"/><path d="m483.689 45.004c14.712 37.744 9.434 90.759-22.176 145.508-21.217 36.749-75.163 113.696-97.328 136.696-1.396 1.449-2.81 2.847-4.232 4.221-.525-.581-28.225-22.285-60.409-46.453v-131.053l-10.32-19.692c-13.064 22.957-39.518 80.435-49.316 107.39-5.406-3.735-10.485-7.159-15.079-10.142-3.094 7.953-5.538 14.763-7.083 19.889-13.961 46.341-6.121 89.502 38.086 115.024 44.005 25.406 84.673 10.743 118.054-23.895 23.026-23.894 82.343-107.774 103.56-144.524 36.882-63.88 33.117-118.414 6.243-152.969z" fill="#dc8995"/><path d="m350.443 317.158c11.82-12.265 39.875-51.461 57.303-78.35 0-20.003-28.188-46.33-45.675-56.427-16.722-9.655-51.957-20.802-51.957-20.802l-52.396 113.484 88.908 45.865c1.288-1.212 2.561-2.466 3.817-3.77z" fill="#dce6eb"/><path d="m379.065 152.948-79.52.975h-.001c-13.469 23.329-42.26 85.593-48.223 105.385-8.862 29.418-3.885 56.817 24.178 73.02 26.28 15.173 50.684 7.83 71.126-11.4-16.483-12.807-45.807-35.284-73.908-55.865 6.438-18.385 24.059-57.214 37.396-83.484 17.67 4.083 35.235 11.148 51.957 20.802 17.488 10.096 32.982 22.408 45.675 36.427 4.125-6.364 7.657-12.042 10.234-16.506z" fill="#b9c3cd"/><path d="m340.428 249.37-25.549-14.751-24.929 43.178c0 11.281 11.663 17.864 23.751 17.864z" fill="#c38778"/><path d="m303.17 313.902 10.531-18.24c-7.544-5.724-15.577-11.774-23.751-17.864l-12.328 21.353z" fill="#9d6c6c"/><path d="m371.6 176.083c31.182 18.003 56.05 43.035 69.924 72.272 9.633-13.43 19.494-28.801 25.929-39.201 5.704-9.218 5.012-19.252.566-30.557-14.972-25.748-38.145-47.909-66.613-64.345-35.387-20.431-74.345-29.365-110.526-23.992-6.423.954-10.443 4.961-12.644 9.057-6.79 12.636-17.154 32.78-24.364 49.733 32.283-9.251 83.993 7.556 117.728 27.033z" fill="#f7f9fa"/><path d="m477.446 197.974c-2.627-6.652-5.788-13.119-9.427-19.377 2.373 6.035 1.877 13.609-.566 17.557-4.857 7.849-11.665 18.529-18.854 29.07-3.119 4.574-9.903 4.282-12.704-.493-14.478-24.682-36.96-45.866-64.295-61.647-33.734-19.476-99.786-33.291-117.727-14.033-1.729 4.065-.287 8.014 2.766 9.776 34.534-4.895 71.698 4.079 105.432 23.556 33.734 19.476 60.088 47.175 73.116 79.53 3.052 1.762 7.193 1.037 9.849-2.493 11.077-14.72 23.34-33.767 30.888-45.966 2.448-3.956 3.908-9.441 1.522-15.48z" fill="#dce6eb"/><path d="m356.814 454.577c23.217-40.213 15.18-82.03-14.305-112.533-23.893-23.026-107.774-82.342-144.523-103.56-82.085-47.392-148.745-27.676-177.4 21.955-18.707 32.401-18.266 72.455 7.131 109.547 55.589 53.272 196.734 111.184 223.985 119.394 42.347 12.758 81.788 5.594 105.112-34.803z" fill="#e4a4ad"/><path d="m342.509 342.044c19.963 23.366 27.836 72.99 7.326 108.515-20.604 35.688-55.448 42.017-92.858 30.747-24.075-7.253-160.977-66.058-229.26-111.319 13.504 19.724 34.06 38.611 62.556 55.063 36.749 21.217 129.93 63.741 161.108 73.134 46.341 13.96 89.501 6.121 115.024-38.086 25.405-44.005 10.742-84.673-23.896-118.054z" fill="#dc8995"/><path d="m339.491 402.457c.977-26.584-10.739-47.808-22.321-58.969-15.168-14.617-71.527-54.068-94.856-67.537v126.506z" fill="#dc8995"/><path d="m180.364 430.201c27.97 13.779 64.613 30.087 78.955 34.407 29.418 8.862 56.817 3.886 73.02-24.178 7.633-13.221 9.562-25.967 7.152-37.974-15.661-28.409-80.592-71.282-106.336-86.824-38.618 35.863-52.791 67.401-52.791 114.569z" fill="#dce6eb"/><path d="m317.17 365.488c-15.168-14.617-71.527-54.068-94.856-67.537l-69.353 38.916.975 79.52c6.423 3.709 15.802 8.58 26.429 13.815 2.079-21.948 9.618-44.216 21.631-65.024 8.687-15.046 19.208-28.445 31.16-39.544 25.744 15.542 91.739 62.757 106.336 76.824-2.683-13.363-10.74-25.809-22.322-36.97z" fill="#b9c3cd"/><path d="m173.09 348.489c20.018-34.673 50.722-68.343 76.678-84.615-12.698-8.959-26.644-17.891-36.303-23.867-3.954-2.447-9.439-3.907-15.478-1.522-34.02 13.437-63.291 40.653-83.722 76.04-18.016 31.204-27.085 65.184-25.295 97.589l57.783 37.805c.666-35.635 7.389-68.612 26.337-101.43z" fill="#f7f9fa"/><path d="m259.43 270.895c-3.065-2.307-6.323-4.664-9.663-7.021-34.733 14.563-64.468 43.13-85.483 79.53-15.054 26.074-24.391 54.013-26.731 81.499-.44 5.167-5.905 8.299-10.614 6.127-13.396-6.179-27.305-13.271-37.969-18.916.24 4.344.668 8.66 1.303 12.936.954 6.423 4.961 10.443 9.057 12.644 12.636 6.79 32.78 17.154 49.733 24.363 4.065 1.729 8.014.287 9.776-2.766-4.895-34.534 4.079-71.698 23.555-105.432s47.175-60.088 79.529-73.116c1.762-3.052 1.036-7.193-2.493-9.848z" fill="#dce6eb"/><path d="m257.063 371.068h29.501v68.836h-29.501z" fill="#c38778" transform="matrix(.5 -.866 .866 .5 -215.254 438.141)"/></g><g><path d="m230.882 407.546 59.613 34.418c1.182.682 2.471 1.006 3.743 1.006 2.592 0 5.113-1.345 6.502-3.751l14.751-25.549c.994-1.723 1.264-3.77.749-5.691s-1.771-3.56-3.494-4.554l-59.613-34.417c-3.589-2.07-8.176-.843-10.245 2.745l-14.751 25.548c-.994 1.723-1.264 3.77-.749 5.691.514 1.921 1.771 3.56 3.494 4.554zm21.246-21.798 46.623 26.917-7.251 12.559-46.623-26.918z"/><path d="m510.246 87.975c-5.43-31.799-23.543-58.042-51.005-73.897-33.906-19.575-73.868-18.699-109.639 2.401-3.567 2.104-4.754 6.703-2.649 10.271 2.106 3.569 6.702 4.753 10.271 2.649 30.979-18.276 65.428-19.125 94.518-2.331 23.527 13.584 39.054 36.111 43.719 63.432 4.657 27.273-1.385 58.38-17.484 90.661-15.19-29.088-40.569-54.785-72.819-73.404-3.59-2.071-8.175-.843-10.245 2.745-2.071 3.587-.842 8.174 2.745 10.245 34.437 19.883 60.296 48.287 72.814 79.983 1.165 2.949.854 5.902-.924 8.776-4.979 8.048-17.676 28.203-29.673 44.295-13.935-30.764-40.026-58.271-74.053-77.915-34.024-19.645-70.892-28.489-104.502-25.174 7.932-18.425 19.042-39.505 23.523-47.845 1.6-2.978 4.002-4.724 7.14-5.188 25.162-3.738 52.581-.169 79.293 10.32 3.857 1.514 8.208-.385 9.723-4.24 1.514-3.855-.385-8.208-4.24-9.723-23.83-9.357-48.279-13.644-71.574-12.648 9.579-14.484 20.095-26.846 31.383-36.844 3.1-2.747 3.387-7.487.641-10.587-2.746-3.102-7.487-3.387-10.587-.642-14.96 13.252-28.597 30.195-40.577 50.38-6.153 1.894-11.191 6.076-14.413 12.072-4.683 8.714-16.459 31.064-24.658 50.348-2.027 4.766-1.679 9.832.595 13.841-12.917 27.936-24.351 54.597-31.332 72.989-5.484-3.033-11.497-3.904-17.354-2.561-12.975-7.282-25.961-13.159-38.646-17.45-3.926-1.327-8.181.777-9.508 4.701s.777 8.181 4.701 9.508c8.447 2.858 17.062 6.491 25.735 10.818-29.083 15.191-54.777 40.568-73.394 72.814-7.941 13.754-14.22 28.063-18.661 42.531-1.216 3.96 1.009 8.155 4.969 9.371 3.957 1.213 8.156-1.008 9.371-4.969 4.11-13.39 9.935-26.656 17.312-39.434 19.882-34.437 48.287-60.296 79.982-72.814 2.946-1.166 5.901-.854 8.776.924 8.051 4.982 28.212 17.683 44.293 29.674-30.764 13.935-58.269 40.027-77.913 74.052-19.645 34.026-28.487 70.893-25.174 104.501-18.429-7.934-39.506-19.043-47.845-23.523-2.977-1.6-4.723-4.002-5.188-7.139-1.869-12.583-1.932-25.743-.186-39.115.537-4.106-2.358-7.871-6.466-8.407-4.093-.534-7.871 2.357-8.407 6.466-1.227 9.399-1.634 18.717-1.237 27.854-30.076-19.905-50.857-43.82-60.46-69.765-9.62-25.992-7.438-53.264 6.146-76.791 9.369-16.228 23.128-28.846 39.79-36.49 17.926-8.224 38.479-10.683 61.097-7.306 4.085.605 7.914-2.213 8.525-6.311.611-4.097-2.214-7.913-6.311-8.525-49.905-7.45-93.305 11.664-116.092 51.132-15.854 27.461-18.42 59.245-7.223 89.498 11.836 31.979 38.378 60.867 76.841 83.703 1.895 6.152 6.077 11.189 12.071 14.409 8.712 4.682 31.058 16.456 50.347 24.658 2.13.906 4.32 1.34 6.451 1.34 2.638 0 5.182-.668 7.401-1.929 38.275 17.698 72.974 32.095 89.237 36.996 14.686 4.424 28.595 6.621 41.58 6.621 24.979 0 46.526-8.139 63.514-24.227 3.008-2.848 3.137-7.595.288-10.603-2.848-3.008-7.596-3.136-10.603-.288-27.399 25.947-64.312 22.008-90.452 14.134-15.721-4.737-49.871-18.94-87.739-36.465-.844-7.648-.982-15.503-.429-23.478 28.529 14.653 74.668 35.574 91.78 40.73 9.609 2.895 18.712 4.324 27.214 4.324 23.449 0 42.312-10.884 54.464-31.934 16.322-28.27 10.477-58.135-16.46-84.093-13.536-13.045-55.341-42.657-81.621-59.573 6.663-4.488 13.569-8.312 20.651-11.412 34.59 24.309 64.143 47.012 75.901 58.342 17.233 16.607 28.128 33.905 32.381 51.413 4.602 18.941 1.312 38.284-9.776 57.49-2.071 3.587-.842 8.174 2.745 10.245 1.182.682 2.471 1.006 3.743 1.006 2.592 0 5.113-1.345 6.502-3.751 13.082-22.658 16.904-45.716 11.362-68.531-2.995-12.326-8.715-24.436-17.05-36.214 4.078-3.487 8.126-7.303 12.076-11.401 14.17-14.704 39.548-48.872 59.592-77.37 4.563-.077 9.067-2.306 12.151-6.403 12.607-16.755 26.069-38.121 31.272-46.529 3.58-5.787 4.683-12.241 3.248-18.515 21.892-39.008 30.434-77.297 24.695-110.909zm-198.28 282.913c22.111 21.309 26.781 43.444 13.878 65.792-13.098 22.687-34.75 29.67-64.361 20.746-16.998-5.121-67.147-28.034-94.126-42.24 3.449-19.247 10.714-38.837 21.532-57.576 10.82-18.741 24.157-34.83 39.104-47.442 26.584 16.699 71.301 48.509 83.973 60.72zm93.798-142.908c-16.918 26.937-48.519 71.312-60.721 83.975-4.223 4.381-8.548 8.121-12.908 11.164-5.319-4.328-11.294-9.005-17.635-13.84l32.423-56.158c2.071-3.587.842-8.174-2.745-10.245l-25.549-14.751c-1.723-.995-3.771-1.267-5.691-.749-1.921.515-3.56 1.771-4.554 3.494l-29.963 51.899c-2.728-1.943-5.425-3.852-8.075-5.716-.076-4.564-2.307-9.068-6.406-12.151-1.719-1.294-3.49-2.597-5.288-3.899 5.378-17.411 28.008-66.91 42.094-93.659 19.247 3.45 38.838 10.715 57.575 21.533 18.742 10.82 34.831 24.156 47.443 39.103zm-115.105 63.59 26.965-46.705 12.559 7.251-27.762 48.084c-3.881-2.878-7.819-5.767-11.762-8.63zm-5.789-126.207c-13.381 26.055-31.976 66.769-39.031 86.673-5.911-4.015-11.666-7.779-16.635-10.969 6.727-18.12 18.626-45.965 32.189-75.275 7.648-.845 15.502-.982 23.477-.429zm83.616 171.929c-3.47 3.602-7.014 6.957-10.574 10.027-3.148-3.596-6.547-7.156-10.199-10.675-1.156-1.115-2.447-2.306-3.832-3.551 4.07-3.113 8.072-6.692 11.963-10.73 12.377-12.844 41.676-53.727 59.579-81.614 4.486 6.661 8.307 13.564 11.406 20.643-24.31 34.592-47.013 64.145-58.343 75.9z"/></g></g></svg>