<svg id="Outline" height="512" viewBox="0 0 512 512" width="512" xmlns="http://www.w3.org/2000/svg"><path d="m440.569 291.346c-9.651-10.946-20.894-17.346-31.769-23.537-11.615-6.612-22.587-12.857-30.181-24.247-12.636-18.956-61.358-160.971-79.065-214.092a8 8 0 0 0 -10.8-4.8l-128 56a8 8 0 0 0 -3.8 11.184c.877 1.594 87.832 159.91 103.42 206.675 16.042 48.123-11.952 85.7-30.067 103.813-11.223 11.223-36.642 21.243-69.739 27.492a25.3 25.3 0 0 0 4.7 50.165h145.99a31.984 31.984 0 0 0 26.354-13.85c17.52-25.454 32.1-44.588 40.009-52.493 6.4-6.4 19.38-15.2 31.931-23.7 22.476-15.229 36.48-25.124 41.42-34.1 8.591-15.602 7.057-44.705-10.403-64.51zm-135.643-196.346-103.077 46.379c-3.266-6.149-6.391-12-9.319-17.463l105.952-47.679c2.007 5.871 4.167 12.163 6.444 18.763zm-17.77-52.163c1.531 4.556 3.626 10.769 6.144 18.189l-108.371 48.766c-3.992-7.393-7.332-13.534-9.75-17.966zm79.151 359.508c-11.725 11.725-31.269 39.326-41.874 54.736a15.991 15.991 0 0 1 -13.175 6.919h-145.991a9.3 9.3 0 0 1 -1.73-18.442c47.055-8.885 68.435-22.251 78.084-31.9 10.45-10.451 24.634-27.591 32.85-49.891a103.754 103.754 0 0 0 1.083-70.3c-9.082-27.244-40.228-88.6-66.208-137.919l100.841-45.375c19.848 57.032 45.426 127.72 55.121 142.262 7.842 11.763 17.948 18.91 28.258 25.045-9.024 15.058-13.6 29.332-13.6 42.517 0 18.351 9.256 40.83 18.237 58.322-12.886 8.74-24.849 16.981-31.896 24.024zm70.649-54.2c-2.589 4.7-14.009 13.17-25.426 21.087-10.072-19.983-15.566-37.261-15.566-49.229 0-12.187 5.581-24.7 11.463-34.515 7.733 4.566 14.968 9.439 21.14 16.441 8.697 9.862 16.095 32.217 8.389 46.213z"/><path d="m291.191 137.2h17.545v15.999h-17.545z" transform="matrix(.912 -.41 .41 .912 -33.165 135.902)"/><path d="m67.964 454.7a9.305 9.305 0 0 1 7.573-9.139c47.055-8.885 68.435-22.251 78.084-31.9 10.451-10.451 24.634-27.591 32.85-49.891a103.754 103.754 0 0 0 1.083-70.3c-9.082-27.245-40.229-88.6-66.209-137.922l41.938-18.873-6.566-14.59-42.869 19.292c-3.266-6.149-6.39-12-9.319-17.462l42.754-19.24-6.566-14.59-43.789 19.705c-3.992-7.39-7.328-13.532-9.749-17.964l119.991-52.5-6.412-14.658-128 56a8 8 0 0 0 -3.8 11.184c.877 1.594 87.832 159.91 103.42 206.675 16.042 48.123-11.952 85.7-30.067 103.813-11.223 11.223-36.641 21.243-69.739 27.492a25.3 25.3 0 0 0 4.695 50.168h50.733v-16h-50.733a9.313 9.313 0 0 1 -9.303-9.3z"/></svg>