<svg clip-rule="evenodd" fill-rule="evenodd" stroke-linejoin="round" stroke-miterlimit="2" viewBox="0 0 134 134" xmlns="http://www.w3.org/2000/svg" xmlns:serif="http://www.serif.com/"><g id="Icon"><path d="m86.606 41.213c6.729 0 12.192 5.464 12.192 12.193s-5.463 12.192-12.192 12.192-12.193-5.463-12.193-12.192 5.464-12.193 12.193-12.193zm0 4.167c-4.43 0-8.026 3.596-8.026 8.026 0 4.429 3.596 8.025 8.026 8.025 4.429 0 8.025-3.596 8.025-8.025 0-4.43-3.596-8.026-8.025-8.026z"/><path d="m76.961 64.636c1.12.256 1.823 1.373 1.567 2.494s-1.374 1.824-2.495 1.568c-6.436-1.47-12.872-2.004-19.307-.039-1.1.336-2.265-.284-2.601-1.384s.284-2.265 1.384-2.601c7.15-2.184 14.301-1.671 21.452-.038z"/><path d="m77.903 65.129c.848.776.907 2.095.131 2.944-.776.848-2.095.907-2.943.131l-22.339-20.429-9.06 8.285c-.848.776-2.167.717-2.943-.131-.776-.849-.717-2.168.131-2.944l10.466-9.571c.796-.728 2.016-.728 2.812 0z"/><path d="m11.304 71.638c-1.045.481-2.283.023-2.764-1.022-.48-1.044-.022-2.282 1.022-2.763 5.008-2.303 10.707-1.926 17.983-.452 10.046 2.035 23.351 6.093 42.659 6.441 14.257.257 28.105-7.103 52.514-9.251 1.145-.1 2.157.748 2.258 1.893.1 1.146-.748 2.157-1.893 2.258-24.608 2.165-38.58 9.525-52.954 9.266-19.646-.354-33.189-4.453-43.411-6.523-6.236-1.263-11.123-1.82-15.414.153z"/><path d="m11.304 80.897c-1.045.481-2.283.023-2.764-1.022-.48-1.045-.022-2.283 1.022-2.763 5.138-2.364 10.177-1.958 16.724-.455 8.938 2.053 20.957 6.142 40.981 6.425 14.028.198 31.952-7.165 55.451-9.232 1.145-.101 2.157.747 2.258 1.893.1 1.145-.748 2.157-1.893 2.258-23.675 2.082-41.742 9.447-55.875 9.247-20.448-.288-32.727-4.434-41.855-6.53-5.498-1.262-9.734-1.806-14.049.179z"/></g></svg>