<svg id="Capa_1" enable-background="new 0 0 512.002 512.002" height="512" viewBox="0 0 512.002 512.002" width="512" xmlns="http://www.w3.org/2000/svg"><g><g><g fill="#00f4a8"><path d="m184.095 203.957s14.435 48.209 2.935 95.459l2.13 3.651c21.773-22.484 45.437-62.39 1.934-106.248l-1.188-.403-5.81 1.892v5.649z"/><path d="m199.28 186.166s48.75 22.5 81 73l4.038 3.056c.731-36.036-11.068-88.843-86.745-87.887l-1.606 1.268-1.021 5.013z"/><path d="m114.835 14.395-1.194 5.771s53.616 74.442 46.067 139.399l1.572 1.851 6.333-3.583 1.06-1.817c39.092-88.07-12.292-125.869-53.838-141.621z"/><path d="m36.026 104.166s55.42 8.923 89.754 39.795c2.179 1.959 4.219 3.79 6.132 5.505l10.368-3.216 1.717-1.859c-30.156-62.202-75.825-57.6-107.971-43.58z"/><path d="m77.224 171.166c-29.056 4.667-40.861 51.917-40.861 51.917l1.693 2.66c30.213-28.65 60.109-39.855 81.263-44.089l1.127-1.957-.561-10.459c-7.234-.686-22.326-1.338-42.661 1.928z"/></g><path d="m39.356 102.804c-1.462-.269-2.572-1.017-3.33-1.994-8.971 3.913-16.89 8.558-23.123 12.691-4.556 3.02-2.331 10.077 3.135 9.987 50.672-.833 85.356 15.099 105.451 28.501h2.291l10.467-3.247c-17.559-16.678-47.721-37.255-94.891-45.938z" fill="#00e49d"/><path d="m163.821 159.137c.961-29.866-4.977-84.52-48.986-144.742-7.737-2.934-15.134-5.104-21.541-6.69-6.339-1.57-10.752 6.091-6.257 10.828 47.667 50.243 59.132 99.799 61.492 127.176l1.208 2.123 11.542 13.583 2.828-1.6z" fill="#00e49d"/><path d="m315.961 174.322s-35.181-40.156-74.431-37.906c-26.62 1.526-47.476 16.577-58.151 26.11l9.915 6.702 2.672.377c25.584-6.252 67.65-9.799 119.996 10.386v-5.669z" fill="#00f4a8"/><path d="m185.961 164.272c58.623-48.434 105.282-13.327 130 15.72.483.186.96.36 1.445.55 5.615 2.204 10.641-4.23 7.099-9.112-22.506-31.015-78.271-87.495-150.224-15.985l1.416 1.888z" fill="#00e49d"/><path d="m194.765 181.512-2.235 10.975.627 1.975c21.025 10.366 55.119 33.918 79.855 84.264 2.411 4.906 9.706 3.672 10.319-1.76.569-5.046.991-10.894 1.016-17.184-30.205-47.967-66.795-69.165-89.582-78.27z" fill="#00e49d"/><path d="m38.056 225.743c9.229-27.623 31.199-64.215 81.962-54.027l-.699-13.035-1.204-1.879c-61.602-14.807-82.552 37.469-89.234 65.191-1.155 4.789 4.645 8.082 8.198 4.669.326-.311.652-.611.977-.919z" fill="#00e49d"/><path d="m189.249 301.159c11.439-47.626 2.317-82.85-6.103-102.541l-9.553 3.111-2.495 2.064c7.356 20.044 14.708 55.933.486 103.219-1.419 4.718 4.155 8.38 7.892 5.17 3.014-2.589 6.327-5.646 9.685-9.113-.087-.602-.073-1.24.088-1.91z" fill="#00e49d"/><path d="m497.204 379.097c-5.656 3.338-12.251 5.254-19.295 5.254-10.548 0-20.091-4.294-26.98-11.228-4.115-4.142-10.782-4.142-14.897 0-6.89 6.934-16.432 11.228-26.98 11.228s-20.091-4.294-26.98-11.228c-4.115-4.142-10.782-4.142-14.897 0-6.89 6.934-16.432 11.228-26.98 11.228s-20.091-4.294-26.98-11.228c-3.858-3.883-9.959-4.125-14.098-.727v8.02l38.869 69.5h161.254l5.815-13.513v-52.877c.001-4.031-4.379-6.478-7.851-4.429z" fill="#60b9fe"/><path d="m298.316 373.123c-6.89 6.934-16.432 11.228-26.98 11.228-1.188 0-2.361-.062-3.521-.168v1.983l48.236 60.438 4.586 3.312h33.797c-14-29.103-32.811-55.25-55.319-77.52-.275.226-.542.468-.799.727z" fill="#1ca8ff"/><path d="m477.909 447.803c-10.548 0-20.091-4.294-26.98-11.228-4.115-4.142-10.782-4.142-14.897 0-6.89 6.934-16.432 11.228-26.98 11.228s-20.091-4.294-26.98-11.228c-4.115-4.142-10.782-4.142-14.897 0-4.491 4.52-10.114 7.908-16.404 9.726l16.1 54.287 7.257 3.912h117.614c7.354 0 13.315-5.961 13.315-13.315v-54.781c-6.905 7.032-16.515 11.399-27.148 11.399z" fill="#8bcaff"/><path d="m371.919 496.508c-4.9-17.731-11.469-34.69-19.51-50.721-3.835 1.301-7.94 2.016-12.215 2.016-10.548 0-20.091-4.294-26.98-11.228-.381-.383-.79-.719-1.21-1.031v1.456l26.777 63.542 4.223 3.958h31.124z" fill="#60b9fe"/><path d="m425.076 219.755c-16.755 7.533-28.432 24.353-28.432 43.915s11.676 36.381 28.432 43.915c18.451-6.07 31.778-23.431 31.778-43.915s-13.327-37.844-31.778-43.915z" fill="#ffc365"/><path d="m397.866 263.67c0-19.628 12.238-36.387 29.494-43.095-5.192-2.018-10.833-3.138-16.739-3.138-25.533 0-46.232 20.699-46.232 46.233s20.699 46.233 46.232 46.233c5.906 0 11.547-1.119 16.739-3.138-17.257-6.708-29.494-23.467-29.494-43.095z" fill="#ffa90f"/><path d="m119.913 322.004-17.466 9.861-28.421-2.109-4.259-6.285c-10.205 1.326-20.208 3.287-29.988 5.804v164.224c0 4.907 2.987 9.146 7.231 11h295.992c-27.668-100.114-116.082-174.997-223.089-182.495z" fill="#ffdda8"/><g><path d="m41.78 493.499v-164.741c-8.459 2.102-16.752 4.624-24.845 7.564-5.33 1.936-8.881 6.999-8.881 12.669v50.428l6.06 5.08.667 62.333-6.726 10.763v13.438c0 7.437 6.029 13.465 13.466 13.465h27.491c-4.245-1.854-7.232-6.092-7.232-10.999z" fill="#ffc365"/></g><path d="m152.78 186.166-4.455.905-4.327 16.888-63.673 122.757-67.045 93.95-5.226 13.903v43.027c103.218-97.632 141.991-222.031 154.686-276.367v-3.187z" fill="#dd8858"/><g><path d="m152.597 186.203-14.942 3.036-3.124 2.721c-10.441 36.608-41.384 117.341-126.477 207.459v35.149c97.715-108.268 132.562-202.711 144.543-248.365z" fill="#cb6c35"/></g><path d="m183.577 157.453c-10.98 5.376-16.567 18.168-12.593 30.085 2.186 6.556 6.853 11.578 12.602 14.399 6.088-2.65 11.071-7.773 13.337-14.568 4.011-12.026-1.927-24.969-13.346-29.916z" fill="#938493"/><path d="m171.266 187.369c-3.95-11.844 1.748-24.578 12.829-29.687-.809-.373-1.644-.709-2.508-.997-6.843-2.282-13.982-1.34-19.779 1.996l-1.59 1.735-8.6 27.083v1.74c2.634 6.147 7.779 11.186 14.622 13.468 6.104 2.036 12.443 1.503 17.855-1.002-5.856-2.71-10.627-7.731-12.829-14.336z" fill="#7b6c79"/><path d="m148.609 145.743c-5.571 2.957-10.062 7.97-12.215 14.426-3.994 11.976 1.411 24.816 12.208 30.538 6.352-2.572 11.582-7.799 13.92-14.809 4.078-12.225-2.124-25.397-13.913-30.155z" fill="#938493"/><path d="m137.029 160.55c2.192-6.575 6.931-11.58 12.75-14.299-.836-.389-1.699-.74-2.594-1.039-12.708-4.238-26.447 2.629-30.684 15.337-4.238 12.708 2.628 26.446 15.337 30.684 6.134 2.045 12.504 1.498 17.934-1.039-11.023-5.133-16.682-17.831-12.743-29.644z" fill="#7b6c79"/></g><g><path d="m492.839 372.637c-11.632 6.863-27.007 5.401-37.144-4.801-7.055-7.1-18.483-7.099-25.538 0-11.952 12.029-31.368 12.028-43.319 0-7.055-7.1-18.483-7.099-25.538 0-11.952 12.029-31.369 12.028-43.32 0-7.055-7.1-18.482-7.099-25.537 0-5.882 5.92-13.788 9.158-22.181 9.001-38.557-33.433-86.939-55.396-139.585-61.324 17.876-38.996 29.007-74.138 35.743-100.135 5.898 20.755 8.955 51.142-2.574 89.472-1.607 5.346.451 10.978 5.122 14.016 4.653 3.028 10.618 2.629 14.839-.996 31.532-27.084 49.743-63.184 31.209-100.376 17.167 13.505 35.65 33.889 50.709 64.54 5.696 11.589 23.052 8.641 24.504-4.228 5.294-46.959-8.198-90.783-53.776-105.603 21.735-.102 47.976 3.666 77.657 15.319 5.665 2.224 11.96.485 15.67-4.309 3.7-4.781 3.797-11.288.24-16.19-39.594-54.56-92.885-72.619-146.682-30.172 22.174-72.377-17.784-118.842-88.795-136.426-6.097-1.509-12.309 1.117-15.463 6.533-3.165 5.437-2.377 12.164 1.963 16.738 31.944 33.67 46.989 67.047 54 92.682-33.341-42.713-81.6-39.12-126.837-9.128-4.838 3.206-6.935 9.079-5.217 14.613 1.701 5.482 6.665 9.126 12.396 9.126.074 0 .148-.001.223-.002 34.386-.555 61.044 6.852 80.541 15.785-41.7.586-65.412 33.232-75.111 73.464-1.304 5.408 1.057 10.898 5.874 13.663 4.834 2.774 10.786 2.039 14.811-1.827 27.549-26.463 54.792-37.521 74.087-42.092 2.553 2.724 5.573 4.972 8.951 6.651-8.459 27.271-25.645 69.758-59.798 119.875-17.447 2.497-34.637 6.771-51.141 12.766-8.268 3.002-13.822 10.927-13.822 19.719v142.042c0 11.561 9.405 20.966 20.966 20.966h136.509c4.143 0 7.5-3.357 7.5-7.5s-3.357-7.5-7.5-7.5h-136.509c-3.29 0-5.966-2.676-5.966-5.966v-10.223c41.329-39.617 78.953-89.923 108.869-150.92 96.92 8.828 178.986 75.215 208.507 167.108h-139.901c-4.143 0-7.5 3.357-7.5 7.5s3.357 7.5 7.5 7.5h298.713c11.478 0 20.814-9.337 20.814-20.814v-54.781-52.877c0-9.932-10.79-15.835-19.163-10.889zm-312.196-72.209c9.71-38.014 6.178-68.541.015-89.835 3.194-.76 6.249-2.009 9.052-3.691 27.992 31.803 21.133 63.939-9.067 93.526zm95.313-31.354c-22.252-42.101-50.704-65.188-73.073-77.679 1.252-3.155 2.016-6.872 2.156-9.446 52.186 2.245 74.401 34.53 70.917 87.125zm38.856-97.337c-29.316-10.856-55.484-14.542-77.501-14.542-14.692 0-27.539 1.642-38.235 3.888-2.73-3.76-6.248-6.913-10.394-9.195-.007-.004-.013-.008-.02-.012 45.825-38.884 89.478-27.614 126.15 19.861zm-125.556 13.26c-4.741 14.212-22.489 13.686-28.216 6.05 7.289-7.048 10.951-17.468 9.288-27.825 12.513-2.308 22.95 9.712 18.928 21.775zm-95.025-169.164c68.305 18.251 98.123 61.985 69.185 132.118-2.369-2.879-5.312-5.33-8.39-7.125-3.063-27.219-15.287-75.86-60.795-124.993zm-56.25 199.299c10.853-35.145 33.156-57.831 69.729-52.599-.868 4.592-.62 9.512.552 13.879-19.227 5.139-44.491 15.987-70.281 38.72zm-15.501-99.154c43.743-26.187 82.563-22.869 108.74 21.445-4.021 1.018-7.686 2.747-11.028 5.185-20.517-12.604-52.786-26.021-97.712-26.63zm99.774 51.1c.652-9.227 8.554-16.074 17.629-15.581.01.001.019.001.029.001 9.066.51 16.177 8.27 15.784 17.449-.434 9.685-8.98 17.044-18.657 15.922-9.039-1.056-15.4-9.01-14.785-17.791zm-107.254 181.913c0-2.505 1.584-4.764 3.941-5.62 10.951-3.978 22.222-7.162 33.673-9.519-11.545 15.696-24.125 31.183-37.605 46.296-.003.003-.006.007-.009.01zm0 110.678v-57.278c53.382-57.005 101.731-128.383 124.426-202.413 2.516-.036 5.661-.455 8.491-1.289 1.519 2.036 3.563 4.185 5.748 5.918-22.371 91.221-70.134 185.18-138.665 255.062zm482.002 31.515c0 3.206-2.608 5.814-5.814 5.814h-143.096c-4.34-14.441-10.08-28.811-17.051-42.502 14.528 2.759 29.848-1.514 40.899-12.636 1.182-1.19 3.073-1.191 4.256 0 17.824 17.937 46.778 17.937 64.602 0 1.181-1.189 3.074-1.191 4.257 0 14.166 14.256 35.188 17.041 51.947 9.013zm0-58.047c-11.854 10.005-29.859 9.673-41.307-1.848-7.055-7.1-18.483-7.099-25.538 0-11.951 12.028-31.369 12.029-43.319 0-3.408-3.431-7.942-5.319-12.769-5.32 1 0-6.73-.757-12.77 5.32-11.949 12.025-31.366 12.031-43.317.003-.255-.258-.531-.508-.815-.757-9.298-14.223-20.353-27.997-32.969-40.683 7.062-2.165 13.527-6.051 18.885-11.443 1.182-1.189 3.073-1.191 4.256 0 17.824 17.937 46.778 17.937 64.602 0 1.181-1.189 3.074-1.191 4.257 0 17.824 17.937 46.777 17.937 64.601 0 1.181-1.189 3.074-1.191 4.257 0 14.238 14.328 35.208 16.998 51.947 8.99v45.738z"/><path d="m483.652 271.171h12.249c4.143 0 7.5-3.357 7.5-7.5s-3.357-7.5-7.5-7.5h-12.249c-4.143 0-7.5 3.357-7.5 7.5s3.358 7.5 7.5 7.5z"/><path d="m336.481 256.171h-12.249c-4.143 0-7.5 3.357-7.5 7.5s3.357 7.5 7.5 7.5h12.249c4.143 0 7.5-3.357 7.5-7.5s-3.357-7.5-7.5-7.5z"/><path d="m467.402 216.941 8.662-8.661c2.93-2.929 2.93-7.678.001-10.606-2.93-2.929-7.679-2.93-10.606-.001l-8.662 8.661c-2.93 2.929-2.93 7.678-.001 10.606 2.931 2.932 7.68 2.928 10.606.001z"/><path d="m354.677 329.668 8.661-8.662c2.929-2.929 2.929-7.678-.001-10.606-2.928-2.928-7.677-2.929-10.606.001l-8.661 8.662c-2.929 2.929-2.929 7.678.001 10.606 2.927 2.928 7.676 2.929 10.606-.001z"/><path d="m417.567 190.085v-12.249c0-4.143-3.357-7.5-7.5-7.5s-7.5 3.357-7.5 7.5v12.249c0 4.143 3.357 7.5 7.5 7.5s7.5-3.358 7.5-7.5z"/><path d="m402.567 337.256v12.249c0 4.143 3.357 7.5 7.5 7.5s7.5-3.357 7.5-7.5v-12.249c0-4.143-3.357-7.5-7.5-7.5s-7.5 3.357-7.5 7.5z"/><path d="m352.73 216.941c2.931 2.929 7.678 2.928 10.607 0 2.929-2.93 2.929-7.678 0-10.607l-8.661-8.661c-2.93-2.928-7.678-2.928-10.607 0-2.929 2.93-2.929 7.678 0 10.607z"/><path d="m465.458 329.669c2.931 2.929 7.678 2.928 10.607 0 2.929-2.93 2.929-7.678 0-10.607l-8.662-8.662c-2.93-2.928-7.678-2.928-10.607 0-2.929 2.93-2.929 7.678 0 10.607z"/><path d="m459.502 284.749c1.627-3.81-.144-8.216-3.953-9.842-3.81-1.628-8.216.145-9.842 3.953-6.105 14.302-20.095 23.543-35.64 23.543-21.357 0-38.732-17.375-38.732-38.732s17.375-38.732 38.732-38.732c16.046 0 30.201 9.658 36.062 24.604 1.514 3.856 5.864 5.756 9.721 4.244 3.856-1.513 5.756-5.864 4.244-9.721-8.131-20.731-27.768-34.128-50.027-34.128-29.628 0-53.732 24.104-53.732 53.732s24.104 53.732 53.732 53.732c21.563.001 40.967-12.816 49.435-32.653z"/></g></g></svg>