<svg height="512" viewBox="0 0 48 48" width="512" xmlns="http://www.w3.org/2000/svg"><g id="Line"><path d="m12.36 32.91-.29.72a1 1 0 0 0 .43 1.24 26.06 26.06 0 0 1 2.5 1.62 3.1 3.1 0 0 1 .05-.81c1-3.27 2.35-6.62 4.87-9a3.46 3.46 0 0 0 -.9-5.54 5.45 5.45 0 0 1 -3-4.89v-13.35l-2 9.82a9.46 9.46 0 0 0 3 10.72 1 1 0 0 1 .07 1.33 32.22 32.22 0 0 0 -4.73 8.14z"/><path d="m31.9 22.52a9.16 9.16 0 0 0 2.1-9.8l-2-9.82v13.34a5.43 5.43 0 0 1 -3 4.89 3.46 3.46 0 0 0 -.9 5.54 16.73 16.73 0 0 1 4 6.53l.9 2.48a3.16 3.16 0 0 1 0 .81 26.06 26.06 0 0 1 2.5-1.62 1 1 0 0 0 .43-1.24l-.29-.72a32.22 32.22 0 0 0 -4.74-8.14c-.73-.9.46-1.67 1-2.25z"/><path d="m20 2h-2v14.24a3.45 3.45 0 0 0 1.91 3.1 5.48 5.48 0 0 1 1.42 8.74c-2.25 2.13-3.47 5.16-4.33 8.08v1.9a28.57 28.57 0 0 1 6.13 7.44 1 1 0 0 0 1.74 0 28.57 28.57 0 0 1 6.13-7.44v-1.9l-.77-2.32a14.92 14.92 0 0 0 -3.56-5.76 5.49 5.49 0 0 1 1.42-8.74 3.45 3.45 0 0 0 1.91-3.1v-14.24h-2a1 1 0 0 0 -1 1v8a3 3 0 0 1 -6 0v-8a1 1 0 0 0 -1-1z"/></g></svg>