<svg id="Capa_1" enable-background="new 0 0 512 512" height="512" viewBox="0 0 512 512" width="512" xmlns="http://www.w3.org/2000/svg"><g><g><path d="m512 219.747c0 3.397-1.107 6.599-3.027 9.197s-17.01 1.623-20.262 2.608c-25.285 7.656-51.332 13.385-84.929 36.539-55.484 38.237-80.498 88.38-96.688 118.063-1.169 2.144-3.306 11.154-5.245 12.495-2.541 1.758-5.6 2.745-8.801 2.745h-74.157c-2.82 0-5.523-.77-7.863-2.157s-2.653-8.832-4.018-11.299c-14.158-25.586-34.912-66.671-75.683-100.55-42.855-35.612-84.566-46.754-113.524-55.836-2.857-.896-12.275.496-14.121-1.674-2.32-2.728-3.682-6.246-3.682-10.011v-98.959c0-6.157 5.356-10.939 11.472-10.231 73.008 8.444 154.993 14.094 244.528 14.094 73.276 0 155.385-3.784 244.518-14.093 6.115-.707 11.482 4.075 11.482 10.23z" fill="#f58a97"/><path d="m477.693 113.178c-.023.002-.051.005-.072.008-.005.001-.01.001-.015.002 2.129 1.877 3.489 4.624 3.489 7.721v120.359c7.038-2.627 13.728-4.854 19.974-6.745 6.502-1.969 10.931-7.979 10.931-14.773v-98.841c0-5.771-4.718-10.334-10.346-10.299-.375.003-.754.025-1.137.069-1.414.163-4.023.454-7.001.782-5.3.594-10.575 1.167-15.823 1.717z" fill="#f07281"/><g><path d="m225.095 124.771c5.101 0 10.254-.023 15.44-.061-83.524-.607-160.28-6.078-229.062-14.034-3.042-.352-5.895.656-7.995 2.514 67.122 7.029 141.321 11.581 221.617 11.581z" fill="#f07281"/></g><path d="m160.574 255.772c-42.897-37.231-103.646-47.141-156.886-25.899l4.271 3.492c.905.502 1.863.929 2.88 1.248 28.958 9.082 72.008 26.886 114.863 62.497 40.771 33.879 65.487 70.681 79.645 96.268 1.278 2.31 2.804 3.745 4.806 5.298.001.001.003.002.004.003 9.725-53.219-9.055-107.736-49.583-142.907z" fill="#f6b2bb"/><path d="m351.426 255.772c-40.517 35.16-59.297 89.667-49.593 142.876l.016-.002c1.939-1.341 3.578-3.13 4.747-5.274 16.189-29.683 47.56-76.677 103.045-114.915 33.597-23.153 66.144-36.28 91.429-43.936 2.861-.866 5.319-2.516 7.177-4.67-53.23-21.209-113.946-11.298-156.821 25.921z" fill="#f6b2bb"/><path d="m507.916 230.208c.11-.119.224-.234.33-.357-8.881-3.538-17.971-6.191-27.151-8.015v19.43c5.278-1.97 10.36-3.715 15.205-5.262.004-.001.007-.002.01-.003 1.613-.515 3.2-1.008 4.759-1.48 2.591-.784 4.582-1.846 6.847-4.313z" fill="#f8a6af"/><path d="m0 155.677c75.478 10.08 162.26 17.133 258.314 17.018 94.173-.113 179.375-7.094 253.686-17.018v-34.769c0-6.155-5.368-10.937-11.482-10.23-89.133 10.309-171.242 14.093-244.518 14.093-89.535 0-171.519-5.65-244.528-14.094-6.116-.708-11.472 4.074-11.472 10.231z" fill="#f07281"/><path d="m511.94 119.805c-.471-4.465-4.239-8.751-9.206-9.144-.722-.072-1.464-.069-2.217.018-1.414.163-4.023.454-7.001.782-.004.001-.007.001-.011.001-5.296.595-10.566 1.168-15.811 1.717h-.001c-.023.002-.051.005-.072.008-.005.001-.01.001-.015.002 2.129 1.877 3.489 4.624 3.489 7.721v38.64c10.497-1.23 20.806-2.522 30.905-3.871-.097-1.25.058-34.758-.06-35.874z" fill="#eb5569"/></g></g></svg>