<svg id="Capa_1" enable-background="new 0 0 512 512" height="512" viewBox="0 0 512 512" width="512" xmlns="http://www.w3.org/2000/svg"><g><path d="m436.53 192-20.53 256v64h-145l-15-15-15 15h-145v-64l-23.05-256 108.65-128 74.4-17.58 74.51 17.58z" fill="#61cbff"/><path d="m436.53 192-20.53 256v64h-145l-15-15v-450.58l74.51 17.58z" fill="#4094e9"/><path d="m330.51 64h-148.91l10.51-64h48.89l15 14.95.05.05 14.95-15h49z" fill="#4094e9"/><path d="m330.51 64h-74.51v-49.05l.05.05 14.95-15h49z" fill="#3b6acf"/><path d="m181.596 64-117.269 32.477c-42.294 83.845-64.327 176.444-64.327 270.352v49.177l31.995 31.994h64.005v-256z" fill="#4094e9"/><path d="m447.673 96.477-117.16-32.477 85.487 128v256h64.005l31.995-31.994v-49.177c.115-93.624-22.3-187.119-64.327-270.352z" fill="#3b6acf"/><path d="m241 0h30v512h-30z" fill="#575f64"/><path d="m256 0h15v512h-15z" fill="#474f54"/><path d="m301.25 180.75h60.125v30h-60.125z" fill="#3b6acf"/></g></svg>