<svg id="Layer_1" enable-background="new 0 0 1024 1024" viewBox="0 0 1024 1024" xmlns="http://www.w3.org/2000/svg"><g><g><path d="m510.97 938.12c-9.48 0-20.15-.88-30.86-3.54-1.84-.46-3.44-1.59-4.47-3.18-88.67-135.74-211.21-214.48-354.38-227.7-3.62-.33-6.47-3.21-6.78-6.83-4.45-51.72 4.3-113.32 26.02-183.08 7.92-25.43 16.28-47.67 24.37-69.17 11.08-29.45 21.54-57.27 30.41-91.54 16.01-61.92 12.76-119.14 8.64-191.58-1.21-21.36-2.47-43.44-3.4-67.82-.09-2.27.86-4.45 2.57-5.94s4-2.13 6.24-1.73c153.17 27.15 309.62 25.71 413.9 19.72 113.11-6.5 190.94-19.6 191.72-19.73 2.22-.38 4.51.27 6.21 1.76s2.63 3.67 2.55 5.92c-.93 24.38-2.19 46.46-3.4 67.81-4.12 72.44-7.37 129.66 8.64 191.58 8.86 34.27 19.33 62.09 30.41 91.54 8.09 21.5 16.45 43.74 24.37 69.17 21.72 69.77 30.47 131.36 26.02 183.08-.31 3.62-3.17 6.49-6.78 6.83-143.16 13.22-265.7 91.96-354.38 227.7-1.04 1.59-2.65 2.73-4.49 3.18-.9.22-14.77 3.55-33.13 3.55zm-24.43-17.45c21.81 4.69 43.6 1.38 51.17-.08 43.98-66.67 95.98-120.08 154.58-158.78 61.02-40.3 129.26-64.65 202.95-72.43 3.09-48.5-5.6-106.04-25.86-171.14-7.79-25.01-16.07-47.04-24.09-68.35-11.22-29.84-21.83-58.02-30.89-93.07-16.6-64.19-13.29-122.44-9.1-196.19 1.06-18.59 2.14-37.72 3.02-58.42-23.83 3.62-92.5 13.2-184.03 18.46-103.05 5.93-256.71 7.44-408.42-18.32.88 20.64 1.96 39.73 3.01 58.28 4.19 73.75 7.5 132-9.1 196.18-9.06 35.05-19.67 63.23-30.89 93.07-8.01 21.3-16.3 43.33-24.08 68.35-20.27 65.1-28.96 122.64-25.86 171.14 73.69 7.78 141.93 32.13 202.95 72.43 58.63 38.73 110.64 92.17 154.64 158.87z"/></g><g><path d="m524.38 932.41-13.26-7.01c3.13-5.93 6.43-11.9 9.79-17.75l13 7.48c-3.28 5.69-6.48 11.5-9.53 17.28zm19.66-34.22-12.73-7.93c3.55-5.7 7.25-11.43 11-17.01l12.45 8.36c-3.65 5.45-7.26 11.02-10.72 16.58zm22.01-32.77-12.16-8.79c3.92-5.43 8.01-10.88 12.14-16.21l11.85 9.19c-4.02 5.2-8 10.52-11.83 15.81zm24.2-31.2-11.54-9.59c4.29-5.16 8.73-10.33 13.2-15.35l11.21 9.97c-4.36 4.9-8.69 9.93-12.87 14.97zm26.24-29.51-10.87-10.33c4.63-4.87 9.4-9.73 14.19-14.44l10.52 10.69c-4.67 4.59-9.33 9.33-13.84 14.08zm28.14-27.71-10.17-11.03c4.94-4.55 10.02-9.09 15.11-13.48l9.8 11.36c-4.96 4.28-9.92 8.7-14.74 13.15zm29.91-25.81-9.42-11.67c5.22-4.22 10.59-8.41 15.96-12.46l9.04 11.97c-5.24 3.95-10.48 8.04-15.58 12.16zm31.53-23.8-8.64-12.26c5.5-3.88 11.14-7.71 16.74-11.39l8.23 12.54c-5.47 3.59-10.96 7.33-16.33 11.11zm33.02-21.68-7.82-12.8c5.75-3.51 11.62-6.96 17.45-10.26l7.39 13.05c-5.69 3.22-11.41 6.59-17.02 10.01zm34.37-19.46-6.95-13.29c5.97-3.12 12.06-6.18 18.1-9.08l6.5 13.52c-5.89 2.83-11.83 5.81-17.65 8.85zm35.59-17.12-6.05-13.73c6.16-2.71 12.44-5.35 18.67-7.85l5.58 13.92c-6.07 2.44-12.2 5.02-18.2 7.66zm36.65-14.68-5.1-14.11c6.33-2.29 12.78-4.49 19.17-6.55l4.61 14.28c-6.22 2.01-12.51 4.15-18.68 6.38zm37.56-12.11-4.11-14.43c6.48-1.84 13.06-3.59 19.58-5.2l3.59 14.56c-6.34 1.57-12.76 3.27-19.06 5.07z"/></g><g><path d="m499.63 932.41c-3.05-5.77-6.26-11.59-9.53-17.28l13-7.48c3.36 5.85 6.66 11.82 9.79 17.75zm-19.67-34.22c-3.46-5.56-7.07-11.13-10.72-16.57l12.45-8.36c3.75 5.58 7.45 11.31 11 17.01zm-22.01-32.77c-3.83-5.29-7.81-10.61-11.83-15.8l11.85-9.19c4.13 5.33 8.21 10.78 12.14 16.21zm-24.2-31.2c-4.18-5.04-8.52-10.07-12.88-14.97l11.21-9.97c4.47 5.03 8.91 10.19 13.2 15.35zm-26.24-29.51c-4.51-4.75-9.17-9.49-13.84-14.09l10.52-10.69c4.79 4.72 9.57 9.58 14.19 14.44zm-28.14-27.71c-4.82-4.44-9.78-8.87-14.74-13.15l9.8-11.36c5.09 4.39 10.17 8.92 15.11 13.48zm-29.91-25.81c-5.1-4.12-10.34-8.21-15.57-12.16l9.04-11.97c5.36 4.05 10.73 8.24 15.96 12.46zm-31.53-23.8c-5.37-3.78-10.86-7.52-16.33-11.11l8.23-12.54c5.6 3.68 11.24 7.51 16.74 11.39zm-33.02-21.68c-5.61-3.42-11.34-6.79-17.03-10.01l7.39-13.05c5.83 3.3 11.71 6.76 17.45 10.26zm-34.37-19.46c-5.82-3.04-11.76-6.02-17.65-8.86l6.5-13.52c6.04 2.91 12.13 5.96 18.1 9.08zm-35.59-17.12c-6.01-2.65-12.13-5.22-18.2-7.65l5.58-13.92c6.23 2.49 12.51 5.13 18.67 7.85zm-36.65-14.68c-6.17-2.23-12.46-4.38-18.68-6.38l4.61-14.28c6.38 2.06 12.83 4.26 19.17 6.55zm-37.56-12.11c-6.31-1.79-12.72-3.5-19.07-5.06l3.59-14.56c6.52 1.61 13.11 3.36 19.58 5.2z"/></g><g><path d="m506.8 188.64c-100.45 0-200.45-9.8-297.38-29.15l2.94-14.71c192.18 38.37 393.9 38.32 599.56-.15l2.76 14.74c-101.37 18.96-202.59 28.8-300.84 29.25-2.34.01-4.69.02-7.04.02z"/></g><g><path d="m294.58 704.76-14.97-.96c4.39-68.38 24.52-133.01 43.98-195.52 11.42-36.66 23.22-74.58 31.69-112.77 15.74-70.96 20.65-147.23 14.21-220.58l14.94-1.31c6.57 74.85 1.56 152.7-14.5 225.14-8.61 38.81-20.51 77.02-32.02 113.98-19.2 61.67-39.06 125.44-43.33 192.02z"/></g><g><path d="m729.61 704.76c-4.27-66.59-24.13-130.36-43.33-192.02-11.51-36.96-23.41-75.17-32.01-113.98-16.06-72.43-21.08-150.28-14.5-225.14l14.94 1.31c-6.44 73.35-1.53 149.62 14.21 220.58 8.47 38.19 20.28 76.1 31.69 112.76 19.47 62.51 39.59 127.15 43.98 195.52z"/></g></g></svg>