<?xml version="1.0" encoding="utf-8"?>
<!-- Generator: Adobe Illustrator 17.0.0, SVG Export Plug-In . SVG Version: 6.00 Build 0)  -->
<!DOCTYPE svg PUBLIC "-//W3C//DTD SVG 1.1//EN" "http://www.w3.org/Graphics/SVG/1.1/DTD/svg11.dtd">
<svg version="1.1" id="Camada_1" xmlns="http://www.w3.org/2000/svg" xmlns:xlink="http://www.w3.org/1999/xlink" x="0px" y="0px"
	 width="685px" height="385px" viewBox="0 0 685 385" enable-background="new 0 0 685 385" xml:space="preserve">
<g>
	<defs>
		<rect id="SVGID_1_" x="-53" y="-96.276" width="841.89" height="595.276"/>
	</defs>
	<clipPath id="SVGID_2_">
		<use xlink:href="#SVGID_1_"  overflow="visible"/>
	</clipPath>
	<path clip-path="url(#SVGID_2_)" fill="#3C3C3C" d="M145.482,15.011c-0.297,0-0.59,0.297-0.884,0.884
		c-2.065,6.336-3.944,14.331-5.635,23.98c-1.696,9.651-3.205,20.001-4.531,31.051c-1.326,11.051-2.469,22.361-3.426,33.926
		c-0.96,11.568-1.733,22.432-2.321,32.599c-0.59,10.166-1.032,19.227-1.326,27.184c-0.297,7.956-0.442,13.779-0.442,17.46
		c0,1.623,0.145,2.507,0.442,2.652c0.294,0.148,1.251,0.076,2.874-0.221c3.094-0.442,5.559-0.256,7.403,0.552
		c1.841,0.812,2.946,1.768,3.315,2.874c0.367,1.105-0.038,2.137-1.215,3.093c-1.181,0.96-3.243,1.365-6.188,1.216
		c-1.182,0-2.248,0.038-3.205,0.111c-0.96,0.076-1.955,0.11-2.984,0.11c-0.297,0.591-0.48,2.286-0.549,5.083
		c-0.072,2.801-0.107,6.154-0.107,10.057c0,3.905,0.035,8.104,0.107,12.597c0.069,4.496,0.142,8.692,0.218,12.598
		c0.072,3.902,0.183,7.293,0.331,10.166c0.146,2.873,0.294,4.603,0.442,5.194c0.145,0.884,0.332,3.681,0.553,8.398
		c0.221,4.714,0.514,9.908,0.884,15.582c0.366,5.67,0.808,11.012,1.326,16.023c0.514,5.007,0.994,8.177,1.437,9.503
		c0.145,0.443,0.072,1.029-0.222,1.769c-0.296,0.587-1.143,1.176-2.541,1.767c-1.402,0.587-2.676,0.884-3.83,0.884
		c-0.863-0.148-1.478-0.259-1.837-0.331c-0.359-0.076-0.649-0.332-0.863-0.773c-0.214-0.443-0.432-1.144-0.646-2.1
		c-0.214-0.96-0.539-2.248-0.97-3.868c-1.582-5.159-2.667-8.474-3.247-9.946c-0.583-1.474-0.365-2.286,0.657-2.43
		c0.718,0,1.188-1.955,1.402-5.858c0.214-3.905,0.324-8.839,0.324-14.807c0-5.967-0.145-12.525-0.431-19.67
		c-0.29-7.149-0.577-13.924-0.864-20.333c-0.29-6.409-0.542-12.007-0.756-16.797c-0.214-4.786-0.321-7.846-0.321-9.172
		c0-1.619-0.038-2.503-0.111-2.652c-0.075-0.145-0.922-0.221-2.541-0.221H105.7c-4.568,0-9.248,0.076-14.034,0.221
		c-4.789,0.149-9.027,0.332-12.708,0.552c-3.685,0.222-5.601,0.629-5.746,1.216c-3.095,17.681-5.343,31.494-6.741,41.44
		c-1.402,9.945-2.469,17.311-3.205,22.1c-0.739,4.787-1.402,7.661-1.989,8.62c-0.59,0.957-1.623,1.361-3.094,1.215
		c-1.768-0.148-2.949-0.994-3.536-2.541c-0.591-1.547-0.884-3.425-0.884-5.635c0-2.21,0.183-4.532,0.552-6.962
		c0.366-2.432,0.626-4.532,0.774-6.299c0-0.884,0.255-2.729,0.773-5.526c0.515-2.8,1.105-6.078,1.769-9.835
		c0.663-3.756,1.36-7.697,2.099-11.824c0.736-4.123,1.399-7.918,1.989-11.382c0.587-3.46,1.326-7.476,2.21-12.045
		c0.145-1.177-0.96-1.913-3.315-2.21c-2.358-0.293-5.159-0.404-8.398-0.332c-3.243,0.077-6.41,0.26-9.504,0.553
		c-3.094,0.297-5.231,0.442-6.409,0.442c-3.978-0.145-7.221-0.183-9.725-0.11c-2.507,0.076-4.53,0.11-6.077,0.11
		c-1.547,0-2.763-0.11-3.647-0.331c-0.884-0.221-1.768-0.774-2.652-1.658c-1.326-1.326-1.806-2.504-1.437-3.536
		c0.367-1.029,1.216-1.841,2.542-2.431c1.326-0.587,2.873-0.919,4.641-0.995c1.769-0.072,3.46,0.259,5.083,0.995
		c0.294,0.149,1.51,0.221,3.647,0.221c2.134,0,4.642-0.034,7.515-0.111c2.873-0.072,5.967-0.145,9.282-0.221
		c3.315-0.072,6.371-0.182,9.172-0.331c2.797-0.145,6.04-0.294,9.724-0.442c0.736,0.148,1.25-0.294,1.547-1.326
		c0.884-4.123,2.134-9.835,3.757-17.128c1.62-7.294,3.609-15.582,5.968-24.864c2.355-9.283,4.972-19.152,7.846-29.616
		c2.873-10.46,5.967-20.92,9.282-31.383c3.315-10.46,6.741-20.588,10.277-30.389c3.536-9.797,7.145-18.676,10.83-26.632
		c0.735-1.471,1.799-2.465,3.187-2.983c1.388-0.515,2.766-0.774,4.133-0.774c1.368,0,2.625,0.076,3.779,0.221
		c1.15,0.149,1.871,0.076,2.161-0.221c1.913-2.355,3.24-4.31,3.978-5.857c0.736-1.547,1.437-2.724,2.1-3.536
		c0.663-0.808,1.547-1.36,2.652-1.658c1.105-0.293,2.984-0.365,5.636-0.22c0,0.883,0.663,1.768,1.989,2.651
		C144.819,13.243,145.482,14.127,145.482,15.011 M115.425,185.189c1.177,0,1.878-0.073,2.099-0.221
		c0.221-0.145,0.332-0.884,0.332-2.21c0-4.862,0.034-9.725,0.111-14.587c0.072-4.862,0.034-9.725-0.111-14.586
		c-0.297-7.515-0.186-15.727,0.331-24.644c0.515-8.912,1.178-17.863,1.989-26.852c0.809-8.985,1.769-17.754,2.874-26.3
		c1.104-8.544,2.172-16.245,3.204-23.096c1.029-6.851,1.951-12.598,2.763-17.239c0.808-4.641,1.436-7.549,1.879-8.73
		c-1.181,0.739-2.028,1.585-2.542,2.542c-0.518,0.96-0.995,1.954-1.437,2.984c-3.833,7.369-7.369,14.441-10.608,21.216
		c-3.243,6.779-6.299,13.669-9.172,20.665c-2.873,7-5.636,14.221-8.288,21.659c-2.652,7.442-5.27,15.547-7.846,24.311
		c-2.579,8.768-5.159,18.382-7.735,28.842c-2.58,10.464-5.27,22.101-8.067,34.92L115.425,185.189z"/>
	<path clip-path="url(#SVGID_2_)" fill="#3C3C3C" d="M189.241,218.783c-1.475-0.736-2.469-2.836-2.984-6.3
		c-0.517-3.46-0.811-7.437-0.884-11.934c-0.076-4.493-0.076-9.172,0-14.034c0.073-4.862,0.035-9.134-0.11-12.818
		c-0.149-3.682-0.591-6.372-1.326-8.067c-0.739-1.693-1.917-1.73-3.536-0.111c-1.917,1.917-4.016,4.752-6.299,8.509
		c-2.286,3.757-4.386,7.735-6.299,11.935c-1.916,4.199-3.574,8.325-4.973,12.376c-1.402,4.054-2.175,7.332-2.32,9.835
		c-0.304,2.949-1.057,5.27-2.259,6.962c-1.201,1.696-2.479,2.652-3.833,2.874c-1.354,0.22-2.552-0.367-3.605-1.769
		c-1.047-1.398-1.499-3.792-1.354-7.183c0-2.355,0.114-6.112,0.339-11.271c0.227-5.156,0.528-10.609,0.904-16.355
		c0.38-5.746,0.871-11.306,1.468-16.687c0.604-5.376,1.357-9.392,2.262-12.045c0.3-0.883,0.939-1.581,1.92-2.099
		c0.98-0.515,1.993-0.884,3.035-1.105c1.043-0.221,1.931-0.183,2.669,0.11c0.736,0.297,1.106,0.812,1.106,1.548
		c-0.297,5.601-0.922,10.978-1.879,16.133c-0.96,5.16-1.585,11.127-1.878,17.902c0-0.294,0.773-1.913,2.32-4.862
		c1.547-2.946,3.388-6.223,5.525-9.835c2.135-3.609,4.383-7.183,6.741-10.719c2.355-3.536,4.42-6.113,6.188-7.736
		c1.327-1.177,3.24-1.508,5.747-0.994c2.503,0.518,4.344,1.364,5.525,2.542c1.326,1.474,2.245,3.978,2.763,7.514
		c0.514,3.536,0.773,7.48,0.773,11.824c0,4.348-0.038,8.879-0.11,13.592c-0.076,4.717,0,9.1,0.221,13.15
		c0.221,4.055,0.697,7.404,1.436,10.056c0.736,2.652,2.062,4.126,3.978,4.42c0.885,0,1.178,0.443,0.885,1.327
		c-0.298,0.883-1.033,1.767-2.211,2.652c-1.181,0.884-2.652,1.513-4.42,1.878C192.998,220.368,191.154,219.964,189.241,218.783"/>
	<path clip-path="url(#SVGID_2_)" fill="#3C3C3C" d="M250.46,218.783c-1.475-0.736-2.469-2.836-2.984-6.3
		c-0.517-3.46-0.811-7.437-0.884-11.934c-0.076-4.493-0.076-9.172,0-14.034c0.073-4.862,0.035-9.134-0.11-12.818
		c-0.149-3.682-0.591-6.372-1.326-8.067c-0.739-1.693-1.917-1.73-3.536-0.111c-1.917,1.917-4.016,4.752-6.299,8.509
		c-2.286,3.757-4.386,7.735-6.299,11.935c-1.916,4.199-3.574,8.325-4.973,12.376c-1.402,4.054-2.175,7.332-2.32,9.835
		c-0.304,2.949-1.057,5.27-2.259,6.962c-1.201,1.696-2.479,2.652-3.833,2.874c-1.354,0.22-2.552-0.367-3.605-1.769
		c-1.047-1.398-1.499-3.792-1.354-7.183c0-2.355,0.114-6.112,0.339-11.271c0.227-5.156,0.528-10.609,0.904-16.355
		c0.38-5.746,0.871-11.306,1.468-16.687c0.604-5.376,1.357-9.392,2.262-12.045c0.3-0.883,0.939-1.581,1.92-2.099
		c0.98-0.515,1.993-0.884,3.035-1.105c1.043-0.221,1.931-0.183,2.669,0.11c0.736,0.297,1.106,0.812,1.106,1.548
		c-0.297,5.601-0.922,10.978-1.879,16.133c-0.96,5.16-1.585,11.127-1.878,17.902c0-0.294,0.773-1.913,2.32-4.862
		c1.547-2.946,3.388-6.223,5.525-9.835c2.135-3.609,4.383-7.183,6.741-10.719c2.355-3.536,4.42-6.113,6.188-7.736
		c1.327-1.177,3.24-1.508,5.747-0.994c2.503,0.518,4.344,1.364,5.525,2.542c1.326,1.474,2.245,3.978,2.763,7.514
		c0.514,3.536,0.773,7.48,0.773,11.824c0,4.348-0.038,8.879-0.11,13.592c-0.076,4.717,0,9.1,0.221,13.15
		c0.221,4.055,0.697,7.404,1.436,10.056c0.736,2.652,2.062,4.126,3.978,4.42c0.885,0,1.178,0.443,0.885,1.327
		c-0.298,0.883-1.033,1.767-2.211,2.652c-1.181,0.884-2.652,1.513-4.42,1.878C254.216,220.368,252.372,219.964,250.46,218.783"/>
	<path clip-path="url(#SVGID_2_)" fill="#3C3C3C" d="M346.597,160.657c-0.297,0.884-0.994,3.06-2.1,6.52
		c-1.105,3.464-2.468,7.625-4.088,12.487c-1.623,4.862-3.353,10.022-5.194,15.471c-1.844,5.452-3.612,10.536-5.304,15.249
		c-1.696,4.718-3.205,8.768-4.531,12.156c-1.326,3.392-2.21,5.377-2.652,5.968c-1.326,1.767-2.873,2.945-4.641,3.536
		c-1.768,0.587-3.464,0.697-5.083,0.331c-1.623-0.369-3.171-1.143-4.642-2.32c-1.474-1.182-2.652-2.58-3.536-4.2
		c-2.065-3.387-3.723-7.294-4.973-11.713c-1.253-4.42-1.954-9.725-2.099-15.913c0-1.178-0.149-1.62-0.442-1.326
		c-0.297,0.297-0.59,0.739-0.884,1.326c-4.569,12.673-10.021,19.746-16.355,21.217c-3.833,0.884-6.851,0.407-9.061-1.436
		c-2.21-1.841-3.792-4.604-4.752-8.288c-0.957-3.682-1.326-7.992-1.105-12.93c0.221-4.935,0.922-9.98,2.099-15.139
		c1.181-5.155,2.801-10.166,4.863-15.029c2.064-4.862,4.42-9.061,7.072-12.597c2.652-3.536,5.598-6.151,8.841-7.846
		c3.238-1.692,6.554-1.951,9.945-0.774c1.178,0.443,1.989,1.033,2.431,1.768c0.442,0.74,0.808,1.475,1.105,2.211
		c0.294,0.738,0.735,1.363,1.326,1.878c0.587,0.518,1.62,0.774,3.094,0.774c0.884,0.59,1.471,2.579,1.769,5.967
		c0.293,3.391,0.514,7.514,0.662,12.376c0.145,4.863,0.256,10.133,0.332,15.803c0.072,5.673,0.331,11.088,0.774,16.244
		c0.442,5.159,1.139,9.652,2.099,13.482c0.957,3.833,2.393,6.409,4.31,7.735c0.145,0.149,0.808-1.326,1.989-4.42
		c1.177-3.094,2.614-7.035,4.31-11.825c1.692-4.785,3.498-9.944,5.414-15.47c1.913-5.525,3.719-10.719,5.415-15.581
		c1.692-4.862,3.094-8.951,4.199-12.266c1.105-3.315,1.658-5.045,1.658-5.194c0.293-1.029,0.884-1.73,1.768-2.099
		c0.884-0.367,1.802-0.443,2.762-0.222c0.957,0.222,1.768,0.701,2.432,1.437C346.487,158.744,346.742,159.628,346.597,160.657
		 M279.41,212.373c1.178,0,2.763-1.581,4.752-4.751c1.989-3.167,3.94-7.145,5.856-11.935c1.913-4.786,3.682-10.018,5.305-15.691
		c1.619-5.671,2.652-10.94,3.094-15.803c0.884-7.659-0.739-11.492-4.862-11.492c-1.917,0-3.944,1.474-6.078,4.42
		c-2.138,2.949-4.127,6.596-5.967,10.94c-1.845,4.348-3.426,9.099-4.752,14.255c-1.326,5.16-2.172,9.946-2.542,14.366
		c-0.366,4.42-0.183,8.142,0.553,11.161C275.504,210.864,277.052,212.373,279.41,212.373"/>
	<path clip-path="url(#SVGID_2_)" fill="#3C3C3C" d="M439.641,215.91c0,3.094,0.11,7.552,0.33,13.371
		c0.221,5.818,0.588,11.897,1.106,18.233c0.515,6.333,1.289,12.487,2.32,18.455c1.029,5.966,2.432,10.642,4.199,14.034
		c0.295,0.441,0.698,0.956,1.217,1.547c0.514,0.587,0.11,1.692-1.217,3.315c-0.148,0.145-0.701,0.331-1.656,0.553
		c-0.961,0.22-2.027,0.22-3.205,0c-1.182-0.222-2.32-0.775-3.426-1.658c-1.105-0.884-1.879-2.431-2.32-4.641
		c-0.592-2.652-1.182-6.631-1.77-11.935c-0.589-5.304-1.142-10.646-1.656-16.023c-0.517-5.381-0.922-10.094-1.217-14.145
		c-0.296-4.054-0.441-6.154-0.441-6.298c-0.59-8.544-0.959-15.396-1.105-20.555c-0.149-5.155-0.297-9.206-0.442-12.155
		c-0.148-2.946-0.408-5.118-0.773-6.52c-0.369-1.399-1.071-2.614-2.1-3.647c-1.033-1.029-2.432-2.134-4.199-3.315
		c-1.768-1.178-4.199-3.094-7.293-5.746c-2.211-2.062-2.432-4.272-0.664-6.631c3.24-4.271,5.82-7.586,7.736-9.945
		c1.912-2.355,3.35-4.272,4.309-5.746c0.957-1.471,1.621-2.687,1.99-3.647c0.365-0.957,0.553-2.172,0.553-3.647
		c0.586-16.648,1.547-32.523,2.873-47.628c1.326-15.101,2.685-28.62,4.088-40.555c1.398-11.934,2.652-21.914,3.757-29.947
		c1.106-8.029,1.657-13.371,1.657-16.023c0.146-2.355,0.884-4.013,2.211-4.973c1.326-0.956,2.763-1.36,4.31-1.215
		c1.547,0.148,2.906,0.884,4.088,2.21c1.178,1.326,1.619,3.17,1.326,5.525c-1.033,7.956-2.248,17.425-3.646,28.4
		c-1.403,10.978-2.729,22.177-3.979,33.594c-1.254,11.419-2.359,22.432-3.314,33.041c-0.961,10.608-1.514,19.448-1.658,26.521
		c7.957-11.196,15.101-21.511,21.437-30.942c6.334-9.427,12.633-18.416,18.897-26.963c6.261-8.543,12.781-16.907,19.56-25.085
		c6.776-8.177,14.586-16.686,23.426-25.527c1.473-1.47,3.205-2.465,5.195-2.983c1.989-0.515,3.647-0.515,4.973,0
		c1.326,0.518,2.099,1.475,2.32,2.873c0.221,1.402-0.773,3.281-2.984,5.636c-6.779,7.072-13.813,14.807-21.106,23.206
		c-7.295,8.398-14.404,16.907-21.328,25.527c-6.928,8.619-13.519,17.093-19.781,25.416c-6.264,8.326-11.75,15.802-16.465,22.432
		c-4.717,6.631-8.435,12.232-11.16,16.797c-2.729,4.569-4.09,7.369-4.09,8.399c0,6.63-0.109,11.972-0.332,16.023
		c-0.221,4.054-0.369,7.259-0.441,9.614c-0.076,2.358-0.076,4.054,0,5.083c0.072,1.033,0.476,1.844,1.216,2.431
		c4.862,4.862,9.061,8.989,12.598,12.377c3.535,3.391,6.774,6.409,9.723,9.061c2.947,2.652,5.781,5.159,8.51,7.515
		c2.724,2.358,5.669,4.79,8.839,7.293c3.168,2.504,6.776,5.377,10.83,8.62c4.051,3.239,8.952,7.072,14.698,11.492
		c0.885,0.587,1.326,1.398,1.326,2.431c0,1.029-0.26,1.989-0.774,2.874c-0.517,0.883-1.214,1.547-2.099,1.988
		c-0.885,0.442-1.768,0.366-2.652-0.221c-1.327-0.884-3.282-2.248-5.858-4.089c-2.578-1.843-5.562-4.053-8.951-6.63
		c-3.391-2.58-6.998-5.491-10.828-8.73c-3.834-3.242-7.592-6.706-11.272-10.387c-6.631-6.482-11.679-11.638-15.14-15.471
		c-3.463-3.829-5.967-6.15-7.514-6.962c-1.547-0.808-2.396-0.034-2.541,2.321C439.714,205.891,439.641,210.018,439.641,215.91
		 M429.696,166.845c-0.74,0.442-1.437,1.105-2.1,1.989c-0.664,0.885-1.216,1.696-1.658,2.431c-0.441,0.739-0.592,1.658-0.441,2.763
		c0.144,1.105,0.441,2.175,0.883,3.205c0.441,1.032,0.957,1.916,1.546,2.652c0.588,0.739,1.106,1.105,1.547,1.105L429.696,166.845z"
		/>
	<path clip-path="url(#SVGID_2_)" fill="#3C3C3C" d="M534.895,199.333c-2.949,5.895-6.779,10.094-11.493,12.598
		c-4.717,2.507-9.137,2.983-13.261,1.437c-4.126-1.547-7.327-5.195-9.613-10.94c-2.283-5.747-2.542-13.996-0.773-24.754
		c0.297-1.029,0.517-2.099,0.663-3.204c0.148-1.105-0.294-2.172-1.326-3.205c-0.588-0.587-1.03-1.215-1.327-1.878
		c-0.294-0.663-0.294-1.548,0-2.653c0.297-1.105,0.922-2.541,1.878-4.309c0.96-1.768,2.47-4.051,4.532-6.852
		c1.619-2.355,3.68-4.161,6.188-5.414c2.503-1.25,5.083-1.952,7.735-2.1c2.653-0.145,5.266,0.259,7.846,1.215
		c2.576,0.96,4.824,2.397,6.74,4.31c1.178,1.181,2.615,3.022,4.311,5.525c1.691,2.508,2.945,5.636,3.757,9.393
		c0.807,3.758,0.883,8.216,0.22,13.371C540.309,187.033,538.283,192.851,534.895,199.333 M517.656,203.974
		c2.21-0.441,4.455-1.913,6.741-4.419c2.282-2.504,4.089-5.671,5.414-9.504c1.326-3.83,1.879-8.101,1.658-12.819
		c-0.221-4.714-1.733-9.427-4.531-14.144c-0.884-1.326-1.954-2.211-3.204-2.653c-1.254-0.441-2.69-0.663-4.309-0.663
		c-1.769,0-3.426,1.181-4.973,3.536c-1.548,2.359-2.839,5.27-3.868,8.73c-1.032,3.464-1.769,7.184-2.21,11.162
		c-0.443,3.978-0.443,7.625,0,10.94c0.441,3.315,1.398,5.932,2.873,7.845C512.718,203.902,514.855,204.565,517.656,203.974"/>
	<path clip-path="url(#SVGID_2_)" fill="#3C3C3C" d="M614.458,163.972c-2.651,6.927-5.711,14.034-9.172,21.328
		c-3.463,7.293-7.072,13.961-10.829,20.001c-3.757,6.044-7.591,11.05-11.492,15.029c-3.906,3.978-7.625,6.043-11.161,6.188
		c-1.034,0-2.322-0.11-3.868-0.332c-1.547-0.22-3.243-0.918-5.083-2.099c-1.844-1.178-3.723-2.984-5.636-5.414
		c-1.913-2.432-3.609-5.858-5.083-10.278c-2.062-5.891-2.985-12.007-2.763-18.344c0.221-6.333,1.216-12.338,2.983-18.012
		c1.769-5.671,4.017-10.754,6.742-15.25c2.724-4.492,5.524-7.88,8.398-10.166c2.873-2.283,5.636-3.205,8.287-2.763
		c2.653,0.442,4.714,2.728,6.189,6.851c0.735,2.211,1.139,4.531,1.216,6.962c0.072,2.431-0.111,4.641-0.553,6.631
		c-0.442,1.989-1.181,3.536-2.21,4.641c-1.032,1.105-2.286,1.436-3.757,0.994c-1.623-0.442-2.508-1.509-2.652-3.204
		c-0.149-1.692-0.111-3.46,0.11-5.305c0.221-1.84,0.294-3.46,0.221-4.862c-0.075-1.398-0.774-1.951-2.1-1.658
		c-6.043,6.044-9.762,12.968-11.161,20.776c-1.401,7.811-1.733,15.767-0.994,23.869c0.294,2.949,0.884,5.635,1.768,8.067
		c0.884,2.431,1.913,4.496,3.094,6.188c1.178,1.696,2.394,2.873,3.647,3.537c1.25,0.663,2.32,0.773,3.205,0.331
		c3.68-2.062,7.365-5.526,11.05-10.388c3.681-4.862,7.107-10.166,10.277-15.913c3.167-5.746,6.002-11.416,8.509-17.017
		c2.504-5.598,4.421-10.312,5.746-14.145c0.145-0.442,0.663-0.846,1.548-1.216c0.883-0.366,1.767-0.442,2.651-0.221
		c0.885,0.221,1.658,0.701,2.321,1.437C614.569,160.954,614.752,162.204,614.458,163.972"/>
	<path clip-path="url(#SVGID_2_)" fill="#3C3C3C" d="M611.142,64.959c0.884-3.239,2.393-5.376,4.53-6.409
		c2.134-1.029,3.72,0,4.752,3.094c-0.148,1.475-0.332,5.048-0.553,10.719c-0.22,5.674-0.479,12.342-0.773,20.001
		c-0.297,7.663-0.591,15.841-0.884,24.533c-0.297,8.695-0.552,16.796-0.773,24.311c-0.222,7.514-0.481,13.923-0.774,19.228
		c-0.297,5.304-0.518,8.474-0.663,9.503c0,1.033,0.145,1.547,0.442,1.547c0.587-0.884,1.692-2.244,3.315-4.089
		c1.619-1.84,3.46-3.757,5.526-5.746c2.061-1.989,4.271-3.902,6.629-5.746c2.356-1.841,4.566-3.205,6.631-4.089
		c2.21-0.884,3.791-0.956,4.751-0.221c0.957,0.739,1.472,1.768,1.548,3.094c0.072,1.327-0.148,2.763-0.663,4.31
		c-0.519,1.547-1.216,2.763-2.1,3.647c-1.181,1.326-2.542,2.728-4.088,4.199c-1.547,1.474-3.17,2.911-4.863,4.31
		c-1.695,1.402-3.391,2.8-5.083,4.199c-1.696,1.402-3.133,2.617-4.309,3.647c0,1.181,0.182,3.204,0.551,6.077
		c0.367,2.874,1.03,5.822,1.99,8.84c0.957,3.022,2.283,5.674,3.978,7.957c1.693,2.286,4.013,3.425,6.962,3.425
		c1.619,0,3.757-1.288,6.409-3.867c2.653-2.576,5.304-5.857,7.956-9.835c2.653-3.978,5.084-8.433,7.294-13.371
		c2.21-4.935,3.681-9.759,4.42-14.476c0.443-2.504,1.14-4.199,2.1-5.084c0.956-0.883,1.879-1.177,2.763-0.883
		c0.883,0.297,1.546,1.105,1.989,2.43c0.441,1.327,0.366,2.95-0.222,4.863c-4.862,15.47-9.873,27.073-15.028,34.809
		c-5.159,7.736-10.094,12.342-14.808,13.814c-4.718,1.473-8.989,0.22-12.818-3.758c-3.833-3.979-6.78-9.945-8.841-17.902
		c-0.591-2.355-1.07-2.431-1.437-0.221c-0.369,2.21-0.628,5.305-0.773,9.283c-0.148,3.978-0.221,8.215-0.221,12.708
		c0,4.496,0.145,7.922,0.442,10.276v0.664c0,1.181-0.408,2.32-1.216,3.425c-0.812,1.106-1.734,1.658-2.762,1.658
		c-1.326,0.145-2.58-0.221-3.758-1.105c-1.18-0.884-1.767-2.061-1.767-3.536c-0.146-1.178-0.222-2.394-0.222-3.647
		c0-1.25,0.149-2.542,0.442-3.868c0.146-0.884,0.221-2.099,0.221-3.646c0-1.548-0.038-3.167-0.11-4.863
		c-0.076-1.692-0.111-3.315-0.111-4.862v-3.646c0.294-5.747,0.405-11.493,0.332-17.239c-0.076-5.747-0.111-11.493-0.111-17.239
		L611.142,64.959z"/>
	<path clip-path="url(#SVGID_2_)" fill="#3C3C3C" d="M227.804,313.253c-0.582,0.389-1.018,0.632-1.309,0.728
		c-0.291,0.291-0.632,0.486-1.019,0.582c0,0.097-0.098,0.145-0.291,0.145l-0.727,0.436c-1.359,0.778-2.814,1.528-4.364,2.255
		c-1.553,0.727-2.96,1.335-4.219,1.819c1.164,1.358,2.011,2.644,2.545,3.855c0.533,1.213,0.655,2.4,0.364,3.564
		c-0.291,1.359-1.214,2.353-2.764,2.982c-1.552,0.632-3.323,0.971-5.31,1.019c-1.989,0.05-4-0.169-6.037-0.655
		c-2.037-0.485-3.71-1.114-5.019-1.891c-1.309-0.775-2.062-1.648-2.255-2.619c-0.195-0.968,0.582-1.986,2.328-3.055
		c0.968-0.677,2.35-1.382,4.146-2.109c1.794-0.728,3.71-1.527,5.746-2.4c-1.843-1.649-3.76-3.322-5.746-5.02
		c-1.989-1.695-3.662-3.514-5.019-5.455c-1.553-2.036-2.352-3.976-2.4-5.819c-0.051-1.841,0.436-3.394,1.454-4.656
		c1.019-1.258,2.473-2.204,4.365-2.836c1.891-0.63,4.096-0.8,6.619-0.509c1.259,0.388,1.768,1.116,1.527,2.182
		c-0.243,1.069-0.995,1.505-2.254,1.309c-3.396-0.484-5.747,0.145-7.056,1.891c-1.31,1.747-0.753,4.123,1.673,7.128
		c1.357,1.651,2.932,3.324,4.728,5.02c1.793,1.698,3.659,3.419,5.601,5.164c2.423-1.066,4.823-2.132,7.201-3.2
		c2.375-1.067,4.582-2.278,6.619-3.637c1.164-0.873,2.23-1.866,3.2-2.982c0.969-1.115,1.794-2.351,2.474-3.71
		c0.582-0.968,1.259-1.357,2.036-1.164c0.776,0.196,1.164,0.873,1.164,2.037c-0.582,1.746-1.6,3.443-3.055,5.091
		C231.295,310.393,229.645,311.896,227.804,313.253 M215.002,326.055c0.484-0.678,0.338-1.527-0.437-2.546
		c-0.777-1.018-1.504-1.914-2.182-2.691c-5.432,1.746-8.971,3.105-10.619,4.073c0.193,0.486,0.895,0.923,2.109,1.31
		c1.212,0.388,2.546,0.679,4.001,0.873c1.454,0.195,2.859,0.243,4.218,0.145c1.357-0.096,2.278-0.484,2.764-1.164H215.002z"/>
	<path clip-path="url(#SVGID_2_)" fill="#3C3C3C" d="M238.859,323.436c0,0.291,0.047,0.487,0.145,0.582
		c0.193,0.487,0.459,0.946,0.8,1.382c0.339,0.437,0.605,0.8,0.8,1.091c0.291,0.195,0.678,0.291,1.164,0.291
		c0.969,0.486,2.23,0.05,3.783-1.309c1.55-1.357,3.054-2.983,4.509-4.874c1.455-1.891,2.765-3.805,3.928-5.746
		c1.164-1.939,1.939-3.296,2.328-4.074c0.677-1.356,1.332-2.738,1.964-4.145c0.63-1.406,1.138-2.692,1.527-3.856
		c0.678-1.259,1.405-1.745,2.183-1.455c0.775,0.291,1.163,1.068,1.163,2.328c-0.486,1.942-1.334,4.171-2.546,6.693
		c-1.214,2.522-2.643,5.09-4.291,7.71c-0.582,0.873-1.48,2.109-2.692,3.71c-1.213,1.599-2.57,3.152-4.073,4.655
		c-1.505,1.504-3.08,2.716-4.728,3.637c-1.65,0.922-3.201,1.186-4.655,0.799c-0.582-0.193-1.262-0.702-2.037-1.527
		c-0.777-0.823-1.359-1.673-1.745-2.546c-1.36-2.229-2.451-5.164-3.274-8.802c-0.825-3.636-1.454-7.346-1.891-11.129
		c-0.436-3.782-0.727-7.295-0.873-10.546c-0.145-3.248-0.218-5.697-0.218-7.347c0-4.364,0.145-8.558,0.436-12.584
		c0.291-4.023,0.848-7.66,1.674-10.91c0.822-3.248,1.913-6.013,3.273-8.292c1.357-2.279,3.103-3.856,5.237-4.729
		c2.23-0.968,4.339-0.604,6.328,1.091c1.987,1.698,3.128,4.244,3.419,7.638c0.386,2.91,0.073,6.379-0.946,10.401
		c-1.018,4.026-2.377,8.124-4.073,12.293c-1.698,4.171-3.517,8.22-5.456,12.148c-1.941,3.927-3.636,7.298-5.091,10.11
		c0.291,3.687,0.775,7.033,1.455,10.038c0.677,3.008,1.454,5.48,2.327,7.42L238.859,323.436z M234.349,299.578
		c1.455-3.005,3.127-6.521,5.019-10.547c1.891-4.023,3.539-8.024,4.946-12.002c1.405-3.975,2.327-7.66,2.764-11.056
		c0.437-3.394-0.025-6.06-1.382-8.001c-1.164-1.649-2.618-2.038-4.364-1.165c-1.746,0.874-3.298,3.201-4.655,6.984
		c-1.164,3.686-1.917,7.419-2.255,11.201c-0.342,3.782-0.462,7.518-0.364,11.202L234.349,299.578z"/>
	<path clip-path="url(#SVGID_2_)" fill="#3C3C3C" d="M287.883,318.053c-1.069,1.651-2.401,3.298-4.001,4.946
		c-1.6,1.651-3.396,3.128-5.383,4.437c-1.988,1.31-4.098,2.28-6.328,2.91c-2.232,0.632-4.51,0.654-6.837,0.072
		c-1.651-0.386-3.008-1.381-4.073-2.982c-1.069-1.6-1.869-3.564-2.401-5.892c-0.534-2.327-0.825-4.848-0.873-7.564
		c-0.05-2.714,0.169-5.333,0.655-7.857c0.582-3.393,1.477-6.037,2.691-7.927c1.212-1.892,2.521-3.151,3.928-3.783
		c1.405-0.629,2.764-0.727,4.073-0.291c1.31,0.436,2.376,1.309,3.201,2.619c0.823,1.309,1.259,2.982,1.309,5.018
		c0.048,2.037-0.461,4.318-1.527,6.838c-1.069,2.327-2.546,4.582-4.437,6.765c-1.891,2.181-3.71,3.807-5.456,4.873
		c0.387,1.65,0.921,3.032,1.601,4.146c0.677,1.116,1.55,1.868,2.618,2.255c2.037,0.68,4.146,0.56,6.328-0.363
		c2.183-0.921,4.242-2.255,6.183-4.001c1.939-1.746,3.66-3.66,5.165-5.746c1.502-2.085,2.691-4.001,3.564-5.747
		c0.677-1.357,1.332-2.739,1.963-4.146c0.63-1.405,1.14-2.691,1.528-3.855c0.678-1.259,1.405-1.745,2.182-1.455
		c0.775,0.291,1.164,1.068,1.164,2.328c-0.486,1.941-1.334,4.171-2.546,6.692C290.96,312.866,289.531,315.434,287.883,318.053
		 M269.116,307.142c0.969-2.132,1.31-4.121,1.019-5.964c-0.291-1.842-0.873-3.03-1.746-3.564c-0.873-0.533-1.891-0.168-3.055,1.09
		c-1.164,1.262-2.087,3.833-2.764,7.71c-0.291,1.651-0.51,3.299-0.655,4.947c-0.145,1.65-0.123,3.299,0.073,4.946
		c1.164-0.968,2.423-2.255,3.782-3.854C267.127,310.852,268.243,309.083,269.116,307.142"/>
	<path clip-path="url(#SVGID_2_)" fill="#3C3C3C" d="M319.451,318.053c-1.069,1.651-2.401,3.298-4.001,4.946
		c-1.6,1.651-3.396,3.128-5.383,4.437c-1.988,1.31-4.098,2.28-6.328,2.91c-2.232,0.632-4.51,0.654-6.837,0.072
		c-1.651-0.386-3.008-1.381-4.073-2.982c-1.069-1.6-1.869-3.564-2.401-5.892c-0.534-2.327-0.825-4.848-0.873-7.564
		c-0.05-2.714,0.169-5.333,0.655-7.857c0.582-3.393,1.477-6.037,2.691-7.927c1.212-1.892,2.521-3.151,3.928-3.783
		c1.405-0.629,2.764-0.727,4.073-0.291c1.31,0.436,2.376,1.309,3.201,2.619c0.823,1.309,1.259,2.982,1.309,5.018
		c0.048,2.037-0.461,4.318-1.527,6.838c-1.069,2.327-2.546,4.582-4.437,6.765c-1.891,2.181-3.71,3.807-5.456,4.873
		c0.387,1.65,0.921,3.032,1.601,4.146c0.677,1.116,1.55,1.868,2.618,2.255c2.037,0.68,4.146,0.56,6.328-0.363
		c2.183-0.921,4.242-2.255,6.183-4.001c1.939-1.746,3.66-3.66,5.165-5.746c1.502-2.085,2.691-4.001,3.564-5.747
		c0.677-1.357,1.332-2.739,1.963-4.146c0.63-1.405,1.14-2.691,1.528-3.855c0.678-1.259,1.405-1.745,2.182-1.455
		c0.775,0.291,1.164,1.068,1.164,2.328c-0.486,1.941-1.334,4.171-2.546,6.692C322.528,312.866,321.099,315.434,319.451,318.053
		 M300.684,307.142c0.969-2.132,1.31-4.121,1.019-5.964c-0.291-1.842-0.873-3.03-1.746-3.564c-0.873-0.533-1.891-0.168-3.055,1.09
		c-1.164,1.262-2.087,3.833-2.764,7.71c-0.291,1.651-0.51,3.299-0.655,4.947c-0.145,1.65-0.123,3.299,0.073,4.946
		c1.164-0.968,2.423-2.255,3.782-3.854C298.695,310.852,299.811,309.083,300.684,307.142"/>
	<path clip-path="url(#SVGID_2_)" fill="#3C3C3C" d="M322.069,294.195c0.193-1.164,0.775-1.746,1.745-1.746
		c0.969,0,1.551,0.534,1.746,1.601c0.291,4.655,0.823,9.238,1.601,13.748c0.774,4.509,1.55,9.091,2.327,13.747
		c1.648-4.849,3.564-9.165,5.746-12.948c2.182-3.782,4.533-6.012,7.056-6.692c1.648-0.386,3.102,0.025,4.364,1.237
		c1.259,1.214,2.278,2.764,3.055,4.656c0.775,1.89,1.332,3.904,1.673,6.037c0.339,2.133,0.459,3.927,0.364,5.383
		c1.55-1.649,2.739-3.274,3.564-4.874c0.823-1.601,1.43-2.788,1.819-3.565c0.677-1.356,1.357-2.738,2.036-4.145
		c0.678-1.406,1.164-2.692,1.455-3.856c0.677-1.259,1.405-1.745,2.182-1.455c0.776,0.291,1.164,1.068,1.164,2.328
		c-0.487,1.942-1.359,4.123-2.618,6.547c-1.262,2.425-2.669,5.044-4.219,7.855c-1.262,2.233-2.837,4.099-4.728,5.601
		c-1.892,1.505-3.953,2.644-6.183,3.419c-1.746,0.777-3.637,1.236-5.674,1.382c-2.036,0.145-4.026,0.123-5.964-0.072
		c-0.68-0.096-1.287-0.194-1.819-0.291c-0.534-0.096-1.043-0.242-1.527-0.437c-0.098,0.195-0.196,0.363-0.291,0.509
		c-0.098,0.145-0.146,0.316-0.146,0.51c0.678,3.684,1.284,7.419,1.819,11.201c0.532,3.782,0.993,7.564,1.382,11.347
		c0.095,0.775,0.241,2.158,0.436,4.146c0.193,1.987,0.291,4.097,0.291,6.328s-0.195,4.292-0.582,6.183
		c-0.388,1.891-1.068,3.03-2.037,3.419c-1.454,0.582-2.691,0.168-3.709-1.237c-1.018-1.407-1.869-3.273-2.546-5.6
		c-0.68-2.328-1.188-4.779-1.527-7.347c-0.341-2.571-0.51-4.681-0.51-6.328c-0.097-1.942,0.146-4.924,0.728-8.947
		c0.582-4.026,1.502-8.27,2.764-12.73c-1.068-5.818-2.087-11.565-3.055-17.238C323.28,306.197,322.553,300.305,322.069,294.195
		 M330.506,351.368c-0.195-2.233-0.436-4.51-0.727-6.838c-0.291-2.327-0.632-4.607-1.018-6.837
		c-0.971,5.623-1.36,11.056-1.164,16.293c0.193,5.237,1.259,9.456,3.2,12.656c0.194-1.068,0.291-2.4,0.291-4
		c0-1.6-0.05-3.201-0.145-4.8c-0.098-1.601-0.196-3.008-0.291-4.219C330.554,352.409,330.506,351.658,330.506,351.368
		 M334.434,318.781c-0.486,0.872-0.897,1.745-1.236,2.618c-0.341,0.873-0.705,1.796-1.092,2.764
		c0.485,0.196,0.969,0.342,1.455,0.436c0.484,0.098,0.969,0.197,1.455,0.291c4.655,0.873,8.049,0.487,10.184-1.163
		c2.131-1.648,3.102-4.8,2.909-9.456c0-0.386-0.145-1.092-0.436-2.109c-0.291-1.019-0.655-2.06-1.092-3.128
		c-0.436-1.066-0.97-1.987-1.6-2.765c-0.631-0.774-1.236-1.065-1.818-0.872c-1.068,0.291-2.062,1.018-2.982,2.182
		c-0.923,1.164-1.746,2.473-2.474,3.928c-0.727,1.455-1.381,2.886-1.963,4.292C335.162,317.206,334.725,318.199,334.434,318.781"/>
	<path clip-path="url(#SVGID_2_)" fill="#3C3C3C" d="M358.145,297.104c0-1.065,0.459-1.768,1.382-2.109
		c0.92-0.338,1.623-0.023,2.109,0.946c1.164,2.036,2.06,4.341,2.692,6.91c0.629,2.57,1.113,5.19,1.454,7.856
		c0.339,2.668,0.605,5.309,0.801,7.928c0.193,2.618,0.436,4.947,0.727,6.983c0.095-0.194,0.363-0.946,0.8-2.255
		c0.436-1.31,0.968-2.885,1.601-4.728c0.629-1.842,1.309-3.805,2.036-5.892c0.728-2.084,1.527-4,2.4-5.746
		c0.873-1.746,1.721-3.223,2.546-4.437c0.824-1.212,1.673-1.866,2.546-1.964c0.968,0,2.012,0.607,3.128,1.819
		c1.113,1.213,2.182,2.741,3.2,4.582c1.019,1.843,2.037,3.88,3.055,6.11c1.019,2.232,1.987,4.291,2.91,6.183
		c0.92,1.891,1.769,3.491,2.546,4.8c0.775,1.31,1.454,2.014,2.036,2.11c0.096-3.685,0.364-7.638,0.801-11.857
		c0.436-4.218,1.091-8.46,1.964-12.729c0.872-4.267,2.012-8.46,3.418-12.583c1.405-4.121,3.078-7.929,5.019-11.42
		c0.776-0.969,1.576-1.332,2.401-1.092c0.822,0.243,1.186,0.898,1.091,1.964c-1.844,3.201-3.565,6.961-5.164,11.274
		c-1.601,4.318-2.79,8.657-3.565,13.021c-0.68,3.491-1.142,6.764-1.382,9.82c-0.243,3.055-0.462,5.771-0.655,8.147
		c-0.195,2.377-0.413,4.388-0.654,6.037c-0.243,1.65-0.655,2.814-1.237,3.491c-0.195,0.389-0.486,0.607-0.873,0.655
		c-0.388,0.05-0.825,0.072-1.309,0.072c-1.36-0.484-2.618-1.477-3.782-2.982c-1.165-1.502-2.233-3.2-3.201-5.092
		c-0.97-1.89-1.916-3.878-2.837-5.964c-0.922-2.085-1.77-4.023-2.546-5.819c-0.777-1.794-1.504-3.296-2.182-4.51
		c-0.68-1.212-1.359-1.866-2.036-1.964c-0.68,0-1.455,1.019-2.328,3.055c-0.872,2.037-1.745,4.364-2.619,6.984
		c-0.873,2.618-1.746,5.261-2.618,7.927c-0.873,2.669-1.6,4.681-2.182,6.038c-0.582,1.359-1.335,2.182-2.255,2.473
		c-0.924,0.291-1.771-0.098-2.546-1.164c-0.582-0.774-0.971-2.473-1.164-5.092c-0.195-2.618-0.462-5.6-0.8-8.946
		c-0.341-3.346-0.851-6.74-1.528-10.184C360.666,302.319,359.6,299.432,358.145,297.104"/>
	<path clip-path="url(#SVGID_2_)" fill="#3C3C3C" d="M438.158,318.053c-1.069,1.651-2.401,3.298-4.002,4.946
		c-1.6,1.651-3.395,3.128-5.381,4.437c-1.99,1.31-4.1,2.28-6.328,2.91c-2.233,0.632-4.51,0.654-6.838,0.072
		c-1.651-0.386-3.008-1.381-4.074-2.982c-1.069-1.6-1.869-3.564-2.401-5.892c-0.534-2.327-0.825-4.848-0.873-7.564
		c-0.05-2.714,0.169-5.333,0.655-7.857c0.582-3.393,1.478-6.037,2.692-7.927c1.211-1.892,2.52-3.151,3.928-3.783
		c1.405-0.629,2.764-0.727,4.073-0.291c1.308,0.436,2.375,1.309,3.201,2.619c0.822,1.309,1.258,2.982,1.309,5.018
		c0.048,2.037-0.461,4.318-1.528,6.838c-1.068,2.327-2.545,4.582-4.437,6.765c-1.891,2.181-3.709,3.807-5.455,4.873
		c0.386,1.65,0.92,3.032,1.599,4.146c0.678,1.116,1.551,1.868,2.619,2.255c2.037,0.68,4.147,0.56,6.328-0.363
		c2.182-0.921,4.243-2.255,6.184-4.001c1.938-1.746,3.66-3.66,5.164-5.746c1.502-2.085,2.692-4.001,3.565-5.747
		c0.677-1.357,1.332-2.739,1.962-4.146c0.631-1.405,1.139-2.691,1.528-3.855c0.678-1.259,1.406-1.745,2.183-1.455
		c0.776,0.291,1.164,1.068,1.164,2.328c-0.486,1.941-1.335,4.171-2.546,6.692C441.236,312.866,439.806,315.434,438.158,318.053
		 M419.39,307.142c0.969-2.132,1.311-4.121,1.02-5.964c-0.291-1.842-0.874-3.03-1.747-3.564c-0.873-0.533-1.89-0.168-3.054,1.09
		c-1.164,1.262-2.087,3.833-2.765,7.71c-0.291,1.651-0.51,3.299-0.654,4.947c-0.146,1.65-0.123,3.299,0.072,4.946
		c1.164-0.968,2.423-2.255,3.782-3.854C417.402,310.852,418.517,309.083,419.39,307.142"/>
	<path clip-path="url(#SVGID_2_)" fill="#3C3C3C" d="M468.997,324.018c1.455-0.193,2.739-0.727,3.856-1.6
		c1.113-0.873,2.131-1.914,3.054-3.128c0.921-1.212,1.769-2.569,2.546-4.073c0.776-1.503,1.551-2.983,2.328-4.438
		c0.775-1.356,1.454-2.738,2.036-4.145c0.582-1.406,1.067-2.692,1.456-3.856c0.677-1.259,1.404-1.745,2.181-1.455
		c0.776,0.291,1.164,1.068,1.164,2.328c-0.486,1.942-1.334,4.123-2.546,6.547c-1.214,2.425-2.643,4.996-4.291,7.71
		c-1.746,2.716-3.516,4.996-5.31,6.837c-1.795,1.844-3.807,2.765-6.037,2.765c-3.396,0-6.037-1.673-7.929-5.02
		c-1.891-3.346-3.323-7.394-4.291-12.146c-1.262,3.588-2.619,6.691-4.073,9.309c-1.262,2.233-2.717,4.172-4.365,5.819
		c-1.65,1.651-3.298,2.183-4.946,1.601c-1.262-0.387-2.305-1.455-3.128-3.2c-0.825-1.746-1.334-3.831-1.527-6.256
		c-0.195-2.423-0.05-5.066,0.436-7.929c0.484-2.859,1.405-5.696,2.764-8.509c1.066-2.231,2.546-4.075,4.438-5.529
		c1.89-1.455,3.83-2.303,5.818-2.546c1.987-0.241,3.758,0.243,5.31,1.454c1.55,1.214,2.569,3.372,3.055,6.475
		c0,0.389-0.072,0.704-0.218,0.945c-0.145,0.243-0.316,0.461-0.509,0.655c0.193,2.037,0.556,4.316,1.09,6.838
		c0.533,2.522,1.187,4.898,1.965,7.127c0.775,2.233,1.648,4.074,2.618,5.529C466.911,323.582,467.929,324.214,468.997,324.018
		 M449.794,317.617c1.455-3.005,2.667-6.11,3.638-9.311c0.967-3.2,1.938-6.641,2.909-10.329c-0.582-0.775-1.286-1.236-2.11-1.381
		c-0.825-0.146-1.698-0.073-2.618,0.217c-0.923,0.291-1.819,0.753-2.691,1.383c-0.873,0.632-1.601,1.382-2.183,2.255
		c-0.777,1.163-1.455,2.789-2.036,4.873c-0.582,2.087-1.018,4.269-1.309,6.547c-0.291,2.279-0.414,4.436-0.365,6.474
		c0.048,2.036,0.315,3.491,0.801,4.364c0.485,0.873,1.211,0.995,2.182,0.363C446.981,322.442,448.242,320.624,449.794,317.617"/>
	<path clip-path="url(#SVGID_2_)" fill="#3C3C3C" d="M487.619,292.013c1.647,1.649,3.223,2.764,4.728,3.346
		c1.502,0.582,2.909,1.043,4.218,1.382c1.31,0.34,2.474,0.825,3.492,1.455c1.018,0.631,1.914,1.722,2.691,3.272
		c0.291,0.582,0.436,1.917,0.436,4.001c0,2.087,0.023,4.364,0.074,6.838c0.047,2.473,0.217,4.873,0.508,7.201
		c0.291,2.327,0.921,4.123,1.892,5.382c0.386,0.486,0.968,0.777,1.745,0.873c1.455,0.389,2.983,0.025,4.583-1.091
		c1.6-1.114,3.128-2.546,4.582-4.292c1.455-1.745,2.765-3.513,3.928-5.309c1.164-1.794,2.037-3.224,2.619-4.292
		c0.582-1.357,1.211-2.739,1.891-4.146c0.677-1.405,1.212-2.691,1.6-3.855c0.582-1.259,1.284-1.745,2.11-1.455
		c0.823,0.291,1.236,1.068,1.236,2.328c-0.582,1.941-1.454,4.171-2.618,6.692c-1.164,2.523-2.571,5.091-4.219,7.71
		c-0.68,0.971-1.505,2.062-2.474,3.273c-0.97,1.214-2.013,2.401-3.127,3.564c-1.116,1.164-2.328,2.183-3.637,3.056
		c-1.309,0.872-2.596,1.505-3.855,1.89c-2.232,0.68-4.317,0.389-6.256-0.873c-1.941-1.259-3.297-3.928-4.073-8.001
		c-0.486-3.102-0.654-6.182-0.51-9.237c0.146-3.056,0.074-5.503-0.217-7.347c-0.196-1.26-0.56-2.182-1.091-2.764
		c-0.534-0.581-1.214-1.066-2.037-1.455c-0.825-0.386-1.723-0.703-2.692-0.946c-0.97-0.24-1.988-0.604-3.054-1.091
		c-1.262,3.783-2.572,6.645-3.928,8.583c-1.359,1.942-2.28,3.251-2.765,3.928c-1.068,0.777-1.649,0.873-1.745,0.291
		c-0.097-0.581,0-1.356,0.291-2.327c1.939-4.169,3.029-7.347,3.274-9.529c0.24-2.182,0.363-3.757,0.363-4.728
		c-0.389-0.775-0.389-1.43,0-1.964C485.969,291.845,486.648,291.723,487.619,292.013"/>
</g>
</svg>
