<?xml version="1.0" encoding="UTF-8"?>
<svg id="Layer_1" data-name="Layer 1" xmlns="http://www.w3.org/2000/svg" xmlns:xlink="http://www.w3.org/1999/xlink" viewBox="0 0 159.37 69.93">
  <defs>
    <style>
      .cls-1 {
        fill: url(#linear-gradient-8);
      }

      .cls-1, .cls-2, .cls-3, .cls-4, .cls-5, .cls-6, .cls-7, .cls-8, .Graphic_Style, .cls-9 {
        stroke-miterlimit: 10;
      }

      .cls-1, .cls-2, .cls-3, .cls-4, .cls-5, .cls-6, .cls-7, .cls-8, .Graphic_Style, .cls-9, .cls-10, .cls-11, .cls-12, .cls-13, .cls-14, .cls-15 {
        stroke-width: .25px;
      }

      .cls-1, .cls-2, .cls-3, .cls-4, .cls-5, .cls-6, .cls-9 {
        stroke: #d3d3d3;
      }

      .cls-2 {
        fill: url(#linear-gradient-3);
      }

      .cls-3 {
        fill: url(#linear-gradient-4);
      }

      .cls-4 {
        fill: url(#linear-gradient-7);
      }

      .cls-5 {
        fill: url(#linear-gradient-5);
      }

      .cls-6 {
        fill: url(#linear-gradient-6);
      }

      .cls-7 {
        fill: url(#linear-gradient-9);
        stroke: #e5e5e5;
      }

      .cls-8 {
        fill: url(#linear-gradient-2);
      }

      .cls-8, .Graphic_Style {
        stroke: #c1bfbf;
      }

      .Graphic_Style {
        fill: url(#linear-gradient);
      }

      .cls-9 {
        fill: #efb0cb;
      }

      .cls-10 {
        fill: url(#linear-gradient-10);
      }

      .cls-10, .cls-11, .cls-12, .cls-13, .cls-14, .cls-15 {
        fill-rule: evenodd;
        stroke: #ab2d72;
      }

      .cls-11 {
        fill: url(#linear-gradient-12);
      }

      .cls-12 {
        fill: url(#linear-gradient-13);
      }

      .cls-13 {
        fill: url(#linear-gradient-15);
      }

      .cls-14 {
        fill: url(#linear-gradient-11);
      }

      .cls-15 {
        fill: url(#linear-gradient-14);
      }

      .cls-16 {
        fill: #8b8888;
        stroke-width: 0px;
      }
    </style>
    <linearGradient id="linear-gradient" x1="27.64" y1="3.66" x2="36.03" y2="11.65" gradientTransform="translate(0 72.01) scale(1 -1)" gradientUnits="userSpaceOnUse">
      <stop offset=".23" stop-color="#fcf3f8"/>
      <stop offset=".55" stop-color="#efb0cb"/>
      <stop offset=".77" stop-color="#efb0cb"/>
    </linearGradient>
    <linearGradient id="linear-gradient-2" x1="41.51" y1="54.35" x2="47.27" y2="59.83" gradientTransform="matrix(1,0,0,1,0,0)" xlink:href="#linear-gradient"/>
    <linearGradient id="linear-gradient-3" x1="7.62" y1="41.86" x2="45.57" y2="31.83" gradientTransform="translate(0 72.01) scale(1 -1)" gradientUnits="userSpaceOnUse">
      <stop offset="0" stop-color="#fff"/>
      <stop offset=".41" stop-color="#efb0cb"/>
    </linearGradient>
    <linearGradient id="linear-gradient-4" x1="22.66" y1="50.27" x2="52.75" y2="36.5" gradientTransform="translate(0 72.01) scale(1 -1)" gradientUnits="userSpaceOnUse">
      <stop offset="0" stop-color="#fff"/>
      <stop offset=".41" stop-color="#efb0cb"/>
    </linearGradient>
    <linearGradient id="linear-gradient-5" x1="40.58" y1="50.87" x2="56.41" y2="50.87" gradientTransform="translate(0 72.01) scale(1 -1)" gradientUnits="userSpaceOnUse">
      <stop offset="0" stop-color="#fff"/>
      <stop offset=".41" stop-color="#efb0cb"/>
    </linearGradient>
    <linearGradient id="linear-gradient-6" x1="57.89" y1="49.42" x2="69.83" y2="49.42" gradientTransform="translate(0 72.01) scale(1 -1)" gradientUnits="userSpaceOnUse">
      <stop offset="0" stop-color="#fff"/>
      <stop offset=".09" stop-color="#f4ccdd"/>
      <stop offset=".68" stop-color="#efb0cb"/>
    </linearGradient>
    <linearGradient id="linear-gradient-7" x1="61.34" y1="41.03" x2="77.88" y2="41.03" gradientTransform="translate(0 72.01) scale(1 -1)" gradientUnits="userSpaceOnUse">
      <stop offset="0" stop-color="#fff"/>
      <stop offset=".38" stop-color="#f4ccdd"/>
      <stop offset=".55" stop-color="#efb0cb"/>
    </linearGradient>
    <linearGradient id="linear-gradient-8" x1="60.03" y1="28.96" x2="79.06" y2="28.96" gradientTransform="translate(0 72.01) scale(1 -1)" gradientUnits="userSpaceOnUse">
      <stop offset="0" stop-color="#fff"/>
      <stop offset=".25" stop-color="#f4ccdd"/>
      <stop offset=".52" stop-color="#efb0cb"/>
    </linearGradient>
    <linearGradient id="linear-gradient-9" x1="14.35" y1="14.79" x2="34.31" y2="20.84" gradientTransform="translate(0 72.01) scale(1 -1)" gradientUnits="userSpaceOnUse">
      <stop offset=".23" stop-color="#fcf3f8"/>
      <stop offset=".55" stop-color="#efb0cb"/>
      <stop offset=".77" stop-color="#efb0cb"/>
    </linearGradient>
    <linearGradient id="linear-gradient-10" x1="-2" y1="32.29" x2="33.74" y2="39.34" gradientTransform="translate(0 72.01) scale(1 -1)" gradientUnits="userSpaceOnUse">
      <stop offset="0" stop-color="#c73e89"/>
      <stop offset=".92" stop-color="#d9a4c1"/>
    </linearGradient>
    <linearGradient id="linear-gradient-11" x1="89.13" y1="34.51" x2="104.23" y2="37.49" gradientTransform="translate(0 72.01) scale(1 -1)" gradientUnits="userSpaceOnUse">
      <stop offset="0" stop-color="#c73e89"/>
      <stop offset=".92" stop-color="#d9a4c1"/>
    </linearGradient>
    <linearGradient id="linear-gradient-12" x1="34.03" y1="29.3" x2="57.26" y2="33.89" gradientTransform="translate(0 72.01) scale(1 -1)" gradientUnits="userSpaceOnUse">
      <stop offset="0" stop-color="#c73e89"/>
      <stop offset=".92" stop-color="#d9a4c1"/>
    </linearGradient>
    <linearGradient id="linear-gradient-13" x1="59.66" y1="23.03" x2="89.3" y2="28.88" gradientTransform="translate(0 72.01) scale(1 -1)" gradientUnits="userSpaceOnUse">
      <stop offset="0" stop-color="#c73e89"/>
      <stop offset=".92" stop-color="#d9a4c1"/>
    </linearGradient>
    <linearGradient id="linear-gradient-14" x1="141.32" y1="25.47" x2="160.23" y2="29.2" gradientTransform="translate(0 72.01) scale(1 -1)" gradientUnits="userSpaceOnUse">
      <stop offset="0" stop-color="#c73e89"/>
      <stop offset=".92" stop-color="#d9a4c1"/>
    </linearGradient>
    <linearGradient id="linear-gradient-15" x1="105.24" y1="24.28" x2="136.35" y2="30.42" gradientTransform="translate(0 72.01) scale(1 -1)" gradientUnits="userSpaceOnUse">
      <stop offset="0" stop-color="#c73e89"/>
      <stop offset=".92" stop-color="#d9a4c1"/>
    </linearGradient>
  </defs>
  <path class="cls-16" d="m73.91,49.68c.31-3.71.62-7.41.93-11.12"/>
  <path class="cls-8" d="m49.62,50.35c.08.53.17.8.41,1.69.32,1.15.59,2.31.89,3.46,1.04,3.92,2.89,10.88.2,12.97-.29.23-.72.35-1.59.6-.97.28-5.15,1.47-7.81-.66-1.29-1.03-1.74-2.46-1.85-2.85-1.32-4.4,3.17-7.67,7.94-15.88.03-.05,1.1-1.89,1.52-1.73.27.1.05.92.28,2.4Z"/>
  <path class="Graphic_Style" d="m44.66,50.87c-.22-.28-.9-.03-2.98.73-7.2,2.64-8.42,3.08-10.06,4.5-1.11.96-1.8,1.56-2.38,2.65-1.97,3.69-.92,9.69,2.32,10.85,1.84.66,4.22-.3,5.62-1.79,2.23-2.37.6-4.66,2.32-9.07,1.86-4.78,5.73-7.15,5.16-7.88h0Z"/>
  <path class="cls-9" d="m57.69,43.39c.21.17,3.73,3.17,2.98,6.75-.05.26-.27,1.18-.99,2.12-1.36,1.76-4.2,3.19-6.75,2.05-2.58-1.15-3.08-4.14-3.11-4.37,1.4-1.07,2.84-2.22,4.3-3.44,1.25-1.05,2.44-2.08,3.57-3.11Z"/>
  <path class="cls-2" d="m47.17,48.69c-8.76-7.03-12.27-11.66-13.76-14.69-.14-.29-.51-1.05-1.12-2.05-1.16-1.88-3.87-6.28-8.21-7.81-4.56-1.61-10.67.06-11.18,2.45-.39,1.8,2.63,2.9,7.87,7.94,6.18,5.93,5.96,8.2,9.73,10.92,2.94,2.12,7.93,4.24,16.68,3.24h0Z"/>
  <path class="cls-9" d="m20.56,21.55c.06.02.77.28,1.32-.13.54-.4.7-1.26.26-1.99.19-.25.75-1.05.66-2.12-.1-1.25-1.07-2.61-2.32-2.65-1.45-.04-2.69,1.74-2.45,3.24.16,1.01.95,1.61,1.19,1.79-.26.41-.26.93,0,1.32.28.43.81.65,1.32.53h.02Z"/>
  <path class="cls-3" d="m27.12,10.9c8.3,3.34,13.62,7.94,16.54,10.92,2.67,2.72,6.01,6.19,7.81,11.78,1.17,3.65,2.67,11.23-.07,12.84-3.31,1.94-11.88-5.43-16.74-12.31-6.11-8.64-7.32-17.85-7.54-23.23Z"/>
  <path class="cls-5" d="m55.78,42.13c2.45-3.63,4.99-8.81,3.71-14.16-.22-.92-.34-.95-2.12-5.03-2.99-6.86-4.49-10.35-5.03-13.37-.38-2.13-.64-5.32.13-9.4-1.69.41-9.3,2.45-11.38,8.47-1.08,3.13-.23,6.07.66,8.6,1.79,5.11,5.59,13.9,14.03,24.88h0Z"/>
  <path class="cls-6" d="m60.8,38.03c3.3-5.93,5.4-11.17,6.75-15.09,3.19-9.27,2.43-11.87,1.32-13.37-1.21-1.63-3.31-2.59-5.16-2.38-3.5.39-5.72,4.9-5.82,8.34-.06,1.99.59,3.48.79,3.97,1.33,3.16,2.6,8.6,2.12,18.53Z"/>
  <path class="cls-4" d="m61.34,39.62c7.69-15.1,11.54-17.73,13.63-17.21,2.1.53,3.33,4.44,2.78,7.28-1.04,5.35-8.59,7.79-11.91,8.87-1.82.59-3.39.89-4.5,1.06Z"/>
  <path class="cls-1" d="m60.03,42.13c3.39-.16,6.84-.87,10.19-2.38,3.61-1.63,5.4-3.43,7.01-2.65,1.72.83,2.27,4.12,1.46,6.49-1.45,4.2-7.67,6.83-12.57,5.03-4.17-1.53-5.79-5.67-6.09-6.49Z"/>
  <path class="cls-7" d="m38.44,50.41c-1.52.09-5,2.03-9.66,7.21-1.53,1.7-2.09,2.9-3.77,3.37-2.17.61-4.83-.38-6.29-2.18-2.3-2.85-1.49-7.6.86-9.79,1.89-1.76,5.74-1.24,13.43-.2,4.66.63,6.24,1.54,5.43,1.59Z"/>
  <path class="cls-10" d="m14.54,21.12C4.45,22.66.12,25.3.12,29.91c0,3.05,2.31,4.9,9.84,7.87,6.2,2.44,6.75,2.7,8.26,3.91,2.19,1.75,2.81,2.74,2.81,4.47s-.54,2.31-2.8,2.92c-1.96.53-7.18.16-10.38-.75-4.08-1.15-4.39-1.18-5.06-.52-1.52,1.52.41,2.21,7.83,2.8,1.76.14,3.27.36,3.35.49.25.41,6.26-.19,8.6-.85,3-.85,7.12-3.55,7.89-5.18,1.24-2.61.49-5.29-2.04-7.28-1.5-1.18-5.99-3.52-6.77-3.52s-10.22-3.79-11.84-4.75c-3.17-1.86-3.82-3.61-1.77-4.8,3.42-1.99,10.77-2.24,15.44-.52,2.29.84,2.52.86,3.58.36,1.27-.6,1.73-1.41,1.19-2.06-.9-1.09-4.36-1.57-6.94-1.23-.43.06-2.07.09-3.03-.24q-.09-.03-.16-.06c-1.53-.52-3.12.09-3.58.16h0Z"/>
  <path class="cls-14" d="m92.94,21.61c-.46.29-.52,2.23-.46,14.41.04,7.74.17,14.23.28,14.42.32.52,7.45.45,7.78-.08.14-.23.24-6.68.2-14.32-.06-12.65-.11-13.94-.66-14.34-.71-.52-6.35-.6-7.14-.09Z"/>
  <path class="cls-11" d="m40.91,29.16c-.28.08-.51.15-.67.2-.74.41-.75.41-.75.41-.66.4-.35,2.13-.35,4.15,0,3.08-.03,3.92-.34,4.14-.03.02-.14.04-.35.08-.85.16-1.46.27-2.21.22-.62-.04-.85-.16-1,0-.14.16-.02.36,0,1,.02.72-.12.83,0,1,.23.32.78.06,1.95.13.76.05,1.32.09,1.65.48.21.24.26.63.26,1.28.02,1.87.24,1.86.23,2.61,0,.37-.03.88-.1,1.5.19.49.39.97.58,1.46.18.36.51.94,1.06,1.55,3.9,4.35,11.88,2.24,13.4.87.88-.79.86-1.44-.06-1.93-.55-.29-.99-.29-1.72.02-.54.23-1.36.36-1.81.29-.8-.11-.83-.22-.92-4.07l-.1-3.95h2.64c2.55,0,2.65-.03,2.87-.92.31-1.25-.26-1.53-3.12-1.54h-2.37v-4.36c0-3.07-.13-4.45-.44-4.69-.24-.19-2.12-.37-4.16-.41-1.54-.03-2.78.1-4.17.47h0Z"/>
  <path class="cls-12" d="m60.85,38.72c-.53.28-.96.62-.96.75.02.52.91,1.38,1.66,1.62.43.14.79.44.79.66s1.86,2.27,4.13,4.55c3.61,3.62,4.07,4.21,3.7,4.75-.24.34-.69,1.09-1.01,1.67-.32.58-1.03,1.57-1.59,2.21-1.35,1.55-1.34,2.54.02,2.54.88,0,2.25-1.26,9.58-8.8,4.7-4.84,8.55-9.07,8.55-9.4,0-1.06-1.39-.86-3.19.45-1.36.99-2.35,1.4-2.7,1.68-.41.32-.73.6-.97.81-.41.35-.81.7-1.22,1.05l-1.22.66-2.64-2.62c-1.45-1.44-2.92-2.73-3.26-2.86-1.2-.48-8.64-.25-9.67.29h0Z"/>
  <path class="cls-15" d="m147.06,38.95c-3.41.79-4.92,1.9-4.92,3.61,0,1.37,1,2.28,3.45,3.15.91.32,2.33.82,3.16,1.11,1.32.46,1.5.65,1.41,1.46-.11.91-.15.93-2.22.78-4.01-.29-4.55-.24-4.67.39-.19.94,2.38,1.52,6.43,1.47,3.79-.05,6.14-.61,8.12-1.95,3.15-2.12.98-4.53-5.63-6.28-3.54-.94-4.4-2.11-1.88-2.58.63-.12,2.1-.04,3.26.17,1.16.21,2.5.41,2.98.44,1.25.07,1.32-.95.11-1.51-1.4-.64-7.27-.81-9.59-.27h0Z"/>
  <path class="cls-13" d="m133.89,43.92c-.17-1.16-3.13-3.27-5.88-4.18-5.64-1.87-10.56-1.09-12.34-.71-2.92.62-5.2,1.66-6.7,2.48-2.11,2.1-2.01,3.57-1.93,4.05.49,3.04,6.08,4.45,8.61,4.87,4.08.68,5.74.69,9.34.06,6.43-1.14,9.37-3.31,8.91-6.57h-.01Zm-8.92,4.97c-1.42,1.35-2.93,1.28-4.14,1.24-1.62-.05-4.37-.25-4.97-1.66-.55-1.29-1.16-2.81-.83-4.55-.07-.5.2-2.12,1.24-3.31,1.02-1.17,2.55-1.2,4.14-1.24,1.44-.03,2.76-.07,3.73.83.49.46,1.33.96,1.66,2.9.41,2.48-.11,3.96,0,3.73.56-1.23-.09,1.37-.83,2.07h0Z"/>
</svg>