<svg width="150" height="43" viewBox="0 0 150 43" fill="none" xmlns="http://www.w3.org/2000/svg">
<path d="M24.3223 27.6147H24.1762C22.9982 27.6147 21.8317 27.3802 20.7437 26.9246C19.6557 26.469 18.6676 25.8012 17.8359 24.9596C17.0042 24.118 16.3454 23.1191 15.8971 22.0202C15.4489 20.9213 15.2201 19.7439 15.2238 18.5556V0.019043H8.39171V18.5556C8.38238 20.6528 8.7846 22.7311 9.5752 24.6708C10.3658 26.6105 11.5291 28.3732 12.9982 29.8573C14.4672 31.3413 16.2129 32.5174 18.1346 33.3178C20.0563 34.1182 22.116 34.5271 24.1951 34.5208H31.8376V27.6195L24.3223 27.6147Z" fill="#1D1D1B"/>
<path d="M113.102 11.564C113.102 4.0733 110.053 0.00952148 103.966 0.00952148H92.5632C86.518 0.00952148 83.5354 3.57899 83.4459 10.9413V27.3058V34.5445H90.3157L90.3393 23.2135H103.975C110.101 23.2135 113.116 19.3065 113.116 11.5925L113.102 11.564ZM101.685 16.2884H90.3251V11.5354C90.3251 8.26541 91.7905 6.8823 94.872 6.89181H101.685C103.942 6.89181 106.194 8.29393 106.194 11.5402C106.194 15.0241 104.748 16.2932 101.676 16.2646" fill="#1D1D1B"/>
<path d="M149.995 10.9555C149.995 3.40779 146.914 0.0236816 140.741 0.0236816H131.577C125.532 0.0236816 122.379 3.62642 122.379 10.984V23.5651C122.379 30.9607 125.56 34.4969 131.666 34.4969H140.826C146.857 34.4969 149.991 30.8846 149.991 23.5651L149.995 10.9555ZM138.536 27.6336H133.919C130.818 27.6336 129.273 26.1412 129.268 22.8806V11.6542C129.268 8.37938 130.832 6.90121 133.895 6.90121H138.503C141.533 6.90121 143.182 8.49345 143.182 11.6542V22.8997C143.182 26.0319 141.552 27.6289 138.536 27.6193" fill="#1D1D1B"/>
<path d="M70.8513 0.0141602H63.9626V22.9044C63.8967 26.0413 62.3606 27.6573 59.3451 27.6573H54.7369C51.6366 27.6573 50.0911 26.1744 50.0864 22.9044V0.0189033H43.259V23.5651C43.3297 30.9559 46.4065 34.5254 52.513 34.5254H61.6774C67.7053 34.5254 70.7712 30.8814 70.8748 23.5936L70.8513 0.0141602Z" fill="#1D1D1B"/>
<path d="M31.8187 39.8963H24.2186C18.6393 39.9203 13.2789 37.7082 9.31607 33.7464C5.35324 29.7846 3.11237 24.3975 3.08619 18.7694V0H-3.85602e-05V18.6411C-0.00566192 21.8472 0.617293 25.0227 1.83298 27.9849C3.04867 30.9472 4.83308 33.6377 7.08354 35.9016C9.334 38.1656 12.0061 39.9582 14.946 41.1765C17.8859 42.3947 21.0356 43.0144 24.2139 43H31.8187V39.8963Z" fill="#1D1D1B"/>
</svg>
