<svg width="164" height="35" viewBox="0 0 164 35" fill="none" xmlns="http://www.w3.org/2000/svg">
<g clip-path="url(#clip0_4488_1544)">
<path d="M160.544 20.8314C161.438 20.8314 162.19 21.539 162.19 22.4625C162.19 23.4009 161.438 24.1084 160.544 24.1084C159.65 24.1084 158.891 23.4009 158.891 22.4625C158.891 21.539 159.643 20.8314 160.544 20.8314ZM160.544 23.8701C161.304 23.8701 161.892 23.2668 161.892 22.4625C161.892 21.6805 161.304 21.0772 160.544 21.0772C159.777 21.0772 159.189 21.6805 159.189 22.4625C159.189 23.2668 159.777 23.8701 160.544 23.8701ZM159.904 21.5166H160.641C161.095 21.5166 161.311 21.6954 161.311 22.0678C161.311 22.4103 161.095 22.5593 160.805 22.5891L161.356 23.4307H161.036L160.514 22.604H160.202V23.4307H159.904V21.5166ZM160.202 22.3657H160.514C160.775 22.3657 161.021 22.3508 161.021 22.0529C161.021 21.7996 160.805 21.7624 160.604 21.7624H160.209V22.3731L160.202 22.3657Z" fill="#555759"/>
<path d="M52.6036 0.134033H61.2728C64.0136 0.134033 66.2405 0.953288 67.6779 2.39071C68.9441 3.65683 69.6665 5.47409 69.6665 7.66373V7.79779C69.6665 11.4993 67.6109 13.7933 64.6988 14.821L71.8263 24.1084H67.2385L60.6547 15.6105C60.5876 15.6477 60.4834 15.6477 60.4163 15.6477H56.5807V24.1084H52.6036V0.134033ZM60.8632 12.0877C63.9466 12.0877 65.6596 10.4418 65.6596 7.9393V7.87227C65.6596 5.16873 63.9094 3.7611 60.9302 3.7611H56.5807V12.0877H60.8632Z" fill="#555759"/>
<path d="M79.9966 14.5604L71.9157 0.134033H76.4738L82.0223 10.5162L87.6082 0.134033H92.0247L83.9737 14.5231V24.1159H79.9966V14.5604Z" fill="#555759"/>
<path d="M151.979 14.5604L143.891 0.134033H148.449L153.998 10.5162L159.583 0.134033H164L155.949 14.5231V24.1159H151.972V14.5604H151.979Z" fill="#555759"/>
<path d="M11.1493 17.2714L3.97711 0.134033H0V24.1159H4.03669V9.99489L9.96512 24.1159H12.2665L18.2396 9.36927V24.1159H22.2614V0.134033H18.2545L11.1493 17.2714Z" fill="#555759"/>
<path d="M116.595 0.134033L108.157 10.196H107.941V0.134033H103.911V24.1159H107.941V14.0092H108.112L116.915 24.1159H121.942L111.329 12.125L121.622 0.134033H116.595Z" fill="#555759"/>
<path d="M44.1579 24.1159H48.3063L39.503 0H35.6674L26.8641 24.1159H30.871L32.3755 19.8558H42.6534L44.1579 24.1159ZM33.649 16.251L37.5144 5.31026L41.3798 16.251H33.649Z" fill="#555759"/>
<path d="M140.8 24.1159H144.949L136.138 0H132.302L123.499 24.1159H127.506L129.01 19.8558H139.288L140.793 24.1159H140.8ZM130.291 16.251L134.157 5.31026L138.022 16.251H130.291Z" fill="#555759"/>
</g>
<defs>
<clipPath id="clip0_4488_1544">
<rect width="164" height="24.1159" fill="white"/>
</clipPath>
</defs>
</svg>
