<svg width="88" height="26" viewBox="0 0 88 26" fill="none" xmlns="http://www.w3.org/2000/svg">
<path d="M62.495 22.2032C61.71 22.821 61.2322 23.5629 60.5246 24.1093C58.3616 25.7834 55.8668 26.1327 53.2092 25.9134C51.6219 25.809 50.0767 25.3741 48.6798 24.6387C48.2636 24.4135 48.0471 24.462 48.0498 24.9659C48.0498 25.3713 47.7787 25.486 47.4197 25.486H42.2277C41.7806 25.486 41.551 25.2897 41.5747 24.8325C41.5914 24.4857 41.5747 24.1365 41.5747 23.6164C39.4794 25.9049 36.9468 26.3562 34.1572 25.7579C31.3676 25.1596 29.4791 23.4634 28.0227 21.0958V24.3651C28.0227 25.4928 28.0227 25.4962 26.8382 25.4996C25.3246 25.4996 23.8154 25.48 22.3018 25.4996C21.6251 25.4996 21.3638 25.2871 21.3708 24.6005C21.3981 20.5044 21.3708 16.4049 21.3708 12.3088V11.544L21.2661 11.5142C20.8894 12.4207 20.5113 13.3271 20.1318 14.2336C18.6859 17.7544 17.2172 21.2624 15.7854 24.7959C15.7323 25.0105 15.5997 25.1988 15.4125 25.3253C15.2254 25.4518 14.9968 25.5077 14.7699 25.4826C14.1372 25.4596 13.5036 25.4503 12.8709 25.4435C12.3737 25.4435 12.3156 25.0415 12.1942 24.7279C10.7609 21.272 9.33563 17.8161 7.91824 14.3602C7.56084 13.4331 7.13318 12.5327 6.63872 11.6663V24.5631C6.63872 25.2166 6.46976 25.4979 5.75872 25.4851C4.10344 25.4528 2.44464 25.4588 0.78584 25.4851C0.16984 25.4851 0.00088 25.237 0.00088 24.6353C0.02464 19.0775 0.00088 13.5206 0.00088 7.96285C0 5.56978 0.03344 3.2056 0 0.826129C0 0.201517 0.21032 0.0120092 0.84656 0.0120092C3.16184 0.0477013 5.48064 0.057899 7.78624 0.0120092C8.05903 -0.0183728 8.33387 0.0490583 8.55856 0.201494C8.78325 0.35393 8.94213 0.580752 9.00504 0.838876C10.5486 4.8041 12.1194 8.75997 13.6866 12.7192C13.7353 12.9511 13.8629 13.1605 14.0492 13.3141C14.5842 11.9544 15.1158 10.6304 15.6332 9.29621C16.7297 6.47483 17.8332 3.65685 18.9033 0.826129C18.9637 0.564972 19.1244 0.335679 19.3531 0.184565C19.5818 0.0334509 19.8613 -0.0282201 20.1353 0.0120092C22.4743 0.0544998 24.8145 0.0544998 27.1559 0.0120092C27.8326 0.0120092 28.0359 0.247407 28.0289 0.875418C27.9717 4.54661 27.9409 8.22119 27.9074 11.8924C27.8962 12.1688 27.9213 12.4455 27.9822 12.7158C28.477 11.4807 29.2811 10.3834 30.3226 9.52187C31.3642 8.66038 32.6106 8.06166 33.9504 7.77929C36.7602 7.17762 39.3334 7.54389 41.4621 9.58344C41.5061 9.53755 41.5633 9.50866 41.5633 9.47552C41.6346 8.08607 41.6346 8.08607 43.0496 8.08607C44.4646 8.08607 45.8797 8.10562 47.2912 8.08607C47.8667 8.08607 48.0762 8.28918 48.063 8.82796C48.0392 9.73386 48.063 10.6389 48.1202 11.561C48.6444 10.7396 49.2719 9.98401 49.9884 9.3115C51.5443 8.1093 53.4696 7.44005 55.462 7.40877C57.6344 7.20316 59.8246 7.55279 61.813 8.4226C62.3278 8.6614 62.3885 8.44214 62.3955 8.02404C62.4193 6.5887 62.4765 5.15337 62.4835 3.71889C62.4631 3.52114 62.5094 3.32231 62.6154 3.15203C62.7215 2.98174 62.8818 2.84911 63.0722 2.7739C64.7645 1.96998 66.4743 1.13971 68.1762 0.32559C68.853 -0.00158781 68.9682 0.0706462 68.9682 0.82273V9.08715C68.9097 9.39491 68.9599 9.71274 69.1108 9.98965C69.6563 9.38358 70.2929 8.85994 70.9993 8.4362C73.3489 7.12834 76.927 7.20737 78.8154 8.72683C80.1645 9.91234 80.997 11.5483 81.1448 13.3039C81.3016 14.9687 81.3469 16.6415 81.2803 18.3119C81.297 19.2008 81.2803 20.0905 81.2803 21.1655V24.8401C81.2803 25.2812 81.1448 25.4681 80.7048 25.4681L75.3658 25.4843C74.8378 25.4843 74.9056 25.1146 74.9056 24.7815V16.2332C74.9091 15.6917 74.8593 15.151 74.7569 14.6186C74.7008 14.1331 74.4851 13.6778 74.1415 13.3195C73.7978 12.9611 73.3442 12.7186 72.8473 12.6275C72.3118 12.4441 71.7304 12.4268 71.1842 12.5779C70.6381 12.7291 70.1544 13.0411 69.8007 13.4705C69.1925 14.3052 68.8888 15.3114 68.9374 16.331V24.4552C68.9374 25.4554 68.9066 25.4885 67.8744 25.4911H63.2676C62.6886 25.4911 62.421 25.2948 62.4448 24.7033C62.5222 23.8764 62.495 23.0402 62.495 22.2032ZM37.84 12.9742C36.7931 12.9732 35.7862 13.3626 35.0293 14.0612C34.2725 14.7597 33.8242 15.7135 33.7779 16.7236C33.7763 17.7453 34.1912 18.7265 34.933 19.4551C35.6747 20.1837 36.6836 20.601 37.7414 20.6169C38.7993 20.6327 39.8211 20.2458 40.5859 19.5398C41.3507 18.8338 41.7969 17.8655 41.8282 16.8442C41.8209 15.8232 41.3989 14.8458 40.6531 14.1221C39.9073 13.3984 38.8972 12.9862 37.84 12.9742ZM62.4747 10.1103L62.3427 10.084C61.9502 10.9406 61.5366 11.7904 61.175 12.6598C60.9646 13.1629 60.7077 13.2223 60.2342 12.9699C59.738 12.7206 59.2256 12.5023 58.7004 12.3164C57.648 11.9262 56.5041 11.8256 55.396 12.0258C55.0845 12.038 54.7869 12.1541 54.5542 12.3545C54.3215 12.5549 54.168 12.8271 54.12 13.1246C54.039 13.8147 54.5908 14.0594 55.1082 14.2821C55.9056 14.5728 56.7507 14.7222 57.603 14.7231C59.6543 14.8574 61.4416 15.403 62.3427 17.4136H62.458L62.4747 10.1103ZM48.0982 22.4156H48.2337C48.6429 21.6703 49.0662 20.9284 49.456 20.173C49.6628 19.771 49.8687 19.7378 50.248 19.9868C50.9559 20.4469 51.7215 20.8181 52.5263 21.0916C53.3814 21.3834 54.2997 21.4589 55.1936 21.3109C55.4777 21.3087 55.7517 21.2087 55.9664 21.029C56.1811 20.8492 56.3224 20.6015 56.3649 20.3302C56.4529 19.6767 55.9926 19.3656 55.4611 19.1234C54.96 18.9359 54.4234 18.8533 53.8868 18.8812C52.7234 18.9307 51.5684 18.6702 50.548 18.1282C49.5277 17.5862 48.6814 16.7837 48.1017 15.8083L48.0982 22.4156Z" fill="black"/>
<path d="M84.6531 25.4925C86.5024 25.4925 88.0015 24.0448 88.0015 22.2589C88.0015 20.4731 86.5024 19.0254 84.6531 19.0254C82.8038 19.0254 81.3047 20.4731 81.3047 22.2589C81.3047 24.0448 82.8038 25.4925 84.6531 25.4925Z" fill="#EC0000"/>
</svg>
