<?xml version="1.0" encoding="utf-8"?>
<!-- Generator: Adobe Illustrator 27.9.0, SVG Export Plug-In . SVG Version: 6.00 Build 0)  -->
<svg version="1.1" id="Layer_1" xmlns="http://www.w3.org/2000/svg" xmlns:xlink="http://www.w3.org/1999/xlink" x="0px" y="0px"
	 viewBox="0 0 70 46" style="enable-background:new 0 0 70 46;" xml:space="preserve">
<g>
	<path d="M13.7,15.6h0.5c0.2,0,0.6,0,1,0.1c1.2,0.2,2.3,0.7,3.4,1.5c1.8,1.6,2.7,3.5,2.7,5.6c0,2-0.7,3.8-2.1,5.3
		c-1.5,1.4-3.2,2.1-5.1,2.1h-0.3c-1.9,0-3.7-0.8-5.2-2.3c-1.3-1.5-2-3.2-2-5.1c0-0.6,0.1-1.4,0.3-2.2c0.6-1.7,1.6-3,2.9-3.9
		C11.2,16,12.5,15.6,13.7,15.6 M20.7,13c-2.1-1.4-4.4-2.1-6.7-2.1c-1.8,0-3.6,0.4-5.4,1.3c-0.4,0.2-1.3,0.7-1.5,0.7
		c-0.1,0-0.3,0.1-0.4-0.1c-0.2-0.2-0.3-0.5-0.5-0.9c-0.5-0.8-1.2-1.1-1.9-1.1c-0.3,0-0.6,0.1-1,0.2l0,0C2.5,11.5,2,12.4,2,13.6v28
		c0,0.5,0,0.8,0.1,1.1l0,0c0.4,1,1.2,1.6,2.2,1.6c0.4,0,0.7-0.1,1.1-0.3c0.8-0.4,1.2-1.2,1.2-2.3v-8c0-0.3,0.1-0.5,0.6-0.6l0.1,0
		c0,0,0.1,0,0.3,0.1c2,1.2,4.2,1.8,6.5,1.8c1.2,0,2.6-0.3,4.2-0.8c1-0.4,2-0.9,2.8-1.6c0.4-0.3,1.1-0.9,2.1-2
		c1.8-2.3,2.7-4.8,2.7-7.5v-0.1c0-2.2-0.7-4.4-2-6.5C23.3,15.1,22.2,14,20.7,13"/>
	<path d="M39.1,1.7h-0.1c-0.2,0-0.5,0.1-0.8,0.2l0,0c-1.2,0.5-1.8,1.4-1.8,2.6v0.2c0,0.3,0.1,0.6,0.2,0.9l0,0
		C37,6.7,37.8,7.3,39,7.3c0.4,0,0.8-0.1,1.2-0.3l0,0c1-0.6,1.6-1.4,1.6-2.4V4.4c0-0.4-0.1-0.8-0.3-1.2C40.9,2.2,40.1,1.7,39.1,1.7"
		/>
	<path d="M33.4,3.2c-0.5-1.2-1.4-1.4-2-1.4l0,0c-0.4,0-0.7,0.1-0.9,0.2c-0.8,0.4-1.3,1.1-1.3,2.3v28.2c0,0.4,0,0.7,0.1,1l0,0.1
		c0.5,0.9,1.1,1.4,2,1.4h0l0,0c0.4,0,0.7-0.1,0.8-0.2c0.8-0.4,1.3-1.1,1.3-2.3V4.2C33.5,3.8,33.4,3.5,33.4,3.2L33.4,3.2z"/>
	<path d="M56.4,15.6h0.5c0.6,0,1.4,0.2,2.2,0.5l0,0c0.5,0.2,1.2,0.5,1.2,0.9c0,0.1-0.1,0.3-0.2,0.4c-0.7,0.5-3.6,2.6-8.6,6.2
		c-1.3,1-1.6,1.1-1.6,1.1h-0.2c-0.1,0-0.2,0-0.4-0.3l-0.1-0.1c0-0.1-0.1-0.5-0.1-1.2c0-1.6,0.6-3.2,1.7-4.6
		C52.3,16.6,54.2,15.6,56.4,15.6 M68.1,24.2L68.1,24.2c-0.5-1.1-1.2-1.6-2.1-1.6h-0.3c-0.4,0-0.8,0.1-1.3,0.4l0,0
		c-0.4,0.4-0.7,0.8-0.8,1.4c-0.2,0.9-0.6,1.8-1.1,2.6c-1.6,2.1-3.6,3.1-6,3.1h-0.4c-0.3,0-0.6-0.1-1.1-0.1c-2.2-0.5-2.3-1-2.3-1.1
		v-0.2c0-0.2,0.1-0.3,0.2-0.4l12-8.6c1.2-0.7,1.7-1.5,1.7-2.4v0c0-0.6-0.3-1.2-0.9-2C63.1,12.5,60,11,56.4,11c-3,0-5.8,1.1-8.2,3.2
		c-2.5,2.5-3.8,5.4-3.8,8.8c0,2.1,0.6,4.1,1.7,6c0.3,0.6,1,1.5,2.1,2.7l0,0c2.4,2.1,5.1,3.1,8,3.1h0.3c2.9,0,5.5-1.1,8-3.1l0,0
		c0.7-0.7,1.3-1.4,1.8-2.1l0,0c1.1-1.8,1.7-3.4,1.8-4.7l0,0C68.2,24.7,68.2,24.5,68.1,24.2"/>
	<path d="M40.9,11.9c-0.5-0.6-1.1-0.9-1.7-0.9h-0.3c-0.4,0-0.7,0.1-1.1,0.3c-0.7,0.4-1.1,1.2-1.1,2.3v18.5c0,0.7,0.1,1.2,0.3,1.5
		c0.5,0.8,1.1,1.2,1.9,1.2h0.2c0.2,0,0.5-0.1,0.8-0.2l0.1,0c0.9-0.5,1.3-1.2,1.3-2V13.2C41.3,12.8,41.2,12.4,40.9,11.9L40.9,11.9z"
		/>
	<path d="M53.9,9.2c-1.1,0-2-0.9-2-2V6.5c0-1.1,0.9-2,2-2h4.9c1.1,0,2,0.9,2,2v0.7c0,1.1-0.9,2-2,2H53.9z"/>
</g>
</svg>
