<svg xmlns="http://www.w3.org/2000/svg" width="200" height="55" preserveAspectRatio="xMidYMid meet" version="1.0" viewBox="0 0 150 41.25" zoomAndPan="magnify"><defs><clipPath id="80840bd996"><path d="M118.387 4.86h29.722v30.792h-29.722Zm0 0" clip-rule="nonzero"/></clipPath><clipPath id="59d54f11f2"><path d="M147.996 35.367c-2.129 0-3.133-1.27-4.14-4.058l-8.77-25.653a1.014 1.014 0 0 0-.961-.683h-5.203l-.055.175c2.07 0 2.238 1.266 1.285 4.063l-7.605 22.098c-.95 2.793-1.957 4.058-4.082 4.058l-.055.176h6.207l.055-.176c-2.125 0-2.637-1.238-1.684-4.078 0 0 8.024-23.23 8.328-23.824.301-.746.922-.508 1.11-.035.25.629 8.355 23.832 8.355 23.832.953 2.836.781 4.105-1.289 4.105l.059.176h8.5Zm0 0" clip-rule="nonzero"/></clipPath><clipPath id="cb53532760"><path d="M55.598 4.86h29.855v30.792H55.598Zm0 0" clip-rule="nonzero"/></clipPath><clipPath id="a4681844fe"><path d="M85.277 35.367c-2.129 0-3.132-1.27-4.136-4.058L72.367 5.656a1.01 1.01 0 0 0-.957-.683h-5.203l-.055.175c2.07 0 2.239 1.266 1.285 4.063l-7.605 22.098c-.953 2.793-1.957 4.058-4.086 4.058l-.055.176h6.211l.055-.176c-2.125 0-2.637-1.238-1.684-4.078 0 0 8.024-23.23 8.325-23.824.304-.746.922-.508 1.113-.035.25.629 8.355 23.832 8.355 23.832.954 2.836.782 4.105-1.285 4.105l.055.176h8.504Zm0 0" clip-rule="nonzero"/></clipPath><clipPath id="f9008d3f05"><path d="M7.133 4.86H32v30.792H7.133Zm0 0" clip-rule="nonzero"/></clipPath><clipPath id="4d1fac8a8f"><path d="M29.516 16.457c0-8.254-5.809-11.07-13.059-11.07h-2.578c-1.66 0-2.094 1.07-2.094 3.863v18.488h4.582c7.25 0 13.145-3.07 13.145-11.277Zm2.402-.043c0 8.563-6.945 11.703-15.547 11.703l-4.582.047v3.102c0 2.797.438 4.105 2.094 4.105v.176h-6.64v-.18c1.66 0 2.093-1.27 2.093-4.058V9.21c0-2.8-.434-4.063-2.094-4.063v-.175h9.215c8.559 0 15.457 2.879 15.457 11.441" clip-rule="nonzero"/></clipPath><clipPath id="87c6daa34c"><path d="M30.426 4.86H58.14v30.792H30.426Zm0 0" clip-rule="nonzero"/></clipPath><clipPath id="675e24cb25"><path d="m58.074 4.973-.058.175c-2.09 0-3.47 1.266-5.235 4.063L38.84 31.309c-1.656 2.62-1.93 3.695-.223 3.832h8.598c4.847 0 6.226-4.227 6.555-6.106h.609l-.883 6.512H30.465l.11-.176c2.097 0 3.472-1.309 5.234-4.105L49.695 9.254c1.653-2.66 2.008-3.742.301-3.871h-9.535c-4.852 0-6.254 4.176-6.582 6.05h-.606l.883-6.46Zm0 0" clip-rule="nonzero"/></clipPath><clipPath id="9afa2497aa"><path d="M87.328 4.86h28.918v30.792H87.328Zm0 0" clip-rule="nonzero"/></clipPath><clipPath id="8d859d47d0"><path d="M114.074 9.25v22.012c.043 2.84.48 4.105 2.137 4.105v.176h-6.637v-.176c1.66 0 2.098-1.265 2.098-4.058 0 0-.035-23.082-.074-23.579l-.313-.457c-.36.93-9.312 25.313-10.308 28.024l-.329.219-.113-.207c-.008-.02-9.844-27.153-10.09-27.657l-.41-.097c-.066.66-.09 23.707-.09 23.707.043 2.84.633 4.105 2.293 4.105v.176h-4.847v-.176c1.656 0 2.093-1.265 2.136-4.058V9.21c-.043-2.797-.48-4.063-2.136-4.063v-.175h3.879c.453 0 .851.28 1.003.703l8.559 23.66c.383.844 1.352.977 1.852-.016l8.601-23.636a1.07 1.07 0 0 1 1.008-.711h3.918v.175c-1.656 0-2.094 1.309-2.137 4.102" clip-rule="nonzero"/></clipPath></defs><g clip-path="url(#80840bd996)"><g clip-path="url(#59d54f11f2)"><path fill="#6d3330" fill-opacity="1" fill-rule="nonzero" d="M5.39 3.121h144.458v34.274H5.39Zm0 0"/></g></g><g clip-path="url(#cb53532760)"><g clip-path="url(#a4681844fe)"><path fill="#6d3330" fill-opacity="1" fill-rule="nonzero" d="M5.39 3.121h144.458v34.274H5.39Zm0 0"/></g></g><g clip-path="url(#f9008d3f05)"><g clip-path="url(#4d1fac8a8f)"><path fill="#6d3330" fill-opacity="1" fill-rule="nonzero" d="M5.39 3.121h144.458v34.274H5.39Zm0 0"/></g></g><g clip-path="url(#87c6daa34c)"><g clip-path="url(#675e24cb25)"><path fill="#6d3330" fill-opacity="1" fill-rule="nonzero" d="M5.39 3.121h144.458v34.274H5.39Zm0 0"/></g></g><g clip-path="url(#9afa2497aa)"><g clip-path="url(#8d859d47d0)"><path fill="#6d3330" fill-opacity="1" fill-rule="nonzero" d="M5.39 3.121h144.458v34.274H5.39Zm0 0"/></g></g></svg>