<svg width="86" height="48" viewBox="0 0 86 48" fill="none" xmlns="http://www.w3.org/2000/svg">
<path fill-rule="evenodd" clip-rule="evenodd" d="M5.1658 43.9778L12.2153 43.1254L15.8801 15.3217L27.6121 13.9015L28.3531 6.88376L0.455949 10.2864L0 17.2413L9.04111 16.1489L5.1658 43.9778ZM70.7587 1.36834C72.8252 1.36834 74.5044 3.03837 74.5044 5.10578C74.5044 7.17317 72.8252 8.84349 70.7587 8.84349C68.6921 8.84349 67.0201 7.17317 67.0201 5.10578C67.0201 3.03837 68.6921 1.36834 70.7587 1.36834ZM63.174 36.9932L69.8927 36.178L73.2716 10.7767L66.3763 11.613L63.174 36.9932ZM41.3507 4.95929C43.4156 4.95929 45.0891 6.63837 45.0891 8.6981C45.0891 10.7633 43.4156 12.4435 41.3507 12.4435C39.2801 12.4435 37.6115 10.7633 37.6115 8.6981C37.6115 6.63837 39.2801 4.95929 41.3507 4.95929ZM74.1638 35.6757L80.809 34.8733L85.6629 0L78.8671 0.818755L74.1638 35.6757ZM45.8534 48L52.8476 47.2416L56.5693 18.4948L62.5188 18.3027L63.1658 11.9917L57.7529 12.4435C58.021 9.31436 59.349 8.20429 61.0572 8.06872L63.674 8.04087L64.5205 1.93294L60.8204 1.92474C57.6873 1.89797 54.9327 3.71202 53.4952 5.34326C52.238 6.78375 50.9358 9.76857 51.0323 12.212L50.9836 13.1652L47.0495 13.6443L46.5048 19.7041L49.6647 19.706L45.8534 48ZM33.526 40.5483L40.4025 39.7135L43.9847 13.7397L37.1433 14.5677L33.526 40.5483ZM20.3808 16.8704L16.6813 42.5824L23.5424 41.7505L26.0685 25.1181C26.3727 23.4864 28.0188 22.379 30.6629 22.4053L33.3339 22.4069L34.1255 15.202C31.6402 15.1086 30.4164 15.2487 29.5149 15.8675C28.6196 16.4815 28.2648 17.3221 27.0539 17.417L27.3125 16.0268L20.3808 16.8704Z" fill="#20221D"/>
</svg>
