<svg width="60" height="15" viewBox="0 0 60 15" fill="none" xmlns="http://www.w3.org/2000/svg">
<path d="M20.5145 3.76457V8.01095C20.5145 9.07046 20.3893 10.1967 18.9043 10.1967C17.436 10.1967 17.3109 9.07046 17.3109 8.01095V3.76457H15.7175V8.27791C15.7175 9.37914 15.9594 10.1049 16.5184 10.6973C17.1107 11.323 17.97 11.665 18.9377 11.665C19.9305 11.665 20.7481 11.3396 21.3153 10.7306C21.866 10.13 22.1079 9.37079 22.1079 8.27791V3.76457H20.5145ZM10.9705 3.68114L10.6368 3.66445C9.55228 3.66445 8.88487 3.92307 8.30923 4.56545C7.79199 5.14109 7.54171 5.97535 7.54171 7.12663V11.5065H9.12681V6.98481C9.12681 6.00873 9.302 5.09104 10.5784 5.03264C10.7953 5.03264 10.9538 5.04933 10.9622 5.04933L11.0122 5.05767V3.68114H10.9705ZM0 1.66223V3.0471H3.37875V11.5065H4.96385V3.0471H8.401V1.66223H0ZM33.0033 4.61551C32.5111 3.98147 31.7436 3.66445 30.7175 3.66445C29.9583 3.66445 29.1908 4.02319 28.6068 4.64888C28.0228 4.02319 27.2636 3.66445 26.5128 3.66445C25.6702 3.66445 24.9694 3.89805 24.4772 4.34855C23.8014 4.97424 23.6096 5.54988 23.6096 7.04321V11.5065H25.203V6.99315C25.203 6.20895 25.2864 5.76679 25.4867 5.45811C25.6952 5.14109 26.0456 4.97424 26.5128 4.97424C27.614 4.97424 27.8142 5.51651 27.8142 6.59271V11.5148H29.4077V6.59271C29.4077 5.5332 29.6162 4.95756 30.7091 4.95756C31.1513 4.95756 31.5017 5.14109 31.7519 5.49148C31.9772 5.81685 32.0189 6.19226 32.0189 6.92641V11.5065H33.6123V6.77624C33.6123 5.8669 33.4038 5.14109 33.0033 4.61551ZM12.4972 3.76457H14.0907V11.5065H12.4972V3.76457ZM13.2814 0.827969C13.0414 0.827969 12.8111 0.923335 12.6414 1.09309C12.4716 1.26284 12.3763 1.49307 12.3763 1.73314C12.3763 1.97321 12.4716 2.20344 12.6414 2.3732C12.8111 2.54295 13.0414 2.63831 13.2814 2.63831C13.782 2.63831 14.1908 2.22953 14.1908 1.73731C14.1908 1.23676 13.782 0.827969 13.2814 0.827969ZM48.1785 4.61551C47.6863 3.98147 46.9188 3.66445 45.8927 3.66445C45.317 3.66445 44.7581 3.85633 44.2575 4.23175V1.66223H42.6641V11.5065H44.2575V6.60105C44.2575 5.51651 44.8081 4.9659 45.8927 4.9659C46.3348 4.9659 46.6852 5.14944 46.9355 5.49983C47.1607 5.82519 47.2024 6.20061 47.2024 6.93475V11.5148H48.7959V6.77624C48.7875 5.8669 48.579 5.14109 48.1785 4.61551ZM36.6157 10.1633V5.20784C36.6157 4.99927 36.6157 4.99927 36.7075 4.99093C36.9494 4.9659 37.3915 4.95756 37.6919 4.9659C38.9349 4.99093 39.8026 6.07547 39.8026 7.61051C39.8026 9.28737 39.1268 10.1133 37.6835 10.2051C37.475 10.2217 37.0662 10.2051 36.6741 10.1717C36.6574 10.1633 36.624 10.1633 36.6157 10.1633ZM40.2531 4.62385C39.5773 3.9481 38.7764 3.66445 37.5584 3.66445C37.5501 3.66445 36.5323 3.65611 36.0067 3.72285C35.3726 3.80628 35.0973 4.08993 35.0973 4.67391V14.5432H36.6073V11.6316C36.7325 11.64 37.0745 11.6734 37.5501 11.6734C38.7347 11.6734 39.5606 11.3396 40.3198 10.5554C40.9705 9.87969 41.2959 8.87858 41.2959 7.57713C41.2959 6.45923 40.8704 5.24121 40.2531 4.62385ZM59.4744 1.19504C59.1824 1.19504 58.9488 1.42864 58.9488 1.72063C58.9488 2.01262 59.1824 2.24621 59.4744 2.24621C59.7664 2.24621 60 2.01262 60 1.72063C60 1.42864 59.7664 1.19504 59.4744 1.19504ZM57.0968 1.22841C57.3888 1.22841 57.6224 0.994821 57.6224 0.70283C57.6224 0.410839 57.3888 0.177246 57.0968 0.177246C56.8048 0.177246 56.5712 0.410839 56.5712 0.70283C56.5733 0.841553 56.6294 0.973991 56.7275 1.07209C56.8256 1.1702 56.9581 1.22626 57.0968 1.22841ZM54.3771 1.22841C54.6691 1.22841 54.9027 0.994821 54.9027 0.70283C54.9027 0.410839 54.6691 0.177246 54.3771 0.177246C54.0851 0.177246 53.8515 0.410839 53.8515 0.70283C53.8515 0.994821 54.0851 1.22841 54.3771 1.22841ZM51.9994 1.19504C51.7075 1.19504 51.4739 1.42864 51.4739 1.72063C51.4739 2.01262 51.7075 2.24621 51.9994 2.24621C52.2914 2.24621 52.525 2.01262 52.525 1.72063C52.5229 1.5819 52.4668 1.44947 52.3687 1.35136C52.2706 1.25326 52.1382 1.19719 51.9994 1.19504ZM58.9822 3.13887C58.8904 3.09716 58.782 3.13887 58.7403 3.23064L58.5567 3.60606L58.0145 4.72396C57.6974 5.358 57.3387 6.05878 57.0801 6.56768L57.0634 6.60105C57.0384 6.64276 57.0217 6.65111 57.0217 6.65111C57.0217 6.65111 57.0134 6.62608 57.0134 6.56768C57.0134 6.55934 57.0133 5.68336 57.03 4.74899C57.0467 3.63943 57.0717 2.54655 57.0717 2.38804C57.0717 2.29627 56.9967 2.21284 56.9049 2.2045C56.8131 2.19616 56.7214 2.2629 56.7047 2.35467L56.6713 2.51318C56.5628 3.03042 56.3876 3.90639 56.1958 4.74065L56.0289 5.43309C55.9121 5.9253 55.812 6.35077 55.7703 6.54265C55.762 6.58436 55.7453 6.60105 55.7369 6.60105C55.7286 6.60105 55.7119 6.58436 55.7036 6.54265C55.6618 6.34243 55.5534 5.90027 55.4366 5.39972L55.2781 4.74065C55.0779 3.8897 54.9027 3.01373 54.7942 2.4798L54.7692 2.35467C54.7525 2.2629 54.6607 2.19616 54.569 2.2045C54.4772 2.21284 54.4021 2.29627 54.4021 2.38804L54.4438 4.74899C54.4605 5.68336 54.4605 6.55934 54.4605 6.56768C54.4605 6.62608 54.4522 6.64276 54.4522 6.65111C54.4438 6.65111 54.4271 6.64276 54.4105 6.60105L54.3938 6.56768C54.1268 6.05878 53.7681 5.34966 53.4594 4.72396L52.8921 3.57269L52.7253 3.23064C52.6835 3.13887 52.5751 3.1055 52.4833 3.13887C52.3915 3.17224 52.3498 3.27235 52.3749 3.36412C52.5083 3.87302 52.8587 5.2996 52.9839 5.8669C53.4928 8.1194 54.2186 11.4398 54.2269 11.4731L54.2353 11.5148H57.2303L57.2386 11.4731C57.2469 11.4398 57.9727 8.12775 58.4816 5.8669C58.6068 5.30795 58.9572 3.87302 59.0907 3.36412C59.124 3.27235 59.074 3.17224 58.9822 3.13887Z" fill="black"/>
</svg>
